G75*
%MOIN*%
%OFA0B0*%
%FSLAX25Y25*%
%IPPOS*%
%LPD*%
%AMOC8*
5,1,8,0,0,1.08239X$1,22.5*
%
%ADD10R,0.07000X0.07000*%
%ADD11C,0.07000*%
%ADD12R,0.03937X0.07874*%
%ADD13R,0.07874X0.03937*%
%ADD14C,0.06600*%
%ADD15C,0.01600*%
%ADD16C,0.06337*%
%ADD17C,0.06000*%
%ADD18C,0.05000*%
%ADD19C,0.00600*%
%ADD20C,0.03378*%
%ADD21C,0.01200*%
D10*
X0151433Y0136433D03*
D11*
X0151433Y0126433D03*
X0151433Y0116433D03*
X0151433Y0106433D03*
X0161433Y0106433D03*
X0161433Y0116433D03*
X0161433Y0126433D03*
X0161433Y0136433D03*
X0171433Y0136433D03*
X0171433Y0126433D03*
X0171433Y0116433D03*
X0171433Y0106433D03*
D12*
X0167929Y0060350D03*
X0160055Y0060350D03*
X0152181Y0060350D03*
X0144307Y0060350D03*
X0136433Y0060350D03*
X0128559Y0060350D03*
X0120685Y0060350D03*
X0112811Y0060350D03*
X0104937Y0060350D03*
X0097063Y0060350D03*
X0089189Y0060350D03*
X0175803Y0060350D03*
X0183677Y0060350D03*
X0183677Y0239484D03*
X0175803Y0239484D03*
X0167929Y0239484D03*
X0160055Y0239484D03*
X0112811Y0239484D03*
X0104937Y0239484D03*
X0097063Y0239484D03*
X0089189Y0239484D03*
D13*
X0077378Y0223933D03*
X0077378Y0213933D03*
X0077378Y0203933D03*
X0077378Y0193933D03*
X0077378Y0183933D03*
X0077378Y0173933D03*
X0077378Y0163933D03*
X0077378Y0153933D03*
X0077378Y0143933D03*
X0077378Y0133933D03*
X0077378Y0123933D03*
X0077378Y0113933D03*
X0077378Y0103933D03*
X0077378Y0093933D03*
X0077378Y0083933D03*
X0077378Y0073933D03*
X0195488Y0073933D03*
X0195488Y0083933D03*
X0195488Y0093933D03*
X0195488Y0103933D03*
X0195488Y0113933D03*
X0195488Y0123933D03*
X0195488Y0133933D03*
X0195488Y0143933D03*
X0195488Y0153933D03*
X0195488Y0163933D03*
X0195488Y0173933D03*
X0195488Y0183933D03*
X0195488Y0193933D03*
X0195488Y0203933D03*
X0195488Y0213933D03*
X0195488Y0223933D03*
D14*
X0194733Y0223933D02*
X0188133Y0223933D01*
X0188133Y0213933D02*
X0194733Y0213933D01*
X0194733Y0203933D02*
X0188133Y0203933D01*
X0188133Y0193933D02*
X0194733Y0193933D01*
X0194733Y0183933D02*
X0188133Y0183933D01*
X0188133Y0173933D02*
X0194733Y0173933D01*
X0194733Y0163933D02*
X0188133Y0163933D01*
X0188133Y0153933D02*
X0194733Y0153933D01*
X0194733Y0143933D02*
X0188133Y0143933D01*
X0188133Y0133933D02*
X0194733Y0133933D01*
X0194733Y0123933D02*
X0188133Y0123933D01*
X0188133Y0113933D02*
X0194733Y0113933D01*
X0194733Y0103933D02*
X0188133Y0103933D01*
X0188133Y0093933D02*
X0194733Y0093933D01*
X0194733Y0083933D02*
X0188133Y0083933D01*
X0188133Y0073933D02*
X0194733Y0073933D01*
X0084733Y0073933D02*
X0078133Y0073933D01*
X0078133Y0083933D02*
X0084733Y0083933D01*
X0084733Y0093933D02*
X0078133Y0093933D01*
X0078133Y0103933D02*
X0084733Y0103933D01*
X0084733Y0113933D02*
X0078133Y0113933D01*
X0078133Y0123933D02*
X0084733Y0123933D01*
X0084733Y0133933D02*
X0078133Y0133933D01*
X0078133Y0143933D02*
X0084733Y0143933D01*
X0084733Y0153933D02*
X0078133Y0153933D01*
X0078133Y0163933D02*
X0084733Y0163933D01*
X0084733Y0173933D02*
X0078133Y0173933D01*
X0078133Y0183933D02*
X0084733Y0183933D01*
X0084733Y0193933D02*
X0078133Y0193933D01*
X0078133Y0203933D02*
X0084733Y0203933D01*
X0084733Y0213933D02*
X0078133Y0213933D01*
X0078133Y0223933D02*
X0084733Y0223933D01*
D15*
X0123933Y0213933D02*
X0123933Y0211433D01*
X0123933Y0213933D02*
X0195488Y0213933D01*
X0081433Y0153933D02*
X0076433Y0153933D01*
X0076433Y0143933D02*
X0081433Y0143933D01*
X0081433Y0133933D02*
X0076433Y0133933D01*
X0076433Y0123933D02*
X0081433Y0123933D01*
X0081433Y0113933D02*
X0076433Y0113933D01*
D16*
X0093558Y0082552D02*
X0093558Y0076215D01*
X0103558Y0076215D02*
X0103558Y0082552D01*
X0119083Y0082102D02*
X0119083Y0075765D01*
X0129083Y0075765D02*
X0129083Y0082102D01*
D17*
X0151515Y0091228D02*
X0151515Y0097228D01*
X0161515Y0097228D02*
X0161515Y0091228D01*
D18*
X0161433Y0093933D02*
X0161433Y0106433D01*
X0161433Y0116433D01*
X0161433Y0126433D01*
X0161433Y0136433D01*
X0161433Y0153933D01*
X0195488Y0153933D01*
X0170232Y0161000D02*
X0170232Y0193500D01*
X0195488Y0193933D01*
X0170232Y0161000D02*
X0128933Y0161433D01*
X0129083Y0078933D01*
D19*
X0070183Y0053933D02*
X0070183Y0247683D01*
X0202683Y0247683D01*
X0202683Y0053933D01*
X0070183Y0053933D01*
X0070183Y0053959D02*
X0202683Y0053959D01*
X0202683Y0054557D02*
X0070183Y0054557D01*
X0070183Y0055156D02*
X0181379Y0055156D01*
X0181537Y0055113D02*
X0183377Y0055113D01*
X0183377Y0060050D01*
X0183977Y0060050D01*
X0183977Y0055113D01*
X0185817Y0055113D01*
X0186147Y0055202D01*
X0186444Y0055373D01*
X0186686Y0055615D01*
X0186857Y0055912D01*
X0186946Y0056242D01*
X0186946Y0060050D01*
X0183977Y0060050D01*
X0183977Y0060650D01*
X0186946Y0060650D01*
X0186946Y0064459D01*
X0186857Y0064789D01*
X0186686Y0065086D01*
X0186444Y0065328D01*
X0186147Y0065499D01*
X0185817Y0065587D01*
X0183977Y0065587D01*
X0183977Y0060650D01*
X0183377Y0060650D01*
X0183377Y0060050D01*
X0180409Y0060050D01*
X0180409Y0056242D01*
X0180497Y0055912D01*
X0180668Y0055615D01*
X0180910Y0055373D01*
X0181207Y0055202D01*
X0181537Y0055113D01*
X0180588Y0055754D02*
X0178668Y0055754D01*
X0178872Y0055958D02*
X0178872Y0064743D01*
X0178227Y0065387D01*
X0173379Y0065387D01*
X0172735Y0064743D01*
X0172735Y0055958D01*
X0173379Y0055313D01*
X0178227Y0055313D01*
X0178872Y0055958D01*
X0178872Y0056353D02*
X0180409Y0056353D01*
X0180409Y0056951D02*
X0178872Y0056951D01*
X0178872Y0057550D02*
X0180409Y0057550D01*
X0180409Y0058148D02*
X0178872Y0058148D01*
X0178872Y0058747D02*
X0180409Y0058747D01*
X0180409Y0059345D02*
X0178872Y0059345D01*
X0178872Y0059944D02*
X0180409Y0059944D01*
X0180409Y0060650D02*
X0180409Y0064459D01*
X0180497Y0064789D01*
X0180668Y0065086D01*
X0180910Y0065328D01*
X0181207Y0065499D01*
X0181537Y0065587D01*
X0183377Y0065587D01*
X0183377Y0060650D01*
X0180409Y0060650D01*
X0180409Y0061141D02*
X0178872Y0061141D01*
X0178872Y0060543D02*
X0183377Y0060543D01*
X0183377Y0061141D02*
X0183977Y0061141D01*
X0183977Y0060543D02*
X0202683Y0060543D01*
X0202683Y0061141D02*
X0186946Y0061141D01*
X0186946Y0061740D02*
X0202683Y0061740D01*
X0202683Y0062338D02*
X0186946Y0062338D01*
X0186946Y0062937D02*
X0202683Y0062937D01*
X0202683Y0063535D02*
X0186946Y0063535D01*
X0186946Y0064134D02*
X0202683Y0064134D01*
X0202683Y0064732D02*
X0186872Y0064732D01*
X0186439Y0065331D02*
X0202683Y0065331D01*
X0202683Y0065929D02*
X0070183Y0065929D01*
X0070183Y0065331D02*
X0086708Y0065331D01*
X0086765Y0065387D02*
X0086120Y0064743D01*
X0086120Y0055958D01*
X0086765Y0055313D01*
X0091613Y0055313D01*
X0092257Y0055958D01*
X0092257Y0064743D01*
X0091613Y0065387D01*
X0086765Y0065387D01*
X0086120Y0064732D02*
X0070183Y0064732D01*
X0070183Y0064134D02*
X0086120Y0064134D01*
X0086120Y0063535D02*
X0070183Y0063535D01*
X0070183Y0062937D02*
X0086120Y0062937D01*
X0086120Y0062338D02*
X0070183Y0062338D01*
X0070183Y0061740D02*
X0086120Y0061740D01*
X0086120Y0061141D02*
X0070183Y0061141D01*
X0070183Y0060543D02*
X0086120Y0060543D01*
X0086120Y0059944D02*
X0070183Y0059944D01*
X0070183Y0059345D02*
X0086120Y0059345D01*
X0086120Y0058747D02*
X0070183Y0058747D01*
X0070183Y0058148D02*
X0086120Y0058148D01*
X0086120Y0057550D02*
X0070183Y0057550D01*
X0070183Y0056951D02*
X0086120Y0056951D01*
X0086120Y0056353D02*
X0070183Y0056353D01*
X0070183Y0055754D02*
X0086324Y0055754D01*
X0092054Y0055754D02*
X0094198Y0055754D01*
X0093994Y0055958D02*
X0094639Y0055313D01*
X0099487Y0055313D01*
X0100131Y0055958D01*
X0100131Y0064743D01*
X0099487Y0065387D01*
X0094639Y0065387D01*
X0093994Y0064743D01*
X0093994Y0055958D01*
X0093994Y0056353D02*
X0092257Y0056353D01*
X0092257Y0056951D02*
X0093994Y0056951D01*
X0093994Y0057550D02*
X0092257Y0057550D01*
X0092257Y0058148D02*
X0093994Y0058148D01*
X0093994Y0058747D02*
X0092257Y0058747D01*
X0092257Y0059345D02*
X0093994Y0059345D01*
X0093994Y0059944D02*
X0092257Y0059944D01*
X0092257Y0060543D02*
X0093994Y0060543D01*
X0093994Y0061141D02*
X0092257Y0061141D01*
X0092257Y0061740D02*
X0093994Y0061740D01*
X0093994Y0062338D02*
X0092257Y0062338D01*
X0092257Y0062937D02*
X0093994Y0062937D01*
X0093994Y0063535D02*
X0092257Y0063535D01*
X0092257Y0064134D02*
X0093994Y0064134D01*
X0093994Y0064732D02*
X0092257Y0064732D01*
X0091670Y0065331D02*
X0094582Y0065331D01*
X0099544Y0065331D02*
X0102456Y0065331D01*
X0102513Y0065387D02*
X0101869Y0064743D01*
X0101869Y0055958D01*
X0102513Y0055313D01*
X0107361Y0055313D01*
X0108005Y0055958D01*
X0108005Y0064743D01*
X0107361Y0065387D01*
X0102513Y0065387D01*
X0101869Y0064732D02*
X0100131Y0064732D01*
X0100131Y0064134D02*
X0101869Y0064134D01*
X0101869Y0063535D02*
X0100131Y0063535D01*
X0100131Y0062937D02*
X0101869Y0062937D01*
X0101869Y0062338D02*
X0100131Y0062338D01*
X0100131Y0061740D02*
X0101869Y0061740D01*
X0101869Y0061141D02*
X0100131Y0061141D01*
X0100131Y0060543D02*
X0101869Y0060543D01*
X0101869Y0059944D02*
X0100131Y0059944D01*
X0100131Y0059345D02*
X0101869Y0059345D01*
X0101869Y0058747D02*
X0100131Y0058747D01*
X0100131Y0058148D02*
X0101869Y0058148D01*
X0101869Y0057550D02*
X0100131Y0057550D01*
X0100131Y0056951D02*
X0101869Y0056951D01*
X0101869Y0056353D02*
X0100131Y0056353D01*
X0099928Y0055754D02*
X0102072Y0055754D01*
X0107802Y0055754D02*
X0109946Y0055754D01*
X0109743Y0055958D02*
X0110387Y0055313D01*
X0115235Y0055313D01*
X0115880Y0055958D01*
X0115880Y0064743D01*
X0115235Y0065387D01*
X0110387Y0065387D01*
X0109743Y0064743D01*
X0109743Y0055958D01*
X0109743Y0056353D02*
X0108005Y0056353D01*
X0108005Y0056951D02*
X0109743Y0056951D01*
X0109743Y0057550D02*
X0108005Y0057550D01*
X0108005Y0058148D02*
X0109743Y0058148D01*
X0109743Y0058747D02*
X0108005Y0058747D01*
X0108005Y0059345D02*
X0109743Y0059345D01*
X0109743Y0059944D02*
X0108005Y0059944D01*
X0108005Y0060543D02*
X0109743Y0060543D01*
X0109743Y0061141D02*
X0108005Y0061141D01*
X0108005Y0061740D02*
X0109743Y0061740D01*
X0109743Y0062338D02*
X0108005Y0062338D01*
X0108005Y0062937D02*
X0109743Y0062937D01*
X0109743Y0063535D02*
X0108005Y0063535D01*
X0108005Y0064134D02*
X0109743Y0064134D01*
X0109743Y0064732D02*
X0108005Y0064732D01*
X0107418Y0065331D02*
X0110330Y0065331D01*
X0115292Y0065331D02*
X0118204Y0065331D01*
X0118261Y0065387D02*
X0117617Y0064743D01*
X0117617Y0055958D01*
X0118261Y0055313D01*
X0123109Y0055313D01*
X0123754Y0055958D01*
X0123754Y0064743D01*
X0123109Y0065387D01*
X0118261Y0065387D01*
X0117617Y0064732D02*
X0115880Y0064732D01*
X0115880Y0064134D02*
X0117617Y0064134D01*
X0117617Y0063535D02*
X0115880Y0063535D01*
X0115880Y0062937D02*
X0117617Y0062937D01*
X0117617Y0062338D02*
X0115880Y0062338D01*
X0115880Y0061740D02*
X0117617Y0061740D01*
X0117617Y0061141D02*
X0115880Y0061141D01*
X0115880Y0060543D02*
X0117617Y0060543D01*
X0117617Y0059944D02*
X0115880Y0059944D01*
X0115880Y0059345D02*
X0117617Y0059345D01*
X0117617Y0058747D02*
X0115880Y0058747D01*
X0115880Y0058148D02*
X0117617Y0058148D01*
X0117617Y0057550D02*
X0115880Y0057550D01*
X0115880Y0056951D02*
X0117617Y0056951D01*
X0117617Y0056353D02*
X0115880Y0056353D01*
X0115676Y0055754D02*
X0117820Y0055754D01*
X0123550Y0055754D02*
X0125694Y0055754D01*
X0125491Y0055958D02*
X0126135Y0055313D01*
X0130983Y0055313D01*
X0131628Y0055958D01*
X0131628Y0064743D01*
X0130983Y0065387D01*
X0126135Y0065387D01*
X0125491Y0064743D01*
X0125491Y0055958D01*
X0125491Y0056353D02*
X0123754Y0056353D01*
X0123754Y0056951D02*
X0125491Y0056951D01*
X0125491Y0057550D02*
X0123754Y0057550D01*
X0123754Y0058148D02*
X0125491Y0058148D01*
X0125491Y0058747D02*
X0123754Y0058747D01*
X0123754Y0059345D02*
X0125491Y0059345D01*
X0125491Y0059944D02*
X0123754Y0059944D01*
X0123754Y0060543D02*
X0125491Y0060543D01*
X0125491Y0061141D02*
X0123754Y0061141D01*
X0123754Y0061740D02*
X0125491Y0061740D01*
X0125491Y0062338D02*
X0123754Y0062338D01*
X0123754Y0062937D02*
X0125491Y0062937D01*
X0125491Y0063535D02*
X0123754Y0063535D01*
X0123754Y0064134D02*
X0125491Y0064134D01*
X0125491Y0064732D02*
X0123754Y0064732D01*
X0123166Y0065331D02*
X0126078Y0065331D01*
X0131040Y0065331D02*
X0133952Y0065331D01*
X0134009Y0065387D02*
X0133365Y0064743D01*
X0133365Y0055958D01*
X0134009Y0055313D01*
X0138857Y0055313D01*
X0139502Y0055958D01*
X0139502Y0064743D01*
X0138857Y0065387D01*
X0134009Y0065387D01*
X0133365Y0064732D02*
X0131628Y0064732D01*
X0131628Y0064134D02*
X0133365Y0064134D01*
X0133365Y0063535D02*
X0131628Y0063535D01*
X0131628Y0062937D02*
X0133365Y0062937D01*
X0133365Y0062338D02*
X0131628Y0062338D01*
X0131628Y0061740D02*
X0133365Y0061740D01*
X0133365Y0061141D02*
X0131628Y0061141D01*
X0131628Y0060543D02*
X0133365Y0060543D01*
X0133365Y0059944D02*
X0131628Y0059944D01*
X0131628Y0059345D02*
X0133365Y0059345D01*
X0133365Y0058747D02*
X0131628Y0058747D01*
X0131628Y0058148D02*
X0133365Y0058148D01*
X0133365Y0057550D02*
X0131628Y0057550D01*
X0131628Y0056951D02*
X0133365Y0056951D01*
X0133365Y0056353D02*
X0131628Y0056353D01*
X0131424Y0055754D02*
X0133568Y0055754D01*
X0139298Y0055754D02*
X0141442Y0055754D01*
X0141239Y0055958D02*
X0141883Y0055313D01*
X0146731Y0055313D01*
X0147376Y0055958D01*
X0147376Y0064743D01*
X0146731Y0065387D01*
X0141883Y0065387D01*
X0141239Y0064743D01*
X0141239Y0055958D01*
X0141239Y0056353D02*
X0139502Y0056353D01*
X0139502Y0056951D02*
X0141239Y0056951D01*
X0141239Y0057550D02*
X0139502Y0057550D01*
X0139502Y0058148D02*
X0141239Y0058148D01*
X0141239Y0058747D02*
X0139502Y0058747D01*
X0139502Y0059345D02*
X0141239Y0059345D01*
X0141239Y0059944D02*
X0139502Y0059944D01*
X0139502Y0060543D02*
X0141239Y0060543D01*
X0141239Y0061141D02*
X0139502Y0061141D01*
X0139502Y0061740D02*
X0141239Y0061740D01*
X0141239Y0062338D02*
X0139502Y0062338D01*
X0139502Y0062937D02*
X0141239Y0062937D01*
X0141239Y0063535D02*
X0139502Y0063535D01*
X0139502Y0064134D02*
X0141239Y0064134D01*
X0141239Y0064732D02*
X0139502Y0064732D01*
X0138914Y0065331D02*
X0141826Y0065331D01*
X0146788Y0065331D02*
X0149700Y0065331D01*
X0149757Y0065387D02*
X0149113Y0064743D01*
X0149113Y0055958D01*
X0149757Y0055313D01*
X0154605Y0055313D01*
X0155250Y0055958D01*
X0155250Y0064743D01*
X0154605Y0065387D01*
X0149757Y0065387D01*
X0149113Y0064732D02*
X0147376Y0064732D01*
X0147376Y0064134D02*
X0149113Y0064134D01*
X0149113Y0063535D02*
X0147376Y0063535D01*
X0147376Y0062937D02*
X0149113Y0062937D01*
X0149113Y0062338D02*
X0147376Y0062338D01*
X0147376Y0061740D02*
X0149113Y0061740D01*
X0149113Y0061141D02*
X0147376Y0061141D01*
X0147376Y0060543D02*
X0149113Y0060543D01*
X0149113Y0059944D02*
X0147376Y0059944D01*
X0147376Y0059345D02*
X0149113Y0059345D01*
X0149113Y0058747D02*
X0147376Y0058747D01*
X0147376Y0058148D02*
X0149113Y0058148D01*
X0149113Y0057550D02*
X0147376Y0057550D01*
X0147376Y0056951D02*
X0149113Y0056951D01*
X0149113Y0056353D02*
X0147376Y0056353D01*
X0147172Y0055754D02*
X0149316Y0055754D01*
X0155046Y0055754D02*
X0157190Y0055754D01*
X0156987Y0055958D02*
X0157631Y0055313D01*
X0162479Y0055313D01*
X0163124Y0055958D01*
X0163124Y0064743D01*
X0162479Y0065387D01*
X0157631Y0065387D01*
X0156987Y0064743D01*
X0156987Y0055958D01*
X0156987Y0056353D02*
X0155250Y0056353D01*
X0155250Y0056951D02*
X0156987Y0056951D01*
X0156987Y0057550D02*
X0155250Y0057550D01*
X0155250Y0058148D02*
X0156987Y0058148D01*
X0156987Y0058747D02*
X0155250Y0058747D01*
X0155250Y0059345D02*
X0156987Y0059345D01*
X0156987Y0059944D02*
X0155250Y0059944D01*
X0155250Y0060543D02*
X0156987Y0060543D01*
X0156987Y0061141D02*
X0155250Y0061141D01*
X0155250Y0061740D02*
X0156987Y0061740D01*
X0156987Y0062338D02*
X0155250Y0062338D01*
X0155250Y0062937D02*
X0156987Y0062937D01*
X0156987Y0063535D02*
X0155250Y0063535D01*
X0155250Y0064134D02*
X0156987Y0064134D01*
X0156987Y0064732D02*
X0155250Y0064732D01*
X0154662Y0065331D02*
X0157574Y0065331D01*
X0162536Y0065331D02*
X0165448Y0065331D01*
X0165505Y0065387D02*
X0164861Y0064743D01*
X0164861Y0055958D01*
X0165505Y0055313D01*
X0170353Y0055313D01*
X0170998Y0055958D01*
X0170998Y0064743D01*
X0170353Y0065387D01*
X0165505Y0065387D01*
X0164861Y0064732D02*
X0163124Y0064732D01*
X0163124Y0064134D02*
X0164861Y0064134D01*
X0164861Y0063535D02*
X0163124Y0063535D01*
X0163124Y0062937D02*
X0164861Y0062937D01*
X0164861Y0062338D02*
X0163124Y0062338D01*
X0163124Y0061740D02*
X0164861Y0061740D01*
X0164861Y0061141D02*
X0163124Y0061141D01*
X0163124Y0060543D02*
X0164861Y0060543D01*
X0164861Y0059944D02*
X0163124Y0059944D01*
X0163124Y0059345D02*
X0164861Y0059345D01*
X0164861Y0058747D02*
X0163124Y0058747D01*
X0163124Y0058148D02*
X0164861Y0058148D01*
X0164861Y0057550D02*
X0163124Y0057550D01*
X0163124Y0056951D02*
X0164861Y0056951D01*
X0164861Y0056353D02*
X0163124Y0056353D01*
X0162920Y0055754D02*
X0165064Y0055754D01*
X0170794Y0055754D02*
X0172938Y0055754D01*
X0172735Y0056353D02*
X0170998Y0056353D01*
X0170998Y0056951D02*
X0172735Y0056951D01*
X0172735Y0057550D02*
X0170998Y0057550D01*
X0170998Y0058148D02*
X0172735Y0058148D01*
X0172735Y0058747D02*
X0170998Y0058747D01*
X0170998Y0059345D02*
X0172735Y0059345D01*
X0172735Y0059944D02*
X0170998Y0059944D01*
X0170998Y0060543D02*
X0172735Y0060543D01*
X0172735Y0061141D02*
X0170998Y0061141D01*
X0170998Y0061740D02*
X0172735Y0061740D01*
X0172735Y0062338D02*
X0170998Y0062338D01*
X0170998Y0062937D02*
X0172735Y0062937D01*
X0172735Y0063535D02*
X0170998Y0063535D01*
X0170998Y0064134D02*
X0172735Y0064134D01*
X0172735Y0064732D02*
X0170998Y0064732D01*
X0170410Y0065331D02*
X0173322Y0065331D01*
X0178284Y0065331D02*
X0180916Y0065331D01*
X0180482Y0064732D02*
X0178872Y0064732D01*
X0178872Y0064134D02*
X0180409Y0064134D01*
X0180409Y0063535D02*
X0178872Y0063535D01*
X0178872Y0062937D02*
X0180409Y0062937D01*
X0180409Y0062338D02*
X0178872Y0062338D01*
X0178872Y0061740D02*
X0180409Y0061740D01*
X0183377Y0061740D02*
X0183977Y0061740D01*
X0183977Y0062338D02*
X0183377Y0062338D01*
X0183377Y0062937D02*
X0183977Y0062937D01*
X0183977Y0063535D02*
X0183377Y0063535D01*
X0183377Y0064134D02*
X0183977Y0064134D01*
X0183977Y0064732D02*
X0183377Y0064732D01*
X0183377Y0065331D02*
X0183977Y0065331D01*
X0185844Y0070119D02*
X0087022Y0070119D01*
X0087225Y0070203D02*
X0088463Y0071441D01*
X0089133Y0073058D01*
X0089133Y0074808D01*
X0088463Y0076425D01*
X0087225Y0077663D01*
X0085608Y0078333D01*
X0077258Y0078333D01*
X0075641Y0077663D01*
X0074979Y0077002D01*
X0072985Y0077002D01*
X0072341Y0076357D01*
X0072341Y0071509D01*
X0072985Y0070865D01*
X0074979Y0070865D01*
X0075641Y0070203D01*
X0077258Y0069533D01*
X0085608Y0069533D01*
X0087225Y0070203D01*
X0087740Y0070717D02*
X0185126Y0070717D01*
X0185641Y0070203D02*
X0187258Y0069533D01*
X0195608Y0069533D01*
X0197225Y0070203D01*
X0197887Y0070865D01*
X0199881Y0070865D01*
X0200525Y0071509D01*
X0200525Y0076357D01*
X0199881Y0077002D01*
X0197887Y0077002D01*
X0197225Y0077663D01*
X0195608Y0078333D01*
X0187258Y0078333D01*
X0185641Y0077663D01*
X0184403Y0076425D01*
X0183733Y0074808D01*
X0183733Y0073058D01*
X0184403Y0071441D01*
X0185641Y0070203D01*
X0184528Y0071316D02*
X0119559Y0071316D01*
X0119435Y0071296D02*
X0120129Y0071406D01*
X0120798Y0071623D01*
X0121425Y0071943D01*
X0121994Y0072356D01*
X0122491Y0072854D01*
X0122905Y0073423D01*
X0123224Y0074049D01*
X0123442Y0074718D01*
X0123552Y0075413D01*
X0123552Y0078633D01*
X0119383Y0078633D01*
X0119383Y0071296D01*
X0119435Y0071296D01*
X0119383Y0071316D02*
X0118783Y0071316D01*
X0118783Y0071296D02*
X0118783Y0078633D01*
X0114615Y0078633D01*
X0114615Y0075413D01*
X0114725Y0074718D01*
X0114942Y0074049D01*
X0115261Y0073423D01*
X0115675Y0072854D01*
X0116172Y0072356D01*
X0116741Y0071943D01*
X0117368Y0071623D01*
X0118037Y0071406D01*
X0118731Y0071296D01*
X0118783Y0071296D01*
X0118607Y0071316D02*
X0088338Y0071316D01*
X0088659Y0071914D02*
X0092333Y0071914D01*
X0092512Y0071856D02*
X0093206Y0071746D01*
X0093258Y0071746D01*
X0093258Y0079083D01*
X0089090Y0079083D01*
X0089090Y0075863D01*
X0089200Y0075168D01*
X0089417Y0074499D01*
X0089736Y0073873D01*
X0090150Y0073304D01*
X0090647Y0072806D01*
X0091216Y0072393D01*
X0091843Y0072073D01*
X0092512Y0071856D01*
X0093258Y0071914D02*
X0093858Y0071914D01*
X0093858Y0071746D02*
X0093910Y0071746D01*
X0094604Y0071856D01*
X0095273Y0072073D01*
X0095900Y0072393D01*
X0096469Y0072806D01*
X0096966Y0073304D01*
X0097380Y0073873D01*
X0097699Y0074499D01*
X0097917Y0075168D01*
X0098027Y0075863D01*
X0098027Y0079083D01*
X0093858Y0079083D01*
X0093858Y0071746D01*
X0093858Y0072513D02*
X0093258Y0072513D01*
X0093258Y0073111D02*
X0093858Y0073111D01*
X0093858Y0073710D02*
X0093258Y0073710D01*
X0093258Y0074308D02*
X0093858Y0074308D01*
X0093858Y0074907D02*
X0093258Y0074907D01*
X0093258Y0075505D02*
X0093858Y0075505D01*
X0093858Y0076104D02*
X0093258Y0076104D01*
X0093258Y0076702D02*
X0093858Y0076702D01*
X0093858Y0077301D02*
X0093258Y0077301D01*
X0093258Y0077899D02*
X0093858Y0077899D01*
X0093858Y0078498D02*
X0093258Y0078498D01*
X0093258Y0079083D02*
X0093858Y0079083D01*
X0093858Y0079683D01*
X0093258Y0079683D01*
X0093258Y0079083D01*
X0093258Y0079096D02*
X0070183Y0079096D01*
X0070183Y0078498D02*
X0089090Y0078498D01*
X0089090Y0077899D02*
X0086655Y0077899D01*
X0087588Y0077301D02*
X0089090Y0077301D01*
X0089090Y0076702D02*
X0088186Y0076702D01*
X0088596Y0076104D02*
X0089090Y0076104D01*
X0089146Y0075505D02*
X0088844Y0075505D01*
X0089092Y0074907D02*
X0089285Y0074907D01*
X0089133Y0074308D02*
X0089514Y0074308D01*
X0089855Y0073710D02*
X0089133Y0073710D01*
X0089133Y0073111D02*
X0090342Y0073111D01*
X0091051Y0072513D02*
X0088907Y0072513D01*
X0089090Y0079683D02*
X0093258Y0079683D01*
X0093258Y0087020D01*
X0093206Y0087020D01*
X0092512Y0086910D01*
X0091843Y0086693D01*
X0091216Y0086373D01*
X0090647Y0085960D01*
X0090150Y0085463D01*
X0089736Y0084894D01*
X0089417Y0084267D01*
X0089200Y0083598D01*
X0089133Y0083178D01*
X0089133Y0084808D01*
X0088463Y0086425D01*
X0087225Y0087663D01*
X0085608Y0088333D01*
X0077258Y0088333D01*
X0075641Y0087663D01*
X0074979Y0087002D01*
X0072985Y0087002D01*
X0072341Y0086357D01*
X0072341Y0081509D01*
X0072985Y0080865D01*
X0074979Y0080865D01*
X0075641Y0080203D01*
X0077258Y0079533D01*
X0085608Y0079533D01*
X0087225Y0080203D01*
X0088463Y0081441D01*
X0089102Y0082984D01*
X0089090Y0082903D01*
X0089090Y0079683D01*
X0089090Y0079695D02*
X0085999Y0079695D01*
X0087316Y0080293D02*
X0089090Y0080293D01*
X0089090Y0080892D02*
X0087914Y0080892D01*
X0088484Y0081490D02*
X0089090Y0081490D01*
X0089090Y0082089D02*
X0088732Y0082089D01*
X0088980Y0082687D02*
X0089090Y0082687D01*
X0089133Y0083286D02*
X0089150Y0083286D01*
X0089133Y0083884D02*
X0089293Y0083884D01*
X0089133Y0084483D02*
X0089527Y0084483D01*
X0089873Y0085081D02*
X0089020Y0085081D01*
X0088772Y0085680D02*
X0090367Y0085680D01*
X0091085Y0086279D02*
X0088524Y0086279D01*
X0088012Y0086877D02*
X0092410Y0086877D01*
X0093258Y0086877D02*
X0093858Y0086877D01*
X0093858Y0087020D02*
X0093858Y0079683D01*
X0098027Y0079683D01*
X0098027Y0082903D01*
X0097917Y0083598D01*
X0097699Y0084267D01*
X0097380Y0084894D01*
X0096966Y0085463D01*
X0096469Y0085960D01*
X0095900Y0086373D01*
X0095273Y0086693D01*
X0094604Y0086910D01*
X0093910Y0087020D01*
X0093858Y0087020D01*
X0093858Y0086279D02*
X0093258Y0086279D01*
X0093258Y0085680D02*
X0093858Y0085680D01*
X0093858Y0085081D02*
X0093258Y0085081D01*
X0093258Y0084483D02*
X0093858Y0084483D01*
X0093858Y0083884D02*
X0093258Y0083884D01*
X0093258Y0083286D02*
X0093858Y0083286D01*
X0093858Y0082687D02*
X0093258Y0082687D01*
X0093258Y0082089D02*
X0093858Y0082089D01*
X0093858Y0081490D02*
X0093258Y0081490D01*
X0093258Y0080892D02*
X0093858Y0080892D01*
X0093858Y0080293D02*
X0093258Y0080293D01*
X0093258Y0079695D02*
X0093858Y0079695D01*
X0093858Y0079096D02*
X0099290Y0079096D01*
X0099290Y0078498D02*
X0098027Y0078498D01*
X0098027Y0077899D02*
X0099290Y0077899D01*
X0099290Y0077301D02*
X0098027Y0077301D01*
X0098027Y0076702D02*
X0099290Y0076702D01*
X0099290Y0076104D02*
X0098027Y0076104D01*
X0097970Y0075505D02*
X0099290Y0075505D01*
X0099290Y0075366D02*
X0099939Y0073797D01*
X0101140Y0072596D01*
X0102709Y0071946D01*
X0104407Y0071946D01*
X0105976Y0072596D01*
X0107177Y0073797D01*
X0107827Y0075366D01*
X0107827Y0083401D01*
X0107177Y0084969D01*
X0105976Y0086170D01*
X0104407Y0086820D01*
X0102709Y0086820D01*
X0101140Y0086170D01*
X0099939Y0084969D01*
X0099290Y0083401D01*
X0099290Y0075366D01*
X0099480Y0074907D02*
X0097832Y0074907D01*
X0097602Y0074308D02*
X0099727Y0074308D01*
X0100026Y0073710D02*
X0097262Y0073710D01*
X0096774Y0073111D02*
X0100625Y0073111D01*
X0101341Y0072513D02*
X0096065Y0072513D01*
X0094783Y0071914D02*
X0116797Y0071914D01*
X0116015Y0072513D02*
X0105775Y0072513D01*
X0106491Y0073111D02*
X0115487Y0073111D01*
X0115115Y0073710D02*
X0107090Y0073710D01*
X0107389Y0074308D02*
X0114858Y0074308D01*
X0114695Y0074907D02*
X0107637Y0074907D01*
X0107827Y0075505D02*
X0114615Y0075505D01*
X0114615Y0076104D02*
X0107827Y0076104D01*
X0107827Y0076702D02*
X0114615Y0076702D01*
X0114615Y0077301D02*
X0107827Y0077301D01*
X0107827Y0077899D02*
X0114615Y0077899D01*
X0114615Y0078498D02*
X0107827Y0078498D01*
X0107827Y0079096D02*
X0118783Y0079096D01*
X0118783Y0079233D02*
X0118783Y0078633D01*
X0119383Y0078633D01*
X0119383Y0079233D01*
X0118783Y0079233D01*
X0114615Y0079233D01*
X0114615Y0082453D01*
X0114725Y0083148D01*
X0114942Y0083817D01*
X0115261Y0084444D01*
X0115675Y0085013D01*
X0116172Y0085510D01*
X0116741Y0085923D01*
X0117368Y0086243D01*
X0118037Y0086460D01*
X0118731Y0086570D01*
X0118783Y0086570D01*
X0118783Y0079233D01*
X0118783Y0079695D02*
X0119383Y0079695D01*
X0119383Y0079233D02*
X0119383Y0086570D01*
X0119435Y0086570D01*
X0120129Y0086460D01*
X0120798Y0086243D01*
X0121425Y0085923D01*
X0121994Y0085510D01*
X0122491Y0085013D01*
X0122905Y0084444D01*
X0123224Y0083817D01*
X0123442Y0083148D01*
X0123552Y0082453D01*
X0123552Y0079233D01*
X0119383Y0079233D01*
X0119383Y0079096D02*
X0124815Y0079096D01*
X0124815Y0078498D02*
X0123552Y0078498D01*
X0123552Y0077899D02*
X0124815Y0077899D01*
X0124815Y0077301D02*
X0123552Y0077301D01*
X0123552Y0076702D02*
X0124815Y0076702D01*
X0124815Y0076104D02*
X0123552Y0076104D01*
X0123552Y0075505D02*
X0124815Y0075505D01*
X0124815Y0074916D02*
X0125464Y0073347D01*
X0126665Y0072146D01*
X0128234Y0071496D01*
X0129932Y0071496D01*
X0131501Y0072146D01*
X0132702Y0073347D01*
X0133352Y0074916D01*
X0133352Y0082951D01*
X0132702Y0084519D01*
X0132673Y0084548D01*
X0132540Y0157795D01*
X0160638Y0157500D01*
X0159394Y0156985D01*
X0158381Y0155972D01*
X0157833Y0154649D01*
X0157833Y0139338D01*
X0157533Y0139039D01*
X0156833Y0137348D01*
X0156833Y0135518D01*
X0157533Y0133827D01*
X0157833Y0133528D01*
X0157833Y0129338D01*
X0157533Y0129039D01*
X0156833Y0127348D01*
X0156833Y0125518D01*
X0157533Y0123827D01*
X0157833Y0123528D01*
X0157833Y0119338D01*
X0157533Y0119039D01*
X0156833Y0117348D01*
X0156833Y0115518D01*
X0157533Y0113827D01*
X0157833Y0113528D01*
X0157833Y0109338D01*
X0157533Y0109039D01*
X0156833Y0107348D01*
X0156833Y0105518D01*
X0157533Y0103827D01*
X0157833Y0103528D01*
X0157833Y0099053D01*
X0157415Y0098043D01*
X0157415Y0090412D01*
X0158039Y0088905D01*
X0159192Y0087752D01*
X0160699Y0087128D01*
X0162330Y0087128D01*
X0163837Y0087752D01*
X0164991Y0088905D01*
X0165615Y0090412D01*
X0165615Y0098043D01*
X0165033Y0099448D01*
X0165033Y0103528D01*
X0165333Y0103827D01*
X0166033Y0105518D01*
X0166033Y0107348D01*
X0165333Y0109039D01*
X0165033Y0109338D01*
X0165033Y0113528D01*
X0165333Y0113827D01*
X0166033Y0115518D01*
X0166033Y0117348D01*
X0165333Y0119039D01*
X0165033Y0119338D01*
X0165033Y0123528D01*
X0165333Y0123827D01*
X0166033Y0125518D01*
X0166033Y0127348D01*
X0165333Y0129039D01*
X0165033Y0129338D01*
X0165033Y0133528D01*
X0165333Y0133827D01*
X0166033Y0135518D01*
X0166033Y0137348D01*
X0165333Y0139039D01*
X0165033Y0139338D01*
X0165033Y0150333D01*
X0185511Y0150333D01*
X0185641Y0150203D01*
X0187258Y0149533D01*
X0195608Y0149533D01*
X0197225Y0150203D01*
X0197887Y0150865D01*
X0199881Y0150865D01*
X0200525Y0151509D01*
X0200525Y0156357D01*
X0199881Y0157002D01*
X0197887Y0157002D01*
X0197225Y0157663D01*
X0195608Y0158333D01*
X0187258Y0158333D01*
X0185641Y0157663D01*
X0185511Y0157533D01*
X0171270Y0157533D01*
X0171592Y0157667D01*
X0172239Y0157927D01*
X0172253Y0157941D01*
X0172272Y0157948D01*
X0172765Y0158441D01*
X0173263Y0158929D01*
X0173270Y0158947D01*
X0173284Y0158961D01*
X0173551Y0159605D01*
X0173825Y0160246D01*
X0173825Y0160266D01*
X0173832Y0160284D01*
X0173832Y0160981D01*
X0173840Y0161678D01*
X0173832Y0161696D01*
X0173832Y0189961D01*
X0185732Y0190165D01*
X0187258Y0189533D01*
X0195608Y0189533D01*
X0197225Y0190203D01*
X0197887Y0190865D01*
X0199881Y0190865D01*
X0200525Y0191509D01*
X0200525Y0196357D01*
X0199881Y0197002D01*
X0197887Y0197002D01*
X0197225Y0197663D01*
X0195608Y0198333D01*
X0187258Y0198333D01*
X0185641Y0197663D01*
X0185337Y0197360D01*
X0170201Y0197100D01*
X0169516Y0197100D01*
X0169487Y0197088D01*
X0169455Y0197087D01*
X0168826Y0196814D01*
X0168193Y0196552D01*
X0168170Y0196529D01*
X0168141Y0196517D01*
X0167665Y0196024D01*
X0167180Y0195539D01*
X0167168Y0195510D01*
X0167146Y0195487D01*
X0166894Y0194849D01*
X0166632Y0194216D01*
X0166632Y0194184D01*
X0166621Y0194154D01*
X0166632Y0193469D01*
X0166632Y0164638D01*
X0129664Y0165026D01*
X0129643Y0165034D01*
X0128948Y0165033D01*
X0128255Y0165040D01*
X0128233Y0165032D01*
X0128210Y0165032D01*
X0127570Y0164765D01*
X0126926Y0164506D01*
X0126910Y0164490D01*
X0126888Y0164481D01*
X0126399Y0163990D01*
X0125903Y0163504D01*
X0125894Y0163483D01*
X0125877Y0163467D01*
X0125613Y0162826D01*
X0125341Y0162187D01*
X0125341Y0162164D01*
X0125332Y0162143D01*
X0125333Y0161449D01*
X0125326Y0160755D01*
X0125334Y0160733D01*
X0125473Y0084528D01*
X0125464Y0084519D01*
X0124815Y0082951D01*
X0124815Y0074916D01*
X0124818Y0074907D02*
X0123471Y0074907D01*
X0123308Y0074308D02*
X0125066Y0074308D01*
X0125314Y0073710D02*
X0123051Y0073710D01*
X0122679Y0073111D02*
X0125700Y0073111D01*
X0126298Y0072513D02*
X0122151Y0072513D01*
X0121369Y0071914D02*
X0127224Y0071914D01*
X0130942Y0071914D02*
X0184207Y0071914D01*
X0183959Y0072513D02*
X0131868Y0072513D01*
X0132466Y0073111D02*
X0183733Y0073111D01*
X0183733Y0073710D02*
X0132852Y0073710D01*
X0133100Y0074308D02*
X0183733Y0074308D01*
X0183774Y0074907D02*
X0133348Y0074907D01*
X0133352Y0075505D02*
X0184022Y0075505D01*
X0184270Y0076104D02*
X0133352Y0076104D01*
X0133352Y0076702D02*
X0184680Y0076702D01*
X0185278Y0077301D02*
X0133352Y0077301D01*
X0133352Y0077899D02*
X0186211Y0077899D01*
X0186867Y0079695D02*
X0133352Y0079695D01*
X0133352Y0080293D02*
X0185550Y0080293D01*
X0185641Y0080203D02*
X0187258Y0079533D01*
X0195608Y0079533D01*
X0197225Y0080203D01*
X0197887Y0080865D01*
X0199881Y0080865D01*
X0200525Y0081509D01*
X0200525Y0086357D01*
X0199881Y0087002D01*
X0197887Y0087002D01*
X0197225Y0087663D01*
X0195608Y0088333D01*
X0187258Y0088333D01*
X0185641Y0087663D01*
X0184403Y0086425D01*
X0183733Y0084808D01*
X0183733Y0083058D01*
X0184403Y0081441D01*
X0185641Y0080203D01*
X0184952Y0080892D02*
X0133352Y0080892D01*
X0133352Y0081490D02*
X0184382Y0081490D01*
X0184134Y0082089D02*
X0133352Y0082089D01*
X0133352Y0082687D02*
X0183886Y0082687D01*
X0183733Y0083286D02*
X0133213Y0083286D01*
X0132965Y0083884D02*
X0183733Y0083884D01*
X0183733Y0084483D02*
X0132717Y0084483D01*
X0132672Y0085081D02*
X0183846Y0085081D01*
X0184094Y0085680D02*
X0132671Y0085680D01*
X0132670Y0086279D02*
X0184342Y0086279D01*
X0184854Y0086877D02*
X0132669Y0086877D01*
X0132668Y0087476D02*
X0149860Y0087476D01*
X0149192Y0087752D02*
X0150699Y0087128D01*
X0152330Y0087128D01*
X0153837Y0087752D01*
X0154991Y0088905D01*
X0155615Y0090412D01*
X0155615Y0098043D01*
X0154991Y0099550D01*
X0153837Y0100704D01*
X0152330Y0101328D01*
X0150699Y0101328D01*
X0149192Y0100704D01*
X0148039Y0099550D01*
X0147415Y0098043D01*
X0147415Y0090412D01*
X0148039Y0088905D01*
X0149192Y0087752D01*
X0148871Y0088074D02*
X0132666Y0088074D01*
X0132665Y0088673D02*
X0148272Y0088673D01*
X0147888Y0089271D02*
X0132664Y0089271D01*
X0132663Y0089870D02*
X0147640Y0089870D01*
X0147415Y0090468D02*
X0132662Y0090468D01*
X0132661Y0091067D02*
X0147415Y0091067D01*
X0147415Y0091665D02*
X0132660Y0091665D01*
X0132659Y0092264D02*
X0147415Y0092264D01*
X0147415Y0092862D02*
X0132658Y0092862D01*
X0132657Y0093461D02*
X0147415Y0093461D01*
X0147415Y0094059D02*
X0132656Y0094059D01*
X0132654Y0094658D02*
X0147415Y0094658D01*
X0147415Y0095256D02*
X0132653Y0095256D01*
X0132652Y0095855D02*
X0147415Y0095855D01*
X0147415Y0096453D02*
X0132651Y0096453D01*
X0132650Y0097052D02*
X0147415Y0097052D01*
X0147415Y0097650D02*
X0132649Y0097650D01*
X0132648Y0098249D02*
X0147500Y0098249D01*
X0147748Y0098847D02*
X0132647Y0098847D01*
X0132646Y0099446D02*
X0147996Y0099446D01*
X0148533Y0100044D02*
X0132645Y0100044D01*
X0132644Y0100643D02*
X0149132Y0100643D01*
X0150490Y0101241D02*
X0132643Y0101241D01*
X0132641Y0101840D02*
X0150502Y0101840D01*
X0150518Y0101833D02*
X0152348Y0101833D01*
X0154039Y0102533D01*
X0155333Y0103827D01*
X0156033Y0105518D01*
X0156033Y0107348D01*
X0155333Y0109039D01*
X0154039Y0110333D01*
X0152348Y0111033D01*
X0150518Y0111033D01*
X0148827Y0110333D01*
X0147533Y0109039D01*
X0146833Y0107348D01*
X0146833Y0105518D01*
X0147533Y0103827D01*
X0148827Y0102533D01*
X0150518Y0101833D01*
X0149057Y0102438D02*
X0132640Y0102438D01*
X0132639Y0103037D02*
X0148324Y0103037D01*
X0147725Y0103635D02*
X0132638Y0103635D01*
X0132637Y0104234D02*
X0147365Y0104234D01*
X0147117Y0104832D02*
X0132636Y0104832D01*
X0132635Y0105431D02*
X0146869Y0105431D01*
X0146833Y0106029D02*
X0132634Y0106029D01*
X0132633Y0106628D02*
X0146833Y0106628D01*
X0146833Y0107226D02*
X0132632Y0107226D01*
X0132631Y0107825D02*
X0147031Y0107825D01*
X0147279Y0108423D02*
X0132629Y0108423D01*
X0132628Y0109022D02*
X0147526Y0109022D01*
X0148115Y0109620D02*
X0132627Y0109620D01*
X0132626Y0110219D02*
X0148714Y0110219D01*
X0149998Y0110817D02*
X0132625Y0110817D01*
X0132624Y0111416D02*
X0157833Y0111416D01*
X0157833Y0112014D02*
X0152786Y0112014D01*
X0152348Y0111833D02*
X0154039Y0112533D01*
X0155333Y0113827D01*
X0156033Y0115518D01*
X0156033Y0117348D01*
X0155333Y0119039D01*
X0154039Y0120333D01*
X0152348Y0121033D01*
X0150518Y0121033D01*
X0148827Y0120333D01*
X0147533Y0119039D01*
X0146833Y0117348D01*
X0146833Y0115518D01*
X0147533Y0113827D01*
X0148827Y0112533D01*
X0150518Y0111833D01*
X0152348Y0111833D01*
X0152869Y0110817D02*
X0157833Y0110817D01*
X0157833Y0110219D02*
X0154153Y0110219D01*
X0154751Y0109620D02*
X0157833Y0109620D01*
X0157526Y0109022D02*
X0155340Y0109022D01*
X0155588Y0108423D02*
X0157279Y0108423D01*
X0157031Y0107825D02*
X0155836Y0107825D01*
X0156033Y0107226D02*
X0156833Y0107226D01*
X0156833Y0106628D02*
X0156033Y0106628D01*
X0156033Y0106029D02*
X0156833Y0106029D01*
X0156869Y0105431D02*
X0155997Y0105431D01*
X0155749Y0104832D02*
X0157117Y0104832D01*
X0157365Y0104234D02*
X0155501Y0104234D01*
X0155141Y0103635D02*
X0157725Y0103635D01*
X0157833Y0103037D02*
X0154542Y0103037D01*
X0153809Y0102438D02*
X0157833Y0102438D01*
X0157833Y0101840D02*
X0152364Y0101840D01*
X0152540Y0101241D02*
X0157833Y0101241D01*
X0157833Y0100643D02*
X0153898Y0100643D01*
X0154497Y0100044D02*
X0157833Y0100044D01*
X0157833Y0099446D02*
X0155034Y0099446D01*
X0155282Y0098847D02*
X0157748Y0098847D01*
X0157500Y0098249D02*
X0155530Y0098249D01*
X0155615Y0097650D02*
X0157415Y0097650D01*
X0157415Y0097052D02*
X0155615Y0097052D01*
X0155615Y0096453D02*
X0157415Y0096453D01*
X0157415Y0095855D02*
X0155615Y0095855D01*
X0155615Y0095256D02*
X0157415Y0095256D01*
X0157415Y0094658D02*
X0155615Y0094658D01*
X0155615Y0094059D02*
X0157415Y0094059D01*
X0157415Y0093461D02*
X0155615Y0093461D01*
X0155615Y0092862D02*
X0157415Y0092862D01*
X0157415Y0092264D02*
X0155615Y0092264D01*
X0155615Y0091665D02*
X0157415Y0091665D01*
X0157415Y0091067D02*
X0155615Y0091067D01*
X0155615Y0090468D02*
X0157415Y0090468D01*
X0157640Y0089870D02*
X0155390Y0089870D01*
X0155142Y0089271D02*
X0157888Y0089271D01*
X0158272Y0088673D02*
X0154758Y0088673D01*
X0154159Y0088074D02*
X0158871Y0088074D01*
X0159860Y0087476D02*
X0153170Y0087476D01*
X0163170Y0087476D02*
X0185453Y0087476D01*
X0186633Y0088074D02*
X0164159Y0088074D01*
X0164758Y0088673D02*
X0202683Y0088673D01*
X0202683Y0089271D02*
X0165142Y0089271D01*
X0165390Y0089870D02*
X0186445Y0089870D01*
X0185641Y0090203D02*
X0187258Y0089533D01*
X0195608Y0089533D01*
X0197225Y0090203D01*
X0197887Y0090865D01*
X0199881Y0090865D01*
X0200525Y0091509D01*
X0200525Y0096357D01*
X0199881Y0097002D01*
X0197887Y0097002D01*
X0197225Y0097663D01*
X0195608Y0098333D01*
X0187258Y0098333D01*
X0185641Y0097663D01*
X0184403Y0096425D01*
X0183733Y0094808D01*
X0183733Y0093058D01*
X0184403Y0091441D01*
X0185641Y0090203D01*
X0185376Y0090468D02*
X0165615Y0090468D01*
X0165615Y0091067D02*
X0184777Y0091067D01*
X0184310Y0091665D02*
X0165615Y0091665D01*
X0165615Y0092264D02*
X0184062Y0092264D01*
X0183814Y0092862D02*
X0165615Y0092862D01*
X0165615Y0093461D02*
X0183733Y0093461D01*
X0183733Y0094059D02*
X0165615Y0094059D01*
X0165615Y0094658D02*
X0183733Y0094658D01*
X0183919Y0095256D02*
X0165615Y0095256D01*
X0165615Y0095855D02*
X0184167Y0095855D01*
X0184431Y0096453D02*
X0165615Y0096453D01*
X0165615Y0097052D02*
X0185029Y0097052D01*
X0185628Y0097650D02*
X0165615Y0097650D01*
X0165530Y0098249D02*
X0187054Y0098249D01*
X0187258Y0099533D02*
X0185641Y0100203D01*
X0184403Y0101441D01*
X0183733Y0103058D01*
X0183733Y0104808D01*
X0184403Y0106425D01*
X0185641Y0107663D01*
X0187258Y0108333D01*
X0195608Y0108333D01*
X0197225Y0107663D01*
X0197887Y0107002D01*
X0199881Y0107002D01*
X0200525Y0106357D01*
X0200525Y0101509D01*
X0199881Y0100865D01*
X0197887Y0100865D01*
X0197225Y0100203D01*
X0195608Y0099533D01*
X0187258Y0099533D01*
X0186024Y0100044D02*
X0165033Y0100044D01*
X0165034Y0099446D02*
X0202683Y0099446D01*
X0202683Y0100044D02*
X0196842Y0100044D01*
X0197665Y0100643D02*
X0202683Y0100643D01*
X0202683Y0101241D02*
X0200258Y0101241D01*
X0200525Y0101840D02*
X0202683Y0101840D01*
X0202683Y0102438D02*
X0200525Y0102438D01*
X0200525Y0103037D02*
X0202683Y0103037D01*
X0202683Y0103635D02*
X0200525Y0103635D01*
X0200525Y0104234D02*
X0202683Y0104234D01*
X0202683Y0104832D02*
X0200525Y0104832D01*
X0200525Y0105431D02*
X0202683Y0105431D01*
X0202683Y0106029D02*
X0200525Y0106029D01*
X0200255Y0106628D02*
X0202683Y0106628D01*
X0202683Y0107226D02*
X0197662Y0107226D01*
X0196835Y0107825D02*
X0202683Y0107825D01*
X0202683Y0108423D02*
X0175806Y0108423D01*
X0175881Y0108276D02*
X0175538Y0108949D01*
X0175094Y0109560D01*
X0174560Y0110094D01*
X0173949Y0110538D01*
X0173276Y0110881D01*
X0172557Y0111115D01*
X0171811Y0111233D01*
X0171733Y0111233D01*
X0171733Y0106733D01*
X0171133Y0106733D01*
X0171133Y0106133D01*
X0166633Y0106133D01*
X0166633Y0106055D01*
X0166751Y0105309D01*
X0166985Y0104591D01*
X0167328Y0103917D01*
X0167772Y0103306D01*
X0168306Y0102772D01*
X0168917Y0102328D01*
X0169591Y0101985D01*
X0170309Y0101751D01*
X0171055Y0101633D01*
X0171133Y0101633D01*
X0171133Y0106133D01*
X0171733Y0106133D01*
X0171733Y0101633D01*
X0171811Y0101633D01*
X0172557Y0101751D01*
X0173276Y0101985D01*
X0173949Y0102328D01*
X0174560Y0102772D01*
X0175094Y0103306D01*
X0175538Y0103917D01*
X0175881Y0104591D01*
X0176115Y0105309D01*
X0176233Y0106055D01*
X0176233Y0106133D01*
X0171733Y0106133D01*
X0171733Y0106733D01*
X0176233Y0106733D01*
X0176233Y0106811D01*
X0176115Y0107557D01*
X0175881Y0108276D01*
X0176028Y0107825D02*
X0186031Y0107825D01*
X0185204Y0107226D02*
X0176167Y0107226D01*
X0176229Y0106029D02*
X0184239Y0106029D01*
X0183991Y0105431D02*
X0176134Y0105431D01*
X0175960Y0104832D02*
X0183743Y0104832D01*
X0183733Y0104234D02*
X0175700Y0104234D01*
X0175334Y0103635D02*
X0183733Y0103635D01*
X0183742Y0103037D02*
X0174825Y0103037D01*
X0174101Y0102438D02*
X0183990Y0102438D01*
X0184238Y0101840D02*
X0172830Y0101840D01*
X0171733Y0101840D02*
X0171133Y0101840D01*
X0171133Y0102438D02*
X0171733Y0102438D01*
X0171733Y0103037D02*
X0171133Y0103037D01*
X0171133Y0103635D02*
X0171733Y0103635D01*
X0171733Y0104234D02*
X0171133Y0104234D01*
X0171133Y0104832D02*
X0171733Y0104832D01*
X0171733Y0105431D02*
X0171133Y0105431D01*
X0171133Y0106029D02*
X0171733Y0106029D01*
X0171733Y0106628D02*
X0184605Y0106628D01*
X0185641Y0110203D02*
X0187258Y0109533D01*
X0195608Y0109533D01*
X0197225Y0110203D01*
X0197887Y0110865D01*
X0199881Y0110865D01*
X0200525Y0111509D01*
X0200525Y0116357D01*
X0199881Y0117002D01*
X0197887Y0117002D01*
X0197225Y0117663D01*
X0195608Y0118333D01*
X0187258Y0118333D01*
X0185641Y0117663D01*
X0184403Y0116425D01*
X0183733Y0114808D01*
X0183733Y0113058D01*
X0184403Y0111441D01*
X0185641Y0110203D01*
X0185625Y0110219D02*
X0174388Y0110219D01*
X0175034Y0109620D02*
X0187047Y0109620D01*
X0185026Y0110817D02*
X0173401Y0110817D01*
X0173276Y0111985D02*
X0173949Y0112328D01*
X0174560Y0112772D01*
X0175094Y0113306D01*
X0175538Y0113917D01*
X0175881Y0114591D01*
X0176115Y0115309D01*
X0176233Y0116055D01*
X0176233Y0116133D01*
X0171733Y0116133D01*
X0171733Y0111633D01*
X0171811Y0111633D01*
X0172557Y0111751D01*
X0173276Y0111985D01*
X0173334Y0112014D02*
X0184165Y0112014D01*
X0183917Y0112613D02*
X0174341Y0112613D01*
X0175000Y0113212D02*
X0183733Y0113212D01*
X0183733Y0113810D02*
X0175460Y0113810D01*
X0175789Y0114409D02*
X0183733Y0114409D01*
X0183815Y0115007D02*
X0176017Y0115007D01*
X0176162Y0115606D02*
X0184063Y0115606D01*
X0184311Y0116204D02*
X0171733Y0116204D01*
X0171733Y0116133D02*
X0171733Y0116733D01*
X0171133Y0116733D01*
X0171133Y0116133D01*
X0166633Y0116133D01*
X0166633Y0116055D01*
X0166751Y0115309D01*
X0166985Y0114591D01*
X0167328Y0113917D01*
X0167772Y0113306D01*
X0168306Y0112772D01*
X0168917Y0112328D01*
X0169591Y0111985D01*
X0170309Y0111751D01*
X0171055Y0111633D01*
X0171133Y0111633D01*
X0171133Y0116133D01*
X0171733Y0116133D01*
X0171733Y0115606D02*
X0171133Y0115606D01*
X0171133Y0116204D02*
X0166033Y0116204D01*
X0166033Y0115606D02*
X0166704Y0115606D01*
X0166849Y0115007D02*
X0165821Y0115007D01*
X0165573Y0114409D02*
X0167077Y0114409D01*
X0167406Y0113810D02*
X0165315Y0113810D01*
X0165033Y0113212D02*
X0167866Y0113212D01*
X0168525Y0112613D02*
X0165033Y0112613D01*
X0165033Y0112014D02*
X0169532Y0112014D01*
X0169591Y0110881D02*
X0168917Y0110538D01*
X0168306Y0110094D01*
X0167772Y0109560D01*
X0167328Y0108949D01*
X0166985Y0108276D01*
X0166751Y0107557D01*
X0166633Y0106811D01*
X0166633Y0106733D01*
X0171133Y0106733D01*
X0171133Y0111233D01*
X0171055Y0111233D01*
X0170309Y0111115D01*
X0169591Y0110881D01*
X0169465Y0110817D02*
X0165033Y0110817D01*
X0165033Y0110219D02*
X0168478Y0110219D01*
X0167832Y0109620D02*
X0165033Y0109620D01*
X0165340Y0109022D02*
X0167381Y0109022D01*
X0167060Y0108423D02*
X0165588Y0108423D01*
X0165836Y0107825D02*
X0166838Y0107825D01*
X0166699Y0107226D02*
X0166033Y0107226D01*
X0166033Y0106628D02*
X0171133Y0106628D01*
X0171133Y0107226D02*
X0171733Y0107226D01*
X0171733Y0107825D02*
X0171133Y0107825D01*
X0171133Y0108423D02*
X0171733Y0108423D01*
X0171733Y0109022D02*
X0171133Y0109022D01*
X0171133Y0109620D02*
X0171733Y0109620D01*
X0171733Y0110219D02*
X0171133Y0110219D01*
X0171133Y0110817D02*
X0171733Y0110817D01*
X0171733Y0112014D02*
X0171133Y0112014D01*
X0171133Y0112613D02*
X0171733Y0112613D01*
X0171733Y0113212D02*
X0171133Y0113212D01*
X0171133Y0113810D02*
X0171733Y0113810D01*
X0171733Y0114409D02*
X0171133Y0114409D01*
X0171133Y0115007D02*
X0171733Y0115007D01*
X0171733Y0116733D02*
X0176233Y0116733D01*
X0176233Y0116811D01*
X0176115Y0117557D01*
X0175881Y0118276D01*
X0175538Y0118949D01*
X0175094Y0119560D01*
X0174560Y0120094D01*
X0173949Y0120538D01*
X0173276Y0120881D01*
X0172557Y0121115D01*
X0171811Y0121233D01*
X0171733Y0121233D01*
X0171733Y0116733D01*
X0171733Y0116803D02*
X0171133Y0116803D01*
X0171133Y0116733D02*
X0171133Y0121233D01*
X0171055Y0121233D01*
X0170309Y0121115D01*
X0169591Y0120881D01*
X0168917Y0120538D01*
X0168306Y0120094D01*
X0167772Y0119560D01*
X0167328Y0118949D01*
X0166985Y0118276D01*
X0166751Y0117557D01*
X0166633Y0116811D01*
X0166633Y0116733D01*
X0171133Y0116733D01*
X0171133Y0117401D02*
X0171733Y0117401D01*
X0171733Y0118000D02*
X0171133Y0118000D01*
X0171133Y0118598D02*
X0171733Y0118598D01*
X0171733Y0119197D02*
X0171133Y0119197D01*
X0171133Y0119795D02*
X0171733Y0119795D01*
X0171733Y0120394D02*
X0171133Y0120394D01*
X0171133Y0120992D02*
X0171733Y0120992D01*
X0171733Y0121633D02*
X0171811Y0121633D01*
X0172557Y0121751D01*
X0173276Y0121985D01*
X0173949Y0122328D01*
X0174560Y0122772D01*
X0175094Y0123306D01*
X0175538Y0123917D01*
X0175881Y0124591D01*
X0176115Y0125309D01*
X0176233Y0126055D01*
X0176233Y0126133D01*
X0171733Y0126133D01*
X0171733Y0121633D01*
X0171733Y0122189D02*
X0171133Y0122189D01*
X0171133Y0121633D02*
X0171133Y0126133D01*
X0166633Y0126133D01*
X0166633Y0126055D01*
X0166751Y0125309D01*
X0166985Y0124591D01*
X0167328Y0123917D01*
X0167772Y0123306D01*
X0168306Y0122772D01*
X0168917Y0122328D01*
X0169591Y0121985D01*
X0170309Y0121751D01*
X0171055Y0121633D01*
X0171133Y0121633D01*
X0171133Y0122788D02*
X0171733Y0122788D01*
X0171733Y0123386D02*
X0171133Y0123386D01*
X0171133Y0123985D02*
X0171733Y0123985D01*
X0171733Y0124583D02*
X0171133Y0124583D01*
X0171133Y0125182D02*
X0171733Y0125182D01*
X0171733Y0125780D02*
X0171133Y0125780D01*
X0171133Y0126133D02*
X0171733Y0126133D01*
X0171733Y0126733D01*
X0171133Y0126733D01*
X0171133Y0126133D01*
X0171133Y0126379D02*
X0166033Y0126379D01*
X0166033Y0126977D02*
X0166659Y0126977D01*
X0166633Y0126811D02*
X0166751Y0127557D01*
X0166985Y0128276D01*
X0167328Y0128949D01*
X0167772Y0129560D01*
X0168306Y0130094D01*
X0168917Y0130538D01*
X0169591Y0130881D01*
X0170309Y0131115D01*
X0171055Y0131233D01*
X0171133Y0131233D01*
X0171133Y0126733D01*
X0166633Y0126733D01*
X0166633Y0126811D01*
X0166757Y0127576D02*
X0165939Y0127576D01*
X0165691Y0128174D02*
X0166952Y0128174D01*
X0167238Y0128773D02*
X0165443Y0128773D01*
X0165033Y0129371D02*
X0167635Y0129371D01*
X0168182Y0129970D02*
X0165033Y0129970D01*
X0165033Y0130568D02*
X0168976Y0130568D01*
X0169591Y0131985D02*
X0170309Y0131751D01*
X0171055Y0131633D01*
X0171133Y0131633D01*
X0171133Y0136133D01*
X0166633Y0136133D01*
X0166633Y0136055D01*
X0166751Y0135309D01*
X0166985Y0134591D01*
X0167328Y0133917D01*
X0167772Y0133306D01*
X0168306Y0132772D01*
X0168917Y0132328D01*
X0169591Y0131985D01*
X0170266Y0131765D02*
X0165033Y0131765D01*
X0165033Y0131167D02*
X0170637Y0131167D01*
X0171133Y0131167D02*
X0171733Y0131167D01*
X0171733Y0131233D02*
X0171733Y0126733D01*
X0176233Y0126733D01*
X0176233Y0126811D01*
X0176115Y0127557D01*
X0175881Y0128276D01*
X0175538Y0128949D01*
X0175094Y0129560D01*
X0174560Y0130094D01*
X0173949Y0130538D01*
X0173276Y0130881D01*
X0172557Y0131115D01*
X0171811Y0131233D01*
X0171733Y0131233D01*
X0171733Y0131633D02*
X0171811Y0131633D01*
X0172557Y0131751D01*
X0173276Y0131985D01*
X0173949Y0132328D01*
X0174560Y0132772D01*
X0175094Y0133306D01*
X0175538Y0133917D01*
X0175881Y0134591D01*
X0176115Y0135309D01*
X0176233Y0136055D01*
X0176233Y0136133D01*
X0171733Y0136133D01*
X0171733Y0131633D01*
X0171733Y0131765D02*
X0171133Y0131765D01*
X0171133Y0132364D02*
X0171733Y0132364D01*
X0171733Y0132962D02*
X0171133Y0132962D01*
X0171133Y0133561D02*
X0171733Y0133561D01*
X0171733Y0134159D02*
X0171133Y0134159D01*
X0171133Y0134758D02*
X0171733Y0134758D01*
X0171733Y0135356D02*
X0171133Y0135356D01*
X0171133Y0135955D02*
X0171733Y0135955D01*
X0171733Y0136133D02*
X0171133Y0136133D01*
X0171133Y0136733D01*
X0166633Y0136733D01*
X0166633Y0136811D01*
X0166751Y0137557D01*
X0166985Y0138276D01*
X0167328Y0138949D01*
X0167772Y0139560D01*
X0168306Y0140094D01*
X0168917Y0140538D01*
X0169591Y0140881D01*
X0170309Y0141115D01*
X0171055Y0141233D01*
X0171133Y0141233D01*
X0171133Y0136733D01*
X0171733Y0136733D01*
X0171733Y0141233D01*
X0171811Y0141233D01*
X0172557Y0141115D01*
X0173276Y0140881D01*
X0173949Y0140538D01*
X0174560Y0140094D01*
X0175094Y0139560D01*
X0175538Y0138949D01*
X0175881Y0138276D01*
X0176115Y0137557D01*
X0176233Y0136811D01*
X0176233Y0136733D01*
X0171733Y0136733D01*
X0171733Y0136133D01*
X0171733Y0136553D02*
X0184531Y0136553D01*
X0184403Y0136425D02*
X0185641Y0137663D01*
X0187258Y0138333D01*
X0195608Y0138333D01*
X0197225Y0137663D01*
X0197887Y0137002D01*
X0199881Y0137002D01*
X0200525Y0136357D01*
X0200525Y0131509D01*
X0199881Y0130865D01*
X0197887Y0130865D01*
X0197225Y0130203D01*
X0195608Y0129533D01*
X0187258Y0129533D01*
X0185641Y0130203D01*
X0184403Y0131441D01*
X0183733Y0133058D01*
X0183733Y0134808D01*
X0184403Y0136425D01*
X0184208Y0135955D02*
X0176217Y0135955D01*
X0176122Y0135356D02*
X0183960Y0135356D01*
X0183733Y0134758D02*
X0175936Y0134758D01*
X0175662Y0134159D02*
X0183733Y0134159D01*
X0183733Y0133561D02*
X0175279Y0133561D01*
X0174751Y0132962D02*
X0183773Y0132962D01*
X0184021Y0132364D02*
X0173999Y0132364D01*
X0172600Y0131765D02*
X0184268Y0131765D01*
X0184677Y0131167D02*
X0172229Y0131167D01*
X0171733Y0130568D02*
X0171133Y0130568D01*
X0171133Y0129970D02*
X0171733Y0129970D01*
X0171733Y0129371D02*
X0171133Y0129371D01*
X0171133Y0128773D02*
X0171733Y0128773D01*
X0171733Y0128174D02*
X0171133Y0128174D01*
X0171133Y0127576D02*
X0171733Y0127576D01*
X0171733Y0126977D02*
X0171133Y0126977D01*
X0171733Y0126379D02*
X0184384Y0126379D01*
X0184403Y0126425D02*
X0183733Y0124808D01*
X0183733Y0123058D01*
X0184403Y0121441D01*
X0185641Y0120203D01*
X0187258Y0119533D01*
X0195608Y0119533D01*
X0197225Y0120203D01*
X0197887Y0120865D01*
X0199881Y0120865D01*
X0200525Y0121509D01*
X0200525Y0126357D01*
X0199881Y0127002D01*
X0197887Y0127002D01*
X0197225Y0127663D01*
X0195608Y0128333D01*
X0187258Y0128333D01*
X0185641Y0127663D01*
X0184403Y0126425D01*
X0184136Y0125780D02*
X0176189Y0125780D01*
X0176073Y0125182D02*
X0183888Y0125182D01*
X0183733Y0124583D02*
X0175878Y0124583D01*
X0175573Y0123985D02*
X0183733Y0123985D01*
X0183733Y0123386D02*
X0175152Y0123386D01*
X0174576Y0122788D02*
X0183845Y0122788D01*
X0184093Y0122189D02*
X0173677Y0122189D01*
X0172935Y0120992D02*
X0184851Y0120992D01*
X0184341Y0121591D02*
X0165033Y0121591D01*
X0165033Y0122189D02*
X0169189Y0122189D01*
X0168290Y0122788D02*
X0165033Y0122788D01*
X0165033Y0123386D02*
X0167714Y0123386D01*
X0167293Y0123985D02*
X0165398Y0123985D01*
X0165646Y0124583D02*
X0166988Y0124583D01*
X0166793Y0125182D02*
X0165894Y0125182D01*
X0166033Y0125780D02*
X0166677Y0125780D01*
X0165033Y0120992D02*
X0169931Y0120992D01*
X0168718Y0120394D02*
X0165033Y0120394D01*
X0165033Y0119795D02*
X0168007Y0119795D01*
X0167508Y0119197D02*
X0165175Y0119197D01*
X0165515Y0118598D02*
X0167149Y0118598D01*
X0166895Y0118000D02*
X0165763Y0118000D01*
X0166011Y0117401D02*
X0166727Y0117401D01*
X0166633Y0116803D02*
X0166033Y0116803D01*
X0165033Y0111416D02*
X0184428Y0111416D01*
X0184780Y0116803D02*
X0176233Y0116803D01*
X0176140Y0117401D02*
X0185379Y0117401D01*
X0186453Y0118000D02*
X0175971Y0118000D01*
X0175717Y0118598D02*
X0202683Y0118598D01*
X0202683Y0118000D02*
X0196413Y0118000D01*
X0197488Y0117401D02*
X0202683Y0117401D01*
X0202683Y0116803D02*
X0200080Y0116803D01*
X0200525Y0116204D02*
X0202683Y0116204D01*
X0202683Y0115606D02*
X0200525Y0115606D01*
X0200525Y0115007D02*
X0202683Y0115007D01*
X0202683Y0114409D02*
X0200525Y0114409D01*
X0200525Y0113810D02*
X0202683Y0113810D01*
X0202683Y0113212D02*
X0200525Y0113212D01*
X0200525Y0112613D02*
X0202683Y0112613D01*
X0202683Y0112014D02*
X0200525Y0112014D01*
X0200432Y0111416D02*
X0202683Y0111416D01*
X0202683Y0110817D02*
X0197840Y0110817D01*
X0197241Y0110219D02*
X0202683Y0110219D01*
X0202683Y0109620D02*
X0195819Y0109620D01*
X0202683Y0109022D02*
X0175485Y0109022D01*
X0170037Y0101840D02*
X0165033Y0101840D01*
X0165033Y0102438D02*
X0168765Y0102438D01*
X0168041Y0103037D02*
X0165033Y0103037D01*
X0165141Y0103635D02*
X0167533Y0103635D01*
X0167166Y0104234D02*
X0165501Y0104234D01*
X0165749Y0104832D02*
X0166906Y0104832D01*
X0166732Y0105431D02*
X0165997Y0105431D01*
X0166033Y0106029D02*
X0166637Y0106029D01*
X0165033Y0101241D02*
X0184602Y0101241D01*
X0185201Y0100643D02*
X0165033Y0100643D01*
X0165282Y0098847D02*
X0202683Y0098847D01*
X0202683Y0098249D02*
X0195812Y0098249D01*
X0197238Y0097650D02*
X0202683Y0097650D01*
X0202683Y0097052D02*
X0197837Y0097052D01*
X0200429Y0096453D02*
X0202683Y0096453D01*
X0202683Y0095855D02*
X0200525Y0095855D01*
X0200525Y0095256D02*
X0202683Y0095256D01*
X0202683Y0094658D02*
X0200525Y0094658D01*
X0200525Y0094059D02*
X0202683Y0094059D01*
X0202683Y0093461D02*
X0200525Y0093461D01*
X0200525Y0092862D02*
X0202683Y0092862D01*
X0202683Y0092264D02*
X0200525Y0092264D01*
X0200525Y0091665D02*
X0202683Y0091665D01*
X0202683Y0091067D02*
X0200083Y0091067D01*
X0197491Y0090468D02*
X0202683Y0090468D01*
X0202683Y0089870D02*
X0196421Y0089870D01*
X0196234Y0088074D02*
X0202683Y0088074D01*
X0202683Y0087476D02*
X0197413Y0087476D01*
X0200005Y0086877D02*
X0202683Y0086877D01*
X0202683Y0086279D02*
X0200525Y0086279D01*
X0200525Y0085680D02*
X0202683Y0085680D01*
X0202683Y0085081D02*
X0200525Y0085081D01*
X0200525Y0084483D02*
X0202683Y0084483D01*
X0202683Y0083884D02*
X0200525Y0083884D01*
X0200525Y0083286D02*
X0202683Y0083286D01*
X0202683Y0082687D02*
X0200525Y0082687D01*
X0200525Y0082089D02*
X0202683Y0082089D01*
X0202683Y0081490D02*
X0200507Y0081490D01*
X0199908Y0080892D02*
X0202683Y0080892D01*
X0202683Y0080293D02*
X0197316Y0080293D01*
X0195999Y0079695D02*
X0202683Y0079695D01*
X0202683Y0079096D02*
X0133352Y0079096D01*
X0133352Y0078498D02*
X0202683Y0078498D01*
X0202683Y0077899D02*
X0196655Y0077899D01*
X0197588Y0077301D02*
X0202683Y0077301D01*
X0202683Y0076702D02*
X0200180Y0076702D01*
X0200525Y0076104D02*
X0202683Y0076104D01*
X0202683Y0075505D02*
X0200525Y0075505D01*
X0200525Y0074907D02*
X0202683Y0074907D01*
X0202683Y0074308D02*
X0200525Y0074308D01*
X0200525Y0073710D02*
X0202683Y0073710D01*
X0202683Y0073111D02*
X0200525Y0073111D01*
X0200525Y0072513D02*
X0202683Y0072513D01*
X0202683Y0071914D02*
X0200525Y0071914D01*
X0200332Y0071316D02*
X0202683Y0071316D01*
X0202683Y0070717D02*
X0197740Y0070717D01*
X0197022Y0070119D02*
X0202683Y0070119D01*
X0202683Y0069520D02*
X0070183Y0069520D01*
X0070183Y0068922D02*
X0202683Y0068922D01*
X0202683Y0068323D02*
X0070183Y0068323D01*
X0070183Y0067725D02*
X0202683Y0067725D01*
X0202683Y0067126D02*
X0070183Y0067126D01*
X0070183Y0066528D02*
X0202683Y0066528D01*
X0202683Y0059944D02*
X0186946Y0059944D01*
X0186946Y0059345D02*
X0202683Y0059345D01*
X0202683Y0058747D02*
X0186946Y0058747D01*
X0186946Y0058148D02*
X0202683Y0058148D01*
X0202683Y0057550D02*
X0186946Y0057550D01*
X0186946Y0056951D02*
X0202683Y0056951D01*
X0202683Y0056353D02*
X0186946Y0056353D01*
X0186766Y0055754D02*
X0202683Y0055754D01*
X0202683Y0055156D02*
X0185976Y0055156D01*
X0183977Y0055156D02*
X0183377Y0055156D01*
X0183377Y0055754D02*
X0183977Y0055754D01*
X0183977Y0056353D02*
X0183377Y0056353D01*
X0183377Y0056951D02*
X0183977Y0056951D01*
X0183977Y0057550D02*
X0183377Y0057550D01*
X0183377Y0058148D02*
X0183977Y0058148D01*
X0183977Y0058747D02*
X0183377Y0058747D01*
X0183377Y0059345D02*
X0183977Y0059345D01*
X0183977Y0059944D02*
X0183377Y0059944D01*
X0157833Y0112613D02*
X0154118Y0112613D01*
X0154717Y0113212D02*
X0157833Y0113212D01*
X0157551Y0113810D02*
X0155315Y0113810D01*
X0155573Y0114409D02*
X0157293Y0114409D01*
X0157045Y0115007D02*
X0155821Y0115007D01*
X0156033Y0115606D02*
X0156833Y0115606D01*
X0156833Y0116204D02*
X0156033Y0116204D01*
X0156033Y0116803D02*
X0156833Y0116803D01*
X0156855Y0117401D02*
X0156011Y0117401D01*
X0155763Y0118000D02*
X0157103Y0118000D01*
X0157351Y0118598D02*
X0155515Y0118598D01*
X0155175Y0119197D02*
X0157691Y0119197D01*
X0157833Y0119795D02*
X0154576Y0119795D01*
X0153892Y0120394D02*
X0157833Y0120394D01*
X0157833Y0120992D02*
X0152447Y0120992D01*
X0152348Y0121833D02*
X0150518Y0121833D01*
X0148827Y0122533D01*
X0147533Y0123827D01*
X0146833Y0125518D01*
X0146833Y0127348D01*
X0147533Y0129039D01*
X0148827Y0130333D01*
X0150518Y0131033D01*
X0152348Y0131033D01*
X0154039Y0130333D01*
X0155333Y0129039D01*
X0156033Y0127348D01*
X0156033Y0125518D01*
X0155333Y0123827D01*
X0154039Y0122533D01*
X0152348Y0121833D01*
X0153208Y0122189D02*
X0157833Y0122189D01*
X0157833Y0121591D02*
X0132606Y0121591D01*
X0132604Y0122189D02*
X0149658Y0122189D01*
X0148573Y0122788D02*
X0132603Y0122788D01*
X0132602Y0123386D02*
X0147975Y0123386D01*
X0147468Y0123985D02*
X0132601Y0123985D01*
X0132600Y0124583D02*
X0147220Y0124583D01*
X0146972Y0125182D02*
X0132599Y0125182D01*
X0132598Y0125780D02*
X0146833Y0125780D01*
X0146833Y0126379D02*
X0132597Y0126379D01*
X0132596Y0126977D02*
X0146833Y0126977D01*
X0146927Y0127576D02*
X0132595Y0127576D01*
X0132594Y0128174D02*
X0147175Y0128174D01*
X0147423Y0128773D02*
X0132592Y0128773D01*
X0132591Y0129371D02*
X0147866Y0129371D01*
X0148464Y0129970D02*
X0132590Y0129970D01*
X0132589Y0130568D02*
X0149396Y0130568D01*
X0147477Y0131833D02*
X0146833Y0132477D01*
X0146833Y0140389D01*
X0147477Y0141033D01*
X0155389Y0141033D01*
X0156033Y0140389D01*
X0156033Y0132477D01*
X0155389Y0131833D01*
X0147477Y0131833D01*
X0146947Y0132364D02*
X0132586Y0132364D01*
X0132585Y0132962D02*
X0146833Y0132962D01*
X0146833Y0133561D02*
X0132584Y0133561D01*
X0132583Y0134159D02*
X0146833Y0134159D01*
X0146833Y0134758D02*
X0132582Y0134758D01*
X0132580Y0135356D02*
X0146833Y0135356D01*
X0146833Y0135955D02*
X0132579Y0135955D01*
X0132578Y0136553D02*
X0146833Y0136553D01*
X0146833Y0137152D02*
X0132577Y0137152D01*
X0132576Y0137750D02*
X0146833Y0137750D01*
X0146833Y0138349D02*
X0132575Y0138349D01*
X0132574Y0138948D02*
X0146833Y0138948D01*
X0146833Y0139546D02*
X0132573Y0139546D01*
X0132572Y0140145D02*
X0146833Y0140145D01*
X0147187Y0140743D02*
X0132571Y0140743D01*
X0132570Y0141342D02*
X0157833Y0141342D01*
X0157833Y0141940D02*
X0132569Y0141940D01*
X0132567Y0142539D02*
X0157833Y0142539D01*
X0157833Y0143137D02*
X0132566Y0143137D01*
X0132565Y0143736D02*
X0157833Y0143736D01*
X0157833Y0144334D02*
X0132564Y0144334D01*
X0132563Y0144933D02*
X0157833Y0144933D01*
X0157833Y0145531D02*
X0132562Y0145531D01*
X0132561Y0146130D02*
X0157833Y0146130D01*
X0157833Y0146728D02*
X0132560Y0146728D01*
X0132559Y0147327D02*
X0157833Y0147327D01*
X0157833Y0147925D02*
X0132558Y0147925D01*
X0132557Y0148524D02*
X0157833Y0148524D01*
X0157833Y0149122D02*
X0132555Y0149122D01*
X0132554Y0149721D02*
X0157833Y0149721D01*
X0157833Y0150319D02*
X0132553Y0150319D01*
X0132552Y0150918D02*
X0157833Y0150918D01*
X0157833Y0151516D02*
X0132551Y0151516D01*
X0132550Y0152115D02*
X0157833Y0152115D01*
X0157833Y0152713D02*
X0132549Y0152713D01*
X0132548Y0153312D02*
X0157833Y0153312D01*
X0157833Y0153910D02*
X0132547Y0153910D01*
X0132546Y0154509D02*
X0157833Y0154509D01*
X0158023Y0155107D02*
X0132545Y0155107D01*
X0132543Y0155706D02*
X0158271Y0155706D01*
X0158713Y0156304D02*
X0132542Y0156304D01*
X0132541Y0156903D02*
X0159312Y0156903D01*
X0160549Y0157501D02*
X0132540Y0157501D01*
X0125340Y0157501D02*
X0087387Y0157501D01*
X0087225Y0157663D02*
X0085608Y0158333D01*
X0077258Y0158333D01*
X0075641Y0157663D01*
X0074979Y0157002D01*
X0072985Y0157002D01*
X0072341Y0156357D01*
X0072341Y0151509D01*
X0072985Y0150865D01*
X0074979Y0150865D01*
X0075641Y0150203D01*
X0077258Y0149533D01*
X0085608Y0149533D01*
X0087225Y0150203D01*
X0088463Y0151441D01*
X0089133Y0153058D01*
X0089133Y0154808D01*
X0088463Y0156425D01*
X0087225Y0157663D01*
X0087986Y0156903D02*
X0125341Y0156903D01*
X0125342Y0156304D02*
X0088513Y0156304D01*
X0088761Y0155706D02*
X0125343Y0155706D01*
X0125345Y0155107D02*
X0089009Y0155107D01*
X0089133Y0154509D02*
X0125346Y0154509D01*
X0125347Y0153910D02*
X0089133Y0153910D01*
X0089133Y0153312D02*
X0125348Y0153312D01*
X0125349Y0152713D02*
X0088990Y0152713D01*
X0088742Y0152115D02*
X0125350Y0152115D01*
X0125351Y0151516D02*
X0088495Y0151516D01*
X0087940Y0150918D02*
X0125352Y0150918D01*
X0125353Y0150319D02*
X0087342Y0150319D01*
X0086061Y0149721D02*
X0125354Y0149721D01*
X0125355Y0149122D02*
X0070183Y0149122D01*
X0070183Y0148524D02*
X0125357Y0148524D01*
X0125358Y0147925D02*
X0086593Y0147925D01*
X0087225Y0147663D02*
X0085608Y0148333D01*
X0077258Y0148333D01*
X0075641Y0147663D01*
X0074979Y0147002D01*
X0072985Y0147002D01*
X0072341Y0146357D01*
X0072341Y0141509D01*
X0072985Y0140865D01*
X0074979Y0140865D01*
X0075641Y0140203D01*
X0077258Y0139533D01*
X0085608Y0139533D01*
X0087225Y0140203D01*
X0088463Y0141441D01*
X0089133Y0143058D01*
X0089133Y0144808D01*
X0088463Y0146425D01*
X0087225Y0147663D01*
X0087562Y0147327D02*
X0125359Y0147327D01*
X0125360Y0146728D02*
X0088161Y0146728D01*
X0088586Y0146130D02*
X0125361Y0146130D01*
X0125362Y0145531D02*
X0088834Y0145531D01*
X0089082Y0144933D02*
X0125363Y0144933D01*
X0125364Y0144334D02*
X0089133Y0144334D01*
X0089133Y0143736D02*
X0125365Y0143736D01*
X0125366Y0143137D02*
X0089133Y0143137D01*
X0088918Y0142539D02*
X0125367Y0142539D01*
X0125369Y0141940D02*
X0088670Y0141940D01*
X0088364Y0141342D02*
X0125370Y0141342D01*
X0125371Y0140743D02*
X0087766Y0140743D01*
X0087084Y0140145D02*
X0125372Y0140145D01*
X0125373Y0139546D02*
X0085640Y0139546D01*
X0085608Y0138333D02*
X0077258Y0138333D01*
X0075641Y0137663D01*
X0074979Y0137002D01*
X0072985Y0137002D01*
X0072341Y0136357D01*
X0072341Y0131509D01*
X0072985Y0130865D01*
X0074979Y0130865D01*
X0075641Y0130203D01*
X0077258Y0129533D01*
X0085608Y0129533D01*
X0087225Y0130203D01*
X0088463Y0131441D01*
X0089133Y0133058D01*
X0089133Y0134808D01*
X0088463Y0136425D01*
X0087225Y0137663D01*
X0085608Y0138333D01*
X0087015Y0137750D02*
X0125376Y0137750D01*
X0125377Y0137152D02*
X0087737Y0137152D01*
X0088335Y0136553D02*
X0125378Y0136553D01*
X0125379Y0135955D02*
X0088658Y0135955D01*
X0088906Y0135356D02*
X0125380Y0135356D01*
X0125382Y0134758D02*
X0089133Y0134758D01*
X0089133Y0134159D02*
X0125383Y0134159D01*
X0125384Y0133561D02*
X0089133Y0133561D01*
X0089094Y0132962D02*
X0125385Y0132962D01*
X0125386Y0132364D02*
X0088846Y0132364D01*
X0088598Y0131765D02*
X0125387Y0131765D01*
X0125388Y0131167D02*
X0088189Y0131167D01*
X0087591Y0130568D02*
X0125389Y0130568D01*
X0125390Y0129970D02*
X0086663Y0129970D01*
X0085992Y0128174D02*
X0125394Y0128174D01*
X0125395Y0127576D02*
X0087313Y0127576D01*
X0087225Y0127663D02*
X0085608Y0128333D01*
X0077258Y0128333D01*
X0075641Y0127663D01*
X0074979Y0127002D01*
X0072985Y0127002D01*
X0072341Y0126357D01*
X0072341Y0121509D01*
X0072985Y0120865D01*
X0074979Y0120865D01*
X0075641Y0120203D01*
X0077258Y0119533D01*
X0085608Y0119533D01*
X0087225Y0120203D01*
X0088463Y0121441D01*
X0089133Y0123058D01*
X0089133Y0124808D01*
X0088463Y0126425D01*
X0087225Y0127663D01*
X0087911Y0126977D02*
X0125396Y0126977D01*
X0125397Y0126379D02*
X0088483Y0126379D01*
X0088730Y0125780D02*
X0125398Y0125780D01*
X0125399Y0125182D02*
X0088978Y0125182D01*
X0089133Y0124583D02*
X0125400Y0124583D01*
X0125401Y0123985D02*
X0089133Y0123985D01*
X0089133Y0123386D02*
X0125402Y0123386D01*
X0125403Y0122788D02*
X0089021Y0122788D01*
X0088773Y0122189D02*
X0125404Y0122189D01*
X0125406Y0121591D02*
X0088525Y0121591D01*
X0088015Y0120992D02*
X0125407Y0120992D01*
X0125408Y0120394D02*
X0087416Y0120394D01*
X0086241Y0119795D02*
X0125409Y0119795D01*
X0125410Y0119197D02*
X0070183Y0119197D01*
X0070183Y0119795D02*
X0076625Y0119795D01*
X0075450Y0120394D02*
X0070183Y0120394D01*
X0070183Y0120992D02*
X0072858Y0120992D01*
X0072341Y0121591D02*
X0070183Y0121591D01*
X0070183Y0122189D02*
X0072341Y0122189D01*
X0072341Y0122788D02*
X0070183Y0122788D01*
X0070183Y0123386D02*
X0072341Y0123386D01*
X0072341Y0123985D02*
X0070183Y0123985D01*
X0070183Y0124583D02*
X0072341Y0124583D01*
X0072341Y0125182D02*
X0070183Y0125182D01*
X0070183Y0125780D02*
X0072341Y0125780D01*
X0072363Y0126379D02*
X0070183Y0126379D01*
X0070183Y0126977D02*
X0072961Y0126977D01*
X0075553Y0127576D02*
X0070183Y0127576D01*
X0070183Y0128174D02*
X0076875Y0128174D01*
X0076203Y0129970D02*
X0070183Y0129970D01*
X0070183Y0130568D02*
X0075275Y0130568D01*
X0072683Y0131167D02*
X0070183Y0131167D01*
X0070183Y0131765D02*
X0072341Y0131765D01*
X0072341Y0132364D02*
X0070183Y0132364D01*
X0070183Y0132962D02*
X0072341Y0132962D01*
X0072341Y0133561D02*
X0070183Y0133561D01*
X0070183Y0134159D02*
X0072341Y0134159D01*
X0072341Y0134758D02*
X0070183Y0134758D01*
X0070183Y0135356D02*
X0072341Y0135356D01*
X0072341Y0135955D02*
X0070183Y0135955D01*
X0070183Y0136553D02*
X0072537Y0136553D01*
X0070183Y0137152D02*
X0075129Y0137152D01*
X0075851Y0137750D02*
X0070183Y0137750D01*
X0070183Y0138349D02*
X0125375Y0138349D01*
X0125374Y0138948D02*
X0070183Y0138948D01*
X0070183Y0139546D02*
X0077227Y0139546D01*
X0075782Y0140145D02*
X0070183Y0140145D01*
X0070183Y0140743D02*
X0075101Y0140743D01*
X0072508Y0141342D02*
X0070183Y0141342D01*
X0070183Y0141940D02*
X0072341Y0141940D01*
X0072341Y0142539D02*
X0070183Y0142539D01*
X0070183Y0143137D02*
X0072341Y0143137D01*
X0072341Y0143736D02*
X0070183Y0143736D01*
X0070183Y0144334D02*
X0072341Y0144334D01*
X0072341Y0144933D02*
X0070183Y0144933D01*
X0070183Y0145531D02*
X0072341Y0145531D01*
X0072341Y0146130D02*
X0070183Y0146130D01*
X0070183Y0146728D02*
X0072712Y0146728D01*
X0070183Y0147327D02*
X0075304Y0147327D01*
X0076273Y0147925D02*
X0070183Y0147925D01*
X0070183Y0149721D02*
X0076805Y0149721D01*
X0075524Y0150319D02*
X0070183Y0150319D01*
X0070183Y0150918D02*
X0072932Y0150918D01*
X0072341Y0151516D02*
X0070183Y0151516D01*
X0070183Y0152115D02*
X0072341Y0152115D01*
X0072341Y0152713D02*
X0070183Y0152713D01*
X0070183Y0153312D02*
X0072341Y0153312D01*
X0072341Y0153910D02*
X0070183Y0153910D01*
X0070183Y0154509D02*
X0072341Y0154509D01*
X0072341Y0155107D02*
X0070183Y0155107D01*
X0070183Y0155706D02*
X0072341Y0155706D01*
X0072341Y0156304D02*
X0070183Y0156304D01*
X0070183Y0156903D02*
X0072887Y0156903D01*
X0075479Y0157501D02*
X0070183Y0157501D01*
X0070183Y0158100D02*
X0076695Y0158100D01*
X0077258Y0159533D02*
X0085608Y0159533D01*
X0087225Y0160203D01*
X0088463Y0161441D01*
X0089133Y0163058D01*
X0089133Y0164808D01*
X0088463Y0166425D01*
X0087225Y0167663D01*
X0085608Y0168333D01*
X0077258Y0168333D01*
X0075641Y0167663D01*
X0074979Y0167002D01*
X0072985Y0167002D01*
X0072341Y0166357D01*
X0072341Y0161509D01*
X0072985Y0160865D01*
X0074979Y0160865D01*
X0075641Y0160203D01*
X0077258Y0159533D01*
X0076383Y0159895D02*
X0070183Y0159895D01*
X0070183Y0159297D02*
X0125337Y0159297D01*
X0125336Y0159895D02*
X0086483Y0159895D01*
X0087516Y0160494D02*
X0125335Y0160494D01*
X0125329Y0161092D02*
X0088115Y0161092D01*
X0088567Y0161691D02*
X0125333Y0161691D01*
X0125385Y0162289D02*
X0088815Y0162289D01*
X0089063Y0162888D02*
X0125639Y0162888D01*
X0125895Y0163486D02*
X0089133Y0163486D01*
X0089133Y0164085D02*
X0126493Y0164085D01*
X0127367Y0164683D02*
X0089133Y0164683D01*
X0088937Y0165282D02*
X0166632Y0165282D01*
X0166632Y0164683D02*
X0162288Y0164683D01*
X0160513Y0167117D02*
X0161297Y0167901D01*
X0161722Y0168926D01*
X0161722Y0170036D01*
X0161297Y0171061D01*
X0160513Y0171845D01*
X0159488Y0172270D01*
X0158378Y0172270D01*
X0157353Y0171845D01*
X0156689Y0171181D01*
X0143677Y0171181D01*
X0143013Y0171845D01*
X0141988Y0172270D01*
X0140878Y0172270D01*
X0139853Y0171845D01*
X0139069Y0171061D01*
X0138644Y0170036D01*
X0138644Y0168926D01*
X0139069Y0167901D01*
X0139853Y0167117D01*
X0140878Y0166692D01*
X0141988Y0166692D01*
X0143013Y0167117D01*
X0143677Y0167781D01*
X0156689Y0167781D01*
X0157353Y0167117D01*
X0158378Y0166692D01*
X0159488Y0166692D01*
X0160513Y0167117D01*
X0160419Y0167078D02*
X0166632Y0167078D01*
X0166632Y0167676D02*
X0161072Y0167676D01*
X0161452Y0168275D02*
X0166632Y0168275D01*
X0166632Y0168873D02*
X0161700Y0168873D01*
X0161722Y0169472D02*
X0166632Y0169472D01*
X0166632Y0170070D02*
X0161708Y0170070D01*
X0161460Y0170669D02*
X0166632Y0170669D01*
X0166632Y0171267D02*
X0161091Y0171267D01*
X0160464Y0171866D02*
X0166632Y0171866D01*
X0166632Y0172464D02*
X0088887Y0172464D01*
X0089133Y0173058D02*
X0089133Y0174808D01*
X0088463Y0176425D01*
X0087225Y0177663D01*
X0085608Y0178333D01*
X0077258Y0178333D01*
X0075641Y0177663D01*
X0074979Y0177002D01*
X0072985Y0177002D01*
X0072341Y0176357D01*
X0072341Y0171509D01*
X0072985Y0170865D01*
X0074979Y0170865D01*
X0075641Y0170203D01*
X0077258Y0169533D01*
X0085608Y0169533D01*
X0087225Y0170203D01*
X0088463Y0171441D01*
X0089133Y0173058D01*
X0089133Y0173063D02*
X0166632Y0173063D01*
X0166632Y0173661D02*
X0089133Y0173661D01*
X0089133Y0174260D02*
X0166632Y0174260D01*
X0166632Y0174858D02*
X0089112Y0174858D01*
X0088864Y0175457D02*
X0166632Y0175457D01*
X0166632Y0176055D02*
X0088617Y0176055D01*
X0088235Y0176654D02*
X0166632Y0176654D01*
X0166632Y0177252D02*
X0087636Y0177252D01*
X0086773Y0177851D02*
X0166632Y0177851D01*
X0166632Y0178449D02*
X0070183Y0178449D01*
X0070183Y0177851D02*
X0076093Y0177851D01*
X0075230Y0177252D02*
X0070183Y0177252D01*
X0070183Y0176654D02*
X0072637Y0176654D01*
X0072341Y0176055D02*
X0070183Y0176055D01*
X0070183Y0175457D02*
X0072341Y0175457D01*
X0072341Y0174858D02*
X0070183Y0174858D01*
X0070183Y0174260D02*
X0072341Y0174260D01*
X0072341Y0173661D02*
X0070183Y0173661D01*
X0070183Y0173063D02*
X0072341Y0173063D01*
X0072341Y0172464D02*
X0070183Y0172464D01*
X0070183Y0171866D02*
X0072341Y0171866D01*
X0072583Y0171267D02*
X0070183Y0171267D01*
X0070183Y0170669D02*
X0075175Y0170669D01*
X0075961Y0170070D02*
X0070183Y0170070D01*
X0070183Y0169472D02*
X0138644Y0169472D01*
X0138658Y0170070D02*
X0086905Y0170070D01*
X0087691Y0170669D02*
X0138906Y0170669D01*
X0139275Y0171267D02*
X0088290Y0171267D01*
X0088639Y0171866D02*
X0139902Y0171866D01*
X0142964Y0171866D02*
X0157402Y0171866D01*
X0156775Y0171267D02*
X0143591Y0171267D01*
X0143572Y0167676D02*
X0156794Y0167676D01*
X0157447Y0167078D02*
X0142919Y0167078D01*
X0139947Y0167078D02*
X0087811Y0167078D01*
X0088410Y0166479D02*
X0166632Y0166479D01*
X0166632Y0165881D02*
X0088689Y0165881D01*
X0087194Y0167676D02*
X0139294Y0167676D01*
X0138914Y0168275D02*
X0085750Y0168275D01*
X0086171Y0158100D02*
X0125339Y0158100D01*
X0125338Y0158698D02*
X0070183Y0158698D01*
X0070183Y0160494D02*
X0075350Y0160494D01*
X0072757Y0161092D02*
X0070183Y0161092D01*
X0070183Y0161691D02*
X0072341Y0161691D01*
X0072341Y0162289D02*
X0070183Y0162289D01*
X0070183Y0162888D02*
X0072341Y0162888D01*
X0072341Y0163486D02*
X0070183Y0163486D01*
X0070183Y0164085D02*
X0072341Y0164085D01*
X0072341Y0164683D02*
X0070183Y0164683D01*
X0070183Y0165282D02*
X0072341Y0165282D01*
X0072341Y0165881D02*
X0070183Y0165881D01*
X0070183Y0166479D02*
X0072463Y0166479D01*
X0070183Y0167078D02*
X0075055Y0167078D01*
X0075672Y0167676D02*
X0070183Y0167676D01*
X0070183Y0168275D02*
X0077117Y0168275D01*
X0070183Y0168873D02*
X0138666Y0168873D01*
X0155679Y0140743D02*
X0157833Y0140743D01*
X0157833Y0140145D02*
X0156033Y0140145D01*
X0156033Y0139546D02*
X0157833Y0139546D01*
X0157496Y0138948D02*
X0156033Y0138948D01*
X0156033Y0138349D02*
X0157248Y0138349D01*
X0157000Y0137750D02*
X0156033Y0137750D01*
X0156033Y0137152D02*
X0156833Y0137152D01*
X0156833Y0136553D02*
X0156033Y0136553D01*
X0156033Y0135955D02*
X0156833Y0135955D01*
X0156900Y0135356D02*
X0156033Y0135356D01*
X0156033Y0134758D02*
X0157148Y0134758D01*
X0157396Y0134159D02*
X0156033Y0134159D01*
X0156033Y0133561D02*
X0157800Y0133561D01*
X0157833Y0132962D02*
X0156033Y0132962D01*
X0155920Y0132364D02*
X0157833Y0132364D01*
X0157833Y0131765D02*
X0132587Y0131765D01*
X0132588Y0131167D02*
X0157833Y0131167D01*
X0157833Y0130568D02*
X0153470Y0130568D01*
X0154402Y0129970D02*
X0157833Y0129970D01*
X0157833Y0129371D02*
X0155000Y0129371D01*
X0155443Y0128773D02*
X0157423Y0128773D01*
X0157175Y0128174D02*
X0155691Y0128174D01*
X0155939Y0127576D02*
X0156927Y0127576D01*
X0156833Y0126977D02*
X0156033Y0126977D01*
X0156033Y0126379D02*
X0156833Y0126379D01*
X0156833Y0125780D02*
X0156033Y0125780D01*
X0155894Y0125182D02*
X0156972Y0125182D01*
X0157220Y0124583D02*
X0155646Y0124583D01*
X0155398Y0123985D02*
X0157468Y0123985D01*
X0157833Y0123386D02*
X0154892Y0123386D01*
X0154293Y0122788D02*
X0157833Y0122788D01*
X0150419Y0120992D02*
X0132607Y0120992D01*
X0132608Y0120394D02*
X0148974Y0120394D01*
X0148290Y0119795D02*
X0132609Y0119795D01*
X0132610Y0119197D02*
X0147691Y0119197D01*
X0147351Y0118598D02*
X0132611Y0118598D01*
X0132612Y0118000D02*
X0147103Y0118000D01*
X0146855Y0117401D02*
X0132613Y0117401D01*
X0132614Y0116803D02*
X0146833Y0116803D01*
X0146833Y0116204D02*
X0132615Y0116204D01*
X0132616Y0115606D02*
X0146833Y0115606D01*
X0147045Y0115007D02*
X0132617Y0115007D01*
X0132619Y0114409D02*
X0147293Y0114409D01*
X0147551Y0113810D02*
X0132620Y0113810D01*
X0132621Y0113212D02*
X0148149Y0113212D01*
X0148748Y0112613D02*
X0132622Y0112613D01*
X0132623Y0112014D02*
X0150080Y0112014D01*
X0165033Y0132364D02*
X0168868Y0132364D01*
X0168116Y0132962D02*
X0165033Y0132962D01*
X0165066Y0133561D02*
X0167587Y0133561D01*
X0167204Y0134159D02*
X0165470Y0134159D01*
X0165718Y0134758D02*
X0166930Y0134758D01*
X0166744Y0135356D02*
X0165966Y0135356D01*
X0166033Y0135955D02*
X0166649Y0135955D01*
X0166033Y0136553D02*
X0171133Y0136553D01*
X0171133Y0137152D02*
X0171733Y0137152D01*
X0171733Y0137750D02*
X0171133Y0137750D01*
X0171133Y0138349D02*
X0171733Y0138349D01*
X0171733Y0138948D02*
X0171133Y0138948D01*
X0171133Y0139546D02*
X0171733Y0139546D01*
X0171733Y0140145D02*
X0171133Y0140145D01*
X0171133Y0140743D02*
X0171733Y0140743D01*
X0173547Y0140743D02*
X0185101Y0140743D01*
X0185641Y0140203D02*
X0187258Y0139533D01*
X0195608Y0139533D01*
X0197225Y0140203D01*
X0197887Y0140865D01*
X0199881Y0140865D01*
X0200525Y0141509D01*
X0200525Y0146357D01*
X0199881Y0147002D01*
X0197887Y0147002D01*
X0197225Y0147663D01*
X0195608Y0148333D01*
X0187258Y0148333D01*
X0185641Y0147663D01*
X0184403Y0146425D01*
X0183733Y0144808D01*
X0183733Y0143058D01*
X0184403Y0141441D01*
X0185641Y0140203D01*
X0185782Y0140145D02*
X0174491Y0140145D01*
X0175104Y0139546D02*
X0187227Y0139546D01*
X0185851Y0137750D02*
X0176052Y0137750D01*
X0176179Y0137152D02*
X0185129Y0137152D01*
X0184502Y0141342D02*
X0165033Y0141342D01*
X0165033Y0141940D02*
X0184196Y0141940D01*
X0183948Y0142539D02*
X0165033Y0142539D01*
X0165033Y0143137D02*
X0183733Y0143137D01*
X0183733Y0143736D02*
X0165033Y0143736D01*
X0165033Y0144334D02*
X0183733Y0144334D01*
X0183785Y0144933D02*
X0165033Y0144933D01*
X0165033Y0145531D02*
X0184032Y0145531D01*
X0184280Y0146130D02*
X0165033Y0146130D01*
X0165033Y0146728D02*
X0184706Y0146728D01*
X0185304Y0147327D02*
X0165033Y0147327D01*
X0165033Y0147925D02*
X0186273Y0147925D01*
X0186805Y0149721D02*
X0165033Y0149721D01*
X0165033Y0150319D02*
X0185524Y0150319D01*
X0186695Y0158100D02*
X0172423Y0158100D01*
X0173027Y0158698D02*
X0202683Y0158698D01*
X0202683Y0158100D02*
X0196171Y0158100D01*
X0197387Y0157501D02*
X0202683Y0157501D01*
X0202683Y0156903D02*
X0199980Y0156903D01*
X0200525Y0156304D02*
X0202683Y0156304D01*
X0202683Y0155706D02*
X0200525Y0155706D01*
X0200525Y0155107D02*
X0202683Y0155107D01*
X0202683Y0154509D02*
X0200525Y0154509D01*
X0200525Y0153910D02*
X0202683Y0153910D01*
X0202683Y0153312D02*
X0200525Y0153312D01*
X0200525Y0152713D02*
X0202683Y0152713D01*
X0202683Y0152115D02*
X0200525Y0152115D01*
X0200525Y0151516D02*
X0202683Y0151516D01*
X0202683Y0150918D02*
X0199934Y0150918D01*
X0197342Y0150319D02*
X0202683Y0150319D01*
X0202683Y0149721D02*
X0196061Y0149721D01*
X0196593Y0147925D02*
X0202683Y0147925D01*
X0202683Y0147327D02*
X0197562Y0147327D01*
X0200154Y0146728D02*
X0202683Y0146728D01*
X0202683Y0146130D02*
X0200525Y0146130D01*
X0200525Y0145531D02*
X0202683Y0145531D01*
X0202683Y0144933D02*
X0200525Y0144933D01*
X0200525Y0144334D02*
X0202683Y0144334D01*
X0202683Y0143736D02*
X0200525Y0143736D01*
X0200525Y0143137D02*
X0202683Y0143137D01*
X0202683Y0142539D02*
X0200525Y0142539D01*
X0200525Y0141940D02*
X0202683Y0141940D01*
X0202683Y0141342D02*
X0200358Y0141342D01*
X0202683Y0140743D02*
X0197766Y0140743D01*
X0197084Y0140145D02*
X0202683Y0140145D01*
X0202683Y0139546D02*
X0195640Y0139546D01*
X0197015Y0137750D02*
X0202683Y0137750D01*
X0202683Y0137152D02*
X0197737Y0137152D01*
X0200329Y0136553D02*
X0202683Y0136553D01*
X0202683Y0135955D02*
X0200525Y0135955D01*
X0200525Y0135356D02*
X0202683Y0135356D01*
X0202683Y0134758D02*
X0200525Y0134758D01*
X0200525Y0134159D02*
X0202683Y0134159D01*
X0202683Y0133561D02*
X0200525Y0133561D01*
X0200525Y0132962D02*
X0202683Y0132962D01*
X0202683Y0132364D02*
X0200525Y0132364D01*
X0200525Y0131765D02*
X0202683Y0131765D01*
X0202683Y0131167D02*
X0200183Y0131167D01*
X0202683Y0130568D02*
X0197591Y0130568D01*
X0196663Y0129970D02*
X0202683Y0129970D01*
X0202683Y0129371D02*
X0175231Y0129371D01*
X0175628Y0128773D02*
X0202683Y0128773D01*
X0202683Y0128174D02*
X0195992Y0128174D01*
X0197313Y0127576D02*
X0202683Y0127576D01*
X0202683Y0126977D02*
X0199905Y0126977D01*
X0200504Y0126379D02*
X0202683Y0126379D01*
X0202683Y0125780D02*
X0200525Y0125780D01*
X0200525Y0125182D02*
X0202683Y0125182D01*
X0202683Y0124583D02*
X0200525Y0124583D01*
X0200525Y0123985D02*
X0202683Y0123985D01*
X0202683Y0123386D02*
X0200525Y0123386D01*
X0200525Y0122788D02*
X0202683Y0122788D01*
X0202683Y0122189D02*
X0200525Y0122189D01*
X0200525Y0121591D02*
X0202683Y0121591D01*
X0202683Y0120992D02*
X0200008Y0120992D01*
X0197416Y0120394D02*
X0202683Y0120394D01*
X0202683Y0119795D02*
X0196241Y0119795D01*
X0202683Y0119197D02*
X0175358Y0119197D01*
X0174859Y0119795D02*
X0186625Y0119795D01*
X0185450Y0120394D02*
X0174148Y0120394D01*
X0176207Y0126977D02*
X0184955Y0126977D01*
X0185553Y0127576D02*
X0176109Y0127576D01*
X0175914Y0128174D02*
X0186875Y0128174D01*
X0186203Y0129970D02*
X0174685Y0129970D01*
X0173890Y0130568D02*
X0185275Y0130568D01*
X0175844Y0138349D02*
X0202683Y0138349D01*
X0202683Y0138948D02*
X0175539Y0138948D01*
X0169319Y0140743D02*
X0165033Y0140743D01*
X0165033Y0140145D02*
X0168375Y0140145D01*
X0167762Y0139546D02*
X0165033Y0139546D01*
X0165371Y0138948D02*
X0167327Y0138948D01*
X0167022Y0138349D02*
X0165618Y0138349D01*
X0165866Y0137750D02*
X0166814Y0137750D01*
X0166687Y0137152D02*
X0166033Y0137152D01*
X0165033Y0148524D02*
X0202683Y0148524D01*
X0202683Y0149122D02*
X0165033Y0149122D01*
X0173423Y0159297D02*
X0202683Y0159297D01*
X0202683Y0159895D02*
X0196483Y0159895D01*
X0197225Y0160203D02*
X0195608Y0159533D01*
X0187258Y0159533D01*
X0185641Y0160203D01*
X0184403Y0161441D01*
X0183733Y0163058D01*
X0183733Y0164808D01*
X0184403Y0166425D01*
X0185641Y0167663D01*
X0187258Y0168333D01*
X0195608Y0168333D01*
X0197225Y0167663D01*
X0197887Y0167002D01*
X0199881Y0167002D01*
X0200525Y0166357D01*
X0200525Y0161509D01*
X0199881Y0160865D01*
X0197887Y0160865D01*
X0197225Y0160203D01*
X0197516Y0160494D02*
X0202683Y0160494D01*
X0202683Y0161092D02*
X0200109Y0161092D01*
X0200525Y0161691D02*
X0202683Y0161691D01*
X0202683Y0162289D02*
X0200525Y0162289D01*
X0200525Y0162888D02*
X0202683Y0162888D01*
X0202683Y0163486D02*
X0200525Y0163486D01*
X0200525Y0164085D02*
X0202683Y0164085D01*
X0202683Y0164683D02*
X0200525Y0164683D01*
X0200525Y0165282D02*
X0202683Y0165282D01*
X0202683Y0165881D02*
X0200525Y0165881D01*
X0200403Y0166479D02*
X0202683Y0166479D01*
X0202683Y0167078D02*
X0197811Y0167078D01*
X0197194Y0167676D02*
X0202683Y0167676D01*
X0202683Y0168275D02*
X0195750Y0168275D01*
X0195810Y0169446D02*
X0196499Y0169670D01*
X0197144Y0169999D01*
X0197730Y0170424D01*
X0197970Y0170665D01*
X0199596Y0170665D01*
X0199927Y0170753D01*
X0200223Y0170924D01*
X0200465Y0171166D01*
X0200637Y0171463D01*
X0200725Y0171793D01*
X0200725Y0173633D01*
X0195788Y0173633D01*
X0195788Y0174233D01*
X0200725Y0174233D01*
X0200725Y0176073D01*
X0200637Y0176403D01*
X0200465Y0176700D01*
X0200223Y0176942D01*
X0199927Y0177113D01*
X0199596Y0177202D01*
X0197970Y0177202D01*
X0197730Y0177442D01*
X0197144Y0177867D01*
X0196499Y0178196D01*
X0195810Y0178420D01*
X0195095Y0178533D01*
X0191733Y0178533D01*
X0191733Y0177202D01*
X0191380Y0177202D01*
X0191133Y0177135D01*
X0191133Y0178533D01*
X0187771Y0178533D01*
X0187056Y0178420D01*
X0186367Y0178196D01*
X0185722Y0177867D01*
X0185136Y0177442D01*
X0184624Y0176930D01*
X0184199Y0176344D01*
X0183870Y0175699D01*
X0183646Y0175010D01*
X0183533Y0174295D01*
X0183533Y0174233D01*
X0190251Y0174233D01*
X0191133Y0174233D01*
X0191133Y0173633D01*
X0190251Y0173633D01*
X0183533Y0173633D01*
X0183533Y0173571D01*
X0183646Y0172856D01*
X0183870Y0172167D01*
X0184199Y0171522D01*
X0184624Y0170936D01*
X0185136Y0170424D01*
X0185722Y0169999D01*
X0186367Y0169670D01*
X0187056Y0169446D01*
X0187771Y0169333D01*
X0191133Y0169333D01*
X0191133Y0170731D01*
X0191380Y0170665D01*
X0191733Y0170665D01*
X0191733Y0169333D01*
X0195095Y0169333D01*
X0195810Y0169446D01*
X0195888Y0169472D02*
X0202683Y0169472D01*
X0202683Y0170070D02*
X0197242Y0170070D01*
X0199611Y0170669D02*
X0202683Y0170669D01*
X0202683Y0171267D02*
X0200524Y0171267D01*
X0200725Y0171866D02*
X0202683Y0171866D01*
X0202683Y0172464D02*
X0200725Y0172464D01*
X0200725Y0173063D02*
X0202683Y0173063D01*
X0202683Y0173661D02*
X0195788Y0173661D01*
X0195188Y0173661D02*
X0191733Y0173661D01*
X0191733Y0173633D02*
X0191733Y0174233D01*
X0195188Y0174233D01*
X0195188Y0173633D01*
X0191733Y0173633D01*
X0191133Y0173661D02*
X0173832Y0173661D01*
X0173832Y0173063D02*
X0183614Y0173063D01*
X0183774Y0172464D02*
X0173832Y0172464D01*
X0173832Y0171866D02*
X0184024Y0171866D01*
X0184384Y0171267D02*
X0173832Y0171267D01*
X0173832Y0170669D02*
X0184892Y0170669D01*
X0185624Y0170070D02*
X0173832Y0170070D01*
X0173832Y0169472D02*
X0186978Y0169472D01*
X0187117Y0168275D02*
X0173832Y0168275D01*
X0173832Y0168873D02*
X0202683Y0168873D01*
X0202683Y0174260D02*
X0200725Y0174260D01*
X0200725Y0174858D02*
X0202683Y0174858D01*
X0202683Y0175457D02*
X0200725Y0175457D01*
X0200725Y0176055D02*
X0202683Y0176055D01*
X0202683Y0176654D02*
X0200492Y0176654D01*
X0202683Y0177252D02*
X0197919Y0177252D01*
X0197167Y0177851D02*
X0202683Y0177851D01*
X0202683Y0178449D02*
X0195624Y0178449D01*
X0195608Y0179533D02*
X0197225Y0180203D01*
X0197887Y0180865D01*
X0199881Y0180865D01*
X0200525Y0181509D01*
X0200525Y0186357D01*
X0199881Y0187002D01*
X0197887Y0187002D01*
X0197225Y0187663D01*
X0195608Y0188333D01*
X0187258Y0188333D01*
X0185641Y0187663D01*
X0184403Y0186425D01*
X0183733Y0184808D01*
X0183733Y0183058D01*
X0184403Y0181441D01*
X0185641Y0180203D01*
X0187258Y0179533D01*
X0195608Y0179533D01*
X0195882Y0179646D02*
X0202683Y0179646D01*
X0202683Y0179048D02*
X0173832Y0179048D01*
X0173832Y0179646D02*
X0186985Y0179646D01*
X0187242Y0178449D02*
X0173832Y0178449D01*
X0173832Y0177851D02*
X0185699Y0177851D01*
X0184947Y0177252D02*
X0173832Y0177252D01*
X0173832Y0176654D02*
X0184424Y0176654D01*
X0184052Y0176055D02*
X0173832Y0176055D01*
X0173832Y0175457D02*
X0183791Y0175457D01*
X0183622Y0174858D02*
X0173832Y0174858D01*
X0173832Y0174260D02*
X0183533Y0174260D01*
X0185599Y0180245D02*
X0173832Y0180245D01*
X0173832Y0180843D02*
X0185000Y0180843D01*
X0184402Y0181442D02*
X0173832Y0181442D01*
X0173832Y0182040D02*
X0184155Y0182040D01*
X0183907Y0182639D02*
X0173832Y0182639D01*
X0173832Y0183237D02*
X0183733Y0183237D01*
X0183733Y0183836D02*
X0173832Y0183836D01*
X0173832Y0184434D02*
X0183733Y0184434D01*
X0183826Y0185033D02*
X0173832Y0185033D01*
X0173832Y0185631D02*
X0184074Y0185631D01*
X0184322Y0186230D02*
X0173832Y0186230D01*
X0173832Y0186828D02*
X0184806Y0186828D01*
X0185404Y0187427D02*
X0173832Y0187427D01*
X0173832Y0188025D02*
X0186515Y0188025D01*
X0186563Y0189821D02*
X0173832Y0189821D01*
X0173832Y0189222D02*
X0202683Y0189222D01*
X0202683Y0188624D02*
X0173832Y0188624D01*
X0166632Y0188624D02*
X0070183Y0188624D01*
X0070183Y0189222D02*
X0166632Y0189222D01*
X0166632Y0189821D02*
X0086303Y0189821D01*
X0085608Y0189533D02*
X0087225Y0190203D01*
X0088463Y0191441D01*
X0089133Y0193058D01*
X0089133Y0194808D01*
X0088463Y0196425D01*
X0087225Y0197663D01*
X0085608Y0198333D01*
X0077258Y0198333D01*
X0075641Y0197663D01*
X0074979Y0197002D01*
X0072985Y0197002D01*
X0072341Y0196357D01*
X0072341Y0191509D01*
X0072985Y0190865D01*
X0074979Y0190865D01*
X0075641Y0190203D01*
X0077258Y0189533D01*
X0085608Y0189533D01*
X0085608Y0188333D02*
X0077258Y0188333D01*
X0075641Y0187663D01*
X0074979Y0187002D01*
X0072985Y0187002D01*
X0072341Y0186357D01*
X0072341Y0181509D01*
X0072985Y0180865D01*
X0074979Y0180865D01*
X0075641Y0180203D01*
X0077258Y0179533D01*
X0085608Y0179533D01*
X0087225Y0180203D01*
X0088463Y0181441D01*
X0089133Y0183058D01*
X0089133Y0184808D01*
X0088463Y0186425D01*
X0087225Y0187663D01*
X0085608Y0188333D01*
X0086351Y0188025D02*
X0166632Y0188025D01*
X0166632Y0187427D02*
X0087462Y0187427D01*
X0088060Y0186828D02*
X0166632Y0186828D01*
X0166632Y0186230D02*
X0088544Y0186230D01*
X0088792Y0185631D02*
X0166632Y0185631D01*
X0166632Y0185033D02*
X0089040Y0185033D01*
X0089133Y0184434D02*
X0166632Y0184434D01*
X0166632Y0183836D02*
X0089133Y0183836D01*
X0089133Y0183237D02*
X0166632Y0183237D01*
X0166632Y0182639D02*
X0088959Y0182639D01*
X0088712Y0182040D02*
X0166632Y0182040D01*
X0166632Y0181442D02*
X0088464Y0181442D01*
X0087866Y0180843D02*
X0166632Y0180843D01*
X0166632Y0180245D02*
X0087267Y0180245D01*
X0085882Y0179646D02*
X0166632Y0179646D01*
X0166632Y0179048D02*
X0070183Y0179048D01*
X0070183Y0179646D02*
X0076985Y0179646D01*
X0075599Y0180245D02*
X0070183Y0180245D01*
X0070183Y0180843D02*
X0075000Y0180843D01*
X0072408Y0181442D02*
X0070183Y0181442D01*
X0070183Y0182040D02*
X0072341Y0182040D01*
X0072341Y0182639D02*
X0070183Y0182639D01*
X0070183Y0183237D02*
X0072341Y0183237D01*
X0072341Y0183836D02*
X0070183Y0183836D01*
X0070183Y0184434D02*
X0072341Y0184434D01*
X0072341Y0185033D02*
X0070183Y0185033D01*
X0070183Y0185631D02*
X0072341Y0185631D01*
X0072341Y0186230D02*
X0070183Y0186230D01*
X0070183Y0186828D02*
X0072812Y0186828D01*
X0075404Y0187427D02*
X0070183Y0187427D01*
X0070183Y0188025D02*
X0076515Y0188025D01*
X0076563Y0189821D02*
X0070183Y0189821D01*
X0070183Y0190419D02*
X0075424Y0190419D01*
X0072832Y0191018D02*
X0070183Y0191018D01*
X0070183Y0191616D02*
X0072341Y0191616D01*
X0072341Y0192215D02*
X0070183Y0192215D01*
X0070183Y0192814D02*
X0072341Y0192814D01*
X0072341Y0193412D02*
X0070183Y0193412D01*
X0070183Y0194011D02*
X0072341Y0194011D01*
X0072341Y0194609D02*
X0070183Y0194609D01*
X0070183Y0195208D02*
X0072341Y0195208D01*
X0072341Y0195806D02*
X0070183Y0195806D01*
X0070183Y0196405D02*
X0072388Y0196405D01*
X0070183Y0197003D02*
X0074981Y0197003D01*
X0075579Y0197602D02*
X0070183Y0197602D01*
X0070183Y0198200D02*
X0076937Y0198200D01*
X0077258Y0199533D02*
X0075641Y0200203D01*
X0074979Y0200865D01*
X0072985Y0200865D01*
X0072341Y0201509D01*
X0072341Y0206357D01*
X0072985Y0207002D01*
X0074979Y0207002D01*
X0075641Y0207663D01*
X0077258Y0208333D01*
X0085608Y0208333D01*
X0087225Y0207663D01*
X0088463Y0206425D01*
X0089133Y0204808D01*
X0089133Y0203058D01*
X0088463Y0201441D01*
X0087225Y0200203D01*
X0085608Y0199533D01*
X0077258Y0199533D01*
X0076141Y0199996D02*
X0070183Y0199996D01*
X0070183Y0200594D02*
X0075249Y0200594D01*
X0072657Y0201193D02*
X0070183Y0201193D01*
X0070183Y0201791D02*
X0072341Y0201791D01*
X0072341Y0202390D02*
X0070183Y0202390D01*
X0070183Y0202988D02*
X0072341Y0202988D01*
X0072341Y0203587D02*
X0070183Y0203587D01*
X0070183Y0204185D02*
X0072341Y0204185D01*
X0072341Y0204784D02*
X0070183Y0204784D01*
X0070183Y0205382D02*
X0072341Y0205382D01*
X0072341Y0205981D02*
X0070183Y0205981D01*
X0070183Y0206579D02*
X0072563Y0206579D01*
X0070183Y0207178D02*
X0075155Y0207178D01*
X0075914Y0207776D02*
X0070183Y0207776D01*
X0070183Y0208375D02*
X0202683Y0208375D01*
X0202683Y0208973D02*
X0125283Y0208973D01*
X0125513Y0209069D02*
X0126297Y0209853D01*
X0126722Y0210878D01*
X0126722Y0211988D01*
X0126703Y0212033D01*
X0184158Y0212033D01*
X0184403Y0211441D01*
X0185641Y0210203D01*
X0187258Y0209533D01*
X0195608Y0209533D01*
X0197225Y0210203D01*
X0197887Y0210865D01*
X0199881Y0210865D01*
X0200525Y0211509D01*
X0200525Y0216357D01*
X0199881Y0217002D01*
X0197887Y0217002D01*
X0197225Y0217663D01*
X0195608Y0218333D01*
X0187258Y0218333D01*
X0185641Y0217663D01*
X0184403Y0216425D01*
X0184158Y0215833D01*
X0123146Y0215833D01*
X0122033Y0214720D01*
X0122033Y0213477D01*
X0121569Y0213013D01*
X0121144Y0211988D01*
X0121144Y0210878D01*
X0121569Y0209853D01*
X0122353Y0209069D01*
X0123378Y0208644D01*
X0124488Y0208644D01*
X0125513Y0209069D01*
X0126016Y0209572D02*
X0187164Y0209572D01*
X0187258Y0208333D02*
X0185641Y0207663D01*
X0184403Y0206425D01*
X0183733Y0204808D01*
X0183733Y0203058D01*
X0184403Y0201441D01*
X0185641Y0200203D01*
X0187258Y0199533D01*
X0195608Y0199533D01*
X0197225Y0200203D01*
X0197887Y0200865D01*
X0199881Y0200865D01*
X0200525Y0201509D01*
X0200525Y0206357D01*
X0199881Y0207002D01*
X0197887Y0207002D01*
X0197225Y0207663D01*
X0195608Y0208333D01*
X0187258Y0208333D01*
X0185914Y0207776D02*
X0086952Y0207776D01*
X0087711Y0207178D02*
X0185155Y0207178D01*
X0184557Y0206579D02*
X0088309Y0206579D01*
X0088647Y0205981D02*
X0184219Y0205981D01*
X0183971Y0205382D02*
X0088895Y0205382D01*
X0089133Y0204784D02*
X0183733Y0204784D01*
X0183733Y0204185D02*
X0089133Y0204185D01*
X0089133Y0203587D02*
X0183733Y0203587D01*
X0183762Y0202988D02*
X0089104Y0202988D01*
X0088856Y0202390D02*
X0184010Y0202390D01*
X0184258Y0201791D02*
X0088608Y0201791D01*
X0088215Y0201193D02*
X0184651Y0201193D01*
X0185249Y0200594D02*
X0087617Y0200594D01*
X0086725Y0199996D02*
X0186141Y0199996D01*
X0186937Y0198200D02*
X0085929Y0198200D01*
X0087287Y0197602D02*
X0185579Y0197602D01*
X0195929Y0198200D02*
X0202683Y0198200D01*
X0202683Y0197602D02*
X0197287Y0197602D01*
X0197886Y0197003D02*
X0202683Y0197003D01*
X0202683Y0196405D02*
X0200478Y0196405D01*
X0200525Y0195806D02*
X0202683Y0195806D01*
X0202683Y0195208D02*
X0200525Y0195208D01*
X0200525Y0194609D02*
X0202683Y0194609D01*
X0202683Y0194011D02*
X0200525Y0194011D01*
X0200525Y0193412D02*
X0202683Y0193412D01*
X0202683Y0192814D02*
X0200525Y0192814D01*
X0200525Y0192215D02*
X0202683Y0192215D01*
X0202683Y0191616D02*
X0200525Y0191616D01*
X0200034Y0191018D02*
X0202683Y0191018D01*
X0202683Y0190419D02*
X0197442Y0190419D01*
X0196303Y0189821D02*
X0202683Y0189821D01*
X0202683Y0188025D02*
X0196351Y0188025D01*
X0197462Y0187427D02*
X0202683Y0187427D01*
X0202683Y0186828D02*
X0200054Y0186828D01*
X0200525Y0186230D02*
X0202683Y0186230D01*
X0202683Y0185631D02*
X0200525Y0185631D01*
X0200525Y0185033D02*
X0202683Y0185033D01*
X0202683Y0184434D02*
X0200525Y0184434D01*
X0200525Y0183836D02*
X0202683Y0183836D01*
X0202683Y0183237D02*
X0200525Y0183237D01*
X0200525Y0182639D02*
X0202683Y0182639D01*
X0202683Y0182040D02*
X0200525Y0182040D01*
X0200458Y0181442D02*
X0202683Y0181442D01*
X0202683Y0180843D02*
X0197866Y0180843D01*
X0197267Y0180245D02*
X0202683Y0180245D01*
X0191733Y0178449D02*
X0191133Y0178449D01*
X0191133Y0177851D02*
X0191733Y0177851D01*
X0191733Y0177252D02*
X0191133Y0177252D01*
X0190251Y0174233D02*
X0190251Y0174233D01*
X0190251Y0173633D02*
X0190251Y0173633D01*
X0191133Y0170669D02*
X0191365Y0170669D01*
X0191133Y0170070D02*
X0191733Y0170070D01*
X0191733Y0169472D02*
X0191133Y0169472D01*
X0185672Y0167676D02*
X0173832Y0167676D01*
X0173832Y0167078D02*
X0185055Y0167078D01*
X0184456Y0166479D02*
X0173832Y0166479D01*
X0173832Y0165881D02*
X0184177Y0165881D01*
X0183929Y0165282D02*
X0173832Y0165282D01*
X0173832Y0164683D02*
X0183733Y0164683D01*
X0183733Y0164085D02*
X0173832Y0164085D01*
X0173832Y0163486D02*
X0183733Y0163486D01*
X0183803Y0162888D02*
X0173832Y0162888D01*
X0173832Y0162289D02*
X0184051Y0162289D01*
X0184299Y0161691D02*
X0173834Y0161691D01*
X0173833Y0161092D02*
X0184751Y0161092D01*
X0185350Y0160494D02*
X0173832Y0160494D01*
X0173675Y0159895D02*
X0186383Y0159895D01*
X0166632Y0190419D02*
X0087442Y0190419D01*
X0088041Y0191018D02*
X0166632Y0191018D01*
X0166632Y0191616D02*
X0088536Y0191616D01*
X0088784Y0192215D02*
X0166632Y0192215D01*
X0166632Y0192814D02*
X0089032Y0192814D01*
X0089133Y0193412D02*
X0166632Y0193412D01*
X0166623Y0194011D02*
X0089133Y0194011D01*
X0089133Y0194609D02*
X0166795Y0194609D01*
X0167036Y0195208D02*
X0088968Y0195208D01*
X0088720Y0195806D02*
X0167447Y0195806D01*
X0168033Y0196405D02*
X0088472Y0196405D01*
X0087886Y0197003D02*
X0169261Y0197003D01*
X0184185Y0211966D02*
X0126722Y0211966D01*
X0126722Y0211367D02*
X0184476Y0211367D01*
X0185075Y0210769D02*
X0126677Y0210769D01*
X0126429Y0210170D02*
X0185719Y0210170D01*
X0184291Y0216155D02*
X0088575Y0216155D01*
X0088463Y0216425D02*
X0087225Y0217663D01*
X0085608Y0218333D01*
X0077258Y0218333D01*
X0075641Y0217663D01*
X0074979Y0217002D01*
X0072985Y0217002D01*
X0072341Y0216357D01*
X0072341Y0211509D01*
X0072985Y0210865D01*
X0074979Y0210865D01*
X0075641Y0210203D01*
X0077258Y0209533D01*
X0085608Y0209533D01*
X0087225Y0210203D01*
X0088463Y0211441D01*
X0089133Y0213058D01*
X0089133Y0214808D01*
X0088463Y0216425D01*
X0088135Y0216754D02*
X0184731Y0216754D01*
X0185330Y0217352D02*
X0087536Y0217352D01*
X0086531Y0217951D02*
X0186335Y0217951D01*
X0187056Y0219446D02*
X0186367Y0219670D01*
X0185722Y0219999D01*
X0185136Y0220424D01*
X0184624Y0220936D01*
X0184199Y0221522D01*
X0183870Y0222167D01*
X0183646Y0222856D01*
X0183533Y0223571D01*
X0183533Y0223633D01*
X0190251Y0223633D01*
X0190251Y0223633D01*
X0191133Y0223633D01*
X0191133Y0224233D01*
X0190251Y0224233D01*
X0190251Y0224233D01*
X0183533Y0224233D01*
X0183533Y0224295D01*
X0183646Y0225010D01*
X0183870Y0225699D01*
X0184199Y0226344D01*
X0184624Y0226930D01*
X0185136Y0227442D01*
X0185722Y0227867D01*
X0186367Y0228196D01*
X0187056Y0228420D01*
X0187771Y0228533D01*
X0191133Y0228533D01*
X0191133Y0227135D01*
X0191380Y0227202D01*
X0191733Y0227202D01*
X0191733Y0228533D01*
X0195095Y0228533D01*
X0195810Y0228420D01*
X0196499Y0228196D01*
X0197144Y0227867D01*
X0197730Y0227442D01*
X0197970Y0227202D01*
X0199596Y0227202D01*
X0199927Y0227113D01*
X0200223Y0226942D01*
X0200465Y0226700D01*
X0200637Y0226403D01*
X0200725Y0226073D01*
X0200725Y0224233D01*
X0195788Y0224233D01*
X0195788Y0223633D01*
X0200725Y0223633D01*
X0200725Y0221793D01*
X0200637Y0221463D01*
X0200465Y0221166D01*
X0200223Y0220924D01*
X0199927Y0220753D01*
X0199596Y0220665D01*
X0197970Y0220665D01*
X0197730Y0220424D01*
X0197144Y0219999D01*
X0196499Y0219670D01*
X0195810Y0219446D01*
X0195095Y0219333D01*
X0191733Y0219333D01*
X0191733Y0220665D01*
X0191380Y0220665D01*
X0191133Y0220731D01*
X0191133Y0219333D01*
X0187771Y0219333D01*
X0187056Y0219446D01*
X0186217Y0219747D02*
X0086649Y0219747D01*
X0086499Y0219670D02*
X0087144Y0219999D01*
X0087730Y0220424D01*
X0088242Y0220936D01*
X0088667Y0221522D01*
X0088996Y0222167D01*
X0089220Y0222856D01*
X0089333Y0223571D01*
X0089333Y0223633D01*
X0082615Y0223633D01*
X0082615Y0223633D01*
X0081733Y0223633D01*
X0081733Y0224233D01*
X0082615Y0224233D01*
X0089333Y0224233D01*
X0089333Y0224295D01*
X0089220Y0225010D01*
X0088996Y0225699D01*
X0088667Y0226344D01*
X0088242Y0226930D01*
X0087730Y0227442D01*
X0087144Y0227867D01*
X0086499Y0228196D01*
X0085810Y0228420D01*
X0085095Y0228533D01*
X0081733Y0228533D01*
X0081733Y0227135D01*
X0081486Y0227202D01*
X0081133Y0227202D01*
X0081133Y0228533D01*
X0077771Y0228533D01*
X0077056Y0228420D01*
X0076367Y0228196D01*
X0075722Y0227867D01*
X0075136Y0227442D01*
X0074896Y0227202D01*
X0073270Y0227202D01*
X0072939Y0227113D01*
X0072643Y0226942D01*
X0072401Y0226700D01*
X0072230Y0226403D01*
X0072141Y0226073D01*
X0072141Y0224233D01*
X0077078Y0224233D01*
X0077078Y0223633D01*
X0072141Y0223633D01*
X0072141Y0221793D01*
X0072230Y0221463D01*
X0072401Y0221166D01*
X0072643Y0220924D01*
X0072939Y0220753D01*
X0073270Y0220665D01*
X0074896Y0220665D01*
X0075136Y0220424D01*
X0075722Y0219999D01*
X0076367Y0219670D01*
X0077056Y0219446D01*
X0077771Y0219333D01*
X0081133Y0219333D01*
X0081133Y0220665D01*
X0081486Y0220665D01*
X0081733Y0220731D01*
X0081733Y0219333D01*
X0085095Y0219333D01*
X0085810Y0219446D01*
X0086499Y0219670D01*
X0087621Y0220345D02*
X0185246Y0220345D01*
X0184619Y0220944D02*
X0088247Y0220944D01*
X0088677Y0221542D02*
X0184189Y0221542D01*
X0183884Y0222141D02*
X0088982Y0222141D01*
X0089182Y0222739D02*
X0183684Y0222739D01*
X0183570Y0223338D02*
X0089296Y0223338D01*
X0089295Y0224535D02*
X0183571Y0224535D01*
X0183686Y0225133D02*
X0089180Y0225133D01*
X0088979Y0225732D02*
X0183887Y0225732D01*
X0184192Y0226330D02*
X0088674Y0226330D01*
X0088243Y0226929D02*
X0184624Y0226929D01*
X0185254Y0227527D02*
X0087612Y0227527D01*
X0086637Y0228126D02*
X0186229Y0228126D01*
X0185817Y0234247D02*
X0183977Y0234247D01*
X0183977Y0239184D01*
X0183377Y0239184D01*
X0183377Y0234247D01*
X0181537Y0234247D01*
X0181207Y0234336D01*
X0180910Y0234507D01*
X0180668Y0234749D01*
X0180497Y0235045D01*
X0180409Y0235376D01*
X0180409Y0239184D01*
X0183377Y0239184D01*
X0183377Y0239784D01*
X0180409Y0239784D01*
X0180409Y0243592D01*
X0180497Y0243923D01*
X0180668Y0244219D01*
X0180910Y0244462D01*
X0181207Y0244633D01*
X0181537Y0244721D01*
X0183377Y0244721D01*
X0183377Y0239784D01*
X0183977Y0239784D01*
X0186946Y0239784D01*
X0186946Y0243592D01*
X0186857Y0243923D01*
X0186686Y0244219D01*
X0186444Y0244462D01*
X0186147Y0244633D01*
X0185817Y0244721D01*
X0183977Y0244721D01*
X0183977Y0239784D01*
X0183977Y0239184D01*
X0186946Y0239184D01*
X0186946Y0235376D01*
X0186857Y0235045D01*
X0186686Y0234749D01*
X0186444Y0234507D01*
X0186147Y0234336D01*
X0185817Y0234247D01*
X0186646Y0234709D02*
X0202683Y0234709D01*
X0202683Y0234111D02*
X0070183Y0234111D01*
X0070183Y0234709D02*
X0086220Y0234709D01*
X0086180Y0234749D02*
X0086422Y0234507D01*
X0086719Y0234336D01*
X0087049Y0234247D01*
X0088889Y0234247D01*
X0088889Y0239184D01*
X0089489Y0239184D01*
X0089489Y0234247D01*
X0091329Y0234247D01*
X0091659Y0234336D01*
X0091956Y0234507D01*
X0092198Y0234749D01*
X0092369Y0235045D01*
X0092457Y0235376D01*
X0092457Y0239184D01*
X0089489Y0239184D01*
X0089489Y0239784D01*
X0092457Y0239784D01*
X0092457Y0243592D01*
X0092369Y0243923D01*
X0092198Y0244219D01*
X0091956Y0244462D01*
X0091659Y0244633D01*
X0091329Y0244721D01*
X0089489Y0244721D01*
X0089489Y0239784D01*
X0088889Y0239784D01*
X0088889Y0239184D01*
X0085920Y0239184D01*
X0085920Y0235376D01*
X0086009Y0235045D01*
X0086180Y0234749D01*
X0085939Y0235308D02*
X0070183Y0235308D01*
X0070183Y0235906D02*
X0085920Y0235906D01*
X0085920Y0236505D02*
X0070183Y0236505D01*
X0070183Y0237103D02*
X0085920Y0237103D01*
X0085920Y0237702D02*
X0070183Y0237702D01*
X0070183Y0238300D02*
X0085920Y0238300D01*
X0085920Y0238899D02*
X0070183Y0238899D01*
X0070183Y0239497D02*
X0088889Y0239497D01*
X0088889Y0239784D02*
X0085920Y0239784D01*
X0085920Y0243592D01*
X0086009Y0243923D01*
X0086180Y0244219D01*
X0086422Y0244462D01*
X0086719Y0244633D01*
X0087049Y0244721D01*
X0088889Y0244721D01*
X0088889Y0239784D01*
X0088889Y0240096D02*
X0089489Y0240096D01*
X0089489Y0240694D02*
X0088889Y0240694D01*
X0088889Y0241293D02*
X0089489Y0241293D01*
X0089489Y0241891D02*
X0088889Y0241891D01*
X0088889Y0242490D02*
X0089489Y0242490D01*
X0089489Y0243088D02*
X0088889Y0243088D01*
X0088889Y0243687D02*
X0089489Y0243687D01*
X0089489Y0244285D02*
X0088889Y0244285D01*
X0086246Y0244285D02*
X0070183Y0244285D01*
X0070183Y0243687D02*
X0085946Y0243687D01*
X0085920Y0243088D02*
X0070183Y0243088D01*
X0070183Y0242490D02*
X0085920Y0242490D01*
X0085920Y0241891D02*
X0070183Y0241891D01*
X0070183Y0241293D02*
X0085920Y0241293D01*
X0085920Y0240694D02*
X0070183Y0240694D01*
X0070183Y0240096D02*
X0085920Y0240096D01*
X0088889Y0238899D02*
X0089489Y0238899D01*
X0089489Y0239497D02*
X0093994Y0239497D01*
X0093994Y0238899D02*
X0092457Y0238899D01*
X0092457Y0238300D02*
X0093994Y0238300D01*
X0093994Y0237702D02*
X0092457Y0237702D01*
X0092457Y0237103D02*
X0093994Y0237103D01*
X0093994Y0236505D02*
X0092457Y0236505D01*
X0092457Y0235906D02*
X0093994Y0235906D01*
X0093994Y0235308D02*
X0092439Y0235308D01*
X0092158Y0234709D02*
X0094377Y0234709D01*
X0094639Y0234447D02*
X0099487Y0234447D01*
X0100131Y0235092D01*
X0100131Y0243877D01*
X0099487Y0244521D01*
X0094639Y0244521D01*
X0093994Y0243877D01*
X0093994Y0235092D01*
X0094639Y0234447D01*
X0099749Y0234709D02*
X0102251Y0234709D01*
X0102513Y0234447D02*
X0101869Y0235092D01*
X0101869Y0243877D01*
X0102513Y0244521D01*
X0107361Y0244521D01*
X0108005Y0243877D01*
X0108005Y0235092D01*
X0107361Y0234447D01*
X0102513Y0234447D01*
X0101869Y0235308D02*
X0100131Y0235308D01*
X0100131Y0235906D02*
X0101869Y0235906D01*
X0101869Y0236505D02*
X0100131Y0236505D01*
X0100131Y0237103D02*
X0101869Y0237103D01*
X0101869Y0237702D02*
X0100131Y0237702D01*
X0100131Y0238300D02*
X0101869Y0238300D01*
X0101869Y0238899D02*
X0100131Y0238899D01*
X0100131Y0239497D02*
X0101869Y0239497D01*
X0101869Y0240096D02*
X0100131Y0240096D01*
X0100131Y0240694D02*
X0101869Y0240694D01*
X0101869Y0241293D02*
X0100131Y0241293D01*
X0100131Y0241891D02*
X0101869Y0241891D01*
X0101869Y0242490D02*
X0100131Y0242490D01*
X0100131Y0243088D02*
X0101869Y0243088D01*
X0101869Y0243687D02*
X0100131Y0243687D01*
X0099723Y0244285D02*
X0102277Y0244285D01*
X0107597Y0244285D02*
X0109868Y0244285D01*
X0109802Y0244219D02*
X0109631Y0243923D01*
X0109543Y0243592D01*
X0109543Y0239784D01*
X0112511Y0239784D01*
X0112511Y0239184D01*
X0113111Y0239184D01*
X0113111Y0234247D01*
X0114951Y0234247D01*
X0115281Y0234336D01*
X0115578Y0234507D01*
X0115820Y0234749D01*
X0115991Y0235045D01*
X0116080Y0235376D01*
X0116080Y0239184D01*
X0113111Y0239184D01*
X0113111Y0239784D01*
X0116080Y0239784D01*
X0116080Y0243592D01*
X0115991Y0243923D01*
X0115820Y0244219D01*
X0115578Y0244462D01*
X0115281Y0244633D01*
X0114951Y0244721D01*
X0113111Y0244721D01*
X0113111Y0239784D01*
X0112511Y0239784D01*
X0112511Y0244721D01*
X0110671Y0244721D01*
X0110341Y0244633D01*
X0110044Y0244462D01*
X0109802Y0244219D01*
X0109568Y0243687D02*
X0108005Y0243687D01*
X0108005Y0243088D02*
X0109543Y0243088D01*
X0109543Y0242490D02*
X0108005Y0242490D01*
X0108005Y0241891D02*
X0109543Y0241891D01*
X0109543Y0241293D02*
X0108005Y0241293D01*
X0108005Y0240694D02*
X0109543Y0240694D01*
X0109543Y0240096D02*
X0108005Y0240096D01*
X0108005Y0239497D02*
X0112511Y0239497D01*
X0112511Y0239184D02*
X0109543Y0239184D01*
X0109543Y0235376D01*
X0109631Y0235045D01*
X0109802Y0234749D01*
X0110044Y0234507D01*
X0110341Y0234336D01*
X0110671Y0234247D01*
X0112511Y0234247D01*
X0112511Y0239184D01*
X0112511Y0238899D02*
X0113111Y0238899D01*
X0113111Y0239497D02*
X0156987Y0239497D01*
X0156987Y0238899D02*
X0116080Y0238899D01*
X0116080Y0238300D02*
X0156987Y0238300D01*
X0156987Y0237702D02*
X0116080Y0237702D01*
X0116080Y0237103D02*
X0156987Y0237103D01*
X0156987Y0236505D02*
X0116080Y0236505D01*
X0116080Y0235906D02*
X0156987Y0235906D01*
X0156987Y0235308D02*
X0116061Y0235308D01*
X0115780Y0234709D02*
X0157369Y0234709D01*
X0157631Y0234447D02*
X0162479Y0234447D01*
X0163124Y0235092D01*
X0163124Y0243877D01*
X0162479Y0244521D01*
X0157631Y0244521D01*
X0156987Y0243877D01*
X0156987Y0235092D01*
X0157631Y0234447D01*
X0156987Y0240096D02*
X0116080Y0240096D01*
X0116080Y0240694D02*
X0156987Y0240694D01*
X0156987Y0241293D02*
X0116080Y0241293D01*
X0116080Y0241891D02*
X0156987Y0241891D01*
X0156987Y0242490D02*
X0116080Y0242490D01*
X0116080Y0243088D02*
X0156987Y0243088D01*
X0156987Y0243687D02*
X0116054Y0243687D01*
X0115754Y0244285D02*
X0157395Y0244285D01*
X0162715Y0244285D02*
X0165269Y0244285D01*
X0165505Y0244521D02*
X0164861Y0243877D01*
X0164861Y0235092D01*
X0165505Y0234447D01*
X0170353Y0234447D01*
X0170998Y0235092D01*
X0170998Y0243877D01*
X0170353Y0244521D01*
X0165505Y0244521D01*
X0164861Y0243687D02*
X0163124Y0243687D01*
X0163124Y0243088D02*
X0164861Y0243088D01*
X0164861Y0242490D02*
X0163124Y0242490D01*
X0163124Y0241891D02*
X0164861Y0241891D01*
X0164861Y0241293D02*
X0163124Y0241293D01*
X0163124Y0240694D02*
X0164861Y0240694D01*
X0164861Y0240096D02*
X0163124Y0240096D01*
X0163124Y0239497D02*
X0164861Y0239497D01*
X0164861Y0238899D02*
X0163124Y0238899D01*
X0163124Y0238300D02*
X0164861Y0238300D01*
X0164861Y0237702D02*
X0163124Y0237702D01*
X0163124Y0237103D02*
X0164861Y0237103D01*
X0164861Y0236505D02*
X0163124Y0236505D01*
X0163124Y0235906D02*
X0164861Y0235906D01*
X0164861Y0235308D02*
X0163124Y0235308D01*
X0162741Y0234709D02*
X0165243Y0234709D01*
X0170615Y0234709D02*
X0173117Y0234709D01*
X0173379Y0234447D02*
X0178227Y0234447D01*
X0178872Y0235092D01*
X0178872Y0243877D01*
X0178227Y0244521D01*
X0173379Y0244521D01*
X0172735Y0243877D01*
X0172735Y0235092D01*
X0173379Y0234447D01*
X0172735Y0235308D02*
X0170998Y0235308D01*
X0170998Y0235906D02*
X0172735Y0235906D01*
X0172735Y0236505D02*
X0170998Y0236505D01*
X0170998Y0237103D02*
X0172735Y0237103D01*
X0172735Y0237702D02*
X0170998Y0237702D01*
X0170998Y0238300D02*
X0172735Y0238300D01*
X0172735Y0238899D02*
X0170998Y0238899D01*
X0170998Y0239497D02*
X0172735Y0239497D01*
X0172735Y0240096D02*
X0170998Y0240096D01*
X0170998Y0240694D02*
X0172735Y0240694D01*
X0172735Y0241293D02*
X0170998Y0241293D01*
X0170998Y0241891D02*
X0172735Y0241891D01*
X0172735Y0242490D02*
X0170998Y0242490D01*
X0170998Y0243088D02*
X0172735Y0243088D01*
X0172735Y0243687D02*
X0170998Y0243687D01*
X0170589Y0244285D02*
X0173143Y0244285D01*
X0178463Y0244285D02*
X0180734Y0244285D01*
X0180434Y0243687D02*
X0178872Y0243687D01*
X0178872Y0243088D02*
X0180409Y0243088D01*
X0180409Y0242490D02*
X0178872Y0242490D01*
X0178872Y0241891D02*
X0180409Y0241891D01*
X0180409Y0241293D02*
X0178872Y0241293D01*
X0178872Y0240694D02*
X0180409Y0240694D01*
X0180409Y0240096D02*
X0178872Y0240096D01*
X0178872Y0239497D02*
X0183377Y0239497D01*
X0183377Y0238899D02*
X0183977Y0238899D01*
X0183977Y0239497D02*
X0202683Y0239497D01*
X0202683Y0238899D02*
X0186946Y0238899D01*
X0186946Y0238300D02*
X0202683Y0238300D01*
X0202683Y0237702D02*
X0186946Y0237702D01*
X0186946Y0237103D02*
X0202683Y0237103D01*
X0202683Y0236505D02*
X0186946Y0236505D01*
X0186946Y0235906D02*
X0202683Y0235906D01*
X0202683Y0235308D02*
X0186927Y0235308D01*
X0183977Y0235308D02*
X0183377Y0235308D01*
X0183377Y0235906D02*
X0183977Y0235906D01*
X0183977Y0236505D02*
X0183377Y0236505D01*
X0183377Y0237103D02*
X0183977Y0237103D01*
X0183977Y0237702D02*
X0183377Y0237702D01*
X0183377Y0238300D02*
X0183977Y0238300D01*
X0183977Y0240096D02*
X0183377Y0240096D01*
X0183377Y0240694D02*
X0183977Y0240694D01*
X0183977Y0241293D02*
X0183377Y0241293D01*
X0183377Y0241891D02*
X0183977Y0241891D01*
X0183977Y0242490D02*
X0183377Y0242490D01*
X0183377Y0243088D02*
X0183977Y0243088D01*
X0183977Y0243687D02*
X0183377Y0243687D01*
X0183377Y0244285D02*
X0183977Y0244285D01*
X0186620Y0244285D02*
X0202683Y0244285D01*
X0202683Y0243687D02*
X0186920Y0243687D01*
X0186946Y0243088D02*
X0202683Y0243088D01*
X0202683Y0242490D02*
X0186946Y0242490D01*
X0186946Y0241891D02*
X0202683Y0241891D01*
X0202683Y0241293D02*
X0186946Y0241293D01*
X0186946Y0240694D02*
X0202683Y0240694D01*
X0202683Y0240096D02*
X0186946Y0240096D01*
X0183977Y0234709D02*
X0183377Y0234709D01*
X0180708Y0234709D02*
X0178489Y0234709D01*
X0178872Y0235308D02*
X0180427Y0235308D01*
X0180409Y0235906D02*
X0178872Y0235906D01*
X0178872Y0236505D02*
X0180409Y0236505D01*
X0180409Y0237103D02*
X0178872Y0237103D01*
X0178872Y0237702D02*
X0180409Y0237702D01*
X0180409Y0238300D02*
X0178872Y0238300D01*
X0178872Y0238899D02*
X0180409Y0238899D01*
X0191133Y0228126D02*
X0191733Y0228126D01*
X0191733Y0227527D02*
X0191133Y0227527D01*
X0191733Y0224233D02*
X0195188Y0224233D01*
X0195188Y0223633D01*
X0191733Y0223633D01*
X0191733Y0224233D01*
X0191733Y0223936D02*
X0195188Y0223936D01*
X0195788Y0223936D02*
X0202683Y0223936D01*
X0202683Y0223338D02*
X0200725Y0223338D01*
X0200725Y0222739D02*
X0202683Y0222739D01*
X0202683Y0222141D02*
X0200725Y0222141D01*
X0200658Y0221542D02*
X0202683Y0221542D01*
X0202683Y0220944D02*
X0200243Y0220944D01*
X0202683Y0220345D02*
X0197621Y0220345D01*
X0196649Y0219747D02*
X0202683Y0219747D01*
X0202683Y0219148D02*
X0070183Y0219148D01*
X0070183Y0218550D02*
X0202683Y0218550D01*
X0202683Y0217951D02*
X0196531Y0217951D01*
X0197536Y0217352D02*
X0202683Y0217352D01*
X0202683Y0216754D02*
X0200128Y0216754D01*
X0200525Y0216155D02*
X0202683Y0216155D01*
X0202683Y0215557D02*
X0200525Y0215557D01*
X0200525Y0214958D02*
X0202683Y0214958D01*
X0202683Y0214360D02*
X0200525Y0214360D01*
X0200525Y0213761D02*
X0202683Y0213761D01*
X0202683Y0213163D02*
X0200525Y0213163D01*
X0200525Y0212564D02*
X0202683Y0212564D01*
X0202683Y0211966D02*
X0200525Y0211966D01*
X0200384Y0211367D02*
X0202683Y0211367D01*
X0202683Y0210769D02*
X0197791Y0210769D01*
X0197147Y0210170D02*
X0202683Y0210170D01*
X0202683Y0209572D02*
X0195702Y0209572D01*
X0196952Y0207776D02*
X0202683Y0207776D01*
X0202683Y0207178D02*
X0197711Y0207178D01*
X0200303Y0206579D02*
X0202683Y0206579D01*
X0202683Y0205981D02*
X0200525Y0205981D01*
X0200525Y0205382D02*
X0202683Y0205382D01*
X0202683Y0204784D02*
X0200525Y0204784D01*
X0200525Y0204185D02*
X0202683Y0204185D01*
X0202683Y0203587D02*
X0200525Y0203587D01*
X0200525Y0202988D02*
X0202683Y0202988D01*
X0202683Y0202390D02*
X0200525Y0202390D01*
X0200525Y0201791D02*
X0202683Y0201791D01*
X0202683Y0201193D02*
X0200209Y0201193D01*
X0202683Y0200594D02*
X0197617Y0200594D01*
X0196725Y0199996D02*
X0202683Y0199996D01*
X0202683Y0199397D02*
X0070183Y0199397D01*
X0070183Y0198799D02*
X0202683Y0198799D01*
X0191733Y0219747D02*
X0191133Y0219747D01*
X0191133Y0220345D02*
X0191733Y0220345D01*
X0191133Y0223936D02*
X0081733Y0223936D01*
X0081133Y0223936D02*
X0077678Y0223936D01*
X0077678Y0224233D02*
X0081133Y0224233D01*
X0081133Y0223633D01*
X0077678Y0223633D01*
X0077678Y0224233D01*
X0077078Y0223936D02*
X0070183Y0223936D01*
X0070183Y0223338D02*
X0072141Y0223338D01*
X0072141Y0222739D02*
X0070183Y0222739D01*
X0070183Y0222141D02*
X0072141Y0222141D01*
X0072208Y0221542D02*
X0070183Y0221542D01*
X0070183Y0220944D02*
X0072623Y0220944D01*
X0070183Y0220345D02*
X0075246Y0220345D01*
X0076217Y0219747D02*
X0070183Y0219747D01*
X0070183Y0217951D02*
X0076335Y0217951D01*
X0075330Y0217352D02*
X0070183Y0217352D01*
X0070183Y0216754D02*
X0072738Y0216754D01*
X0072341Y0216155D02*
X0070183Y0216155D01*
X0070183Y0215557D02*
X0072341Y0215557D01*
X0072341Y0214958D02*
X0070183Y0214958D01*
X0070183Y0214360D02*
X0072341Y0214360D01*
X0072341Y0213761D02*
X0070183Y0213761D01*
X0070183Y0213163D02*
X0072341Y0213163D01*
X0072341Y0212564D02*
X0070183Y0212564D01*
X0070183Y0211966D02*
X0072341Y0211966D01*
X0072482Y0211367D02*
X0070183Y0211367D01*
X0070183Y0210769D02*
X0075075Y0210769D01*
X0075719Y0210170D02*
X0070183Y0210170D01*
X0070183Y0209572D02*
X0077164Y0209572D01*
X0070183Y0208973D02*
X0122583Y0208973D01*
X0121850Y0209572D02*
X0085702Y0209572D01*
X0087147Y0210170D02*
X0121437Y0210170D01*
X0121189Y0210769D02*
X0087791Y0210769D01*
X0088390Y0211367D02*
X0121144Y0211367D01*
X0121144Y0211966D02*
X0088681Y0211966D01*
X0088929Y0212564D02*
X0121383Y0212564D01*
X0121719Y0213163D02*
X0089133Y0213163D01*
X0089133Y0213761D02*
X0122033Y0213761D01*
X0122033Y0214360D02*
X0089133Y0214360D01*
X0089071Y0214958D02*
X0122271Y0214958D01*
X0122870Y0215557D02*
X0088823Y0215557D01*
X0082615Y0224233D02*
X0082615Y0224233D01*
X0081733Y0227527D02*
X0081133Y0227527D01*
X0081133Y0228126D02*
X0081733Y0228126D01*
X0076229Y0228126D02*
X0070183Y0228126D01*
X0070183Y0228724D02*
X0202683Y0228724D01*
X0202683Y0228126D02*
X0196637Y0228126D01*
X0197612Y0227527D02*
X0202683Y0227527D01*
X0202683Y0226929D02*
X0200237Y0226929D01*
X0200656Y0226330D02*
X0202683Y0226330D01*
X0202683Y0225732D02*
X0200725Y0225732D01*
X0200725Y0225133D02*
X0202683Y0225133D01*
X0202683Y0224535D02*
X0200725Y0224535D01*
X0202683Y0229323D02*
X0070183Y0229323D01*
X0070183Y0229921D02*
X0202683Y0229921D01*
X0202683Y0230520D02*
X0070183Y0230520D01*
X0070183Y0231118D02*
X0202683Y0231118D01*
X0202683Y0231717D02*
X0070183Y0231717D01*
X0070183Y0232315D02*
X0202683Y0232315D01*
X0202683Y0232914D02*
X0070183Y0232914D01*
X0070183Y0233512D02*
X0202683Y0233512D01*
X0202683Y0244884D02*
X0070183Y0244884D01*
X0070183Y0245483D02*
X0202683Y0245483D01*
X0202683Y0246081D02*
X0070183Y0246081D01*
X0070183Y0246680D02*
X0202683Y0246680D01*
X0202683Y0247278D02*
X0070183Y0247278D01*
X0070183Y0227527D02*
X0075254Y0227527D01*
X0072630Y0226929D02*
X0070183Y0226929D01*
X0070183Y0226330D02*
X0072210Y0226330D01*
X0072141Y0225732D02*
X0070183Y0225732D01*
X0070183Y0225133D02*
X0072141Y0225133D01*
X0072141Y0224535D02*
X0070183Y0224535D01*
X0081133Y0220345D02*
X0081733Y0220345D01*
X0081733Y0219747D02*
X0081133Y0219747D01*
X0088889Y0234709D02*
X0089489Y0234709D01*
X0089489Y0235308D02*
X0088889Y0235308D01*
X0088889Y0235906D02*
X0089489Y0235906D01*
X0089489Y0236505D02*
X0088889Y0236505D01*
X0088889Y0237103D02*
X0089489Y0237103D01*
X0089489Y0237702D02*
X0088889Y0237702D01*
X0088889Y0238300D02*
X0089489Y0238300D01*
X0092457Y0240096D02*
X0093994Y0240096D01*
X0093994Y0240694D02*
X0092457Y0240694D01*
X0092457Y0241293D02*
X0093994Y0241293D01*
X0093994Y0241891D02*
X0092457Y0241891D01*
X0092457Y0242490D02*
X0093994Y0242490D01*
X0093994Y0243088D02*
X0092457Y0243088D01*
X0092432Y0243687D02*
X0093994Y0243687D01*
X0094403Y0244285D02*
X0092132Y0244285D01*
X0108005Y0238899D02*
X0109543Y0238899D01*
X0109543Y0238300D02*
X0108005Y0238300D01*
X0108005Y0237702D02*
X0109543Y0237702D01*
X0109543Y0237103D02*
X0108005Y0237103D01*
X0108005Y0236505D02*
X0109543Y0236505D01*
X0109543Y0235906D02*
X0108005Y0235906D01*
X0108005Y0235308D02*
X0109561Y0235308D01*
X0109842Y0234709D02*
X0107623Y0234709D01*
X0112511Y0234709D02*
X0113111Y0234709D01*
X0113111Y0235308D02*
X0112511Y0235308D01*
X0112511Y0235906D02*
X0113111Y0235906D01*
X0113111Y0236505D02*
X0112511Y0236505D01*
X0112511Y0237103D02*
X0113111Y0237103D01*
X0113111Y0237702D02*
X0112511Y0237702D01*
X0112511Y0238300D02*
X0113111Y0238300D01*
X0113111Y0240096D02*
X0112511Y0240096D01*
X0112511Y0240694D02*
X0113111Y0240694D01*
X0113111Y0241293D02*
X0112511Y0241293D01*
X0112511Y0241891D02*
X0113111Y0241891D01*
X0113111Y0242490D02*
X0112511Y0242490D01*
X0112511Y0243088D02*
X0113111Y0243088D01*
X0113111Y0243687D02*
X0112511Y0243687D01*
X0112511Y0244285D02*
X0113111Y0244285D01*
X0125391Y0129371D02*
X0070183Y0129371D01*
X0070183Y0128773D02*
X0125392Y0128773D01*
X0125411Y0118598D02*
X0070183Y0118598D01*
X0070183Y0118000D02*
X0076453Y0118000D01*
X0077258Y0118333D02*
X0075641Y0117663D01*
X0074979Y0117002D01*
X0072985Y0117002D01*
X0072341Y0116357D01*
X0072341Y0111509D01*
X0072985Y0110865D01*
X0074979Y0110865D01*
X0075641Y0110203D01*
X0077258Y0109533D01*
X0085608Y0109533D01*
X0087225Y0110203D01*
X0088463Y0111441D01*
X0089133Y0113058D01*
X0089133Y0114808D01*
X0088463Y0116425D01*
X0087225Y0117663D01*
X0085608Y0118333D01*
X0077258Y0118333D01*
X0075379Y0117401D02*
X0070183Y0117401D01*
X0070183Y0116803D02*
X0072786Y0116803D01*
X0072341Y0116204D02*
X0070183Y0116204D01*
X0070183Y0115606D02*
X0072341Y0115606D01*
X0072341Y0115007D02*
X0070183Y0115007D01*
X0070183Y0114409D02*
X0072341Y0114409D01*
X0072341Y0113810D02*
X0070183Y0113810D01*
X0070183Y0113212D02*
X0072341Y0113212D01*
X0072341Y0112613D02*
X0070183Y0112613D01*
X0070183Y0112014D02*
X0072341Y0112014D01*
X0072434Y0111416D02*
X0070183Y0111416D01*
X0070183Y0110817D02*
X0075026Y0110817D01*
X0075625Y0110219D02*
X0070183Y0110219D01*
X0070183Y0109620D02*
X0077047Y0109620D01*
X0077258Y0108333D02*
X0075641Y0107663D01*
X0074979Y0107002D01*
X0072985Y0107002D01*
X0072341Y0106357D01*
X0072341Y0101509D01*
X0072985Y0100865D01*
X0074979Y0100865D01*
X0075641Y0100203D01*
X0077258Y0099533D01*
X0085608Y0099533D01*
X0087225Y0100203D01*
X0088463Y0101441D01*
X0089133Y0103058D01*
X0089133Y0104808D01*
X0088463Y0106425D01*
X0087225Y0107663D01*
X0085608Y0108333D01*
X0077258Y0108333D01*
X0076031Y0107825D02*
X0070183Y0107825D01*
X0070183Y0108423D02*
X0125429Y0108423D01*
X0125431Y0107825D02*
X0086835Y0107825D01*
X0087662Y0107226D02*
X0125432Y0107226D01*
X0125433Y0106628D02*
X0088261Y0106628D01*
X0088627Y0106029D02*
X0125434Y0106029D01*
X0125435Y0105431D02*
X0088875Y0105431D01*
X0089123Y0104832D02*
X0125436Y0104832D01*
X0125437Y0104234D02*
X0089133Y0104234D01*
X0089133Y0103635D02*
X0125438Y0103635D01*
X0125439Y0103037D02*
X0089124Y0103037D01*
X0088876Y0102438D02*
X0125440Y0102438D01*
X0125441Y0101840D02*
X0088629Y0101840D01*
X0088264Y0101241D02*
X0125443Y0101241D01*
X0125444Y0100643D02*
X0087665Y0100643D01*
X0086842Y0100044D02*
X0125445Y0100044D01*
X0125446Y0099446D02*
X0070183Y0099446D01*
X0070183Y0100044D02*
X0076024Y0100044D01*
X0075201Y0100643D02*
X0070183Y0100643D01*
X0070183Y0101241D02*
X0072609Y0101241D01*
X0072341Y0101840D02*
X0070183Y0101840D01*
X0070183Y0102438D02*
X0072341Y0102438D01*
X0072341Y0103037D02*
X0070183Y0103037D01*
X0070183Y0103635D02*
X0072341Y0103635D01*
X0072341Y0104234D02*
X0070183Y0104234D01*
X0070183Y0104832D02*
X0072341Y0104832D01*
X0072341Y0105431D02*
X0070183Y0105431D01*
X0070183Y0106029D02*
X0072341Y0106029D01*
X0072612Y0106628D02*
X0070183Y0106628D01*
X0070183Y0107226D02*
X0075204Y0107226D01*
X0070183Y0109022D02*
X0125428Y0109022D01*
X0125427Y0109620D02*
X0085819Y0109620D01*
X0087241Y0110219D02*
X0125426Y0110219D01*
X0125425Y0110817D02*
X0087840Y0110817D01*
X0088439Y0111416D02*
X0125424Y0111416D01*
X0125423Y0112014D02*
X0088701Y0112014D01*
X0088949Y0112613D02*
X0125422Y0112613D01*
X0125421Y0113212D02*
X0089133Y0113212D01*
X0089133Y0113810D02*
X0125420Y0113810D01*
X0125419Y0114409D02*
X0089133Y0114409D01*
X0089051Y0115007D02*
X0125417Y0115007D01*
X0125416Y0115606D02*
X0088803Y0115606D01*
X0088555Y0116204D02*
X0125415Y0116204D01*
X0125414Y0116803D02*
X0088086Y0116803D01*
X0087488Y0117401D02*
X0125413Y0117401D01*
X0125412Y0118000D02*
X0086413Y0118000D01*
X0085608Y0098333D02*
X0077258Y0098333D01*
X0075641Y0097663D01*
X0074979Y0097002D01*
X0072985Y0097002D01*
X0072341Y0096357D01*
X0072341Y0091509D01*
X0072985Y0090865D01*
X0074979Y0090865D01*
X0075641Y0090203D01*
X0077258Y0089533D01*
X0085608Y0089533D01*
X0087225Y0090203D01*
X0088463Y0091441D01*
X0089133Y0093058D01*
X0089133Y0094808D01*
X0088463Y0096425D01*
X0087225Y0097663D01*
X0085608Y0098333D01*
X0085812Y0098249D02*
X0125448Y0098249D01*
X0125447Y0098847D02*
X0070183Y0098847D01*
X0070183Y0098249D02*
X0077054Y0098249D01*
X0075628Y0097650D02*
X0070183Y0097650D01*
X0070183Y0097052D02*
X0075029Y0097052D01*
X0072437Y0096453D02*
X0070183Y0096453D01*
X0070183Y0095855D02*
X0072341Y0095855D01*
X0072341Y0095256D02*
X0070183Y0095256D01*
X0070183Y0094658D02*
X0072341Y0094658D01*
X0072341Y0094059D02*
X0070183Y0094059D01*
X0070183Y0093461D02*
X0072341Y0093461D01*
X0072341Y0092862D02*
X0070183Y0092862D01*
X0070183Y0092264D02*
X0072341Y0092264D01*
X0072341Y0091665D02*
X0070183Y0091665D01*
X0070183Y0091067D02*
X0072783Y0091067D01*
X0075376Y0090468D02*
X0070183Y0090468D01*
X0070183Y0089870D02*
X0076445Y0089870D01*
X0076633Y0088074D02*
X0070183Y0088074D01*
X0070183Y0087476D02*
X0075453Y0087476D01*
X0072861Y0086877D02*
X0070183Y0086877D01*
X0070183Y0086279D02*
X0072341Y0086279D01*
X0072341Y0085680D02*
X0070183Y0085680D01*
X0070183Y0085081D02*
X0072341Y0085081D01*
X0072341Y0084483D02*
X0070183Y0084483D01*
X0070183Y0083884D02*
X0072341Y0083884D01*
X0072341Y0083286D02*
X0070183Y0083286D01*
X0070183Y0082687D02*
X0072341Y0082687D01*
X0072341Y0082089D02*
X0070183Y0082089D01*
X0070183Y0081490D02*
X0072359Y0081490D01*
X0072958Y0080892D02*
X0070183Y0080892D01*
X0070183Y0080293D02*
X0075550Y0080293D01*
X0076867Y0079695D02*
X0070183Y0079695D01*
X0070183Y0077899D02*
X0076211Y0077899D01*
X0075278Y0077301D02*
X0070183Y0077301D01*
X0070183Y0076702D02*
X0072686Y0076702D01*
X0072341Y0076104D02*
X0070183Y0076104D01*
X0070183Y0075505D02*
X0072341Y0075505D01*
X0072341Y0074907D02*
X0070183Y0074907D01*
X0070183Y0074308D02*
X0072341Y0074308D01*
X0072341Y0073710D02*
X0070183Y0073710D01*
X0070183Y0073111D02*
X0072341Y0073111D01*
X0072341Y0072513D02*
X0070183Y0072513D01*
X0070183Y0071914D02*
X0072341Y0071914D01*
X0072534Y0071316D02*
X0070183Y0071316D01*
X0070183Y0070717D02*
X0075126Y0070717D01*
X0075844Y0070119D02*
X0070183Y0070119D01*
X0070183Y0088673D02*
X0125465Y0088673D01*
X0125464Y0089271D02*
X0070183Y0089271D01*
X0086234Y0088074D02*
X0125466Y0088074D01*
X0125468Y0087476D02*
X0087413Y0087476D01*
X0086421Y0089870D02*
X0125463Y0089870D01*
X0125462Y0090468D02*
X0087491Y0090468D01*
X0088089Y0091067D02*
X0125461Y0091067D01*
X0125460Y0091665D02*
X0088556Y0091665D01*
X0088804Y0092264D02*
X0125459Y0092264D01*
X0125458Y0092862D02*
X0089052Y0092862D01*
X0089133Y0093461D02*
X0125457Y0093461D01*
X0125456Y0094059D02*
X0089133Y0094059D01*
X0089133Y0094658D02*
X0125454Y0094658D01*
X0125453Y0095256D02*
X0088948Y0095256D01*
X0088700Y0095855D02*
X0125452Y0095855D01*
X0125451Y0096453D02*
X0088435Y0096453D01*
X0087837Y0097052D02*
X0125450Y0097052D01*
X0125449Y0097650D02*
X0087238Y0097650D01*
X0094706Y0086877D02*
X0125469Y0086877D01*
X0125470Y0086279D02*
X0120688Y0086279D01*
X0121760Y0085680D02*
X0125471Y0085680D01*
X0125472Y0085081D02*
X0122423Y0085081D01*
X0122876Y0084483D02*
X0125449Y0084483D01*
X0125201Y0083884D02*
X0123190Y0083884D01*
X0123397Y0083286D02*
X0124953Y0083286D01*
X0124815Y0082687D02*
X0123514Y0082687D01*
X0123552Y0082089D02*
X0124815Y0082089D01*
X0124815Y0081490D02*
X0123552Y0081490D01*
X0123552Y0080892D02*
X0124815Y0080892D01*
X0124815Y0080293D02*
X0123552Y0080293D01*
X0123552Y0079695D02*
X0124815Y0079695D01*
X0119383Y0080293D02*
X0118783Y0080293D01*
X0118783Y0080892D02*
X0119383Y0080892D01*
X0119383Y0081490D02*
X0118783Y0081490D01*
X0118783Y0082089D02*
X0119383Y0082089D01*
X0119383Y0082687D02*
X0118783Y0082687D01*
X0118783Y0083286D02*
X0119383Y0083286D01*
X0119383Y0083884D02*
X0118783Y0083884D01*
X0118783Y0084483D02*
X0119383Y0084483D01*
X0119383Y0085081D02*
X0118783Y0085081D01*
X0118783Y0085680D02*
X0119383Y0085680D01*
X0119383Y0086279D02*
X0118783Y0086279D01*
X0117478Y0086279D02*
X0105715Y0086279D01*
X0106466Y0085680D02*
X0116406Y0085680D01*
X0115744Y0085081D02*
X0107065Y0085081D01*
X0107378Y0084483D02*
X0115290Y0084483D01*
X0114976Y0083884D02*
X0107626Y0083884D01*
X0107827Y0083286D02*
X0114769Y0083286D01*
X0114652Y0082687D02*
X0107827Y0082687D01*
X0107827Y0082089D02*
X0114615Y0082089D01*
X0114615Y0081490D02*
X0107827Y0081490D01*
X0107827Y0080892D02*
X0114615Y0080892D01*
X0114615Y0080293D02*
X0107827Y0080293D01*
X0107827Y0079695D02*
X0114615Y0079695D01*
X0118783Y0078498D02*
X0119383Y0078498D01*
X0119383Y0077899D02*
X0118783Y0077899D01*
X0118783Y0077301D02*
X0119383Y0077301D01*
X0119383Y0076702D02*
X0118783Y0076702D01*
X0118783Y0076104D02*
X0119383Y0076104D01*
X0119383Y0075505D02*
X0118783Y0075505D01*
X0118783Y0074907D02*
X0119383Y0074907D01*
X0119383Y0074308D02*
X0118783Y0074308D01*
X0118783Y0073710D02*
X0119383Y0073710D01*
X0119383Y0073111D02*
X0118783Y0073111D01*
X0118783Y0072513D02*
X0119383Y0072513D01*
X0119383Y0071914D02*
X0118783Y0071914D01*
X0101402Y0086279D02*
X0096031Y0086279D01*
X0096749Y0085680D02*
X0100650Y0085680D01*
X0100051Y0085081D02*
X0097243Y0085081D01*
X0097589Y0084483D02*
X0099738Y0084483D01*
X0099490Y0083884D02*
X0097823Y0083884D01*
X0097966Y0083286D02*
X0099290Y0083286D01*
X0099290Y0082687D02*
X0098027Y0082687D01*
X0098027Y0082089D02*
X0099290Y0082089D01*
X0099290Y0081490D02*
X0098027Y0081490D01*
X0098027Y0080892D02*
X0099290Y0080892D01*
X0099290Y0080293D02*
X0098027Y0080293D01*
X0098027Y0079695D02*
X0099290Y0079695D01*
D20*
X0119558Y0100183D03*
X0118933Y0143933D03*
X0098933Y0147870D03*
X0116433Y0186433D03*
X0126433Y0201433D03*
X0123933Y0211433D03*
X0143933Y0228933D03*
X0141433Y0169481D03*
X0158933Y0169481D03*
D21*
X0141433Y0169481D01*
M02*
