<svg version="1.1" viewBox="0.0 0.0 652.0 403.0" fill="none" stroke="none" stroke-linecap="square" stroke-miterlimit="10" width="652" height="403" xmlns:xlink="http://www.w3.org/1999/xlink" xmlns="http://www.w3.org/2000/svg"><path fill="#ffffff" d="M0 0L652.0 0L652.0 403.0L0 403.0L0 0Z" fill-rule="nonzero"/><path stroke="#cccccc" stroke-width="1.0" stroke-linecap="butt" d="M89.5 56.5L89.5 328.5" fill-rule="nonzero"/><path stroke="#cccccc" stroke-width="1.0" stroke-linecap="butt" d="M268.5 56.5L268.5 328.5" fill-rule="nonzero"/><path stroke="#cccccc" stroke-width="1.0" stroke-linecap="butt" d="M446.5 56.5L446.5 328.5" fill-rule="nonzero"/><path stroke="#cccccc" stroke-width="1.0" stroke-linecap="butt" d="M625.5 56.5L625.5 328.5" fill-rule="nonzero"/><path stroke="#333333" stroke-width="1.0" stroke-linecap="butt" d="M83.5 328.5L631.5 328.5" fill-rule="nonzero"/><path stroke="#cccccc" stroke-width="1.0" stroke-linecap="butt" d="M83.5 274.5L631.5 274.5" fill-rule="nonzero"/><path stroke="#cccccc" stroke-width="1.0" stroke-linecap="butt" d="M83.5 219.5L631.5 219.5" fill-rule="nonzero"/><path stroke="#cccccc" stroke-width="1.0" stroke-linecap="butt" d="M83.5 165.5L631.5 165.5" fill-rule="nonzero"/><path stroke="#cccccc" stroke-width="1.0" stroke-linecap="butt" d="M83.5 110.5L631.5 110.5" fill-rule="nonzero"/><path stroke="#cccccc" stroke-width="1.0" stroke-linecap="butt" d="M83.5 56.5L631.5 56.5" fill-rule="nonzero"/><clipPath id="id_0"><path d="M83.15 56.083332L631.85 56.083332L631.85 328.85L83.15 328.85L83.15 56.083332Z" clip-rule="nonzero"/></clipPath><path stroke="#4285f4" stroke-width="2.0" stroke-linecap="butt" stroke-opacity="0.4" clip-path="url(#id_0)" d="M0 287.9169C0 287.9169 2.6666667 285.20453 4.0 283.89102C5.3333335 282.57755 6.6666665 281.2948 8.0 280.03586C9.333333 278.77695 10.666667 277.5462 12.0 276.3375C13.333333 275.12878 14.666667 273.94598 16.0 272.78366C17.333334 271.62134 18.666666 270.4829 20.0 269.3635C21.333334 268.2441 22.666666 267.14682 24.0 266.06732C25.333334 264.98782 26.666666 263.92883 28.0 262.88644C29.333334 261.84406 30.666666 260.82077 32.0 259.81308C33.333332 258.80536 34.666668 257.81546 36.0 256.84018C37.333332 255.86488 38.666668 254.90625 40.0 253.96138C41.333332 253.01651 42.666668 252.08725 44.0 251.17094C45.333332 250.25464 46.666668 249.35298 48.0 248.46358C49.333332 247.57416 50.666668 246.69853 52.0 245.83447C53.333332 244.97043 54.666668 244.11935 56.0 243.27927C57.333332 242.43916 58.666668 241.61131 60.0 240.79388C61.333332 239.97644 62.666668 239.1706 64.0 238.37462C65.333336 237.57864 66.666664 236.79364 68.0 236.01805C69.333336 235.24245 70.666664 234.47725 72.0 233.721C73.333336 232.96475 74.666664 232.21838 76.0 231.48055C77.333336 230.7427 78.666664 230.01427 80.0 229.29396C81.333336 228.57367 82.666664 227.8623 84.0 227.15872C85.333336 226.45514 86.666664 225.76009 88.0 225.07248C89.333336 224.38486 90.666664 223.70537 92.0 223.033C93.333336 222.36064 94.666664 221.69604 96.0 221.03827C97.333336 220.3805 98.666664 219.73016 100.0 219.08635C101.333336 218.44255 102.666664 217.80586 104.0 217.17546C105.333336 216.54504 106.666664 215.92145 108.0 215.30388C109.333336 214.68631 110.666664 214.07529 112.0 213.47005C113.333336 212.8648 114.666664 212.26585 116.0 211.67247C117.333336 211.07907 118.666664 210.49171 120.0 209.90973C121.333336 209.32773 122.666664 208.75153 124.0 208.1805C125.333336 207.60947 126.666664 207.04402 128.0 206.48355C129.33333 205.92307 130.66667 205.36797 132.0 204.81767C133.33333 204.26738 134.66667 203.72226 136.0 203.18178C137.33333 202.64128 138.66667 202.10579 140.0 201.57477C141.33333 201.04376 142.66667 200.51756 144.0 199.99568C145.33333 199.47382 146.66667 198.95659 148.0 198.44354C149.33333 197.93051 150.66667 197.42195 152.0 196.91745C153.33333 196.41295 154.66667 195.91278 156.0 195.41655C157.33333 194.9203 158.66667 194.42825 160.0 193.94C161.33333 193.45177 162.66667 192.96758 164.0 192.48706C165.33333 192.00655 166.66667 191.52997 168.0 191.05696C169.33333 190.58395 170.66667 190.11475 172.0 189.649C173.33333 189.18326 174.66667 188.7212 176.0 188.26251C177.33333 187.80382 178.66667 187.3487 180.0 186.89684C181.33333 186.44499 182.66667 185.9966 184.0 185.55138C185.33333 185.10616 186.66667 184.6643 188.0 184.22552C189.33333 183.78674 190.66667 183.35124 192.0 182.91873C193.33333 182.4862 194.66667 182.05687 196.0 181.63045C197.33333 181.20401 198.66667 180.78067 200.0 180.36015C201.33333 179.93964 202.66667 179.52213 204.0 179.10736C205.33333 178.6926 206.66667 178.28075 208.0 177.8716C209.33333 177.46243 210.66667 177.0561 212.0 176.65239C213.33333 176.24867 214.66667 175.84772 216.0 175.44933C217.33333 175.05092 218.66667 174.6552 220.0 174.26195C221.33333 173.86871 222.66667 173.47809 224.0 173.08989C225.33333 172.70169 226.66667 172.31604 228.0 171.93274C229.33333 171.54945 230.66667 171.16864 232.0 170.79013C233.33333 170.41164 234.66667 170.03554 236.0 169.6617C237.33333 169.28787 238.66667 168.91638 240.0 168.5471C241.33333 168.17783 242.66667 167.81084 244.0 167.446C245.33333 167.08116 246.66667 166.71857 248.0 166.35806C249.33333 165.99756 250.66667 165.63925 252.0 165.28299C253.33333 164.92673 254.66667 164.5726 256.0 164.22047C257.33334 163.86835 258.66666 163.51833 260.0 163.17024C261.33334 162.82216 262.66666 162.47612 264.0 162.13199C265.33334 161.78786 266.66666 161.44572 268.0 161.10545C269.33334 160.76518 270.66666 160.42688 272.0 160.09038C273.33334 159.75389 274.66666 159.41931 276.0 159.08652C277.33334 158.75372 278.66666 158.42279 280.0 158.09361C281.33334 157.76442 282.66666 157.43707 284.0 157.11142C285.33334 156.78578 286.66666 156.46191 288.0 156.13972C289.33334 155.81755 290.66666 155.4971 292.0 155.17831C293.33334 154.85951 294.66666 154.54243 296.0 154.22694C297.33334 153.91147 298.66666 153.59767 300.0 153.28545C301.33334 152.9732 302.66666 152.66263 304.0 152.35358C305.33334 152.04453 306.66666 151.73709 308.0 151.43117C309.33334 151.12524 310.66666 150.82088 312.0 150.51802C313.33334 150.21515 314.66666 149.91382 316.0 149.61394C317.33334 149.31407 318.66666 149.0157 320.0 148.71877C321.33334 148.42183 322.66666 148.12637 324.0 147.83232C325.33334 147.53827 326.66666 147.24567 328.0 146.95444C329.33334 146.6632 330.66666 146.3734 332.0 146.08493C333.33334 145.79648 334.66666 145.50941 336.0 145.22366C337.33334 144.93793 338.66666 144.65356 340.0 144.37048C341.33334 144.08742 342.66666 143.8057 344.0 143.52524C345.33334 143.24478 346.66666 142.96565 348.0 142.68776C349.33334 142.40988 350.66666 142.1333 352.0 141.85794C353.33334 141.58258 354.66666 141.3085 356.0 141.03561C357.33334 140.76274 358.66666 140.4911 360.0 140.22066C361.33334 139.95021 362.66666 139.681 364.0 139.41295C365.33334 139.1449 366.66666 138.87804 368.0 138.61234C369.33334 138.34663 370.66666 138.0821 372.0 137.81873C373.33334 137.55533 374.66666 137.29309 376.0 137.03197C377.33334 136.77084 378.66666 136.51085 380.0 136.25195C381.33334 135.99306 382.66666 135.73529 384.0 135.47859C385.33334 135.22188 386.66666 134.96628 388.0 134.71173C389.33334 134.45718 390.66666 134.20372 392.0 133.9513C393.33334 133.69887 394.66666 133.44751 396.0 133.19716C397.33334 132.94682 398.66666 132.69753 400.0 132.44923C401.33334 132.20094 402.66666 131.95367 404.0 131.7074C405.33334 131.46112 406.66666 131.21587 408.0 130.97157C409.33334 130.72728 410.66666 130.484 412.0 130.24165C413.33334 129.99931 414.66666 129.75797 416.0 129.51755C417.33334 129.27713 418.66666 129.03767 420.0 128.79915C421.33334 128.56062 422.66666 128.32306 424.0 128.0864C425.33334 127.84973 426.66666 127.614006 428.0 127.37917C429.33334 127.14435 430.66666 126.91044 432.0 126.677414C433.33334 126.44439 434.66666 126.21228 436.0 125.98103C437.33334 125.74979 438.66666 125.51943 440.0 125.28994C441.33334 125.06044 442.66666 124.831825 444.0 124.60406C445.33334 124.37628 446.66666 124.14938 448.0 123.92331C449.33334 123.697235 450.66666 123.472015 452.0 123.24762C453.33334 123.02322 454.66666 122.79966 456.0 122.57691C457.33334 122.354164 458.66666 122.13224 460.0 121.91112C461.33334 121.68999 462.66666 121.46968 464.0 121.25016C465.33334 121.03063 466.66666 120.81191 468.0 120.59397C469.33334 120.37602 470.66666 120.158875 472.0 119.94248C473.33334 119.72609 474.66666 119.51048 476.0 119.29563C477.33334 119.08077 478.66666 118.86669 480.0 118.65334C481.33334 118.44 482.66666 118.22742 484.0 118.015564C485.33334 117.80371 486.66666 117.592606 488.0 117.382225C489.33334 117.171844 490.66666 116.9622 492.0 116.753265C493.33334 116.544334 494.66666 116.33613 496.0 116.128624C497.33334 115.92112 498.66666 115.71434 500.0 115.50825C501.33334 115.302155 502.66666 115.09677 504.0 114.892075C505.33334 114.68737 506.66666 114.483376 508.0 114.280045C509.33334 114.07672 510.66666 113.874084 512.0 113.67211C513.3333 113.47014 514.6667 113.268845 516.0 113.06821C517.3333 112.86758 518.6667 112.66761 520.0 112.46829C521.3333 112.268974 522.6667 112.07033 524.0 111.87231C525.3333 111.67429 526.6667 111.47694 528.0 111.280205C529.3333 111.08347 530.6667 110.88739 532.0 110.69193C533.3333 110.49647 534.6667 110.30164 536.0 110.10744C537.3333 109.91323 538.6667 109.71965 540.0 109.52668C541.3333 109.3337 542.6667 109.14136 544.0 108.9496C545.3333 108.75785 546.6667 108.56671 548.0 108.37617C549.3333 108.185616 550.6667 107.99568 552.0 107.80632C553.3333 107.61697 554.6667 107.42821 556.0 107.24003C557.3333 107.05185 558.6667 106.86426 560.0 106.67724C561.3333 106.49022 562.6667 106.30378 564.0 106.117905C565.3333 105.93204 566.6667 105.746735 568.0 105.562C569.3333 105.37726 570.6667 105.193085 572.0 105.00947C573.3333 104.82584 574.6667 104.642784 576.0 104.460266C577.3333 104.277756 578.6667 104.095795 580.0 103.91437C581.3333 103.73295 582.6667 103.55207 584.0 103.37173C585.3333 103.19138 586.6667 103.01158 588.0 102.832306C589.3333 102.65302 590.6667 102.47428 592.0 102.29606C593.3333 102.117836 594.6667 101.94015 596.0 101.76296C597.3333 101.58578 598.6667 101.40912 600.0 101.23297C601.3333 101.056816 602.6667 100.88118 604.0 100.70605C605.3333 100.530914 606.6667 100.35629 608.0 100.18216C609.3333 100.00803 610.6667 99.83441 612.0 99.66128C613.3333 99.488144 614.6667 99.315506 616.0 99.14336C617.3333 98.97121 618.6667 98.799545 620.0 98.62837C621.3333 98.45719 622.6667 98.2865 624.0 98.11628C625.3333 97.94607 628.0 97.60706 628.0 97.60706" fill-rule="nonzero"/><path fill="#4285f4" clip-path="url(#id_0)" d="M94.47584 228.47186C94.47584 230.95715 92.46112 232.97186 89.97584 232.97186C87.490555 232.97186 85.47584 230.95715 85.47584 228.47186C85.47584 225.98659 87.490555 223.97186 89.97584 223.97186C92.46112 223.97186 94.47584 225.98659 94.47584 228.47186Z" fill-rule="nonzero"/><path fill="#4285f4" clip-path="url(#id_0)" d="M183.65056 186.13847C183.65056 188.62376 181.63583 190.63847 179.15056 190.63847C176.66528 190.63847 174.65056 188.62376 174.65056 186.13847C174.65056 183.6532 176.66528 181.63847 179.15056 181.63847C181.63583 181.63847 183.65056 183.6532 183.65056 186.13847Z" fill-rule="nonzero"/><path fill="#4285f4" clip-path="url(#id_0)" d="M272.8253 149.26042C272.8253 151.74571 270.81055 153.76042 268.3253 153.76042C265.84 153.76042 263.8253 151.74571 263.8253 149.26042C263.8253 146.77515 265.84 144.76042 268.3253 144.76042C270.81055 144.76042 272.8253 146.77515 272.8253 149.26042Z" fill-rule="nonzero"/><path fill="#4285f4" clip-path="url(#id_0)" d="M362.0 151.00613C362.0 153.49141 359.9853 155.50613 357.5 155.50613C355.0147 155.50613 353.0 153.49141 353.0 151.00613C353.0 148.52086 355.0147 146.50613 357.5 146.50613C359.9853 146.50613 362.0 148.52086 362.0 151.00613Z" fill-rule="nonzero"/><path fill="#4285f4" clip-path="url(#id_0)" d="M451.1747 118.27413C451.1747 120.759415 449.16 122.77413 446.6747 122.77413C444.18945 122.77413 442.1747 120.759415 442.1747 118.27413C442.1747 115.78885 444.18945 113.77413 446.6747 113.77413C449.16 113.77413 451.1747 115.78885 451.1747 118.27413Z" fill-rule="nonzero"/><path fill="#4285f4" clip-path="url(#id_0)" d="M540.3494 109.5456C540.3494 112.03088 538.3347 114.0456 535.8494 114.0456C533.36414 114.0456 531.3494 112.03088 531.3494 109.5456C531.3494 107.06032 533.36414 105.0456 535.8494 105.0456C538.3347 105.0456 540.3494 107.06032 540.3494 109.5456Z" fill-rule="nonzero"/><path fill="#4285f4" clip-path="url(#id_0)" d="M629.5242 102.562775C629.5242 105.04806 627.50946 107.062775 625.0242 107.062775C622.5389 107.062775 620.5242 105.04806 620.5242 102.562775C620.5242 100.07749 622.5389 98.062775 625.0242 98.062775C627.50946 98.062775 629.5242 100.07749 629.5242 102.562775Z" fill-rule="nonzero"/><path fill="#000000" d="M328.89062 374.475Q328.64062 374.44376 328.35938 374.44376Q327.28125 374.44376 326.90625 375.35L326.90625 379.85L325.82812 379.85L325.82812 373.50626L326.875 373.50626L326.89062 374.24063Q327.42188 373.39688 328.40625 373.39688Q328.71875 373.39688 328.89062 373.475L328.89062 374.475ZM333.73438 379.85Q333.64062 379.6625 333.57812 379.17813Q332.82812 379.975 331.78125 379.975Q330.84375 379.975 330.23438 379.44376Q329.64062 378.9125 329.64062 378.08438Q329.64062 377.1 330.39062 376.55313Q331.14062 376.00626 332.51562 376.00626L333.5625 376.00626L333.5625 375.50626Q333.5625 374.94376 333.21875 374.61563Q332.89062 374.27188 332.21875 374.27188Q331.64062 374.27188 331.25 374.56876Q330.85938 374.85 330.85938 375.27188L329.76562 375.27188Q329.76562 374.7875 330.09375 374.35Q330.4375 373.9125 331.01562 373.6625Q331.59375 373.39688 332.28125 373.39688Q333.39062 373.39688 334.0 373.94376Q334.625 374.49063 334.65625 375.44376L334.65625 378.36563Q334.65625 379.24063 334.875 379.75626L334.875 379.85L333.73438 379.85ZM331.9375 379.02188Q332.45312 379.02188 332.90625 378.75626Q333.35938 378.49063 333.5625 378.06876L333.5625 376.77188L332.71875 376.77188Q330.71875 376.77188 330.71875 377.94376Q330.71875 378.44376 331.0625 378.74063Q331.40625 379.02188 331.9375 379.02188ZM336.5625 376.63126Q336.5625 375.1625 337.25 374.2875Q337.9375 373.39688 339.0625 373.39688Q340.17188 373.39688 340.82812 374.14688L340.82812 370.85L341.90625 370.85L341.90625 379.85L340.90625 379.85L340.85938 379.1625Q340.20312 379.975 339.04688 379.975Q337.95312 379.975 337.25 379.06876Q336.5625 378.1625 336.5625 376.70938L336.5625 376.63126ZM337.64062 376.75626Q337.64062 377.83438 338.07812 378.44376Q338.53125 379.05313 339.3125 379.05313Q340.34375 379.05313 340.82812 378.11563L340.82812 375.20938Q340.34375 374.31876 339.32812 374.31876Q338.53125 374.31876 338.07812 374.92813Q337.64062 375.5375 337.64062 376.75626ZM345.0 379.85L343.92188 379.85L343.92188 373.50626L345.0 373.50626L345.0 379.85ZM343.82812 371.83438Q343.82812 371.56876 343.98438 371.38126Q344.15625 371.19376 344.46875 371.19376Q344.78125 371.19376 344.9375 371.38126Q345.10938 371.56876 345.10938 371.83438Q345.10938 372.08438 344.9375 372.27188Q344.78125 372.44376 344.46875 372.44376Q344.15625 372.44376 343.98438 372.27188Q343.82812 372.08438 343.82812 371.83438ZM350.73438 379.225Q350.10938 379.975 348.875 379.975Q347.85938 379.975 347.32812 379.38126Q346.79688 378.7875 346.79688 377.63126L346.79688 373.50626L347.875 373.50626L347.875 377.6Q347.875 379.05313 349.04688 379.05313Q350.29688 379.05313 350.70312 378.11563L350.70312 373.50626L351.79688 373.50626L351.79688 379.85L350.76562 379.85L350.73438 379.225ZM357.51562 378.1625Q357.51562 377.725 357.17188 377.49063Q356.84375 377.24063 356.01562 377.06876Q355.20312 376.89688 354.71875 376.64688Q354.23438 376.39688 354.0 376.06876Q353.78125 375.725 353.78125 375.25626Q353.78125 374.475 354.4375 373.94376Q355.09375 373.39688 356.125 373.39688Q357.20312 373.39688 357.85938 373.95938Q358.53125 374.50626 358.53125 375.36563L357.45312 375.36563Q357.45312 374.92813 357.0625 374.61563Q356.6875 374.2875 356.125 374.2875Q355.53125 374.2875 355.1875 374.55313Q354.85938 374.80313 354.85938 375.20938Q354.85938 375.6 355.17188 375.80313Q355.48438 376.00626 356.29688 376.19376Q357.10938 376.36563 357.60938 376.61563Q358.10938 376.86563 358.34375 377.225Q358.59375 377.58438 358.59375 378.08438Q358.59375 378.94376 357.90625 379.45938Q357.23438 379.975 356.15625 379.975Q355.39062 379.975 354.79688 379.70938Q354.21875 379.42813 353.89062 378.94376Q353.5625 378.45938 353.5625 377.89688L354.64062 377.89688Q354.67188 378.44376 355.07812 378.77188Q355.48438 379.08438 356.15625 379.08438Q356.76562 379.08438 357.14062 378.83438Q357.51562 378.58438 357.51562 378.1625ZM365.0625 370.99063L363.95312 370.99063L363.95312 380.7875L365.0625 380.7875L365.0625 381.67813L362.85938 381.67813L362.85938 370.1L365.0625 370.1L365.0625 370.99063ZM366.84375 373.50626L366.875 374.20938Q367.5625 373.39688 368.75 373.39688Q370.07812 373.39688 370.5625 374.4125Q370.875 373.95938 371.375 373.67813Q371.89062 373.39688 372.57812 373.39688Q374.67188 373.39688 374.70312 375.6L374.70312 379.85L373.625 379.85L373.625 375.6625Q373.625 374.99063 373.3125 374.6625Q373.0 374.31876 372.26562 374.31876Q371.65625 374.31876 371.25 374.67813Q370.85938 375.0375 370.79688 375.64688L370.79688 379.85L369.71875 379.85L369.71875 375.69376Q369.71875 374.31876 368.35938 374.31876Q367.29688 374.31876 366.90625 375.225L366.90625 379.85L365.8125 379.85L365.8125 373.50626L366.84375 373.50626ZM377.84375 373.50626L377.875 374.20938Q378.5625 373.39688 379.75 373.39688Q381.07812 373.39688 381.5625 374.4125Q381.875 373.95938 382.375 373.67813Q382.89062 373.39688 383.57812 373.39688Q385.67188 373.39688 385.70312 375.6L385.70312 379.85L384.625 379.85L384.625 375.6625Q384.625 374.99063 384.3125 374.6625Q384.0 374.31876 383.26562 374.31876Q382.65625 374.31876 382.25 374.67813Q381.85938 375.0375 381.79688 375.64688L381.79688 379.85L380.71875 379.85L380.71875 375.69376Q380.71875 374.31876 379.35938 374.31876Q378.29688 374.31876 377.90625 375.225L377.90625 379.85L376.8125 379.85L376.8125 373.50626L377.84375 373.50626ZM387.04688 370.1L389.26562 370.1L389.26562 381.67813L387.04688 381.67813L387.04688 380.7875L388.1875 380.7875L388.1875 370.99063L387.04688 370.99063L387.04688 370.1Z" fill-rule="nonzero"/><path fill="#000000" d="M25.806255 242.37292L26.50938 242.34167Q25.69688 241.65417 25.69688 240.46667Q25.69688 239.13855 26.712505 238.65417Q26.25938 238.34167 25.97813 237.84167Q25.69688 237.32605 25.69688 236.63855Q25.69688 234.5448 27.900005 234.51355L32.150005 234.51355L32.150005 235.59167L27.962505 235.59167Q27.29063 235.59167 26.962505 235.90417Q26.618755 236.21667 26.618755 236.95105Q26.618755 237.56042 26.97813 237.96667Q27.337505 238.3573 27.94688 238.4198L32.150005 238.4198L32.150005 239.49792L27.993755 239.49792Q26.618755 239.49792 26.618755 240.8573Q26.618755 241.9198 27.525005 242.31042L32.150005 242.31042L32.150005 243.40417L25.806255 243.40417L25.806255 242.37292ZM32.150005 228.4823Q31.962505 228.57605 31.47813 228.63855Q32.275005 229.38855 32.275005 230.43542Q32.275005 231.37292 31.743755 231.9823Q31.212505 232.57605 30.38438 232.57605Q29.400005 232.57605 28.85313 231.82605Q28.306255 231.07605 28.306255 229.70105L28.306255 228.65417L27.806255 228.65417Q27.243755 228.65417 26.91563 228.99792Q26.57188 229.32605 26.57188 229.99792Q26.57188 230.57605 26.868755 230.96667Q27.150005 231.3573 27.57188 231.3573L27.57188 232.45105Q27.087505 232.45105 26.650005 232.12292Q26.212505 231.77917 25.962505 231.20105Q25.69688 230.62292 25.69688 229.93542Q25.69688 228.82605 26.243755 228.21667Q26.79063 227.59167 27.743755 227.56042L30.66563 227.56042Q31.54063 227.56042 32.056255 227.34167L32.150005 227.34167L32.150005 228.4823ZM31.32188 230.27917Q31.32188 229.76355 31.056255 229.31042Q30.79063 228.8573 30.368755 228.65417L29.07188 228.65417L29.07188 229.49792Q29.07188 231.49792 30.243755 231.49792Q30.743755 231.49792 31.04063 231.15417Q31.32188 230.81042 31.32188 230.27917ZM28.118755 223.26355L25.806255 221.8573L25.806255 220.59167L28.94688 222.6698L32.150005 220.52917L32.150005 221.77917L29.775005 223.24792L32.150005 224.71667L32.150005 225.9823L28.94688 223.84167L25.806255 225.90417L25.806255 224.65417L28.118755 223.26355ZM30.462505 212.70105Q30.025005 212.70105 29.79063 213.0448Q29.54063 213.37292 29.368755 214.20105Q29.19688 215.01355 28.94688 215.49792Q28.69688 215.9823 28.368755 216.21667Q28.025005 216.43542 27.556255 216.43542Q26.775005 216.43542 26.243755 215.77917Q25.69688 215.12292 25.69688 214.09167Q25.69688 213.01355 26.25938 212.3573Q26.806255 211.68542 27.66563 211.68542L27.66563 212.76355Q27.22813 212.76355 26.91563 213.15417Q26.587505 213.52917 26.587505 214.09167Q26.587505 214.68542 26.85313 215.02917Q27.10313 215.3573 27.50938 215.3573Q27.900005 215.3573 28.10313 215.0448Q28.306255 214.7323 28.493755 213.9198Q28.66563 213.1073 28.91563 212.6073Q29.16563 212.1073 29.525005 211.87292Q29.88438 211.62292 30.38438 211.62292Q31.243755 211.62292 31.75938 212.31042Q32.275005 212.9823 32.275005 214.06042Q32.275005 214.82605 32.00938 215.4198Q31.72813 215.99792 31.243755 216.32605Q30.75938 216.65417 30.19688 216.65417L30.19688 215.57605Q30.743755 215.5448 31.07188 215.13855Q31.38438 214.7323 31.38438 214.06042Q31.38438 213.45105 31.13438 213.07605Q30.88438 212.70105 30.462505 212.70105ZM29.056255 205.0448Q30.493755 205.0448 31.38438 205.70105Q32.275005 206.3573 32.275005 207.49792Q32.275005 208.65417 31.54063 209.31042L34.587505 209.31042L34.587505 210.38855L25.806255 210.38855L25.806255 209.40417L26.50938 209.3573Q25.69688 208.68542 25.69688 207.51355Q25.69688 206.37292 26.556255 205.71667Q27.41563 205.0448 28.94688 205.0448L29.056255 205.0448ZM28.931255 206.12292Q27.85313 206.12292 27.243755 206.59167Q26.618755 207.0448 26.618755 207.84167Q26.618755 208.82605 27.47813 209.31042L30.50938 209.31042Q31.38438 208.82605 31.38438 207.82605Q31.38438 207.0448 30.775005 206.59167Q30.150005 206.12292 28.931255 206.12292ZM32.275005 200.76355Q32.275005 202.06042 31.431255 202.87292Q30.57188 203.6698 29.150005 203.6698L28.962505 203.6698Q28.00938 203.6698 27.275005 203.31042Q26.525005 202.95105 26.118755 202.31042Q25.69688 201.65417 25.69688 200.90417Q25.69688 199.6698 26.50938 198.9823Q27.32188 198.2948 28.837505 198.2948L29.29063 198.2948L29.29063 202.59167Q30.22813 202.56042 30.806255 202.0448Q31.38438 201.51355 31.38438 200.70105Q31.38438 200.13855 31.150005 199.74792Q30.91563 199.34167 30.525005 199.02917L31.04063 198.37292Q32.275005 199.1698 32.275005 200.76355ZM26.587505 200.90417Q26.587505 201.56042 27.07188 202.01355Q27.54063 202.45105 28.400005 202.5448L28.400005 199.37292L28.32188 199.37292Q27.493755 199.4198 27.04063 199.82605Q26.587505 200.21667 26.587505 200.90417ZM32.275005 194.76355Q32.275005 196.06042 31.431255 196.87292Q30.57188 197.6698 29.150005 197.6698L28.962505 197.6698Q28.00938 197.6698 27.275005 197.31042Q26.525005 196.95105 26.118755 196.31042Q25.69688 195.65417 25.69688 194.90417Q25.69688 193.6698 26.50938 192.9823Q27.32188 192.2948 28.837505 192.2948L29.29063 192.2948L29.29063 196.59167Q30.22813 196.56042 30.806255 196.0448Q31.38438 195.51355 31.38438 194.70105Q31.38438 194.13855 31.150005 193.74792Q30.91563 193.34167 30.525005 193.02917L31.04063 192.37292Q32.275005 193.1698 32.275005 194.76355ZM26.587505 194.90417Q26.587505 195.56042 27.07188 196.01355Q27.54063 196.45105 28.400005 196.5448L28.400005 193.37292L28.32188 193.37292Q27.493755 193.4198 27.04063 193.82605Q26.587505 194.21667 26.587505 194.90417ZM28.931255 191.65417Q27.462505 191.65417 26.587505 190.96667Q25.69688 190.27917 25.69688 189.15417Q25.69688 188.0448 26.44688 187.38855L23.150005 187.38855L23.150005 186.31042L32.150005 186.31042L32.150005 187.31042L31.462505 187.3573Q32.275005 188.01355 32.275005 189.1698Q32.275005 190.26355 31.368755 190.96667Q30.462505 191.65417 29.00938 191.65417L28.931255 191.65417ZM29.056255 190.57605Q30.13438 190.57605 30.743755 190.13855Q31.35313 189.68542 31.35313 188.90417Q31.35313 187.87292 30.41563 187.38855L27.50938 187.38855Q26.618755 187.87292 26.618755 188.88855Q26.618755 189.68542 27.22813 190.13855Q27.837505 190.57605 29.056255 190.57605ZM23.29063 179.15417L23.29063 180.26355L33.087505 180.26355L33.087505 179.15417L33.97813 179.15417L33.97813 181.3573L22.400005 181.3573L22.400005 179.15417L23.29063 179.15417ZM25.806255 177.37292L26.50938 177.34167Q25.69688 176.65417 25.69688 175.46667Q25.69688 174.13855 26.712505 173.65417Q26.25938 173.34167 25.97813 172.84167Q25.69688 172.32605 25.69688 171.63855Q25.69688 169.5448 27.900005 169.51355L32.150005 169.51355L32.150005 170.59167L27.962505 170.59167Q27.29063 170.59167 26.962505 170.90417Q26.618755 171.21667 26.618755 171.95105Q26.618755 172.56042 26.97813 172.96667Q27.337505 173.3573 27.94688 173.4198L32.150005 173.4198L32.150005 174.49792L27.993755 174.49792Q26.618755 174.49792 26.618755 175.8573Q26.618755 176.9198 27.525005 177.31042L32.150005 177.31042L32.150005 178.40417L25.806255 178.40417L25.806255 177.37292ZM32.88438 167.18542L32.88438 168.1073L23.618755 164.5448L23.618755 163.62292L32.88438 167.18542ZM30.462505 158.70105Q30.025005 158.70105 29.79063 159.0448Q29.54063 159.37292 29.368755 160.20105Q29.19688 161.01355 28.94688 161.49792Q28.69688 161.9823 28.368755 162.21667Q28.025005 162.43542 27.556255 162.43542Q26.775005 162.43542 26.243755 161.77917Q25.69688 161.12292 25.69688 160.09167Q25.69688 159.01355 26.25938 158.3573Q26.806255 157.68542 27.66563 157.68542L27.66563 158.76355Q27.22813 158.76355 26.91563 159.15417Q26.587505 159.52917 26.587505 160.09167Q26.587505 160.68542 26.85313 161.02917Q27.10313 161.3573 27.50938 161.3573Q27.900005 161.3573 28.10313 161.0448Q28.306255 160.7323 28.493755 159.9198Q28.66563 159.1073 28.91563 158.6073Q29.16563 158.1073 29.525005 157.87292Q29.88438 157.62292 30.38438 157.62292Q31.243755 157.62292 31.75938 158.31042Q32.275005 158.9823 32.275005 160.06042Q32.275005 160.82605 32.00938 161.4198Q31.72813 161.99792 31.243755 162.32605Q30.75938 162.65417 30.19688 162.65417L30.19688 161.57605Q30.743755 161.5448 31.07188 161.13855Q31.38438 160.7323 31.38438 160.06042Q31.38438 159.45105 31.13438 159.07605Q30.88438 158.70105 30.462505 158.70105ZM22.400005 157.1698L22.400005 154.95105L33.97813 154.95105L33.97813 157.1698L33.087505 157.1698L33.087505 156.02917L23.29063 156.02917L23.29063 157.1698L22.400005 157.1698Z" fill-rule="nonzero"/><path fill="#000000" d="M76.2125 329.70938Q76.2125 331.61563 75.55625 332.55313Q74.91563 333.475 73.525 333.475Q72.16563 333.475 71.50938 332.56876Q70.85313 331.6625 70.82188 329.85L70.82188 328.4125Q70.82188 326.52188 71.4625 325.61563Q72.11875 324.69376 73.50938 324.69376Q74.88438 324.69376 75.54063 325.58438Q76.19688 326.45938 76.2125 328.30313L76.2125 329.70938ZM75.11875 328.225Q75.11875 326.85 74.72813 326.225Q74.35313 325.58438 73.50938 325.58438Q72.68125 325.58438 72.29063 326.225Q71.91563 326.85 71.91563 328.14688L71.91563 329.88126Q71.91563 331.25626 72.30625 331.92813Q72.7125 332.58438 73.525 332.58438Q74.32188 332.58438 74.7125 331.95938Q75.10313 331.33438 75.11875 330.00626L75.11875 328.225Z" fill-rule="nonzero"/><path fill="#000000" d="M59.2125 275.15604Q59.2125 277.0623 58.55625 277.9998Q57.915627 278.92166 56.525 278.92166Q55.165627 278.92166 54.509377 278.0154Q53.853127 277.10916 53.821877 275.29666L53.821877 273.85916Q53.821877 271.96854 54.4625 271.0623Q55.11875 270.1404 56.509377 270.1404Q57.884377 270.1404 58.540627 271.03104Q59.196877 271.90604 59.2125 273.7498L59.2125 275.15604ZM58.11875 273.67166Q58.11875 272.29666 57.728127 271.67166Q57.353127 271.03104 56.509377 271.03104Q55.68125 271.03104 55.290627 271.67166Q54.915627 272.29666 54.915627 273.59354L54.915627 275.3279Q54.915627 276.7029 55.30625 277.3748Q55.7125 278.03104 56.525 278.03104Q57.321877 278.03104 57.7125 277.40604Q58.103127 276.78104 58.11875 275.4529L58.11875 273.67166ZM60.99375 278.23416Q60.99375 277.9529 61.15 277.7654Q61.321877 277.5779 61.65 277.5779Q61.99375 277.5779 62.165627 277.7654Q62.3375 277.9529 62.3375 278.23416Q62.3375 278.4998 62.165627 278.6873Q61.99375 278.85916 61.65 278.85916Q61.321877 278.85916 61.15 278.6873Q60.99375 278.4998 60.99375 278.23416ZM69.44688 278.79666L63.853127 278.79666L63.853127 278.0154L66.80625 274.73416Q67.4625 273.98416 67.7125 273.53104Q67.9625 273.0623 67.9625 272.5623Q67.9625 271.8904 67.55625 271.46854Q67.16563 271.03104 66.47813 271.03104Q65.68125 271.03104 65.22813 271.4998Q64.775 271.9529 64.775 272.78104L63.696877 272.78104Q63.696877 271.59354 64.44688 270.8748Q65.2125 270.1404 66.47813 270.1404Q67.68125 270.1404 68.36875 270.7654Q69.05625 271.3904 69.05625 272.4373Q69.05625 273.6873 67.44688 275.4373L65.16563 277.90604L69.44688 277.90604L69.44688 278.79666ZM71.35313 274.5154L71.79063 270.2654L76.16563 270.2654L76.16563 271.2654L72.7125 271.2654L72.44688 273.59354Q73.0875 273.21854 73.88438 273.21854Q75.04063 273.21854 75.72813 273.9998Q76.41563 274.7654 76.41563 276.0779Q76.41563 277.3904 75.69688 278.15604Q74.99375 278.92166 73.7125 278.92166Q72.5875 278.92166 71.86875 278.29666Q71.15 277.65604 71.05625 276.54666L72.07188 276.54666Q72.18125 277.28104 72.60313 277.65604Q73.025 278.03104 73.7125 278.03104Q74.4625 278.03104 74.9 277.5154Q75.3375 276.9998 75.3375 276.09354Q75.3375 275.23416 74.86875 274.71854Q74.4 274.2029 73.61875 274.2029Q72.91563 274.2029 72.50938 274.4998L72.22813 274.73416L71.35313 274.5154Z" fill-rule="nonzero"/><path fill="#000000" d="M66.2125 220.6027Q66.2125 222.50896 65.55625 223.44646Q64.91563 224.36833 63.525 224.36833Q62.165627 224.36833 61.509377 223.46208Q60.853127 222.55583 60.821877 220.74333L60.821877 219.30583Q60.821877 217.4152 61.4625 216.50896Q62.11875 215.58708 63.509377 215.58708Q64.88438 215.58708 65.54063 216.4777Q66.19688 217.3527 66.2125 219.19646L66.2125 220.6027ZM65.11875 219.11833Q65.11875 217.74333 64.72813 217.11833Q64.35313 216.4777 63.509377 216.4777Q62.68125 216.4777 62.290627 217.11833Q61.915627 217.74333 61.915627 219.0402L61.915627 220.77458Q61.915627 222.14958 62.30625 222.82146Q62.7125 223.4777 63.525 223.4777Q64.32188 223.4777 64.7125 222.8527Q65.10313 222.2277 65.11875 220.89958L65.11875 219.11833ZM67.99375 223.68083Q67.99375 223.39958 68.15 223.21208Q68.32188 223.02458 68.65 223.02458Q68.99375 223.02458 69.16563 223.21208Q69.3375 223.39958 69.3375 223.68083Q69.3375 223.94646 69.16563 224.13396Q68.99375 224.30583 68.65 224.30583Q68.32188 224.30583 68.15 224.13396Q67.99375 223.94646 67.99375 223.68083ZM71.35313 219.96208L71.79063 215.71208L76.16563 215.71208L76.16563 216.71208L72.7125 216.71208L72.44688 219.0402Q73.0875 218.6652 73.88438 218.6652Q75.04063 218.6652 75.72813 219.44646Q76.41563 220.21208 76.41563 221.52458Q76.41563 222.83708 75.69688 223.6027Q74.99375 224.36833 73.7125 224.36833Q72.5875 224.36833 71.86875 223.74333Q71.15 223.1027 71.05625 221.99333L72.07188 221.99333Q72.18125 222.7277 72.60313 223.1027Q73.025 223.4777 73.7125 223.4777Q74.4625 223.4777 74.9 222.96208Q75.3375 222.44646 75.3375 221.5402Q75.3375 220.68083 74.86875 220.1652Q74.4 219.64958 73.61875 219.64958Q72.91563 219.64958 72.50938 219.94646L72.22813 220.18083L71.35313 219.96208Z" fill-rule="nonzero"/><path fill="#000000" d="M59.2125 166.04938Q59.2125 167.95563 58.55625 168.89313Q57.915627 169.815 56.525 169.815Q55.165627 169.815 54.509377 168.90875Q53.853127 168.0025 53.821877 166.19L53.821877 164.7525Q53.821877 162.86188 54.4625 161.95563Q55.11875 161.03375 56.509377 161.03375Q57.884377 161.03375 58.540627 161.92438Q59.196877 162.79938 59.2125 164.64313L59.2125 166.04938ZM58.11875 164.565Q58.11875 163.19 57.728127 162.565Q57.353127 161.92438 56.509377 161.92438Q55.68125 161.92438 55.290627 162.565Q54.915627 163.19 54.915627 164.48688L54.915627 166.22125Q54.915627 167.59625 55.30625 168.26813Q55.7125 168.92438 56.525 168.92438Q57.321877 168.92438 57.7125 168.29938Q58.103127 167.67438 58.11875 166.34625L58.11875 164.565ZM60.99375 169.1275Q60.99375 168.84625 61.15 168.65875Q61.321877 168.47125 61.65 168.47125Q61.99375 168.47125 62.165627 168.65875Q62.3375 168.84625 62.3375 169.1275Q62.3375 169.39313 62.165627 169.58063Q61.99375 169.7525 61.65 169.7525Q61.321877 169.7525 61.15 169.58063Q60.99375 169.39313 60.99375 169.1275ZM69.36875 161.76813L65.8375 169.69L64.69688 169.69L68.2125 162.04938L63.603127 162.04938L63.603127 161.15875L69.36875 161.15875L69.36875 161.76813ZM71.35313 165.40875L71.79063 161.15875L76.16563 161.15875L76.16563 162.15875L72.7125 162.15875L72.44688 164.48688Q73.0875 164.11188 73.88438 164.11188Q75.04063 164.11188 75.72813 164.89313Q76.41563 165.65875 76.41563 166.97125Q76.41563 168.28375 75.69688 169.04938Q74.99375 169.815 73.7125 169.815Q72.5875 169.815 71.86875 169.19Q71.15 168.54938 71.05625 167.44L72.07188 167.44Q72.18125 168.17438 72.60313 168.54938Q73.025 168.92438 73.7125 168.92438Q74.4625 168.92438 74.9 168.40875Q75.3375 167.89313 75.3375 166.98688Q75.3375 166.1275 74.86875 165.61188Q74.4 165.09625 73.61875 165.09625Q72.91563 165.09625 72.50938 165.39313L72.22813 165.6275L71.35313 165.40875Z" fill-rule="nonzero"/><path fill="#000000" d="M74.41563 115.136665L73.3375 115.136665L73.3375 107.917915L71.15 108.71479L71.15 107.730415L74.25938 106.55854L74.41563 106.55854L74.41563 115.136665Z" fill-rule="nonzero"/><path fill="#000000" d="M57.415627 60.583332L56.3375 60.583332L56.3375 53.364582L54.15 54.161457L54.15 53.177082L57.259377 52.005207L57.415627 52.005207L57.415627 60.583332ZM60.99375 60.020832Q60.99375 59.739582 61.15 59.552082Q61.321877 59.364582 61.65 59.364582Q61.99375 59.364582 62.165627 59.552082Q62.3375 59.739582 62.3375 60.020832Q62.3375 60.286457 62.165627 60.473957Q61.99375 60.645832 61.65 60.645832Q61.321877 60.645832 61.15 60.473957Q60.99375 60.286457 60.99375 60.020832ZM69.44688 60.583332L63.853127 60.583332L63.853127 59.802082L66.80625 56.520832Q67.4625 55.770832 67.7125 55.317707Q67.9625 54.848957 67.9625 54.348957Q67.9625 53.677082 67.55625 53.255207Q67.16563 52.817707 66.47813 52.817707Q65.68125 52.817707 65.22813 53.286457Q64.775 53.739582 64.775 54.567707L63.696877 54.567707Q63.696877 53.380207 64.44688 52.661457Q65.2125 51.927082 66.47813 51.927082Q67.68125 51.927082 68.36875 52.552082Q69.05625 53.177082 69.05625 54.223957Q69.05625 55.473957 67.44688 57.223957L65.16563 59.692707L69.44688 59.692707L69.44688 60.583332ZM71.35313 56.302082L71.79063 52.052082L76.16563 52.052082L76.16563 53.052082L72.7125 53.052082L72.44688 55.380207Q73.0875 55.005207 73.88438 55.005207Q75.04063 55.005207 75.72813 55.786457Q76.41563 56.552082 76.41563 57.864582Q76.41563 59.177082 75.69688 59.942707Q74.99375 60.708332 73.7125 60.708332Q72.5875 60.708332 71.86875 60.083332Q71.15 59.442707 71.05625 58.333332L72.07188 58.333332Q72.18125 59.067707 72.60313 59.442707Q73.025 59.817707 73.7125 59.817707Q74.4625 59.817707 74.9 59.302082Q75.3375 58.786457 75.3375 57.880207Q75.3375 57.020832 74.86875 56.505207Q74.4 55.989582 73.61875 55.989582Q72.91563 55.989582 72.50938 56.286457L72.22813 56.520832L71.35313 56.302082Z" fill-rule="nonzero"/><path fill="#000000" d="M87.24146 346.85L86.16334 346.85L86.16334 339.63126L83.97584 340.42813L83.97584 339.44376L87.08521 338.27188L87.24146 338.27188L87.24146 346.85ZM96.03834 343.20938Q96.03834 345.11563 95.38209 346.05313Q94.74146 346.975 93.35084 346.975Q91.99146 346.975 91.33521 346.06876Q90.67896 345.1625 90.64771 343.35L90.64771 341.9125Q90.64771 340.02188 91.28834 339.11563Q91.94459 338.19376 93.33521 338.19376Q94.71021 338.19376 95.36646 339.08438Q96.02271 339.95938 96.03834 341.80313L96.03834 343.20938ZM94.94459 341.725Q94.94459 340.35 94.55396 339.725Q94.17896 339.08438 93.33521 339.08438Q92.50709 339.08438 92.11646 339.725Q91.74146 340.35 91.74146 341.64688L91.74146 343.38126Q91.74146 344.75626 92.13209 345.42813Q92.53834 346.08438 93.35084 346.08438Q94.14771 346.08438 94.53834 345.45938Q94.92896 344.83438 94.94459 343.50626L94.94459 341.725Z" fill-rule="nonzero"/><path fill="#000000" d="M267.62216 346.85L262.0284 346.85L262.0284 346.06876L264.98154 342.7875Q265.6378 342.0375 265.8878 341.58438Q266.1378 341.11563 266.1378 340.61563Q266.1378 339.94376 265.73154 339.52188Q265.3409 339.08438 264.6534 339.08438Q263.85654 339.08438 263.4034 339.55313Q262.9503 340.00626 262.9503 340.83438L261.87216 340.83438Q261.87216 339.64688 262.62216 338.92813Q263.3878 338.19376 264.6534 338.19376Q265.85654 338.19376 266.54404 338.81876Q267.23154 339.44376 267.23154 340.49063Q267.23154 341.74063 265.62216 343.49063L263.3409 345.95938L267.62216 345.95938L267.62216 346.85ZM274.3878 343.20938Q274.3878 345.11563 273.73154 346.05313Q273.0909 346.975 271.7003 346.975Q270.3409 346.975 269.68466 346.06876Q269.0284 345.1625 268.99716 343.35L268.99716 341.9125Q268.99716 340.02188 269.6378 339.11563Q270.29404 338.19376 271.68466 338.19376Q273.05966 338.19376 273.7159 339.08438Q274.37216 339.95938 274.3878 341.80313L274.3878 343.20938ZM273.29404 341.725Q273.29404 340.35 272.9034 339.725Q272.5284 339.08438 271.68466 339.08438Q270.85654 339.08438 270.4659 339.725Q270.0909 340.35 270.0909 341.64688L270.0909 343.38126Q270.0909 344.75626 270.48154 345.42813Q270.8878 346.08438 271.7003 346.08438Q272.49716 346.08438 272.8878 345.45938Q273.2784 344.83438 273.29404 343.50626L273.29404 341.725Z" fill-rule="nonzero"/><path fill="#000000" d="M441.95596 342.05313L442.76846 342.05313Q443.5497 342.0375 443.9872 341.64688Q444.4247 341.25626 444.4247 340.58438Q444.4247 339.08438 442.9247 339.08438Q442.2216 339.08438 441.7997 339.49063Q441.39346 339.89688 441.39346 340.55313L440.2997 340.55313Q440.2997 339.5375 441.0341 338.86563Q441.7841 338.19376 442.9247 338.19376Q444.12784 338.19376 444.81534 338.83438Q445.50284 339.475 445.50284 340.61563Q445.50284 341.17813 445.14346 341.69376Q444.7841 342.20938 444.1591 342.475Q444.8622 342.69376 445.2372 343.20938Q445.62784 343.725 445.62784 344.475Q445.62784 345.61563 444.87784 346.30313Q444.12784 346.975 442.9247 346.975Q441.7372 346.975 440.9716 346.31876Q440.2216 345.6625 440.2216 344.6L441.31534 344.6Q441.31534 345.27188 441.75284 345.67813Q442.19034 346.08438 442.94034 346.08438Q443.7216 346.08438 444.12784 345.67813Q444.5497 345.25626 444.5497 344.49063Q444.5497 343.75626 444.0966 343.36563Q443.64346 342.95938 442.76846 342.94376L441.95596 342.94376L441.95596 342.05313ZM452.7372 343.20938Q452.7372 345.11563 452.08096 346.05313Q451.44034 346.975 450.0497 346.975Q448.69034 346.975 448.0341 346.06876Q447.37784 345.1625 447.3466 343.35L447.3466 341.9125Q447.3466 340.02188 447.9872 339.11563Q448.64346 338.19376 450.0341 338.19376Q451.4091 338.19376 452.06534 339.08438Q452.7216 339.95938 452.7372 341.80313L452.7372 343.20938ZM451.64346 341.725Q451.64346 340.35 451.25284 339.725Q450.87784 339.08438 450.0341 339.08438Q449.20596 339.08438 448.81534 339.725Q448.44034 340.35 448.44034 341.64688L448.44034 343.38126Q448.44034 344.75626 448.83096 345.42813Q449.2372 346.08438 450.0497 346.08438Q450.8466 346.08438 451.2372 345.45938Q451.62784 344.83438 451.64346 343.50626L451.64346 341.725Z" fill-rule="nonzero"/><path fill="#000000" d="M623.3054 343.99063L624.4929 343.99063L624.4929 344.86563L623.3054 344.86563L623.3054 346.85L622.2273 346.85L622.2273 344.86563L618.3367 344.86563L618.3367 344.225L622.1492 338.31876L623.3054 338.31876L623.3054 343.99063ZM619.57104 343.99063L622.2273 343.99063L622.2273 339.80313L622.0867 340.0375L619.57104 343.99063ZM631.0867 343.20938Q631.0867 345.11563 630.4304 346.05313Q629.7898 346.975 628.3992 346.975Q627.0398 346.975 626.38354 346.06876Q625.7273 345.1625 625.69604 343.35L625.69604 341.9125Q625.69604 340.02188 626.3367 339.11563Q626.9929 338.19376 628.38354 338.19376Q629.75854 338.19376 630.4148 339.08438Q631.07104 339.95938 631.0867 341.80313L631.0867 343.20938ZM629.9929 341.725Q629.9929 340.35 629.6023 339.725Q629.2273 339.08438 628.38354 339.08438Q627.5554 339.08438 627.1648 339.725Q626.7898 340.35 626.7898 341.64688L626.7898 343.38126Q626.7898 344.75626 627.1804 345.42813Q627.5867 346.08438 628.3992 346.08438Q629.19604 346.08438 629.5867 345.45938Q629.9773 344.83438 629.9929 343.50626L629.9929 341.725Z" fill-rule="nonzero"/><path fill="#4285f4" d="M155.5 27.65C155.5 30.963709 152.8137 33.65 149.5 33.65C146.1863 33.65 143.5 30.963709 143.5 27.65C143.5 24.336292 146.1863 21.65 149.5 21.65C152.8137 21.65 155.5 24.336292 155.5 27.65Z" fill-rule="nonzero"/><path fill="#000000" d="M165.34375 25.806252L165.375 26.509377Q166.0625 25.696877 167.25 25.696877Q168.57812 25.696877 169.0625 26.712502Q169.375 26.259377 169.875 25.978127Q170.39062 25.696877 171.07812 25.696877Q173.17188 25.696877 173.20312 27.900002L173.20312 32.15L172.125 32.15L172.125 27.962502Q172.125 27.290627 171.8125 26.962502Q171.5 26.618752 170.76562 26.618752Q170.15625 26.618752 169.75 26.978127Q169.35938 27.337502 169.29688 27.946877L169.29688 32.15L168.21875 32.15L168.21875 27.993752Q168.21875 26.618752 166.85938 26.618752Q165.79688 26.618752 165.40625 27.525002L165.40625 32.15L164.3125 32.15L164.3125 25.806252L165.34375 25.806252ZM179.23438 32.15Q179.14062 31.962502 179.07812 31.478127Q178.32812 32.275 177.28125 32.275Q176.34375 32.275 175.73438 31.743752Q175.14062 31.212502 175.14062 30.384377Q175.14062 29.400002 175.89062 28.853127Q176.64062 28.306252 178.01562 28.306252L179.0625 28.306252L179.0625 27.806252Q179.0625 27.243752 178.71875 26.915627Q178.39062 26.571877 177.71875 26.571877Q177.14062 26.571877 176.75 26.868752Q176.35938 27.150002 176.35938 27.571877L175.26562 27.571877Q175.26562 27.087502 175.59375 26.650002Q175.9375 26.212502 176.51562 25.962502Q177.09375 25.696877 177.78125 25.696877Q178.89062 25.696877 179.5 26.243752Q180.125 26.790627 180.15625 27.743752L180.15625 30.665627Q180.15625 31.540627 180.375 32.05625L180.375 32.15L179.23438 32.15ZM177.4375 31.321877Q177.95312 31.321877 178.40625 31.056252Q178.85938 30.790627 179.0625 30.368752L179.0625 29.071877L178.21875 29.071877Q176.21875 29.071877 176.21875 30.243752Q176.21875 30.743752 176.5625 31.040627Q176.90625 31.321877 177.4375 31.321877ZM184.45312 28.118752L185.85938 25.806252L187.125 25.806252L185.04688 28.946877L187.1875 32.15L185.9375 32.15L184.46875 29.775002L183.0 32.15L181.73438 32.15L183.875 28.946877L181.8125 25.806252L183.0625 25.806252L184.45312 28.118752ZM195.01562 30.462502Q195.01562 30.025002 194.67188 29.790627Q194.34375 29.540627 193.51562 29.368752Q192.70312 29.196877 192.21875 28.946877Q191.73438 28.696877 191.5 28.368752Q191.28125 28.025002 191.28125 27.556252Q191.28125 26.775002 191.9375 26.243752Q192.59375 25.696877 193.625 25.696877Q194.70312 25.696877 195.35938 26.259377Q196.03125 26.806252 196.03125 27.665627L194.95312 27.665627Q194.95312 27.228127 194.5625 26.915627Q194.1875 26.587502 193.625 26.587502Q193.03125 26.587502 192.6875 26.853127Q192.35938 27.103127 192.35938 27.509377Q192.35938 27.900002 192.67188 28.103127Q192.98438 28.306252 193.79688 28.493752Q194.60938 28.665627 195.10938 28.915627Q195.60938 29.165627 195.84375 29.525002Q196.09375 29.884377 196.09375 30.384377Q196.09375 31.243752 195.40625 31.759377Q194.73438 32.275 193.65625 32.275Q192.89062 32.275 192.29688 32.009377Q191.71875 31.728127 191.39062 31.243752Q191.0625 30.759377 191.0625 30.196877L192.14062 30.196877Q192.17188 30.743752 192.57812 31.071877Q192.98438 31.384377 193.65625 31.384377Q194.26562 31.384377 194.64062 31.134377Q195.01562 30.884377 195.01562 30.462502ZM202.67188 29.056252Q202.67188 30.493752 202.01562 31.384377Q201.35938 32.275 200.21875 32.275Q199.0625 32.275 198.40625 31.540627L198.40625 34.5875L197.32812 34.5875L197.32812 25.806252L198.3125 25.806252L198.35938 26.509377Q199.03125 25.696877 200.20312 25.696877Q201.34375 25.696877 202.0 26.556252Q202.67188 27.415627 202.67188 28.946877L202.67188 29.056252ZM201.59375 28.931252Q201.59375 27.853127 201.125 27.243752Q200.67188 26.618752 199.875 26.618752Q198.89062 26.618752 198.40625 27.478127L198.40625 30.509377Q198.89062 31.384377 199.89062 31.384377Q200.67188 31.384377 201.125 30.775002Q201.59375 30.150002 201.59375 28.931252ZM206.95312 32.275Q205.65625 32.275 204.84375 31.431252Q204.04688 30.571877 204.04688 29.150002L204.04688 28.962502Q204.04688 28.009377 204.40625 27.275002Q204.76562 26.525002 205.40625 26.118752Q206.0625 25.696877 206.8125 25.696877Q208.04688 25.696877 208.73438 26.509377Q209.42188 27.321877 209.42188 28.837502L209.42188 29.290627L205.125 29.290627Q205.15625 30.228127 205.67188 30.806252Q206.20312 31.384377 207.01562 31.384377Q207.57812 31.384377 207.96875 31.150002Q208.375 30.915627 208.6875 30.525002L209.34375 31.040627Q208.54688 32.275 206.95312 32.275ZM206.8125 26.587502Q206.15625 26.587502 205.70312 27.071877Q205.26562 27.540627 205.17188 28.400002L208.34375 28.400002L208.34375 28.321877Q208.29688 27.493752 207.89062 27.040627Q207.5 26.587502 206.8125 26.587502ZM212.95312 32.275Q211.65625 32.275 210.84375 31.431252Q210.04688 30.571877 210.04688 29.150002L210.04688 28.962502Q210.04688 28.009377 210.40625 27.275002Q210.76562 26.525002 211.40625 26.118752Q212.0625 25.696877 212.8125 25.696877Q214.04688 25.696877 214.73438 26.509377Q215.42188 27.321877 215.42188 28.837502L215.42188 29.290627L211.125 29.290627Q211.15625 30.228127 211.67188 30.806252Q212.20312 31.384377 213.01562 31.384377Q213.57812 31.384377 213.96875 31.150002Q214.375 30.915627 214.6875 30.525002L215.34375 31.040627Q214.54688 32.275 212.95312 32.275ZM212.8125 26.587502Q212.15625 26.587502 211.70312 27.071877Q211.26562 27.540627 211.17188 28.400002L214.34375 28.400002L214.34375 28.321877Q214.29688 27.493752 213.89062 27.040627Q213.5 26.587502 212.8125 26.587502ZM216.0625 28.931252Q216.0625 27.462502 216.75 26.587502Q217.4375 25.696877 218.5625 25.696877Q219.67188 25.696877 220.32812 26.446877L220.32812 23.150002L221.40625 23.150002L221.40625 32.15L220.40625 32.15L220.35938 31.462502Q219.70312 32.275 218.54688 32.275Q217.45312 32.275 216.75 31.368752Q216.0625 30.462502 216.0625 29.009377L216.0625 28.931252ZM217.14062 29.056252Q217.14062 30.134377 217.57812 30.743752Q218.03125 31.353127 218.8125 31.353127Q219.84375 31.353127 220.32812 30.415627L220.32812 27.509377Q219.84375 26.618752 218.82812 26.618752Q218.03125 26.618752 217.57812 27.228127Q217.14062 27.837502 217.14062 29.056252ZM228.5625 23.290627L227.45312 23.290627L227.45312 33.0875L228.5625 33.0875L228.5625 33.978127L226.35938 33.978127L226.35938 22.400002L228.5625 22.400002L228.5625 23.290627ZM230.34375 25.806252L230.375 26.509377Q231.0625 25.696877 232.25 25.696877Q233.57812 25.696877 234.0625 26.712502Q234.375 26.259377 234.875 25.978127Q235.39062 25.696877 236.07812 25.696877Q238.17188 25.696877 238.20312 27.900002L238.20312 32.15L237.125 32.15L237.125 27.962502Q237.125 27.290627 236.8125 26.962502Q236.5 26.618752 235.76562 26.618752Q235.15625 26.618752 234.75 26.978127Q234.35938 27.337502 234.29688 27.946877L234.29688 32.15L233.21875 32.15L233.21875 27.993752Q233.21875 26.618752 231.85938 26.618752Q230.79688 26.618752 230.40625 27.525002L230.40625 32.15L229.3125 32.15L229.3125 25.806252L230.34375 25.806252ZM240.53125 32.884377L239.60938 32.884377L243.17188 23.618752L244.09375 23.618752L240.53125 32.884377ZM249.01562 30.462502Q249.01562 30.025002 248.67188 29.790627Q248.34375 29.540627 247.51562 29.368752Q246.70312 29.196877 246.21875 28.946877Q245.73438 28.696877 245.5 28.368752Q245.28125 28.025002 245.28125 27.556252Q245.28125 26.775002 245.9375 26.243752Q246.59375 25.696877 247.625 25.696877Q248.70312 25.696877 249.35938 26.259377Q250.03125 26.806252 250.03125 27.665627L248.95312 27.665627Q248.95312 27.228127 248.5625 26.915627Q248.1875 26.587502 247.625 26.587502Q247.03125 26.587502 246.6875 26.853127Q246.35938 27.103127 246.35938 27.509377Q246.35938 27.900002 246.67188 28.103127Q246.98438 28.306252 247.79688 28.493752Q248.60938 28.665627 249.10938 28.915627Q249.60938 29.165627 249.84375 29.525002Q250.09375 29.884377 250.09375 30.384377Q250.09375 31.243752 249.40625 31.759377Q248.73438 32.275 247.65625 32.275Q246.89062 32.275 246.29688 32.009377Q245.71875 31.728127 245.39062 31.243752Q245.0625 30.759377 245.0625 30.196877L246.14062 30.196877Q246.17188 30.743752 246.57812 31.071877Q246.98438 31.384377 247.65625 31.384377Q248.26562 31.384377 248.64062 31.134377Q249.01562 30.884377 249.01562 30.462502ZM250.54688 22.400002L252.76562 22.400002L252.76562 33.978127L250.54688 33.978127L250.54688 33.0875L251.6875 33.0875L251.6875 23.290627L250.54688 23.290627L250.54688 22.400002Z" fill-rule="nonzero"/><path stroke="#4285f4" stroke-width="4.0" stroke-linecap="butt" stroke-opacity="0.4" d="M269.5 27.65L281.5 27.65" fill-rule="nonzero"/><path fill="#000000" d="M296.39062 24.540627L293.64062 24.540627L293.64062 32.15L292.53125 32.15L292.53125 24.540627L289.78125 24.540627L289.78125 23.618752L296.39062 23.618752L296.39062 24.540627ZM300.39062 26.775002Q300.14062 26.743752 299.85938 26.743752Q298.78125 26.743752 298.40625 27.650002L298.40625 32.15L297.32812 32.15L297.32812 25.806252L298.375 25.806252L298.39062 26.540627Q298.92188 25.696877 299.90625 25.696877Q300.21875 25.696877 300.39062 25.775002L300.39062 26.775002ZM303.95312 32.275Q302.65625 32.275 301.84375 31.431252Q301.04688 30.571877 301.04688 29.150002L301.04688 28.962502Q301.04688 28.009377 301.40625 27.275002Q301.76562 26.525002 302.40625 26.118752Q303.0625 25.696877 303.8125 25.696877Q305.04688 25.696877 305.73438 26.509377Q306.42188 27.321877 306.42188 28.837502L306.42188 29.290627L302.125 29.290627Q302.15625 30.228127 302.67188 30.806252Q303.20312 31.384377 304.01562 31.384377Q304.57812 31.384377 304.96875 31.150002Q305.375 30.915627 305.6875 30.525002L306.34375 31.040627Q305.54688 32.275 303.95312 32.275ZM303.8125 26.587502Q303.15625 26.587502 302.70312 27.071877Q302.26562 27.540627 302.17188 28.400002L305.34375 28.400002L305.34375 28.321877Q305.29688 27.493752 304.89062 27.040627Q304.5 26.587502 303.8125 26.587502ZM308.34375 25.806252L308.375 26.603127Q309.10938 25.696877 310.28125 25.696877Q312.29688 25.696877 312.3125 27.962502L312.3125 32.15L311.21875 32.15L311.21875 27.946877Q311.21875 27.275002 310.90625 26.946877Q310.60938 26.618752 309.95312 26.618752Q309.42188 26.618752 309.01562 26.900002Q308.625 27.181252 308.40625 27.634377L308.40625 32.15L307.32812 32.15L307.32812 25.806252L308.34375 25.806252ZM314.0625 28.931252Q314.0625 27.462502 314.75 26.587502Q315.4375 25.696877 316.5625 25.696877Q317.67188 25.696877 318.32812 26.446877L318.32812 23.150002L319.40625 23.150002L319.40625 32.15L318.40625 32.15L318.35938 31.462502Q317.70312 32.275 316.54688 32.275Q315.45312 32.275 314.75 31.368752Q314.0625 30.462502 314.0625 29.009377L314.0625 28.931252ZM315.14062 29.056252Q315.14062 30.134377 315.57812 30.743752Q316.03125 31.353127 316.8125 31.353127Q317.84375 31.353127 318.32812 30.415627L318.32812 27.509377Q317.84375 26.618752 316.82812 26.618752Q316.03125 26.618752 315.57812 27.228127Q315.14062 27.837502 315.14062 29.056252ZM322.5 32.15L321.42188 32.15L321.42188 23.150002L322.5 23.150002L322.5 32.15ZM325.5 32.15L324.42188 32.15L324.42188 25.806252L325.5 25.806252L325.5 32.15ZM324.32812 24.134377Q324.32812 23.868752 324.48438 23.681252Q324.65625 23.493752 324.96875 23.493752Q325.28125 23.493752 325.4375 23.681252Q325.60938 23.868752 325.60938 24.134377Q325.60938 24.384377 325.4375 24.571877Q325.28125 24.743752 324.96875 24.743752Q324.65625 24.743752 324.48438 24.571877Q324.32812 24.384377 324.32812 24.134377ZM328.34375 25.806252L328.375 26.603127Q329.10938 25.696877 330.28125 25.696877Q332.29688 25.696877 332.3125 27.962502L332.3125 32.15L331.21875 32.15L331.21875 27.946877Q331.21875 27.275002 330.90625 26.946877Q330.60938 26.618752 329.95312 26.618752Q329.42188 26.618752 329.01562 26.900002Q328.625 27.181252 328.40625 27.634377L328.40625 32.15L327.32812 32.15L327.32812 25.806252L328.34375 25.806252ZM336.95312 32.275Q335.65625 32.275 334.84375 31.431252Q334.04688 30.571877 334.04688 29.150002L334.04688 28.962502Q334.04688 28.009377 334.40625 27.275002Q334.76562 26.525002 335.40625 26.118752Q336.0625 25.696877 336.8125 25.696877Q338.04688 25.696877 338.73438 26.509377Q339.42188 27.321877 339.42188 28.837502L339.42188 29.290627L335.125 29.290627Q335.15625 30.228127 335.67188 30.806252Q336.20312 31.384377 337.01562 31.384377Q337.57812 31.384377 337.96875 31.150002Q338.375 30.915627 338.6875 30.525002L339.34375 31.040627Q338.54688 32.275 336.95312 32.275ZM336.8125 26.587502Q336.15625 26.587502 335.70312 27.071877Q335.26562 27.540627 335.17188 28.400002L338.34375 28.400002L338.34375 28.321877Q338.29688 27.493752 337.89062 27.040627Q337.5 26.587502 336.8125 26.587502ZM343.85938 32.15L343.85938 26.650002L342.85938 26.650002L342.85938 25.806252L343.85938 25.806252L343.85938 25.165627Q343.85938 24.134377 344.39062 23.587502Q344.9375 23.025002 345.9375 23.025002Q346.3125 23.025002 346.6875 23.118752L346.625 24.009377Q346.34375 23.946877 346.04688 23.946877Q345.51562 23.946877 345.21875 24.259377Q344.9375 24.571877 344.9375 25.134377L344.9375 25.806252L346.29688 25.806252L346.29688 26.650002L344.9375 26.650002L344.9375 32.15L343.85938 32.15ZM347.03125 28.915627Q347.03125 27.993752 347.39062 27.243752Q347.76562 26.493752 348.42188 26.103127Q349.07812 25.696877 349.90625 25.696877Q351.20312 25.696877 352.0 26.587502Q352.8125 27.478127 352.8125 28.978127L352.8125 29.056252Q352.8125 29.978127 352.45312 30.712502Q352.09375 31.446877 351.4375 31.868752Q350.78125 32.275 349.92188 32.275Q348.64062 32.275 347.82812 31.384377Q347.03125 30.478127 347.03125 28.993752L347.03125 28.915627ZM348.125 29.056252Q348.125 30.103127 348.60938 30.743752Q349.10938 31.384377 349.92188 31.384377Q350.75 31.384377 351.23438 30.743752Q351.71875 30.087502 351.71875 28.915627Q351.71875 27.884377 351.21875 27.243752Q350.73438 26.587502 349.90625 26.587502Q349.10938 26.587502 348.60938 27.228127Q348.125 27.853127 348.125 29.056252ZM357.39062 26.775002Q357.14062 26.743752 356.85938 26.743752Q355.78125 26.743752 355.40625 27.650002L355.40625 32.15L354.32812 32.15L354.32812 25.806252L355.375 25.806252L355.39062 26.540627Q355.92188 25.696877 356.90625 25.696877Q357.21875 25.696877 357.39062 25.775002L357.39062 26.775002ZM362.34375 25.806252L362.375 26.509377Q363.0625 25.696877 364.25 25.696877Q365.57812 25.696877 366.0625 26.712502Q366.375 26.259377 366.875 25.978127Q367.39062 25.696877 368.07812 25.696877Q370.17188 25.696877 370.20312 27.900002L370.20312 32.15L369.125 32.15L369.125 27.962502Q369.125 27.290627 368.8125 26.962502Q368.5 26.618752 367.76562 26.618752Q367.15625 26.618752 366.75 26.978127Q366.35938 27.337502 366.29688 27.946877L366.29688 32.15L365.21875 32.15L365.21875 27.993752Q365.21875 26.618752 363.85938 26.618752Q362.79688 26.618752 362.40625 27.525002L362.40625 32.15L361.3125 32.15L361.3125 25.806252L362.34375 25.806252ZM376.23438 32.15Q376.14062 31.962502 376.07812 31.478127Q375.32812 32.275 374.28125 32.275Q373.34375 32.275 372.73438 31.743752Q372.14062 31.212502 372.14062 30.384377Q372.14062 29.400002 372.89062 28.853127Q373.64062 28.306252 375.01562 28.306252L376.0625 28.306252L376.0625 27.806252Q376.0625 27.243752 375.71875 26.915627Q375.39062 26.571877 374.71875 26.571877Q374.14062 26.571877 373.75 26.868752Q373.35938 27.150002 373.35938 27.571877L372.26562 27.571877Q372.26562 27.087502 372.59375 26.650002Q372.9375 26.212502 373.51562 25.962502Q374.09375 25.696877 374.78125 25.696877Q375.89062 25.696877 376.5 26.243752Q377.125 26.790627 377.15625 27.743752L377.15625 30.665627Q377.15625 31.540627 377.375 32.05625L377.375 32.15L376.23438 32.15ZM374.4375 31.321877Q374.95312 31.321877 375.40625 31.056252Q375.85938 30.790627 376.0625 30.368752L376.0625 29.071877L375.21875 29.071877Q373.21875 29.071877 373.21875 30.243752Q373.21875 30.743752 373.5625 31.040627Q373.90625 31.321877 374.4375 31.321877ZM381.45312 28.118752L382.85938 25.806252L384.125 25.806252L382.04688 28.946877L384.1875 32.15L382.9375 32.15L381.46875 29.775002L380.0 32.15L378.73438 32.15L380.875 28.946877L378.8125 25.806252L380.0625 25.806252L381.45312 28.118752ZM392.01562 30.462502Q392.01562 30.025002 391.67188 29.790627Q391.34375 29.540627 390.51562 29.368752Q389.70312 29.196877 389.21875 28.946877Q388.73438 28.696877 388.5 28.368752Q388.28125 28.025002 388.28125 27.556252Q388.28125 26.775002 388.9375 26.243752Q389.59375 25.696877 390.625 25.696877Q391.70312 25.696877 392.35938 26.259377Q393.03125 26.806252 393.03125 27.665627L391.95312 27.665627Q391.95312 27.228127 391.5625 26.915627Q391.1875 26.587502 390.625 26.587502Q390.03125 26.587502 389.6875 26.853127Q389.35938 27.103127 389.35938 27.509377Q389.35938 27.900002 389.67188 28.103127Q389.98438 28.306252 390.79688 28.493752Q391.60938 28.665627 392.10938 28.915627Q392.60938 29.165627 392.84375 29.525002Q393.09375 29.884377 393.09375 30.384377Q393.09375 31.243752 392.40625 31.759377Q391.73438 32.275 390.65625 32.275Q389.89062 32.275 389.29688 32.009377Q388.71875 31.728127 388.39062 31.243752Q388.0625 30.759377 388.0625 30.196877L389.14062 30.196877Q389.17188 30.743752 389.57812 31.071877Q389.98438 31.384377 390.65625 31.384377Q391.26562 31.384377 391.64062 31.134377Q392.01562 30.884377 392.01562 30.462502ZM399.67188 29.056252Q399.67188 30.493752 399.01562 31.384377Q398.35938 32.275 397.21875 32.275Q396.0625 32.275 395.40625 31.540627L395.40625 34.5875L394.32812 34.5875L394.32812 25.806252L395.3125 25.806252L395.35938 26.509377Q396.03125 25.696877 397.20312 25.696877Q398.34375 25.696877 399.0 26.556252Q399.67188 27.415627 399.67188 28.946877L399.67188 29.056252ZM398.59375 28.931252Q398.59375 27.853127 398.125 27.243752Q397.67188 26.618752 396.875 26.618752Q395.89062 26.618752 395.40625 27.478127L395.40625 30.509377Q395.89062 31.384377 396.89062 31.384377Q397.67188 31.384377 398.125 30.775002Q398.59375 30.150002 398.59375 28.931252ZM403.95312 32.275Q402.65625 32.275 401.84375 31.431252Q401.04688 30.571877 401.04688 29.150002L401.04688 28.962502Q401.04688 28.009377 401.40625 27.275002Q401.76562 26.525002 402.40625 26.118752Q403.0625 25.696877 403.8125 25.696877Q405.04688 25.696877 405.73438 26.509377Q406.42188 27.321877 406.42188 28.837502L406.42188 29.290627L402.125 29.290627Q402.15625 30.228127 402.67188 30.806252Q403.20312 31.384377 404.01562 31.384377Q404.57812 31.384377 404.96875 31.150002Q405.375 30.915627 405.6875 30.525002L406.34375 31.040627Q405.54688 32.275 403.95312 32.275ZM403.8125 26.587502Q403.15625 26.587502 402.70312 27.071877Q402.26562 27.540627 402.17188 28.400002L405.34375 28.400002L405.34375 28.321877Q405.29688 27.493752 404.89062 27.040627Q404.5 26.587502 403.8125 26.587502ZM409.95312 32.275Q408.65625 32.275 407.84375 31.431252Q407.04688 30.571877 407.04688 29.150002L407.04688 28.962502Q407.04688 28.009377 407.40625 27.275002Q407.76562 26.525002 408.40625 26.118752Q409.0625 25.696877 409.8125 25.696877Q411.04688 25.696877 411.73438 26.509377Q412.42188 27.321877 412.42188 28.837502L412.42188 29.290627L408.125 29.290627Q408.15625 30.228127 408.67188 30.806252Q409.20312 31.384377 410.01562 31.384377Q410.57812 31.384377 410.96875 31.150002Q411.375 30.915627 411.6875 30.525002L412.34375 31.040627Q411.54688 32.275 409.95312 32.275ZM409.8125 26.587502Q409.15625 26.587502 408.70312 27.071877Q408.26562 27.540627 408.17188 28.400002L411.34375 28.400002L411.34375 28.321877Q411.29688 27.493752 410.89062 27.040627Q410.5 26.587502 409.8125 26.587502ZM413.0625 28.931252Q413.0625 27.462502 413.75 26.587502Q414.4375 25.696877 415.5625 25.696877Q416.67188 25.696877 417.32812 26.446877L417.32812 23.150002L418.40625 23.150002L418.40625 32.15L417.40625 32.15L417.35938 31.462502Q416.70312 32.275 415.54688 32.275Q414.45312 32.275 413.75 31.368752Q413.0625 30.462502 413.0625 29.009377L413.0625 28.931252ZM414.14062 29.056252Q414.14062 30.134377 414.57812 30.743752Q415.03125 31.353127 415.8125 31.353127Q416.84375 31.353127 417.32812 30.415627L417.32812 27.509377Q416.84375 26.618752 415.82812 26.618752Q415.03125 26.618752 414.57812 27.228127Q414.14062 27.837502 414.14062 29.056252ZM425.5625 23.290627L424.45312 23.290627L424.45312 33.0875L425.5625 33.0875L425.5625 33.978127L423.35938 33.978127L423.35938 22.400002L425.5625 22.400002L425.5625 23.290627ZM427.34375 25.806252L427.375 26.509377Q428.0625 25.696877 429.25 25.696877Q430.57812 25.696877 431.0625 26.712502Q431.375 26.259377 431.875 25.978127Q432.39062 25.696877 433.07812 25.696877Q435.17188 25.696877 435.20312 27.900002L435.20312 32.15L434.125 32.15L434.125 27.962502Q434.125 27.290627 433.8125 26.962502Q433.5 26.618752 432.76562 26.618752Q432.15625 26.618752 431.75 26.978127Q431.35938 27.337502 431.29688 27.946877L431.29688 32.15L430.21875 32.15L430.21875 27.993752Q430.21875 26.618752 428.85938 26.618752Q427.79688 26.618752 427.40625 27.525002L427.40625 32.15L426.3125 32.15L426.3125 25.806252L427.34375 25.806252ZM437.53125 32.884377L436.60938 32.884377L440.17188 23.618752L441.09375 23.618752L437.53125 32.884377ZM446.01562 30.462502Q446.01562 30.025002 445.67188 29.790627Q445.34375 29.540627 444.51562 29.368752Q443.70312 29.196877 443.21875 28.946877Q442.73438 28.696877 442.5 28.368752Q442.28125 28.025002 442.28125 27.556252Q442.28125 26.775002 442.9375 26.243752Q443.59375 25.696877 444.625 25.696877Q445.70312 25.696877 446.35938 26.259377Q447.03125 26.806252 447.03125 27.665627L445.95312 27.665627Q445.95312 27.228127 445.5625 26.915627Q445.1875 26.587502 444.625 26.587502Q444.03125 26.587502 443.6875 26.853127Q443.35938 27.103127 443.35938 27.509377Q443.35938 27.900002 443.67188 28.103127Q443.98438 28.306252 444.79688 28.493752Q445.60938 28.665627 446.10938 28.915627Q446.60938 29.165627 446.84375 29.525002Q447.09375 29.884377 447.09375 30.384377Q447.09375 31.243752 446.40625 31.759377Q445.73438 32.275 444.65625 32.275Q443.89062 32.275 443.29688 32.009377Q442.71875 31.728127 442.39062 31.243752Q442.0625 30.759377 442.0625 30.196877L443.14062 30.196877Q443.17188 30.743752 443.57812 31.071877Q443.98438 31.384377 444.65625 31.384377Q445.26562 31.384377 445.64062 31.134377Q446.01562 30.884377 446.01562 30.462502ZM447.54688 22.400002L449.76562 22.400002L449.76562 33.978127L447.54688 33.978127L447.54688 33.0875L448.6875 33.0875L448.6875 23.290627L447.54688 23.290627L447.54688 22.400002ZM457.625 28.696877L455.60938 28.696877L455.60938 32.15L454.48438 32.15L454.48438 23.618752L457.3125 23.618752Q458.75 23.618752 459.51562 24.275002Q460.29688 24.931252 460.29688 26.181252Q460.29688 26.978127 459.85938 27.571877Q459.4375 28.165627 458.67188 28.462502L460.67188 32.071877L460.67188 32.15L459.46875 32.15L457.625 28.696877ZM455.60938 27.775002L457.34375 27.775002Q458.1875 27.775002 458.67188 27.353127Q459.17188 26.915627 459.17188 26.181252Q459.17188 25.400002 458.70312 24.978127Q458.23438 24.556252 457.34375 24.540627L455.60938 24.540627L455.60938 27.775002ZM464.5 28.243752L461.0 28.243752L461.0 27.603127L462.75 25.962502Q463.39062 25.353127 463.39062 24.946877Q463.39062 24.665627 463.20312 24.493752Q463.01562 24.306252 462.65625 24.306252Q462.21875 24.306252 462.01562 24.540627Q461.8125 24.759377 461.8125 25.087502L460.89062 25.087502Q460.89062 24.415627 461.375 23.993752Q461.85938 23.556252 462.625 23.556252Q463.40625 23.556252 463.85938 23.931252Q464.3125 24.290627 464.3125 24.946877Q464.3125 25.556252 463.6875 26.181252L463.20312 26.634377L462.17188 27.493752L464.5 27.493752L464.5 28.243752ZM473.28125 27.384377L468.39062 27.384377L468.39062 26.431252L473.28125 26.431252L473.28125 27.384377ZM473.28125 29.806252L468.39062 29.806252L468.39062 28.868752L473.28125 28.868752L473.28125 29.806252ZM483.5625 28.509377Q483.5625 30.415627 482.90625 31.353127Q482.26562 32.275 480.875 32.275Q479.51562 32.275 478.85938 31.368752Q478.20312 30.462502 478.17188 28.650002L478.17188 27.212502Q478.17188 25.321877 478.8125 24.415627Q479.46875 23.493752 480.85938 23.493752Q482.23438 23.493752 482.89062 24.384377Q483.54688 25.259377 483.5625 27.103127L483.5625 28.509377ZM482.46875 27.025002Q482.46875 25.650002 482.07812 25.025002Q481.70312 24.384377 480.85938 24.384377Q480.03125 24.384377 479.64062 25.025002Q479.26562 25.650002 479.26562 26.946877L479.26562 28.681252Q479.26562 30.056252 479.65625 30.728127Q480.0625 31.384377 480.875 31.384377Q481.67188 31.384377 482.0625 30.759377Q482.45312 30.134377 482.46875 28.806252L482.46875 27.025002ZM485.34375 31.587502Q485.34375 31.306252 485.5 31.118752Q485.67188 30.931252 486.0 30.931252Q486.34375 30.931252 486.51562 31.118752Q486.6875 31.306252 486.6875 31.587502Q486.6875 31.853127 486.51562 32.040627Q486.34375 32.2125 486.0 32.2125Q485.67188 32.2125 485.5 32.040627Q485.34375 31.853127 485.34375 31.587502ZM492.35938 28.400002Q492.03125 28.806252 491.54688 29.056252Q491.07812 29.290627 490.51562 29.290627Q489.78125 29.290627 489.23438 28.931252Q488.6875 28.571877 488.39062 27.915627Q488.09375 27.243752 488.09375 26.446877Q488.09375 25.603127 488.40625 24.915627Q488.73438 24.228127 489.32812 23.868752Q489.9375 23.493752 490.73438 23.493752Q492.0 23.493752 492.71875 24.446877Q493.45312 25.400002 493.45312 27.025002L493.45312 27.337502Q493.45312 29.837502 492.46875 30.978127Q491.48438 32.11875 489.5 32.15L489.28125 32.15L489.28125 31.243752L489.51562 31.243752Q490.85938 31.212502 491.57812 30.540627Q492.29688 29.868752 492.35938 28.400002ZM490.6875 28.400002Q491.23438 28.400002 491.6875 28.071877Q492.15625 27.728127 492.375 27.243752L492.375 26.806252Q492.375 25.743752 491.90625 25.071877Q491.4375 24.400002 490.73438 24.400002Q490.01562 24.400002 489.57812 24.946877Q489.15625 25.493752 489.15625 26.400002Q489.15625 27.275002 489.5625 27.837502Q489.98438 28.400002 490.6875 28.400002ZM500.71875 24.228127L497.1875 32.15L496.04688 32.15L499.5625 24.509377L494.95312 24.509377L494.95312 23.618752L500.71875 23.618752L500.71875 24.228127ZM506.78125 29.290627L507.96875 29.290627L507.96875 30.165627L506.78125 30.165627L506.78125 32.15L505.70312 32.15L505.70312 30.165627L501.8125 30.165627L501.8125 29.525002L505.625 23.618752L506.78125 23.618752L506.78125 29.290627ZM503.04688 29.290627L505.70312 29.290627L505.70312 25.103127L505.5625 25.337502L503.04688 29.290627Z" fill-rule="nonzero"/></svg>