<svg version="1.1" viewBox="0.0 0.0 600.0 371.0" fill="none" stroke="none" stroke-linecap="square" stroke-miterlimit="10" width="600" height="371" xmlns:xlink="http://www.w3.org/1999/xlink" xmlns="http://www.w3.org/2000/svg"><path fill="#ffffff" d="M0 0L600.0 0L600.0 371.0L0 371.0L0 0Z" fill-rule="nonzero"/><path stroke="#cccccc" stroke-width="1.0" stroke-linecap="butt" d="M152.5 53.5L152.5 298.5" fill-rule="nonzero"/><path stroke="#cccccc" stroke-width="1.0" stroke-linecap="butt" d="M270.5 53.5L270.5 298.5" fill-rule="nonzero"/><path stroke="#cccccc" stroke-width="1.0" stroke-linecap="butt" d="M389.5 53.5L389.5 298.5" fill-rule="nonzero"/><path stroke="#cccccc" stroke-width="1.0" stroke-linecap="butt" d="M508.5 53.5L508.5 298.5" fill-rule="nonzero"/><path stroke="#cccccc" stroke-width="1.0" stroke-linecap="butt" d="M45.5 298.5L581.5 298.5" fill-rule="nonzero"/><path stroke="#333333" stroke-width="1.0" stroke-linecap="butt" d="M45.5 257.5L581.5 257.5" fill-rule="nonzero"/><path stroke="#cccccc" stroke-width="1.0" stroke-linecap="butt" d="M45.5 216.5L581.5 216.5" fill-rule="nonzero"/><path stroke="#cccccc" stroke-width="1.0" stroke-linecap="butt" d="M45.5 175.5L581.5 175.5" fill-rule="nonzero"/><path stroke="#cccccc" stroke-width="1.0" stroke-linecap="butt" d="M45.5 135.5L581.5 135.5" fill-rule="nonzero"/><path stroke="#cccccc" stroke-width="1.0" stroke-linecap="butt" d="M45.5 94.5L581.5 94.5" fill-rule="nonzero"/><path stroke="#cccccc" stroke-width="1.0" stroke-linecap="butt" d="M45.5 53.5L581.5 53.5" fill-rule="nonzero"/><clipPath id="id_0"><path d="M45.55 53.416668L581.45 53.416668L581.45 298.45L45.55 298.45L45.55 53.416668Z" clip-rule="nonzero"/></clipPath><path stroke="#4285f4" stroke-width="2.0" stroke-linecap="butt" stroke-opacity="0.4" clip-path="url(#id_0)" d="M0 276.66183L581.45 71.291855" fill-rule="nonzero"/><path stroke="#db4437" stroke-width="2.0" stroke-linecap="butt" stroke-opacity="0.4" clip-path="url(#id_0)" d="M0 174.91722L581.45 172.73172" fill-rule="nonzero"/><path fill="#4285f4" clip-path="url(#id_0)" d="M49.189804 254.57913L55.55377 254.57913L55.55377 260.94308L49.189804 260.94308Z" fill-rule="nonzero"/><path fill="#4285f4" clip-path="url(#id_0)" d="M134.64995 224.11673L141.01392 224.11673L141.01392 230.48068L134.64995 230.48068Z" fill-rule="nonzero"/><path fill="#4285f4" clip-path="url(#id_0)" d="M229.60567 192.38948L235.96962 192.38948L235.96962 198.75345L229.60567 198.75345Z" fill-rule="nonzero"/><path fill="#4285f4" clip-path="url(#id_0)" d="M315.0658 161.71774L321.42978 161.71774L321.42978 168.0817L315.0658 168.0817Z" fill-rule="nonzero"/><path fill="#4285f4" clip-path="url(#id_0)" d="M400.52594 130.6628L406.88992 130.6628L406.88992 137.02676L400.52594 137.02676Z" fill-rule="nonzero"/><path fill="#4285f4" clip-path="url(#id_0)" d="M485.98608 100.64018L492.35007 100.64018L492.35007 107.00414L485.98608 107.00414Z" fill-rule="nonzero"/><path fill="#4285f4" clip-path="url(#id_0)" d="M571.4462 70.11777L577.8102 70.11777L577.8102 76.48173L571.4462 76.48173Z" fill-rule="nonzero"/><path fill="#db4437" clip-path="url(#id_0)" d="M56.871784 174.20738C56.871784 176.69266 54.857067 178.70738 52.371784 178.70738C49.886505 178.70738 47.871784 176.69266 47.871784 174.20738C47.871784 171.72209 49.886505 169.70738 52.371784 169.70738C54.857067 169.70738 56.871784 171.72209 56.871784 174.20738Z" fill-rule="nonzero"/><path fill="#db4437" clip-path="url(#id_0)" d="M142.33192 175.105C142.33192 177.59029 140.31721 179.605 137.83192 179.605C135.34665 179.605 133.33192 177.59029 133.33192 175.105C133.33192 172.61972 135.34665 170.605 137.83192 170.605C140.31721 170.605 142.33192 172.61972 142.33192 175.105Z" fill-rule="nonzero"/><path fill="#db4437" clip-path="url(#id_0)" d="M237.28764 174.70631C237.28764 177.19159 235.27292 179.20631 232.78764 179.20631C230.30237 179.20631 228.28764 177.19159 228.28764 174.70631C228.28764 172.22104 230.30237 170.20631 232.78764 170.20631C235.27292 170.20631 237.28764 172.22104 237.28764 174.70631Z" fill-rule="nonzero"/><path fill="#db4437" clip-path="url(#id_0)" d="M322.74777 172.96098C322.74777 175.44626 320.73306 177.46098 318.24777 177.46098C315.7625 177.46098 313.74777 175.44626 313.74777 172.96098C313.74777 170.47571 315.7625 168.46098 318.24777 168.46098C320.73306 168.46098 322.74777 170.47571 322.74777 172.96098Z" fill-rule="nonzero"/><path fill="#db4437" clip-path="url(#id_0)" d="M408.20792 172.94333C408.20792 175.4286 406.1932 177.44333 403.70792 177.44333C401.22266 177.44333 399.20792 175.4286 399.20792 172.94333C399.20792 170.45804 401.22266 168.44333 403.70792 168.44333C406.1932 168.44333 408.20792 170.45804 408.20792 172.94333Z" fill-rule="nonzero"/><path fill="#db4437" clip-path="url(#id_0)" d="M493.66806 173.14253C493.66806 175.62782 491.65335 177.64253 489.16806 177.64253C486.6828 177.64253 484.66806 175.62782 484.66806 173.14253C484.66806 170.65726 486.6828 168.64253 489.16806 168.64253C491.65335 168.64253 493.66806 170.65726 493.66806 173.14253Z" fill-rule="nonzero"/><path fill="#db4437" clip-path="url(#id_0)" d="M579.12823 173.05296C579.12823 175.53824 577.1135 177.55296 574.62823 177.55296C572.14294 177.55296 570.12823 175.53824 570.12823 173.05296C570.12823 170.56769 572.14294 168.55296 574.62823 168.55296C577.1135 168.55296 579.12823 170.56769 579.12823 173.05296Z" fill-rule="nonzero"/><path fill="#000000" d="M296.29688 341.575L296.29688 343.10626L297.46875 343.10626L297.46875 343.95L296.29688 343.95L296.29688 347.8719Q296.29688 348.2625 296.45312 348.45Q296.60938 348.6375 296.98438 348.6375Q297.17188 348.6375 297.5 348.575L297.5 349.45Q297.07812 349.575 296.67188 349.575Q295.95312 349.575 295.57812 349.1375Q295.20312 348.6844 295.20312 347.8719L295.20312 343.95L294.04688 343.95L294.04688 343.10626L295.20312 343.10626L295.20312 341.575L296.29688 341.575ZM300.0 349.45L298.92188 349.45L298.92188 343.10626L300.0 343.10626L300.0 349.45ZM298.82812 341.4344Q298.82812 341.16876 298.98438 340.98126Q299.15625 340.79376 299.46875 340.79376Q299.78125 340.79376 299.9375 340.98126Q300.10938 341.16876 300.10938 341.4344Q300.10938 341.6844 299.9375 341.8719Q299.78125 342.04376 299.46875 342.04376Q299.15625 342.04376 298.98438 341.8719Q298.82812 341.6844 298.82812 341.4344ZM302.84375 343.10626L302.875 343.8094Q303.5625 342.9969 304.75 342.9969Q306.07812 342.9969 306.5625 344.0125Q306.875 343.5594 307.375 343.27814Q307.89062 342.9969 308.57812 342.9969Q310.67188 342.9969 310.70312 345.2L310.70312 349.45L309.625 349.45L309.625 345.2625Q309.625 344.59064 309.3125 344.2625Q309.0 343.91876 308.26562 343.91876Q307.65625 343.91876 307.25 344.27814Q306.85938 344.6375 306.79688 345.2469L306.79688 349.45L305.71875 349.45L305.71875 345.29376Q305.71875 343.91876 304.35938 343.91876Q303.29688 343.91876 302.90625 344.825L302.90625 349.45L301.8125 349.45L301.8125 343.10626L302.84375 343.10626ZM315.45312 349.575Q314.15625 349.575 313.34375 348.73126Q312.54688 347.8719 312.54688 346.45L312.54688 346.2625Q312.54688 345.3094 312.90625 344.575Q313.26562 343.825 313.90625 343.41876Q314.5625 342.9969 315.3125 342.9969Q316.54688 342.9969 317.23438 343.8094Q317.92188 344.6219 317.92188 346.1375L317.92188 346.59064L313.625 346.59064Q313.65625 347.52814 314.17188 348.10626Q314.70312 348.6844 315.51562 348.6844Q316.07812 348.6844 316.46875 348.45Q316.875 348.21564 317.1875 347.825L317.84375 348.34064Q317.04688 349.575 315.45312 349.575ZM315.3125 343.8875Q314.65625 343.8875 314.20312 344.3719Q313.76562 344.84064 313.67188 345.7L316.84375 345.7L316.84375 345.6219Q316.79688 344.79376 316.39062 344.34064Q316.0 343.8875 315.3125 343.8875ZM324.0625 340.59064L322.95312 340.59064L322.95312 350.3875L324.0625 350.3875L324.0625 351.27814L321.85938 351.27814L321.85938 339.7L324.0625 339.7L324.0625 340.59064ZM328.51562 347.7625Q328.51562 347.325 328.17188 347.09064Q327.84375 346.84064 327.01562 346.66876Q326.20312 346.4969 325.71875 346.2469Q325.23438 345.9969 325.0 345.66876Q324.78125 345.325 324.78125 344.85626Q324.78125 344.075 325.4375 343.54376Q326.09375 342.9969 327.125 342.9969Q328.20312 342.9969 328.85938 343.5594Q329.53125 344.10626 329.53125 344.96564L328.45312 344.96564Q328.45312 344.52814 328.0625 344.21564Q327.6875 343.8875 327.125 343.8875Q326.53125 343.8875 326.1875 344.15314Q325.85938 344.40314 325.85938 344.8094Q325.85938 345.2 326.17188 345.40314Q326.48438 345.60626 327.29688 345.79376Q328.10938 345.96564 328.60938 346.21564Q329.10938 346.46564 329.34375 346.825Q329.59375 347.1844 329.59375 347.6844Q329.59375 348.54376 328.90625 349.0594Q328.23438 349.575 327.15625 349.575Q326.39062 349.575 325.79688 349.3094Q325.21875 349.02814 324.89062 348.54376Q324.5625 348.0594 324.5625 347.4969L325.64062 347.4969Q325.67188 348.04376 326.07812 348.3719Q326.48438 348.6844 327.15625 348.6844Q327.76562 348.6844 328.14062 348.4344Q328.51562 348.1844 328.51562 347.7625ZM330.04688 339.7L332.26562 339.7L332.26562 351.27814L330.04688 351.27814L330.04688 350.3875L331.1875 350.3875L331.1875 340.59064L330.04688 340.59064L330.04688 339.7Z" fill-rule="nonzero"/><path fill="#000000" d="M22.628124 299.7625L19.76875 299.7625L19.76875 298.8875L22.628124 298.8875L22.628124 299.7625ZM28.6125 299.3094Q28.6125 301.21564 27.95625 302.15314Q27.315624 303.075 25.925 303.075Q24.565624 303.075 23.909374 302.16876Q23.253124 301.2625 23.221874 299.45L23.221874 298.0125Q23.221874 296.1219 23.8625 295.21564Q24.51875 294.29376 25.909374 294.29376Q27.284374 294.29376 27.940624 295.1844Q28.596874 296.0594 28.6125 297.90314L28.6125 299.3094ZM27.51875 297.825Q27.51875 296.45 27.128124 295.825Q26.753124 295.1844 25.909374 295.1844Q25.08125 295.1844 24.690624 295.825Q24.315624 296.45 24.315624 297.7469L24.315624 299.48126Q24.315624 300.85626 24.70625 301.52814Q25.1125 302.1844 25.925 302.1844Q26.721874 302.1844 27.1125 301.5594Q27.503124 300.9344 27.51875 299.60626L27.51875 297.825ZM30.39375 302.3875Q30.39375 302.10626 30.55 301.91876Q30.721874 301.73126 31.05 301.73126Q31.39375 301.73126 31.565624 301.91876Q31.7375 302.10626 31.7375 302.3875Q31.7375 302.65314 31.565624 302.84064Q31.39375 303.0125 31.05 303.0125Q30.721874 303.0125 30.55 302.84064Q30.39375 302.65314 30.39375 302.3875ZM33.753124 298.66876L34.190624 294.41876L38.565624 294.41876L38.565624 295.41876L35.1125 295.41876L34.846874 297.7469Q35.4875 297.3719 36.284374 297.3719Q37.440624 297.3719 38.128124 298.15314Q38.815624 298.91876 38.815624 300.23126Q38.815624 301.54376 38.096874 302.3094Q37.39375 303.075 36.1125 303.075Q34.9875 303.075 34.26875 302.45Q33.55 301.8094 33.45625 300.7L34.471874 300.7Q34.58125 301.4344 35.003124 301.8094Q35.425 302.1844 36.1125 302.1844Q36.8625 302.1844 37.3 301.66876Q37.7375 301.15314 37.7375 300.2469Q37.7375 299.3875 37.26875 298.8719Q36.8 298.35626 36.01875 298.35626Q35.315624 298.35626 34.909374 298.65314L34.628124 298.8875L33.753124 298.66876Z" fill-rule="nonzero"/><path fill="#000000" d="M38.6125 258.4705Q38.6125 260.37674 37.95625 261.31424Q37.315624 262.2361 35.925 262.2361Q34.565624 262.2361 33.909374 261.32986Q33.253124 260.4236 33.221874 258.6111L33.221874 257.1736Q33.221874 255.28299 33.8625 254.37674Q34.51875 253.45486 35.909374 253.45486Q37.284374 253.45486 37.940624 254.34549Q38.596874 255.22049 38.6125 257.06424L38.6125 258.4705ZM37.51875 256.9861Q37.51875 255.61111 37.128124 254.98611Q36.753124 254.34549 35.909374 254.34549Q35.08125 254.34549 34.690624 254.98611Q34.315624 255.61111 34.315624 256.908L34.315624 258.64236Q34.315624 260.01736 34.70625 260.68924Q35.1125 261.3455 35.925 261.3455Q36.721874 261.3455 37.1125 260.7205Q37.503124 260.0955 37.51875 258.76736L37.51875 256.9861Z" fill-rule="nonzero"/><path fill="#000000" d="M28.6125 217.63159Q28.6125 219.53784 27.95625 220.47534Q27.315624 221.39722 25.925 221.39722Q24.565624 221.39722 23.909374 220.49097Q23.253124 219.58472 23.221874 217.77222L23.221874 216.33472Q23.221874 214.44409 23.8625 213.53784Q24.51875 212.61597 25.909374 212.61597Q27.284374 212.61597 27.940624 213.50659Q28.596874 214.38159 28.6125 216.22534L28.6125 217.63159ZM27.51875 216.14722Q27.51875 214.77222 27.128124 214.14722Q26.753124 213.50659 25.909374 213.50659Q25.08125 213.50659 24.690624 214.14722Q24.315624 214.77222 24.315624 216.06909L24.315624 217.80347Q24.315624 219.17847 24.70625 219.85034Q25.1125 220.50659 25.925 220.50659Q26.721874 220.50659 27.1125 219.88159Q27.503124 219.25659 27.51875 217.92847L27.51875 216.14722ZM30.39375 220.70972Q30.39375 220.42847 30.55 220.24097Q30.721874 220.05347 31.05 220.05347Q31.39375 220.05347 31.565624 220.24097Q31.7375 220.42847 31.7375 220.70972Q31.7375 220.97534 31.565624 221.16284Q31.39375 221.33472 31.05 221.33472Q30.721874 221.33472 30.55 221.16284Q30.39375 220.97534 30.39375 220.70972ZM33.753124 216.99097L34.190624 212.74097L38.565624 212.74097L38.565624 213.74097L35.1125 213.74097L34.846874 216.06909Q35.4875 215.69409 36.284374 215.69409Q37.440624 215.69409 38.128124 216.47534Q38.815624 217.24097 38.815624 218.55347Q38.815624 219.86597 38.096874 220.63159Q37.39375 221.39722 36.1125 221.39722Q34.9875 221.39722 34.26875 220.77222Q33.55 220.13159 33.45625 219.02222L34.471874 219.02222Q34.58125 219.75659 35.003124 220.13159Q35.425 220.50659 36.1125 220.50659Q36.8625 220.50659 37.3 219.99097Q37.7375 219.47534 37.7375 218.56909Q37.7375 217.70972 37.26875 217.19409Q36.8 216.67847 36.01875 216.67847Q35.315624 216.67847 34.909374 216.97534L34.628124 217.20972L33.753124 216.99097Z" fill-rule="nonzero"/><path fill="#000000" d="M36.815624 180.43333L35.7375 180.43333L35.7375 173.21458L33.55 174.01146L33.55 173.02708L36.659374 171.85521L36.815624 171.85521L36.815624 180.43333Z" fill-rule="nonzero"/><path fill="#000000" d="M26.815624 139.59445L25.7375 139.59445L25.7375 132.3757L23.55 133.17258L23.55 132.1882L26.659374 131.01633L26.815624 131.01633L26.815624 139.59445ZM30.39375 139.03195Q30.39375 138.7507 30.55 138.5632Q30.721874 138.3757 31.05 138.3757Q31.39375 138.3757 31.565624 138.5632Q31.7375 138.7507 31.7375 139.03195Q31.7375 139.29758 31.565624 139.48508Q31.39375 139.65695 31.05 139.65695Q30.721874 139.65695 30.55 139.48508Q30.39375 139.29758 30.39375 139.03195ZM33.753124 135.3132L34.190624 131.0632L38.565624 131.0632L38.565624 132.0632L35.1125 132.0632L34.846874 134.39133Q35.4875 134.01633 36.284374 134.01633Q37.440624 134.01633 38.128124 134.79758Q38.815624 135.5632 38.815624 136.8757Q38.815624 138.1882 38.096874 138.95383Q37.39375 139.71945 36.1125 139.71945Q34.9875 139.71945 34.26875 139.09445Q33.55 138.45383 33.45625 137.34445L34.471874 137.34445Q34.58125 138.07883 35.003124 138.45383Q35.425 138.82883 36.1125 138.82883Q36.8625 138.82883 37.3 138.3132Q37.7375 137.79758 37.7375 136.89133Q37.7375 136.03195 37.26875 135.51633Q36.8 135.0007 36.01875 135.0007Q35.315624 135.0007 34.909374 135.29758L34.628124 135.53195L33.753124 135.3132Z" fill-rule="nonzero"/><path fill="#000000" d="M38.846874 98.755554L33.253124 98.755554L33.253124 97.974304L36.20625 94.693054Q36.8625 93.943054 37.1125 93.48993Q37.3625 93.02118 37.3625 92.52118Q37.3625 91.849304 36.95625 91.42743Q36.565624 90.98993 35.878124 90.98993Q35.08125 90.98993 34.628124 91.45868Q34.175 91.911804 34.175 92.73993L33.096874 92.73993Q33.096874 91.55243 33.846874 90.83368Q34.6125 90.099304 35.878124 90.099304Q37.08125 90.099304 37.76875 90.724304Q38.45625 91.349304 38.45625 92.39618Q38.45625 93.64618 36.846874 95.39618L34.565624 97.86493L38.846874 97.86493L38.846874 98.755554Z" fill-rule="nonzero"/><path fill="#000000" d="M28.846874 57.916668L23.253124 57.916668L23.253124 57.135418L26.20625 53.854168Q26.8625 53.104168 27.1125 52.651043Q27.3625 52.182293 27.3625 51.682293Q27.3625 51.010418 26.95625 50.588543Q26.565624 50.151043 25.878124 50.151043Q25.08125 50.151043 24.628124 50.619793Q24.175 51.072918 24.175 51.901043L23.096874 51.901043Q23.096874 50.713543 23.846874 49.994793Q24.6125 49.260418 25.878124 49.260418Q27.08125 49.260418 27.76875 49.885418Q28.45625 50.510418 28.45625 51.557293Q28.45625 52.807293 26.846874 54.557293L24.565624 57.026043L28.846874 57.026043L28.846874 57.916668ZM30.39375 57.354168Q30.39375 57.072918 30.55 56.885418Q30.721874 56.697918 31.05 56.697918Q31.39375 56.697918 31.565624 56.885418Q31.7375 57.072918 31.7375 57.354168Q31.7375 57.619793 31.565624 57.807293Q31.39375 57.979168 31.05 57.979168Q30.721874 57.979168 30.55 57.807293Q30.39375 57.619793 30.39375 57.354168ZM33.753124 53.635418L34.190624 49.385418L38.565624 49.385418L38.565624 50.385418L35.1125 50.385418L34.846874 52.713543Q35.4875 52.338543 36.284374 52.338543Q37.440624 52.338543 38.128124 53.119793Q38.815624 53.885418 38.815624 55.197918Q38.815624 56.510418 38.096874 57.276043Q37.39375 58.041668 36.1125 58.041668Q34.9875 58.041668 34.26875 57.416668Q33.55 56.776043 33.45625 55.666668L34.471874 55.666668Q34.58125 56.401043 35.003124 56.776043Q35.425 57.151043 36.1125 57.151043Q36.8625 57.151043 37.3 56.635418Q37.7375 56.119793 37.7375 55.213543Q37.7375 54.354168 37.26875 53.838543Q36.8 53.322918 36.01875 53.322918Q35.315624 53.322918 34.909374 53.619793L34.628124 53.854168L33.753124 53.635418Z" fill-rule="nonzero"/><path fill="#000000" d="M149.63779 312.8094Q149.63779 314.71564 148.98154 315.65314Q148.34091 316.575 146.95029 316.575Q145.59091 316.575 144.93466 315.66876Q144.27841 314.7625 144.24716 312.95L144.24716 311.5125Q144.24716 309.6219 144.88779 308.71564Q145.54404 307.79376 146.93466 307.79376Q148.30966 307.79376 148.96591 308.6844Q149.62216 309.5594 149.63779 311.40314L149.63779 312.8094ZM148.54404 311.325Q148.54404 309.95 148.15341 309.325Q147.77841 308.6844 146.93466 308.6844Q146.10654 308.6844 145.71591 309.325Q145.34091 309.95 145.34091 311.2469L145.34091 312.98126Q145.34091 314.35626 145.73154 315.02814Q146.13779 315.6844 146.95029 315.6844Q147.74716 315.6844 148.13779 315.0594Q148.52841 314.4344 148.54404 313.10626L148.54404 311.325ZM151.41904 315.8875Q151.41904 315.60626 151.57529 315.41876Q151.74716 315.23126 152.07529 315.23126Q152.41904 315.23126 152.59091 315.41876Q152.76279 315.60626 152.76279 315.8875Q152.76279 316.15314 152.59091 316.34064Q152.41904 316.5125 152.07529 316.5125Q151.74716 316.5125 151.57529 316.34064Q151.41904 316.15314 151.41904 315.8875ZM154.77841 312.16876L155.21591 307.91876L159.59091 307.91876L159.59091 308.91876L156.13779 308.91876L155.87216 311.2469Q156.51279 310.8719 157.30966 310.8719Q158.46591 310.8719 159.15341 311.65314Q159.84091 312.41876 159.84091 313.73126Q159.84091 315.04376 159.12216 315.8094Q158.41904 316.575 157.13779 316.575Q156.01279 316.575 155.29404 315.95Q154.57529 315.3094 154.48154 314.2L155.49716 314.2Q155.60654 314.9344 156.02841 315.3094Q156.45029 315.6844 157.13779 315.6844Q157.88779 315.6844 158.32529 315.16876Q158.76279 314.65314 158.76279 313.7469Q158.76279 312.8875 158.29404 312.3719Q157.82529 311.85626 157.04404 311.85626Q156.34091 311.85626 155.93466 312.15314L155.65341 312.3875L154.77841 312.16876Z" fill-rule="nonzero"/><path fill="#000000" d="M271.53555 316.45L270.45743 316.45L270.45743 309.23126L268.26993 310.02814L268.26993 309.04376L271.3793 307.8719L271.53555 307.8719L271.53555 316.45Z" fill-rule="nonzero"/><path fill="#000000" d="M385.2302 316.45L384.15207 316.45L384.15207 309.23126L381.96457 310.02814L381.96457 309.04376L385.07394 307.8719L385.2302 307.8719L385.2302 316.45ZM388.80832 315.8875Q388.80832 315.60626 388.96457 315.41876Q389.13644 315.23126 389.46457 315.23126Q389.80832 315.23126 389.9802 315.41876Q390.15207 315.60626 390.15207 315.8875Q390.15207 316.15314 389.9802 316.34064Q389.80832 316.5125 389.46457 316.5125Q389.13644 316.5125 388.96457 316.34064Q388.80832 316.15314 388.80832 315.8875ZM392.1677 312.16876L392.6052 307.91876L396.9802 307.91876L396.9802 308.91876L393.52707 308.91876L393.26144 311.2469Q393.90207 310.8719 394.69894 310.8719Q395.8552 310.8719 396.5427 311.65314Q397.2302 312.41876 397.2302 313.73126Q397.2302 315.04376 396.51144 315.8094Q395.80832 316.575 394.52707 316.575Q393.40207 316.575 392.68332 315.95Q391.96457 315.3094 391.87082 314.2L392.88644 314.2Q392.99582 314.9344 393.4177 315.3094Q393.83957 315.6844 394.52707 315.6844Q395.27707 315.6844 395.71457 315.16876Q396.15207 314.65314 396.15207 313.7469Q396.15207 312.8875 395.68332 312.3719Q395.21457 311.85626 394.43332 311.85626Q393.7302 311.85626 393.32394 312.15314L393.0427 312.3875L392.1677 312.16876Z" fill-rule="nonzero"/><path fill="#000000" d="M510.9561 316.45L505.36234 316.45L505.36234 315.66876L508.31546 312.3875Q508.9717 311.6375 509.2217 311.1844Q509.4717 310.71564 509.4717 310.21564Q509.4717 309.54376 509.06546 309.1219Q508.67484 308.6844 507.98734 308.6844Q507.19046 308.6844 506.73734 309.15314Q506.2842 309.60626 506.2842 310.4344L505.2061 310.4344Q505.2061 309.2469 505.9561 308.52814Q506.7217 307.79376 507.98734 307.79376Q509.19046 307.79376 509.87796 308.41876Q510.56546 309.04376 510.56546 310.09064Q510.56546 311.34064 508.9561 313.09064L506.67484 315.5594L510.9561 315.5594L510.9561 316.45Z" fill-rule="nonzero"/><path fill="#4285f4" d="M86.75736 21.80736L95.24264 21.80736L95.24264 30.29264L86.75736 30.29264Z" fill-rule="nonzero"/><path fill="#000000" d="M111.171875 27.45625Q111.171875 28.89375 110.515625 29.784374Q109.859375 30.675 108.71875 30.675Q107.5625 30.675 106.90625 29.940624L106.90625 32.9875L105.828125 32.9875L105.828125 24.20625L106.8125 24.20625L106.859375 24.909374Q107.53125 24.096874 108.703125 24.096874Q109.84375 24.096874 110.5 24.95625Q111.171875 25.815624 111.171875 27.346874L111.171875 27.45625ZM110.09375 27.33125Q110.09375 26.253124 109.625 25.64375Q109.171875 25.01875 108.375 25.01875Q107.390625 25.01875 106.90625 25.878124L106.90625 28.909374Q107.390625 29.784374 108.390625 29.784374Q109.171875 29.784374 109.625 29.175Q110.09375 28.55 110.09375 27.33125ZM112.53125 27.315624Q112.53125 26.39375 112.890625 25.64375Q113.265625 24.89375 113.921875 24.503124Q114.578125 24.096874 115.40625 24.096874Q116.703125 24.096874 117.5 24.9875Q118.3125 25.878124 118.3125 27.378124L118.3125 27.45625Q118.3125 28.378124 117.953125 29.1125Q117.59375 29.846874 116.9375 30.26875Q116.28125 30.675 115.421875 30.675Q114.140625 30.675 113.328125 29.784374Q112.53125 28.878124 112.53125 27.39375L112.53125 27.315624ZM113.625 27.45625Q113.625 28.503124 114.109375 29.14375Q114.609375 29.784374 115.421875 29.784374Q116.25 29.784374 116.734375 29.14375Q117.21875 28.4875 117.21875 27.315624Q117.21875 26.284374 116.71875 25.64375Q116.234375 24.9875 115.40625 24.9875Q114.609375 24.9875 114.109375 25.628124Q113.625 26.253124 113.625 27.45625ZM123.515625 28.8625Q123.515625 28.425 123.171875 28.190624Q122.84375 27.940624 122.015625 27.76875Q121.203125 27.596874 120.71875 27.346874Q120.234375 27.096874 120.0 26.76875Q119.78125 26.425 119.78125 25.95625Q119.78125 25.175 120.4375 24.64375Q121.09375 24.096874 122.125 24.096874Q123.203125 24.096874 123.859375 24.659374Q124.53125 25.20625 124.53125 26.065624L123.453125 26.065624Q123.453125 25.628124 123.0625 25.315624Q122.6875 24.9875 122.125 24.9875Q121.53125 24.9875 121.1875 25.253124Q120.859375 25.503124 120.859375 25.909374Q120.859375 26.3 121.171875 26.503124Q121.484375 26.70625 122.296875 26.89375Q123.109375 27.065624 123.609375 27.315624Q124.109375 27.565624 124.34375 27.925Q124.59375 28.284374 124.59375 28.784374Q124.59375 29.64375 123.90625 30.159374Q123.234375 30.675 122.15625 30.675Q121.390625 30.675 120.796875 30.409374Q120.21875 30.128124 119.890625 29.64375Q119.5625 29.159374 119.5625 28.596874L120.640625 28.596874Q120.671875 29.14375 121.078125 29.471874Q121.484375 29.784374 122.15625 29.784374Q122.765625 29.784374 123.140625 29.534374Q123.515625 29.284374 123.515625 28.8625ZM127.0 30.55L125.921875 30.55L125.921875 24.20625L127.0 24.20625L127.0 30.55ZM125.828125 22.534374Q125.828125 22.26875 125.984375 22.08125Q126.15625 21.89375 126.46875 21.89375Q126.78125 21.89375 126.9375 22.08125Q127.109375 22.26875 127.109375 22.534374Q127.109375 22.784374 126.9375 22.971874Q126.78125 23.14375 126.46875 23.14375Q126.15625 23.14375 125.984375 22.971874Q125.828125 22.784374 125.828125 22.534374ZM130.29688 22.675L130.29688 24.20625L131.46875 24.20625L131.46875 25.05L130.29688 25.05L130.29688 28.971874Q130.29688 29.3625 130.45312 29.55Q130.60938 29.7375 130.98438 29.7375Q131.17188 29.7375 131.5 29.675L131.5 30.55Q131.07812 30.675 130.67188 30.675Q129.95312 30.675 129.57812 30.2375Q129.20312 29.784374 129.20312 28.971874L129.20312 25.05L128.04688 25.05L128.04688 24.20625L129.20312 24.20625L129.20312 22.675L130.29688 22.675ZM134.0 30.55L132.92188 30.55L132.92188 24.20625L134.0 24.20625L134.0 30.55ZM132.82812 22.534374Q132.82812 22.26875 132.98438 22.08125Q133.15625 21.89375 133.46875 21.89375Q133.78125 21.89375 133.9375 22.08125Q134.10938 22.26875 134.10938 22.534374Q134.10938 22.784374 133.9375 22.971874Q133.78125 23.14375 133.46875 23.14375Q133.15625 23.14375 132.98438 22.971874Q132.82812 22.784374 132.82812 22.534374ZM135.53125 27.315624Q135.53125 26.39375 135.89062 25.64375Q136.26562 24.89375 136.92188 24.503124Q137.57812 24.096874 138.40625 24.096874Q139.70312 24.096874 140.5 24.9875Q141.3125 25.878124 141.3125 27.378124L141.3125 27.45625Q141.3125 28.378124 140.95312 29.1125Q140.59375 29.846874 139.9375 30.26875Q139.28125 30.675 138.42188 30.675Q137.14062 30.675 136.32812 29.784374Q135.53125 28.878124 135.53125 27.39375L135.53125 27.315624ZM136.625 27.45625Q136.625 28.503124 137.10938 29.14375Q137.60938 29.784374 138.42188 29.784374Q139.25 29.784374 139.73438 29.14375Q140.21875 28.4875 140.21875 27.315624Q140.21875 26.284374 139.71875 25.64375Q139.23438 24.9875 138.40625 24.9875Q137.60938 24.9875 137.10938 25.628124Q136.625 26.253124 136.625 27.45625ZM143.84375 24.20625L143.875 25.003124Q144.60938 24.096874 145.78125 24.096874Q147.79688 24.096874 147.8125 26.3625L147.8125 30.55L146.71875 30.55L146.71875 26.346874Q146.71875 25.675 146.40625 25.346874Q146.10938 25.01875 145.45312 25.01875Q144.92188 25.01875 144.51562 25.3Q144.125 25.58125 143.90625 26.034374L143.90625 30.55L142.82812 30.55L142.82812 24.20625L143.84375 24.20625ZM155.0625 21.690624L153.95312 21.690624L153.95312 31.4875L155.0625 31.4875L155.0625 32.378124L152.85938 32.378124L152.85938 20.8L155.0625 20.8L155.0625 21.690624ZM156.84375 24.20625L156.875 24.909374Q157.5625 24.096874 158.75 24.096874Q160.07812 24.096874 160.5625 25.1125Q160.875 24.659374 161.375 24.378124Q161.89062 24.096874 162.57812 24.096874Q164.67188 24.096874 164.70312 26.3L164.70312 30.55L163.625 30.55L163.625 26.3625Q163.625 25.690624 163.3125 25.3625Q163.0 25.01875 162.26562 25.01875Q161.65625 25.01875 161.25 25.378124Q160.85938 25.7375 160.79688 26.346874L160.79688 30.55L159.71875 30.55L159.71875 26.39375Q159.71875 25.01875 158.35938 25.01875Q157.29688 25.01875 156.90625 25.925L156.90625 30.55L155.8125 30.55L155.8125 24.20625L156.84375 24.20625ZM166.04688 20.8L168.26562 20.8L168.26562 32.378124L166.04688 32.378124L166.04688 31.4875L167.1875 31.4875L167.1875 21.690624L166.04688 21.690624L166.04688 20.8Z" fill-rule="nonzero"/><path stroke="#4285f4" stroke-width="4.0" stroke-linecap="butt" stroke-opacity="0.4" d="M185.0 26.05L197.0 26.05" fill-rule="nonzero"/><path fill="#000000" d="M209.26562 30.55L208.1875 30.55L208.1875 23.33125L206.0 24.128124L206.0 23.14375L209.10938 21.971874L209.26562 21.971874L209.26562 30.55ZM212.84375 29.9875Q212.84375 29.70625 213.0 29.51875Q213.17188 29.33125 213.5 29.33125Q213.84375 29.33125 214.01562 29.51875Q214.1875 29.70625 214.1875 29.9875Q214.1875 30.253124 214.01562 30.440624Q213.84375 30.6125 213.5 30.6125Q213.17188 30.6125 213.0 30.440624Q212.84375 30.253124 212.84375 29.9875ZM221.0625 26.909374Q221.0625 28.815624 220.40625 29.753124Q219.76562 30.675 218.375 30.675Q217.01562 30.675 216.35938 29.76875Q215.70312 28.8625 215.67188 27.05L215.67188 25.6125Q215.67188 23.721874 216.3125 22.815624Q216.96875 21.89375 218.35938 21.89375Q219.73438 21.89375 220.39062 22.784374Q221.04688 23.659374 221.0625 25.503124L221.0625 26.909374ZM219.96875 25.425Q219.96875 24.05 219.57812 23.425Q219.20312 22.784374 218.35938 22.784374Q217.53125 22.784374 217.14062 23.425Q216.76562 24.05 216.76562 25.346874L216.76562 27.08125Q216.76562 28.45625 217.15625 29.128124Q217.5625 29.784374 218.375 29.784374Q219.17188 29.784374 219.5625 29.159374Q219.95312 28.534374 219.96875 27.20625L219.96875 25.425ZM224.28125 25.753124L225.09375 25.753124Q225.875 25.7375 226.3125 25.346874Q226.75 24.95625 226.75 24.284374Q226.75 22.784374 225.25 22.784374Q224.54688 22.784374 224.125 23.190624Q223.71875 23.596874 223.71875 24.253124L222.625 24.253124Q222.625 23.2375 223.35938 22.565624Q224.10938 21.89375 225.25 21.89375Q226.45312 21.89375 227.14062 22.534374Q227.82812 23.175 227.82812 24.315624Q227.82812 24.878124 227.46875 25.39375Q227.10938 25.909374 226.48438 26.175Q227.1875 26.39375 227.5625 26.909374Q227.95312 27.425 227.95312 28.175Q227.95312 29.315624 227.20312 30.003124Q226.45312 30.675 225.25 30.675Q224.0625 30.675 223.29688 30.01875Q222.54688 29.3625 222.54688 28.3L223.64062 28.3Q223.64062 28.971874 224.07812 29.378124Q224.51562 29.784374 225.26562 29.784374Q226.04688 29.784374 226.45312 29.378124Q226.875 28.95625 226.875 28.190624Q226.875 27.45625 226.42188 27.065624Q225.96875 26.659374 225.09375 26.64375L224.28125 26.64375L224.28125 25.753124ZM230.9375 24.784374L229.17188 24.26875L229.4375 23.378124L231.20312 24.034374L231.15625 22.01875L232.04688 22.01875L231.98438 24.065624L233.73438 23.425L234.0 24.315624L232.20312 24.846874L233.35938 26.425L232.64062 26.9875L231.54688 25.3L230.48438 26.940624L229.75 26.409374L230.9375 24.784374ZM236.95312 26.51875L238.35938 24.20625L239.625 24.20625L237.54688 27.346874L239.6875 30.55L238.4375 30.55L236.96875 28.175L235.5 30.55L234.23438 30.55L236.375 27.346874L234.3125 24.20625L235.5625 24.20625L236.95312 26.51875ZM246.92188 25.971874L249.3125 25.971874L249.3125 27.003124L246.92188 27.003124L246.92188 29.690624L245.84375 29.690624L245.84375 27.003124L243.45312 27.003124L243.45312 25.971874L245.84375 25.971874L245.84375 23.4875L246.92188 23.4875L246.92188 25.971874ZM256.07812 27.3625L253.21875 27.3625L253.21875 26.4875L256.07812 26.4875L256.07812 27.3625ZM262.0625 26.909374Q262.0625 28.815624 261.40625 29.753124Q260.76562 30.675 259.375 30.675Q258.01562 30.675 257.35938 29.76875Q256.70312 28.8625 256.67188 27.05L256.67188 25.6125Q256.67188 23.721874 257.3125 22.815624Q257.96875 21.89375 259.35938 21.89375Q260.73438 21.89375 261.39062 22.784374Q262.04688 23.659374 262.0625 25.503124L262.0625 26.909374ZM260.96875 25.425Q260.96875 24.05 260.57812 23.425Q260.20312 22.784374 259.35938 22.784374Q258.53125 22.784374 258.14062 23.425Q257.76562 24.05 257.76562 25.346874L257.76562 27.08125Q257.76562 28.45625 258.15625 29.128124Q258.5625 29.784374 259.375 29.784374Q260.17188 29.784374 260.5625 29.159374Q260.95312 28.534374 260.96875 27.20625L260.96875 25.425ZM263.84375 29.9875Q263.84375 29.70625 264.0 29.51875Q264.17188 29.33125 264.5 29.33125Q264.84375 29.33125 265.01562 29.51875Q265.1875 29.70625 265.1875 29.9875Q265.1875 30.253124 265.01562 30.440624Q264.84375 30.6125 264.5 30.6125Q264.17188 30.6125 264.0 30.440624Q263.84375 30.253124 263.84375 29.9875ZM272.0625 26.909374Q272.0625 28.815624 271.40625 29.753124Q270.76562 30.675 269.375 30.675Q268.01562 30.675 267.35938 29.76875Q266.70312 28.8625 266.67188 27.05L266.67188 25.6125Q266.67188 23.721874 267.3125 22.815624Q267.96875 21.89375 269.35938 21.89375Q270.73438 21.89375 271.39062 22.784374Q272.04688 23.659374 272.0625 25.503124L272.0625 26.909374ZM270.96875 25.425Q270.96875 24.05 270.57812 23.425Q270.20312 22.784374 269.35938 22.784374Q268.53125 22.784374 268.14062 23.425Q267.76562 24.05 267.76562 25.346874L267.76562 27.08125Q267.76562 28.45625 268.15625 29.128124Q268.5625 29.784374 269.375 29.784374Q270.17188 29.784374 270.5625 29.159374Q270.95312 28.534374 270.96875 27.20625L270.96875 25.425ZM278.89062 24.2375Q278.89062 24.878124 278.54688 25.378124Q278.20312 25.878124 277.64062 26.159374Q278.29688 26.440624 278.6875 27.003124Q279.07812 27.55 279.07812 28.253124Q279.07812 29.346874 278.32812 30.01875Q277.59375 30.675 276.375 30.675Q275.14062 30.675 274.39062 30.01875Q273.65625 29.346874 273.65625 28.253124Q273.65625 27.55 274.03125 27.003124Q274.40625 26.440624 275.07812 26.159374Q274.51562 25.878124 274.1875 25.378124Q273.85938 24.878124 273.85938 24.2375Q273.85938 23.159374 274.54688 22.534374Q275.23438 21.89375 276.375 21.89375Q277.5 21.89375 278.1875 22.534374Q278.89062 23.159374 278.89062 24.2375ZM278.0 28.221874Q278.0 27.503124 277.54688 27.065624Q277.09375 26.6125 276.35938 26.6125Q275.625 26.6125 275.17188 27.065624Q274.73438 27.503124 274.73438 28.2375Q274.73438 28.95625 275.17188 29.378124Q275.60938 29.784374 276.375 29.784374Q277.125 29.784374 277.5625 29.3625Q278.0 28.940624 278.0 28.221874ZM276.375 22.784374Q275.73438 22.784374 275.32812 23.190624Q274.9375 23.58125 274.9375 24.26875Q274.9375 24.909374 275.32812 25.315624Q275.71875 25.721874 276.35938 25.721874Q277.01562 25.721874 277.40625 25.315624Q277.79688 24.909374 277.79688 24.26875Q277.79688 23.6125 277.39062 23.20625Q276.98438 22.784374 276.375 22.784374ZM285.89062 24.2375Q285.89062 24.878124 285.54688 25.378124Q285.20312 25.878124 284.64062 26.159374Q285.29688 26.440624 285.6875 27.003124Q286.07812 27.55 286.07812 28.253124Q286.07812 29.346874 285.32812 30.01875Q284.59375 30.675 283.375 30.675Q282.14062 30.675 281.39062 30.01875Q280.65625 29.346874 280.65625 28.253124Q280.65625 27.55 281.03125 27.003124Q281.40625 26.440624 282.07812 26.159374Q281.51562 25.878124 281.1875 25.378124Q280.85938 24.878124 280.85938 24.2375Q280.85938 23.159374 281.54688 22.534374Q282.23438 21.89375 283.375 21.89375Q284.5 21.89375 285.1875 22.534374Q285.89062 23.159374 285.89062 24.2375ZM285.0 28.221874Q285.0 27.503124 284.54688 27.065624Q284.09375 26.6125 283.35938 26.6125Q282.625 26.6125 282.17188 27.065624Q281.73438 27.503124 281.73438 28.2375Q281.73438 28.95625 282.17188 29.378124Q282.60938 29.784374 283.375 29.784374Q284.125 29.784374 284.5625 29.3625Q285.0 28.940624 285.0 28.221874ZM283.375 22.784374Q282.73438 22.784374 282.32812 23.190624Q281.9375 23.58125 281.9375 24.26875Q281.9375 24.909374 282.32812 25.315624Q282.71875 25.721874 283.35938 25.721874Q284.01562 25.721874 284.40625 25.315624Q284.79688 24.909374 284.79688 24.26875Q284.79688 23.6125 284.39062 23.20625Q283.98438 22.784374 283.375 22.784374ZM291.85938 26.8Q291.53125 27.20625 291.04688 27.45625Q290.57812 27.690624 290.01562 27.690624Q289.28125 27.690624 288.73438 27.33125Q288.1875 26.971874 287.89062 26.315624Q287.59375 25.64375 287.59375 24.846874Q287.59375 24.003124 287.90625 23.315624Q288.23438 22.628124 288.82812 22.26875Q289.4375 21.89375 290.23438 21.89375Q291.5 21.89375 292.21875 22.846874Q292.95312 23.8 292.95312 25.425L292.95312 25.7375Q292.95312 28.2375 291.96875 29.378124Q290.98438 30.51875 289.0 30.55L288.78125 30.55L288.78125 29.64375L289.01562 29.64375Q290.35938 29.6125 291.07812 28.940624Q291.79688 28.26875 291.85938 26.8ZM290.1875 26.8Q290.73438 26.8 291.1875 26.471874Q291.65625 26.128124 291.875 25.64375L291.875 25.20625Q291.875 24.14375 291.40625 23.471874Q290.9375 22.8 290.23438 22.8Q289.51562 22.8 289.07812 23.346874Q288.65625 23.89375 288.65625 24.8Q288.65625 25.675 289.0625 26.2375Q289.48438 26.8 290.1875 26.8Z" fill-rule="nonzero"/><path fill="#db4437" d="M322.0 26.05C322.0 29.363708 319.31372 32.05 316.0 32.05C312.68628 32.05 310.0 29.363708 310.0 26.05C310.0 22.736292 312.68628 20.05 316.0 20.05C319.31372 20.05 322.0 22.736292 322.0 26.05Z" fill-rule="nonzero"/><path fill="#000000" d="M334.51562 28.8625Q334.51562 28.425 334.17188 28.190624Q333.84375 27.940624 333.01562 27.76875Q332.20312 27.596874 331.71875 27.346874Q331.23438 27.096874 331.0 26.76875Q330.78125 26.425 330.78125 25.95625Q330.78125 25.175 331.4375 24.64375Q332.09375 24.096874 333.125 24.096874Q334.20312 24.096874 334.85938 24.659374Q335.53125 25.20625 335.53125 26.065624L334.45312 26.065624Q334.45312 25.628124 334.0625 25.315624Q333.6875 24.9875 333.125 24.9875Q332.53125 24.9875 332.1875 25.253124Q331.85938 25.503124 331.85938 25.909374Q331.85938 26.3 332.17188 26.503124Q332.48438 26.70625 333.29688 26.89375Q334.10938 27.065624 334.60938 27.315624Q335.10938 27.565624 335.34375 27.925Q335.59375 28.284374 335.59375 28.784374Q335.59375 29.64375 334.90625 30.159374Q334.23438 30.675 333.15625 30.675Q332.39062 30.675 331.79688 30.409374Q331.21875 30.128124 330.89062 29.64375Q330.5625 29.159374 330.5625 28.596874L331.64062 28.596874Q331.67188 29.14375 332.07812 29.471874Q332.48438 29.784374 333.15625 29.784374Q333.76562 29.784374 334.14062 29.534374Q334.51562 29.284374 334.51562 28.8625ZM342.17188 27.45625Q342.17188 28.89375 341.51562 29.784374Q340.85938 30.675 339.71875 30.675Q338.5625 30.675 337.90625 29.940624L337.90625 32.9875L336.82812 32.9875L336.82812 24.20625L337.8125 24.20625L337.85938 24.909374Q338.53125 24.096874 339.70312 24.096874Q340.84375 24.096874 341.5 24.95625Q342.17188 25.815624 342.17188 27.346874L342.17188 27.45625ZM341.09375 27.33125Q341.09375 26.253124 340.625 25.64375Q340.17188 25.01875 339.375 25.01875Q338.39062 25.01875 337.90625 25.878124L337.90625 28.909374Q338.39062 29.784374 339.39062 29.784374Q340.17188 29.784374 340.625 29.175Q341.09375 28.55 341.09375 27.33125ZM346.45312 30.675Q345.15625 30.675 344.34375 29.83125Q343.54688 28.971874 343.54688 27.55L343.54688 27.3625Q343.54688 26.409374 343.90625 25.675Q344.26562 24.925 344.90625 24.51875Q345.5625 24.096874 346.3125 24.096874Q347.54688 24.096874 348.23438 24.909374Q348.92188 25.721874 348.92188 27.2375L348.92188 27.690624L344.625 27.690624Q344.65625 28.628124 345.17188 29.20625Q345.70312 29.784374 346.51562 29.784374Q347.07812 29.784374 347.46875 29.55Q347.875 29.315624 348.1875 28.925L348.84375 29.440624Q348.04688 30.675 346.45312 30.675ZM346.3125 24.9875Q345.65625 24.9875 345.20312 25.471874Q344.76562 25.940624 344.67188 26.8L347.84375 26.8L347.84375 26.721874Q347.79688 25.89375 347.39062 25.440624Q347.0 24.9875 346.3125 24.9875ZM352.45312 30.675Q351.15625 30.675 350.34375 29.83125Q349.54688 28.971874 349.54688 27.55L349.54688 27.3625Q349.54688 26.409374 349.90625 25.675Q350.26562 24.925 350.90625 24.51875Q351.5625 24.096874 352.3125 24.096874Q353.54688 24.096874 354.23438 24.909374Q354.92188 25.721874 354.92188 27.2375L354.92188 27.690624L350.625 27.690624Q350.65625 28.628124 351.17188 29.20625Q351.70312 29.784374 352.51562 29.784374Q353.07812 29.784374 353.46875 29.55Q353.875 29.315624 354.1875 28.925L354.84375 29.440624Q354.04688 30.675 352.45312 30.675ZM352.3125 24.9875Q351.65625 24.9875 351.20312 25.471874Q350.76562 25.940624 350.67188 26.8L353.84375 26.8L353.84375 26.721874Q353.79688 25.89375 353.39062 25.440624Q353.0 24.9875 352.3125 24.9875ZM355.5625 27.33125Q355.5625 25.8625 356.25 24.9875Q356.9375 24.096874 358.0625 24.096874Q359.17188 24.096874 359.82812 24.846874L359.82812 21.55L360.90625 21.55L360.90625 30.55L359.90625 30.55L359.85938 29.8625Q359.20312 30.675 358.04688 30.675Q356.95312 30.675 356.25 29.76875Q355.5625 28.8625 355.5625 27.409374L355.5625 27.33125ZM356.64062 27.45625Q356.64062 28.534374 357.07812 29.14375Q357.53125 29.753124 358.3125 29.753124Q359.34375 29.753124 359.82812 28.815624L359.82812 25.909374Q359.34375 25.01875 358.32812 25.01875Q357.53125 25.01875 357.07812 25.628124Q356.64062 26.2375 356.64062 27.45625ZM368.0625 21.690624L366.95312 21.690624L366.95312 31.4875L368.0625 31.4875L368.0625 32.378124L365.85938 32.378124L365.85938 20.8L368.0625 20.8L368.0625 21.690624ZM369.84375 24.20625L369.875 24.909374Q370.5625 24.096874 371.75 24.096874Q373.07812 24.096874 373.5625 25.1125Q373.875 24.659374 374.375 24.378124Q374.89062 24.096874 375.57812 24.096874Q377.67188 24.096874 377.70312 26.3L377.70312 30.55L376.625 30.55L376.625 26.3625Q376.625 25.690624 376.3125 25.3625Q376.0 25.01875 375.26562 25.01875Q374.65625 25.01875 374.25 25.378124Q373.85938 25.7375 373.79688 26.346874L373.79688 30.55L372.71875 30.55L372.71875 26.39375Q372.71875 25.01875 371.35938 25.01875Q370.29688 25.01875 369.90625 25.925L369.90625 30.55L368.8125 30.55L368.8125 24.20625L369.84375 24.20625ZM380.03125 31.284374L379.10938 31.284374L382.67188 22.01875L383.59375 22.01875L380.03125 31.284374ZM388.51562 28.8625Q388.51562 28.425 388.17188 28.190624Q387.84375 27.940624 387.01562 27.76875Q386.20312 27.596874 385.71875 27.346874Q385.23438 27.096874 385.0 26.76875Q384.78125 26.425 384.78125 25.95625Q384.78125 25.175 385.4375 24.64375Q386.09375 24.096874 387.125 24.096874Q388.20312 24.096874 388.85938 24.659374Q389.53125 25.20625 389.53125 26.065624L388.45312 26.065624Q388.45312 25.628124 388.0625 25.315624Q387.6875 24.9875 387.125 24.9875Q386.53125 24.9875 386.1875 25.253124Q385.85938 25.503124 385.85938 25.909374Q385.85938 26.3 386.17188 26.503124Q386.48438 26.70625 387.29688 26.89375Q388.10938 27.065624 388.60938 27.315624Q389.10938 27.565624 389.34375 27.925Q389.59375 28.284374 389.59375 28.784374Q389.59375 29.64375 388.90625 30.159374Q388.23438 30.675 387.15625 30.675Q386.39062 30.675 385.79688 30.409374Q385.21875 30.128124 384.89062 29.64375Q384.5625 29.159374 384.5625 28.596874L385.64062 28.596874Q385.67188 29.14375 386.07812 29.471874Q386.48438 29.784374 387.15625 29.784374Q387.76562 29.784374 388.14062 29.534374Q388.51562 29.284374 388.51562 28.8625ZM390.04688 20.8L392.26562 20.8L392.26562 32.378124L390.04688 32.378124L390.04688 31.4875L391.1875 31.4875L391.1875 21.690624L390.04688 21.690624L390.04688 20.8Z" fill-rule="nonzero"/><path stroke="#db4437" stroke-width="4.0" stroke-linecap="butt" stroke-opacity="0.4" d="M409.0 26.05L421.0 26.05" fill-rule="nonzero"/><path fill="#000000" d="M435.0625 26.909374Q435.0625 28.815624 434.40625 29.753124Q433.76562 30.675 432.375 30.675Q431.01562 30.675 430.35938 29.76875Q429.70312 28.8625 429.67188 27.05L429.67188 25.6125Q429.67188 23.721874 430.3125 22.815624Q430.96875 21.89375 432.35938 21.89375Q433.73438 21.89375 434.39062 22.784374Q435.04688 23.659374 435.0625 25.503124L435.0625 26.909374ZM433.96875 25.425Q433.96875 24.05 433.57812 23.425Q433.20312 22.784374 432.35938 22.784374Q431.53125 22.784374 431.14062 23.425Q430.76562 24.05 430.76562 25.346874L430.76562 27.08125Q430.76562 28.45625 431.15625 29.128124Q431.5625 29.784374 432.375 29.784374Q433.17188 29.784374 433.5625 29.159374Q433.95312 28.534374 433.96875 27.20625L433.96875 25.425ZM436.84375 29.9875Q436.84375 29.70625 437.0 29.51875Q437.17188 29.33125 437.5 29.33125Q437.84375 29.33125 438.01562 29.51875Q438.1875 29.70625 438.1875 29.9875Q438.1875 30.253124 438.01562 30.440624Q437.84375 30.6125 437.5 30.6125Q437.17188 30.6125 437.0 30.440624Q436.84375 30.253124 436.84375 29.9875ZM445.0625 26.909374Q445.0625 28.815624 444.40625 29.753124Q443.76562 30.675 442.375 30.675Q441.01562 30.675 440.35938 29.76875Q439.70312 28.8625 439.67188 27.05L439.67188 25.6125Q439.67188 23.721874 440.3125 22.815624Q440.96875 21.89375 442.35938 21.89375Q443.73438 21.89375 444.39062 22.784374Q445.04688 23.659374 445.0625 25.503124L445.0625 26.909374ZM443.96875 25.425Q443.96875 24.05 443.57812 23.425Q443.20312 22.784374 442.35938 22.784374Q441.53125 22.784374 441.14062 23.425Q440.76562 24.05 440.76562 25.346874L440.76562 27.08125Q440.76562 28.45625 441.15625 29.128124Q441.5625 29.784374 442.375 29.784374Q443.17188 29.784374 443.5625 29.159374Q443.95312 28.534374 443.96875 27.20625L443.96875 25.425ZM450.26562 30.55L449.1875 30.55L449.1875 23.33125L447.0 24.128124L447.0 23.14375L450.10938 21.971874L450.26562 21.971874L450.26562 30.55ZM459.0625 26.909374Q459.0625 28.815624 458.40625 29.753124Q457.76562 30.675 456.375 30.675Q455.01562 30.675 454.35938 29.76875Q453.70312 28.8625 453.67188 27.05L453.67188 25.6125Q453.67188 23.721874 454.3125 22.815624Q454.96875 21.89375 456.35938 21.89375Q457.73438 21.89375 458.39062 22.784374Q459.04688 23.659374 459.0625 25.503124L459.0625 26.909374ZM457.96875 25.425Q457.96875 24.05 457.57812 23.425Q457.20312 22.784374 456.35938 22.784374Q455.53125 22.784374 455.14062 23.425Q454.76562 24.05 454.76562 25.346874L454.76562 27.08125Q454.76562 28.45625 455.15625 29.128124Q455.5625 29.784374 456.375 29.784374Q457.17188 29.784374 457.5625 29.159374Q457.95312 28.534374 457.96875 27.20625L457.96875 25.425ZM464.85938 26.8Q464.53125 27.20625 464.04688 27.45625Q463.57812 27.690624 463.01562 27.690624Q462.28125 27.690624 461.73438 27.33125Q461.1875 26.971874 460.89062 26.315624Q460.59375 25.64375 460.59375 24.846874Q460.59375 24.003124 460.90625 23.315624Q461.23438 22.628124 461.82812 22.26875Q462.4375 21.89375 463.23438 21.89375Q464.5 21.89375 465.21875 22.846874Q465.95312 23.8 465.95312 25.425L465.95312 25.7375Q465.95312 28.2375 464.96875 29.378124Q463.98438 30.51875 462.0 30.55L461.78125 30.55L461.78125 29.64375L462.01562 29.64375Q463.35938 29.6125 464.07812 28.940624Q464.79688 28.26875 464.85938 26.8ZM463.1875 26.8Q463.73438 26.8 464.1875 26.471874Q464.65625 26.128124 464.875 25.64375L464.875 25.20625Q464.875 24.14375 464.40625 23.471874Q463.9375 22.8 463.23438 22.8Q462.51562 22.8 462.07812 23.346874Q461.65625 23.89375 461.65625 24.8Q461.65625 25.675 462.0625 26.2375Q462.48438 26.8 463.1875 26.8ZM468.9375 24.784374L467.17188 24.26875L467.4375 23.378124L469.20312 24.034374L469.15625 22.01875L470.04688 22.01875L469.98438 24.065624L471.73438 23.425L472.0 24.315624L470.20312 24.846874L471.35938 26.425L470.64062 26.9875L469.54688 25.3L468.48438 26.940624L467.75 26.409374L468.9375 24.784374ZM474.95312 26.51875L476.35938 24.20625L477.625 24.20625L475.54688 27.346874L477.6875 30.55L476.4375 30.55L474.96875 28.175L473.5 30.55L472.23438 30.55L474.375 27.346874L472.3125 24.20625L473.5625 24.20625L474.95312 26.51875ZM484.92188 25.971874L487.3125 25.971874L487.3125 27.003124L484.92188 27.003124L484.92188 29.690624L483.84375 29.690624L483.84375 27.003124L481.45312 27.003124L481.45312 25.971874L483.84375 25.971874L483.84375 23.4875L484.92188 23.4875L484.92188 25.971874ZM495.26562 30.55L494.1875 30.55L494.1875 23.33125L492.0 24.128124L492.0 23.14375L495.10938 21.971874L495.26562 21.971874L495.26562 30.55ZM498.84375 29.9875Q498.84375 29.70625 499.0 29.51875Q499.17188 29.33125 499.5 29.33125Q499.84375 29.33125 500.01562 29.51875Q500.1875 29.70625 500.1875 29.9875Q500.1875 30.253124 500.01562 30.440624Q499.84375 30.6125 499.5 30.6125Q499.17188 30.6125 499.0 30.440624Q498.84375 30.253124 498.84375 29.9875ZM507.0625 26.909374Q507.0625 28.815624 506.40625 29.753124Q505.76562 30.675 504.375 30.675Q503.01562 30.675 502.35938 29.76875Q501.70312 28.8625 501.67188 27.05L501.67188 25.6125Q501.67188 23.721874 502.3125 22.815624Q502.96875 21.89375 504.35938 21.89375Q505.73438 21.89375 506.39062 22.784374Q507.04688 23.659374 507.0625 25.503124L507.0625 26.909374ZM505.96875 25.425Q505.96875 24.05 505.57812 23.425Q505.20312 22.784374 504.35938 22.784374Q503.53125 22.784374 503.14062 23.425Q502.76562 24.05 502.76562 25.346874L502.76562 27.08125Q502.76562 28.45625 503.15625 29.128124Q503.5625 29.784374 504.375 29.784374Q505.17188 29.784374 505.5625 29.159374Q505.95312 28.534374 505.96875 27.20625L505.96875 25.425ZM512.2656 30.55L511.1875 30.55L511.1875 23.33125L509.0 24.128124L509.0 23.14375L512.1094 21.971874L512.2656 21.971874L512.2656 30.55Z" fill-rule="nonzero"/></svg>