  0
SECTION
  2
HEADER
  9
$ACADVER
  1
AC1009
  9
$EXTMIN
 10
0.0
 20
0.0
 30
0.0
  9
$EXTMAX
 10
1000.0
 20
1000.0
 30
0.0
  9
$FILLMODE
 70
 0
  9
$SPLFRAME
 70
 1
  0
ENDSEC
  0
SECTION
  2
TABLES
  0
TABLE
  2
LAYER
 70
1
  0
LAYER
  2
0
 70
     0
 62
     7
  6
CONTINUOUS
  0
ENDTAB
  0
ENDSEC
  0
SECTION
  2
ENTITIES
  0
POLYLINE
  8
0
 62
     254
 66
     1
 10
0
 20
0
 30
0.0
 70
     1
 40
0
 41
0
  0
VERTEX
  8
0
 10
6.03153
 20
11.5934
 30
0.0
 40
0
 41
0
  0
VERTEX
  8
0
 10
6.8189
 20
11.5934
 30
0.0
 40
0
 41
0
  0
VERTEX
  8
0
 10
6.8189
 20
9.97922
 30
0.0
 40
0
 41
0
  0
VERTEX
  8
0
 10
6.03153
 20
9.97922
 30
0.0
 40
0
 41
0
  0
VERTEX
  8
0
 10
6.03153
 20
11.5934
 30
0.0
 40
0
 41
0
  0
SEQEND
 8
0
  0
POLYLINE
  8
0
 62
     0
 66
     1
 10
0
 20
0
 30
0.0
 70
     1
 40
0.992126
 41
0.992126
  0
VERTEX
  8
0
 10
6.03153
 20
11.5934
 30
0.0
 40
0.0137795
 41
0.0137795
  0
VERTEX
  8
0
 10
6.8189
 20
11.5934
 30
0.0
 40
0.0137795
 41
0.0137795
  0
VERTEX
  8
0
 10
6.8189
 20
9.97922
 30
0.0
 40
0.0137795
 41
0.0137795
  0
VERTEX
  8
0
 10
6.03153
 20
9.97922
 30
0.0
 40
0.0137795
 41
0.0137795
  0
VERTEX
  8
0
 10
6.03153
 20
11.5934
 30
0.0
 40
0.0137795
 41
0.0137795
  0
SEQEND
 8
0
  0
POLYLINE
  8
0
 62
     0
 66
     1
 10
0
 20
0
 30
0.0
 70
     1
 40
0.992126
 41
0.992126
  0
VERTEX
  8
0
 10
12.7244
 20
6.43593
 30
0.0
 40
0.0137795
 41
0.0137795
  0
VERTEX
  8
0
 10
12.7244
 20
6.59158
 30
0.0
 40
0.0137795
 41
0.0137795
  0
VERTEX
  8
0
 10
12.6935
 20
7.05854
 30
0.0
 40
0.0137795
 41
0.0137795
  0
VERTEX
  8
0
 10
12.6022
 20
7.67057
 30
0.0
 40
0.0137795
 41
0.0137795
  0
VERTEX
  8
0
 10
12.4521
 20
8.26796
 30
0.0
 40
0.0137795
 41
0.0137795
  0
VERTEX
  8
0
 10
12.2449
 20
8.84657
 30
0.0
 40
0.0137795
 41
0.0137795
  0
VERTEX
  8
0
 10
11.9823
 20
9.40218
 30
0.0
 40
0.0137795
 41
0.0137795
  0
VERTEX
  8
0
 10
11.666
 20
9.93078
 30
0.0
 40
0.0137795
 41
0.0137795
  0
VERTEX
  8
0
 10
11.2978
 20
10.4281
 30
0.0
 40
0.0137795
 41
0.0137795
  0
VERTEX
  8
0
 10
10.9894
 20
10.7801
 30
0.0
 40
0.0137795
 41
0.0137795
  0
VERTEX
  8
0
 10
10.8794
 20
10.8901
 30
0.0
 40
0.0137795
 41
0.0137795
  0
VERTEX
  8
0
 10
10.7693
 20
11.0002
 30
0.0
 40
0.0137795
 41
0.0137795
  0
VERTEX
  8
0
 10
10.4173
 20
11.3086
 30
0.0
 40
0.0137795
 41
0.0137795
  0
VERTEX
  8
0
 10
9.91997
 20
11.6768
 30
0.0
 40
0.0137795
 41
0.0137795
  0
VERTEX
  8
0
 10
9.39139
 20
11.9931
 30
0.0
 40
0.0137795
 41
0.0137795
  0
VERTEX
  8
0
 10
8.83578
 20
12.2556
 30
0.0
 40
0.0137795
 41
0.0137795
  0
VERTEX
  8
0
 10
8.25722
 20
12.4629
 30
0.0
 40
0.0137795
 41
0.0137795
  0
VERTEX
  8
0
 10
7.65983
 20
12.613
 30
0.0
 40
0.0137795
 41
0.0137795
  0
VERTEX
  8
0
 10
7.04775
 20
12.7043
 30
0.0
 40
0.0137795
 41
0.0137795
  0
VERTEX
  8
0
 10
6.58078
 20
12.7351
 30
0.0
 40
0.0137795
 41
0.0137795
  0
VERTEX
  8
0
 10
6.42518
 20
12.7351
 30
0.0
 40
0.0137795
 41
0.0137795
  0
VERTEX
  8
0
 10
6.26953
 20
12.7351
 30
0.0
 40
0.0137795
 41
0.0137795
  0
VERTEX
  8
0
 10
5.80257
 20
12.7043
 30
0.0
 40
0.0137795
 41
0.0137795
  0
VERTEX
  8
0
 10
5.19054
 20
12.613
 30
0.0
 40
0.0137795
 41
0.0137795
  0
VERTEX
  8
0
 10
4.59315
 20
12.4629
 30
0.0
 40
0.0137795
 41
0.0137795
  0
VERTEX
  8
0
 10
4.01454
 20
12.2556
 30
0.0
 40
0.0137795
 41
0.0137795
  0
VERTEX
  8
0
 10
3.45893
 20
11.9931
 30
0.0
 40
0.0137795
 41
0.0137795
  0
VERTEX
  8
0
 10
2.93033
 20
11.6768
 30
0.0
 40
0.0137795
 41
0.0137795
  0
VERTEX
  8
0
 10
2.433
 20
11.3086
 30
0.0
 40
0.0137795
 41
0.0137795
  0
VERTEX
  8
0
 10
2.081
 20
11.0002
 30
0.0
 40
0.0137795
 41
0.0137795
  0
VERTEX
  8
0
 10
1.97097
 20
10.8901
 30
0.0
 40
0.0137795
 41
0.0137795
  0
VERTEX
  8
0
 10
1.86089
 20
10.7801
 30
0.0
 40
0.0137795
 41
0.0137795
  0
VERTEX
  8
0
 10
1.55251
 20
10.4281
 30
0.0
 40
0.0137795
 41
0.0137795
  0
VERTEX
  8
0
 10
1.1843
 20
9.93078
 30
0.0
 40
0.0137795
 41
0.0137795
  0
VERTEX
  8
0
 10
0.868056
 20
9.40218
 30
0.0
 40
0.0137795
 41
0.0137795
  0
VERTEX
  8
0
 10
0.605469
 20
8.84657
 30
0.0
 40
0.0137795
 41
0.0137795
  0
VERTEX
  8
0
 10
0.398221
 20
8.26796
 30
0.0
 40
0.0137795
 41
0.0137795
  0
VERTEX
  8
0
 10
0.248101
 20
7.67057
 30
0.0
 40
0.0137795
 41
0.0137795
  0
VERTEX
  8
0
 10
0.156793
 20
7.05854
 30
0.0
 40
0.0137795
 41
0.0137795
  0
VERTEX
  8
0
 10
0.125977
 20
6.59158
 30
0.0
 40
0.0137795
 41
0.0137795
  0
VERTEX
  8
0
 10
0.125977
 20
6.43593
 30
0.0
 40
0.0137795
 41
0.0137795
  0
VERTEX
  8
0
 10
0.125977
 20
6.28033
 30
0.0
 40
0.0137795
 41
0.0137795
  0
VERTEX
  8
0
 10
0.156793
 20
5.81337
 30
0.0
 40
0.0137795
 41
0.0137795
  0
VERTEX
  8
0
 10
0.248101
 20
5.20128
 30
0.0
 40
0.0137795
 41
0.0137795
  0
VERTEX
  8
0
 10
0.398221
 20
4.60389
 30
0.0
 40
0.0137795
 41
0.0137795
  0
VERTEX
  8
0
 10
0.605469
 20
4.02533
 30
0.0
 40
0.0137795
 41
0.0137795
  0
VERTEX
  8
0
 10
0.868056
 20
3.46972
 30
0.0
 40
0.0137795
 41
0.0137795
  0
VERTEX
  8
0
 10
1.1843
 20
2.94114
 30
0.0
 40
0.0137795
 41
0.0137795
  0
VERTEX
  8
0
 10
1.55251
 20
2.44379
 30
0.0
 40
0.0137795
 41
0.0137795
  0
VERTEX
  8
0
 10
1.86089
 20
2.09179
 30
0.0
 40
0.0137795
 41
0.0137795
  0
VERTEX
  8
0
 10
1.97097
 20
1.98172
 30
0.0
 40
0.0137795
 41
0.0137795
  0
VERTEX
  8
0
 10
2.081
 20
1.87169
 30
0.0
 40
0.0137795
 41
0.0137795
  0
VERTEX
  8
0
 10
2.433
 20
1.56326
 30
0.0
 40
0.0137795
 41
0.0137795
  0
VERTEX
  8
0
 10
2.93033
 20
1.1951
 30
0.0
 40
0.0137795
 41
0.0137795
  0
VERTEX
  8
0
 10
3.45893
 20
0.878797
 30
0.0
 40
0.0137795
 41
0.0137795
  0
VERTEX
  8
0
 10
4.01454
 20
0.616211
 30
0.0
 40
0.0137795
 41
0.0137795
  0
VERTEX
  8
0
 10
4.59315
 20
0.409017
 30
0.0
 40
0.0137795
 41
0.0137795
  0
VERTEX
  8
0
 10
5.19054
 20
0.258897
 30
0.0
 40
0.0137795
 41
0.0137795
  0
VERTEX
  8
0
 10
5.80257
 20
0.167589
 30
0.0
 40
0.0137795
 41
0.0137795
  0
VERTEX
  8
0
 10
6.26953
 20
0.136719
 30
0.0
 40
0.0137795
 41
0.0137795
  0
VERTEX
  8
0
 10
6.42518
 20
0.136719
 30
0.0
 40
0.0137795
 41
0.0137795
  0
VERTEX
  8
0
 10
6.58078
 20
0.136719
 30
0.0
 40
0.0137795
 41
0.0137795
  0
VERTEX
  8
0
 10
7.04775
 20
0.167589
 30
0.0
 40
0.0137795
 41
0.0137795
  0
VERTEX
  8
0
 10
7.65983
 20
0.258897
 30
0.0
 40
0.0137795
 41
0.0137795
  0
VERTEX
  8
0
 10
8.25722
 20
0.409017
 30
0.0
 40
0.0137795
 41
0.0137795
  0
VERTEX
  8
0
 10
8.83578
 20
0.616211
 30
0.0
 40
0.0137795
 41
0.0137795
  0
VERTEX
  8
0
 10
9.39139
 20
0.878797
 30
0.0
 40
0.0137795
 41
0.0137795
  0
VERTEX
  8
0
 10
9.91997
 20
1.1951
 30
0.0
 40
0.0137795
 41
0.0137795
  0
VERTEX
  8
0
 10
10.4173
 20
1.56326
 30
0.0
 40
0.0137795
 41
0.0137795
  0
VERTEX
  8
0
 10
10.7693
 20
1.87169
 30
0.0
 40
0.0137795
 41
0.0137795
  0
VERTEX
  8
0
 10
10.8794
 20
1.98172
 30
0.0
 40
0.0137795
 41
0.0137795
  0
VERTEX
  8
0
 10
10.9894
 20
2.09179
 30
0.0
 40
0.0137795
 41
0.0137795
  0
VERTEX
  8
0
 10
11.2978
 20
2.44379
 30
0.0
 40
0.0137795
 41
0.0137795
  0
VERTEX
  8
0
 10
11.666
 20
2.94114
 30
0.0
 40
0.0137795
 41
0.0137795
  0
VERTEX
  8
0
 10
11.9823
 20
3.46972
 30
0.0
 40
0.0137795
 41
0.0137795
  0
VERTEX
  8
0
 10
12.2449
 20
4.02533
 30
0.0
 40
0.0137795
 41
0.0137795
  0
VERTEX
  8
0
 10
12.4521
 20
4.60389
 30
0.0
 40
0.0137795
 41
0.0137795
  0
VERTEX
  8
0
 10
12.6022
 20
5.20128
 30
0.0
 40
0.0137795
 41
0.0137795
  0
VERTEX
  8
0
 10
12.6935
 20
5.81337
 30
0.0
 40
0.0137795
 41
0.0137795
  0
VERTEX
  8
0
 10
12.7244
 20
6.28033
 30
0.0
 40
0.0137795
 41
0.0137795
  0
VERTEX
  8
0
 10
12.7244
 20
6.43593
 30
0.0
 40
0.0137795
 41
0.0137795
  0
SEQEND
 8
0
  0
POLYLINE
  8
0
 62
     0
 66
     1
 10
0
 20
0
 30
0.0
 40
0.992126
 41
0.992126
  0
VERTEX
  8
0
 10
11.0924
 20
4.87522
 30
0.0
 40
0.0137795
 41
0.0137795
  0
VERTEX
  8
0
 10
11.134
 20
4.99962
 30
0.0
 40
0.0137795
 41
0.0137795
  0
VERTEX
  8
0
 10
11.2322
 20
5.38172
 30
0.0
 40
0.0137795
 41
0.0137795
  0
VERTEX
  8
0
 10
11.3167
 20
5.89578
 30
0.0
 40
0.0137795
 41
0.0137795
  0
VERTEX
  8
0
 10
11.3464
 20
6.41314
 30
0.0
 40
0.0137795
 41
0.0137795
  0
VERTEX
  8
0
 10
11.3216
 20
6.92942
 30
0.0
 40
0.0137795
 41
0.0137795
  0
VERTEX
  8
0
 10
11.2429
 20
7.44021
 30
0.0
 40
0.0137795
 41
0.0137795
  0
VERTEX
  8
0
 10
11.1106
 20
7.94125
 30
0.0
 40
0.0137795
 41
0.0137795
  0
VERTEX
  8
0
 10
10.9252
 20
8.42817
 30
0.0
 40
0.0137795
 41
0.0137795
  0
VERTEX
  8
0
 10
10.7527
 20
8.78299
 30
0.0
 40
0.0137795
 41
0.0137795
  0
VERTEX
  8
0
 10
10.6871
 20
8.89654
 30
0.0
 40
0.0137795
 41
0.0137795
  0
VERTEX
  8
0
 10
10.6215
 20
9.01014
 30
0.0
 40
0.0137795
 41
0.0137795
  0
VERTEX
  8
0
 10
10.4005
 20
9.33697
 30
0.0
 40
0.0137795
 41
0.0137795
  0
VERTEX
  8
0
 10
10.0715
 20
9.74094
 30
0.0
 40
0.0137795
 41
0.0137795
  0
VERTEX
  8
0
 10
9.70378
 20
10.1061
 30
0.0
 40
0.0137795
 41
0.0137795
  0
VERTEX
  8
0
 10
9.30078
 20
10.4296
 30
0.0
 40
0.0137795
 41
0.0137795
  0
VERTEX
  8
0
 10
8.86604
 20
10.7092
 30
0.0
 40
0.0137795
 41
0.0137795
  0
VERTEX
  8
0
 10
8.40315
 20
10.9422
 30
0.0
 40
0.0137795
 41
0.0137795
  0
VERTEX
  8
0
 10
7.91569
 20
11.126
 30
0.0
 40
0.0137795
 41
0.0137795
  0
VERTEX
  8
0
 10
7.53569
 20
11.232
 30
0.0
 40
0.0137795
 41
0.0137795
  0
VERTEX
  8
0
 10
7.40717
 20
11.2582
 30
0.0
 40
0.0137795
 41
0.0137795
  0
SEQEND
 8
0
  0
POLYLINE
  8
0
 62
     0
 66
     1
 10
0
 20
0
 30
0.0
 40
0.992126
 41
0.992126
  0
VERTEX
  8
0
 10
5.44319
 20
11.2582
 30
0.0
 40
0.0137795
 41
0.0137795
  0
VERTEX
  8
0
 10
5.31467
 20
11.232
 30
0.0
 40
0.0137795
 41
0.0137795
  0
VERTEX
  8
0
 10
4.93463
 20
11.1261
 30
0.0
 40
0.0137795
 41
0.0137795
  0
VERTEX
  8
0
 10
4.44715
 20
10.9422
 30
0.0
 40
0.0137795
 41
0.0137795
  0
VERTEX
  8
0
 10
3.98426
 20
10.7092
 30
0.0
 40
0.0137795
 41
0.0137795
  0
VERTEX
  8
0
 10
3.54958
 20
10.4297
 30
0.0
 40
0.0137795
 41
0.0137795
  0
VERTEX
  8
0
 10
3.14654
 20
10.1061
 30
0.0
 40
0.0137795
 41
0.0137795
  0
VERTEX
  8
0
 10
2.77881
 20
9.741
 30
0.0
 40
0.0137795
 41
0.0137795
  0
VERTEX
  8
0
 10
2.44982
 20
9.33697
 30
0.0
 40
0.0137795
 41
0.0137795
  0
VERTEX
  8
0
 10
2.22879
 20
9.01014
 30
0.0
 40
0.0137795
 41
0.0137795
  0
VERTEX
  8
0
 10
2.16325
 20
8.89654
 30
0.0
 40
0.0137795
 41
0.0137795
  0
VERTEX
  8
0
 10
2.09765
 20
8.78299
 30
0.0
 40
0.0137795
 41
0.0137795
  0
VERTEX
  8
0
 10
1.92512
 20
8.42817
 30
0.0
 40
0.0137795
 41
0.0137795
  0
VERTEX
  8
0
 10
1.73975
 20
7.94125
 30
0.0
 40
0.0137795
 41
0.0137795
  0
VERTEX
  8
0
 10
1.60747
 20
7.44021
 30
0.0
 40
0.0137795
 41
0.0137795
  0
VERTEX
  8
0
 10
1.52869
 20
6.92942
 30
0.0
 40
0.0137795
 41
0.0137795
  0
VERTEX
  8
0
 10
1.50396
 20
6.41314
 30
0.0
 40
0.0137795
 41
0.0137795
  0
VERTEX
  8
0
 10
1.53364
 20
5.89578
 30
0.0
 40
0.0137795
 41
0.0137795
  0
VERTEX
  8
0
 10
1.61817
 20
5.38167
 30
0.0
 40
0.0137795
 41
0.0137795
  0
VERTEX
  8
0
 10
1.71636
 20
4.99957
 30
0.0
 40
0.0137795
 41
0.0137795
  0
VERTEX
  8
0
 10
1.75797
 20
4.87517
 30
0.0
 40
0.0137795
 41
0.0137795
  0
SEQEND
 8
0
  0
POLYLINE
  8
0
 62
     0
 66
     1
 10
0
 20
0
 30
0.0
 40
0.992126
 41
0.992126
  0
VERTEX
  8
0
 10
2.73996
 20
3.17437
 30
0.0
 40
0.0137795
 41
0.0137795
  0
VERTEX
  8
0
 10
2.82688
 20
3.07617
 30
0.0
 40
0.0137795
 41
0.0137795
  0
VERTEX
  8
0
 10
3.10867
 20
2.80007
 30
0.0
 40
0.0137795
 41
0.0137795
  0
VERTEX
  8
0
 10
3.51161
 20
2.46978
 30
0.0
 40
0.0137795
 41
0.0137795
  0
VERTEX
  8
0
 10
3.94482
 20
2.18544
 30
0.0
 40
0.0137795
 41
0.0137795
  0
VERTEX
  8
0
 10
4.40429
 20
1.94874
 30
0.0
 40
0.0137795
 41
0.0137795
  0
VERTEX
  8
0
 10
4.88607
 20
1.76156
 30
0.0
 40
0.0137795
 41
0.0137795
  0
VERTEX
  8
0
 10
5.38612
 20
1.6256
 30
0.0
 40
0.0137795
 41
0.0137795
  0
VERTEX
  8
0
 10
5.90044
 20
1.54269
 30
0.0
 40
0.0137795
 41
0.0137795
  0
VERTEX
  8
0
 10
6.294
 20
1.51465
 30
0.0
 40
0.0137795
 41
0.0137795
  0
VERTEX
  8
0
 10
6.42518
 20
1.51465
 30
0.0
 40
0.0137795
 41
0.0137795
  0
VERTEX
  8
0
 10
6.55632
 20
1.51465
 30
0.0
 40
0.0137795
 41
0.0137795
  0
VERTEX
  8
0
 10
6.94987
 20
1.54269
 30
0.0
 40
0.0137795
 41
0.0137795
  0
VERTEX
  8
0
 10
7.46419
 20
1.6256
 30
0.0
 40
0.0137795
 41
0.0137795
  0
VERTEX
  8
0
 10
7.96431
 20
1.76156
 30
0.0
 40
0.0137795
 41
0.0137795
  0
VERTEX
  8
0
 10
8.44601
 20
1.94874
 30
0.0
 40
0.0137795
 41
0.0137795
  0
VERTEX
  8
0
 10
8.90554
 20
2.18544
 30
0.0
 40
0.0137795
 41
0.0137795
  0
VERTEX
  8
0
 10
9.33876
 20
2.46978
 30
0.0
 40
0.0137795
 41
0.0137795
  0
VERTEX
  8
0
 10
9.74169
 20
2.80007
 30
0.0
 40
0.0137795
 41
0.0137795
  0
VERTEX
  8
0
 10
10.0235
 20
3.07617
 30
0.0
 40
0.0137795
 41
0.0137795
  0
VERTEX
  8
0
 10
10.1105
 20
3.17437
 30
0.0
 40
0.0137795
 41
0.0137795
  0
SEQEND
 8
0
  0
POLYLINE
  8
0
 62
     0
 66
     1
 10
0
 20
0
 30
0.0
 40
0.992126
 41
0.992126
  0
VERTEX
  8
0
 10
5.44319
 20
9.49447
 30
0.0
 40
0.0137795
 41
0.0137795
  0
VERTEX
  8
0
 10
7.40717
 20
9.49447
 30
0.0
 40
0.0137795
 41
0.0137795
  0
SEQEND
 8
0
  0
POLYLINE
  8
0
 62
     0
 66
     1
 10
0
 20
0
 30
0.0
 40
0.992126
 41
0.992126
  0
VERTEX
  8
0
 10
4.26742
 20
4.05621
 30
0.0
 40
0.0137795
 41
0.0137795
  0
VERTEX
  8
0
 10
3.28543
 20
5.75706
 30
0.0
 40
0.0137795
 41
0.0137795
  0
SEQEND
 8
0
  0
POLYLINE
  8
0
 62
     0
 66
     1
 10
0
 20
0
 30
0.0
 40
0.992126
 41
0.992126
  0
VERTEX
  8
0
 10
9.565
 20
5.75706
 30
0.0
 40
0.0137795
 41
0.0137795
  0
VERTEX
  8
0
 10
8.58301
 20
4.05621
 30
0.0
 40
0.0137795
 41
0.0137795
  0
SEQEND
 8
0
  0
POLYLINE
  8
0
 62
     0
 66
     1
 10
0
 20
0
 30
0.0
 40
0.992126
 41
0.992126
  0
VERTEX
  8
0
 10
7.40717
 20
11.2582
 30
0.0
 40
0.0137795
 41
0.0137795
  0
VERTEX
  8
0
 10
7.40717
 20
9.49447
 30
0.0
 40
0.0137795
 41
0.0137795
  0
SEQEND
 8
0
  0
POLYLINE
  8
0
 62
     0
 66
     1
 10
0
 20
0
 30
0.0
 40
0.992126
 41
0.992126
  0
VERTEX
  8
0
 10
1.75797
 20
4.87522
 30
0.0
 40
0.0137795
 41
0.0137795
  0
VERTEX
  8
0
 10
3.28543
 20
5.75706
 30
0.0
 40
0.0137795
 41
0.0137795
  0
SEQEND
 8
0
  0
POLYLINE
  8
0
 62
     0
 66
     1
 10
0
 20
0
 30
0.0
 40
0.992126
 41
0.992126
  0
VERTEX
  8
0
 10
10.1105
 20
3.17437
 30
0.0
 40
0.0137795
 41
0.0137795
  0
VERTEX
  8
0
 10
8.58301
 20
4.05621
 30
0.0
 40
0.0137795
 41
0.0137795
  0
SEQEND
 8
0
  0
POLYLINE
  8
0
 62
     0
 66
     1
 10
0
 20
0
 30
0.0
 40
0.992126
 41
0.992126
  0
VERTEX
  8
0
 10
5.44319
 20
11.2582
 30
0.0
 40
0.0137795
 41
0.0137795
  0
VERTEX
  8
0
 10
5.44319
 20
9.49447
 30
0.0
 40
0.0137795
 41
0.0137795
  0
SEQEND
 8
0
  0
POLYLINE
  8
0
 62
     0
 66
     1
 10
0
 20
0
 30
0.0
 40
0.992126
 41
0.992126
  0
VERTEX
  8
0
 10
2.73996
 20
3.17437
 30
0.0
 40
0.0137795
 41
0.0137795
  0
VERTEX
  8
0
 10
4.26742
 20
4.05621
 30
0.0
 40
0.0137795
 41
0.0137795
  0
SEQEND
 8
0
  0
POLYLINE
  8
0
 62
     0
 66
     1
 10
0
 20
0
 30
0.0
 40
0.992126
 41
0.992126
  0
VERTEX
  8
0
 10
11.0924
 20
4.87522
 30
0.0
 40
0.0137795
 41
0.0137795
  0
VERTEX
  8
0
 10
9.565
 20
5.75706
 30
0.0
 40
0.0137795
 41
0.0137795
  0
SEQEND
 8
0
  0
POLYLINE
  8
0
 62
     254
 66
     1
 10
0
 20
0
 30
0.0
 70
     1
 40
0
 41
0
  0
VERTEX
  8
0
 10
6.26378
 20
9.80994
 30
0.0
 40
0
 41
0
  0
VERTEX
  8
0
 10
6.26378
 20
9.81521
 30
0.0
 40
0
 41
0
  0
VERTEX
  8
0
 10
6.2551
 20
9.83083
 30
0.0
 40
0
 41
0
  0
VERTEX
  8
0
 10
6.23947
 20
9.83946
 30
0.0
 40
0
 41
0
  0
VERTEX
  8
0
 10
6.23426
 20
9.83946
 30
0.0
 40
0
 41
0
  0
VERTEX
  8
0
 10
6.229
 20
9.83946
 30
0.0
 40
0
 41
0
  0
VERTEX
  8
0
 10
6.21332
 20
9.83083
 30
0.0
 40
0
 41
0
  0
VERTEX
  8
0
 10
6.20469
 20
9.81521
 30
0.0
 40
0
 41
0
  0
VERTEX
  8
0
 10
6.20469
 20
9.80994
 30
0.0
 40
0
 41
0
  0
VERTEX
  8
0
 10
6.20469
 20
9.80474
 30
0.0
 40
0
 41
0
  0
VERTEX
  8
0
 10
6.21332
 20
9.78907
 30
0.0
 40
0
 41
0
  0
VERTEX
  8
0
 10
6.229
 20
9.78039
 30
0.0
 40
0
 41
0
  0
VERTEX
  8
0
 10
6.23426
 20
9.78039
 30
0.0
 40
0
 41
0
  0
VERTEX
  8
0
 10
6.23947
 20
9.78039
 30
0.0
 40
0
 41
0
  0
VERTEX
  8
0
 10
6.2551
 20
9.78907
 30
0.0
 40
0
 41
0
  0
VERTEX
  8
0
 10
6.26378
 20
9.80474
 30
0.0
 40
0
 41
0
  0
VERTEX
  8
0
 10
6.26378
 20
9.80994
 30
0.0
 40
0
 41
0
  0
SEQEND
 8
0
  0
POLYLINE
  8
0
 62
     0
 66
     1
 10
0
 20
0
 30
0.0
 70
     1
 40
0.992126
 41
0.992126
  0
VERTEX
  8
0
 10
6.26378
 20
9.80994
 30
0.0
 40
0.0137795
 41
0.0137795
  0
VERTEX
  8
0
 10
6.26378
 20
9.81521
 30
0.0
 40
0.0137795
 41
0.0137795
  0
VERTEX
  8
0
 10
6.2551
 20
9.83083
 30
0.0
 40
0.0137795
 41
0.0137795
  0
VERTEX
  8
0
 10
6.23947
 20
9.83946
 30
0.0
 40
0.0137795
 41
0.0137795
  0
VERTEX
  8
0
 10
6.23426
 20
9.83946
 30
0.0
 40
0.0137795
 41
0.0137795
  0
VERTEX
  8
0
 10
6.229
 20
9.83946
 30
0.0
 40
0.0137795
 41
0.0137795
  0
VERTEX
  8
0
 10
6.21332
 20
9.83083
 30
0.0
 40
0.0137795
 41
0.0137795
  0
VERTEX
  8
0
 10
6.20469
 20
9.81521
 30
0.0
 40
0.0137795
 41
0.0137795
  0
VERTEX
  8
0
 10
6.20469
 20
9.80994
 30
0.0
 40
0.0137795
 41
0.0137795
  0
VERTEX
  8
0
 10
6.20469
 20
9.80474
 30
0.0
 40
0.0137795
 41
0.0137795
  0
VERTEX
  8
0
 10
6.21332
 20
9.78907
 30
0.0
 40
0.0137795
 41
0.0137795
  0
VERTEX
  8
0
 10
6.229
 20
9.78039
 30
0.0
 40
0.0137795
 41
0.0137795
  0
VERTEX
  8
0
 10
6.23426
 20
9.78039
 30
0.0
 40
0.0137795
 41
0.0137795
  0
VERTEX
  8
0
 10
6.23947
 20
9.78039
 30
0.0
 40
0.0137795
 41
0.0137795
  0
VERTEX
  8
0
 10
6.2551
 20
9.78907
 30
0.0
 40
0.0137795
 41
0.0137795
  0
VERTEX
  8
0
 10
6.26378
 20
9.80474
 30
0.0
 40
0.0137795
 41
0.0137795
  0
VERTEX
  8
0
 10
6.26378
 20
9.80994
 30
0.0
 40
0.0137795
 41
0.0137795
  0
SEQEND
 8
0
  0
POLYLINE
  8
0
 62
     254
 66
     1
 10
0
 20
0
 30
0.0
 70
     1
 40
0
 41
0
  0
VERTEX
  8
0
 10
6.26378
 20
11.7627
 30
0.0
 40
0
 41
0
  0
VERTEX
  8
0
 10
6.26378
 20
11.768
 30
0.0
 40
0
 41
0
  0
VERTEX
  8
0
 10
6.2551
 20
11.7836
 30
0.0
 40
0
 41
0
  0
VERTEX
  8
0
 10
6.23947
 20
11.7922
 30
0.0
 40
0
 41
0
  0
VERTEX
  8
0
 10
6.23426
 20
11.7922
 30
0.0
 40
0
 41
0
  0
VERTEX
  8
0
 10
6.229
 20
11.7922
 30
0.0
 40
0
 41
0
  0
VERTEX
  8
0
 10
6.21332
 20
11.7836
 30
0.0
 40
0
 41
0
  0
VERTEX
  8
0
 10
6.20469
 20
11.768
 30
0.0
 40
0
 41
0
  0
VERTEX
  8
0
 10
6.20469
 20
11.7627
 30
0.0
 40
0
 41
0
  0
VERTEX
  8
0
 10
6.20469
 20
11.7575
 30
0.0
 40
0
 41
0
  0
VERTEX
  8
0
 10
6.21332
 20
11.7419
 30
0.0
 40
0
 41
0
  0
VERTEX
  8
0
 10
6.229
 20
11.7332
 30
0.0
 40
0
 41
0
  0
VERTEX
  8
0
 10
6.23426
 20
11.7332
 30
0.0
 40
0
 41
0
  0
VERTEX
  8
0
 10
6.23947
 20
11.7332
 30
0.0
 40
0
 41
0
  0
VERTEX
  8
0
 10
6.2551
 20
11.7419
 30
0.0
 40
0
 41
0
  0
VERTEX
  8
0
 10
6.26378
 20
11.7575
 30
0.0
 40
0
 41
0
  0
VERTEX
  8
0
 10
6.26378
 20
11.7627
 30
0.0
 40
0
 41
0
  0
SEQEND
 8
0
  0
POLYLINE
  8
0
 62
     0
 66
     1
 10
0
 20
0
 30
0.0
 70
     1
 40
0.992126
 41
0.992126
  0
VERTEX
  8
0
 10
6.26378
 20
11.7627
 30
0.0
 40
0.0137795
 41
0.0137795
  0
VERTEX
  8
0
 10
6.26378
 20
11.768
 30
0.0
 40
0.0137795
 41
0.0137795
  0
VERTEX
  8
0
 10
6.2551
 20
11.7836
 30
0.0
 40
0.0137795
 41
0.0137795
  0
VERTEX
  8
0
 10
6.23947
 20
11.7922
 30
0.0
 40
0.0137795
 41
0.0137795
  0
VERTEX
  8
0
 10
6.23426
 20
11.7922
 30
0.0
 40
0.0137795
 41
0.0137795
  0
VERTEX
  8
0
 10
6.229
 20
11.7922
 30
0.0
 40
0.0137795
 41
0.0137795
  0
VERTEX
  8
0
 10
6.21332
 20
11.7836
 30
0.0
 40
0.0137795
 41
0.0137795
  0
VERTEX
  8
0
 10
6.20469
 20
11.768
 30
0.0
 40
0.0137795
 41
0.0137795
  0
VERTEX
  8
0
 10
6.20469
 20
11.7627
 30
0.0
 40
0.0137795
 41
0.0137795
  0
VERTEX
  8
0
 10
6.20469
 20
11.7575
 30
0.0
 40
0.0137795
 41
0.0137795
  0
VERTEX
  8
0
 10
6.21332
 20
11.7419
 30
0.0
 40
0.0137795
 41
0.0137795
  0
VERTEX
  8
0
 10
6.229
 20
11.7332
 30
0.0
 40
0.0137795
 41
0.0137795
  0
VERTEX
  8
0
 10
6.23426
 20
11.7332
 30
0.0
 40
0.0137795
 41
0.0137795
  0
VERTEX
  8
0
 10
6.23947
 20
11.7332
 30
0.0
 40
0.0137795
 41
0.0137795
  0
VERTEX
  8
0
 10
6.2551
 20
11.7419
 30
0.0
 40
0.0137795
 41
0.0137795
  0
VERTEX
  8
0
 10
6.26378
 20
11.7575
 30
0.0
 40
0.0137795
 41
0.0137795
  0
VERTEX
  8
0
 10
6.26378
 20
11.7627
 30
0.0
 40
0.0137795
 41
0.0137795
  0
SEQEND
 8
0
  0
POLYLINE
  8
0
 62
     254
 66
     1
 10
0
 20
0
 30
0.0
 70
     1
 40
0
 41
0
  0
VERTEX
  8
0
 10
6.64567
 20
9.80994
 30
0.0
 40
0
 41
0
  0
VERTEX
  8
0
 10
6.64567
 20
9.81521
 30
0.0
 40
0
 41
0
  0
VERTEX
  8
0
 10
6.63699
 20
9.83083
 30
0.0
 40
0
 41
0
  0
VERTEX
  8
0
 10
6.62136
 20
9.83946
 30
0.0
 40
0
 41
0
  0
VERTEX
  8
0
 10
6.61615
 20
9.83946
 30
0.0
 40
0
 41
0
  0
VERTEX
  8
0
 10
6.61089
 20
9.83946
 30
0.0
 40
0
 41
0
  0
VERTEX
  8
0
 10
6.59521
 20
9.83083
 30
0.0
 40
0
 41
0
  0
VERTEX
  8
0
 10
6.58658
 20
9.81521
 30
0.0
 40
0
 41
0
  0
VERTEX
  8
0
 10
6.58658
 20
9.80994
 30
0.0
 40
0
 41
0
  0
VERTEX
  8
0
 10
6.58658
 20
9.80474
 30
0.0
 40
0
 41
0
  0
VERTEX
  8
0
 10
6.59521
 20
9.78907
 30
0.0
 40
0
 41
0
  0
VERTEX
  8
0
 10
6.61089
 20
9.78039
 30
0.0
 40
0
 41
0
  0
VERTEX
  8
0
 10
6.61615
 20
9.78039
 30
0.0
 40
0
 41
0
  0
VERTEX
  8
0
 10
6.62136
 20
9.78039
 30
0.0
 40
0
 41
0
  0
VERTEX
  8
0
 10
6.63699
 20
9.78907
 30
0.0
 40
0
 41
0
  0
VERTEX
  8
0
 10
6.64567
 20
9.80474
 30
0.0
 40
0
 41
0
  0
VERTEX
  8
0
 10
6.64567
 20
9.80994
 30
0.0
 40
0
 41
0
  0
SEQEND
 8
0
  0
POLYLINE
  8
0
 62
     0
 66
     1
 10
0
 20
0
 30
0.0
 70
     1
 40
0.992126
 41
0.992126
  0
VERTEX
  8
0
 10
6.64567
 20
9.80994
 30
0.0
 40
0.0137795
 41
0.0137795
  0
VERTEX
  8
0
 10
6.64567
 20
9.81521
 30
0.0
 40
0.0137795
 41
0.0137795
  0
VERTEX
  8
0
 10
6.63699
 20
9.83083
 30
0.0
 40
0.0137795
 41
0.0137795
  0
VERTEX
  8
0
 10
6.62136
 20
9.83946
 30
0.0
 40
0.0137795
 41
0.0137795
  0
VERTEX
  8
0
 10
6.61615
 20
9.83946
 30
0.0
 40
0.0137795
 41
0.0137795
  0
VERTEX
  8
0
 10
6.61089
 20
9.83946
 30
0.0
 40
0.0137795
 41
0.0137795
  0
VERTEX
  8
0
 10
6.59521
 20
9.83083
 30
0.0
 40
0.0137795
 41
0.0137795
  0
VERTEX
  8
0
 10
6.58658
 20
9.81521
 30
0.0
 40
0.0137795
 41
0.0137795
  0
VERTEX
  8
0
 10
6.58658
 20
9.80994
 30
0.0
 40
0.0137795
 41
0.0137795
  0
VERTEX
  8
0
 10
6.58658
 20
9.80474
 30
0.0
 40
0.0137795
 41
0.0137795
  0
VERTEX
  8
0
 10
6.59521
 20
9.78907
 30
0.0
 40
0.0137795
 41
0.0137795
  0
VERTEX
  8
0
 10
6.61089
 20
9.78039
 30
0.0
 40
0.0137795
 41
0.0137795
  0
VERTEX
  8
0
 10
6.61615
 20
9.78039
 30
0.0
 40
0.0137795
 41
0.0137795
  0
VERTEX
  8
0
 10
6.62136
 20
9.78039
 30
0.0
 40
0.0137795
 41
0.0137795
  0
VERTEX
  8
0
 10
6.63699
 20
9.78907
 30
0.0
 40
0.0137795
 41
0.0137795
  0
VERTEX
  8
0
 10
6.64567
 20
9.80474
 30
0.0
 40
0.0137795
 41
0.0137795
  0
VERTEX
  8
0
 10
6.64567
 20
9.80994
 30
0.0
 40
0.0137795
 41
0.0137795
  0
SEQEND
 8
0
  0
POLYLINE
  8
0
 62
     254
 66
     1
 10
0
 20
0
 30
0.0
 70
     1
 40
0
 41
0
  0
VERTEX
  8
0
 10
6.64567
 20
11.7627
 30
0.0
 40
0
 41
0
  0
VERTEX
  8
0
 10
6.64567
 20
11.768
 30
0.0
 40
0
 41
0
  0
VERTEX
  8
0
 10
6.63699
 20
11.7836
 30
0.0
 40
0
 41
0
  0
VERTEX
  8
0
 10
6.62136
 20
11.7922
 30
0.0
 40
0
 41
0
  0
VERTEX
  8
0
 10
6.61615
 20
11.7922
 30
0.0
 40
0
 41
0
  0
VERTEX
  8
0
 10
6.61089
 20
11.7922
 30
0.0
 40
0
 41
0
  0
VERTEX
  8
0
 10
6.59521
 20
11.7836
 30
0.0
 40
0
 41
0
  0
VERTEX
  8
0
 10
6.58658
 20
11.768
 30
0.0
 40
0
 41
0
  0
VERTEX
  8
0
 10
6.58658
 20
11.7627
 30
0.0
 40
0
 41
0
  0
VERTEX
  8
0
 10
6.58658
 20
11.7575
 30
0.0
 40
0
 41
0
  0
VERTEX
  8
0
 10
6.59521
 20
11.7419
 30
0.0
 40
0
 41
0
  0
VERTEX
  8
0
 10
6.61089
 20
11.7332
 30
0.0
 40
0
 41
0
  0
VERTEX
  8
0
 10
6.61615
 20
11.7332
 30
0.0
 40
0
 41
0
  0
VERTEX
  8
0
 10
6.62136
 20
11.7332
 30
0.0
 40
0
 41
0
  0
VERTEX
  8
0
 10
6.63699
 20
11.7419
 30
0.0
 40
0
 41
0
  0
VERTEX
  8
0
 10
6.64567
 20
11.7575
 30
0.0
 40
0
 41
0
  0
VERTEX
  8
0
 10
6.64567
 20
11.7627
 30
0.0
 40
0
 41
0
  0
SEQEND
 8
0
  0
POLYLINE
  8
0
 62
     0
 66
     1
 10
0
 20
0
 30
0.0
 70
     1
 40
0.992126
 41
0.992126
  0
VERTEX
  8
0
 10
6.64567
 20
11.7627
 30
0.0
 40
0.0137795
 41
0.0137795
  0
VERTEX
  8
0
 10
6.64567
 20
11.768
 30
0.0
 40
0.0137795
 41
0.0137795
  0
VERTEX
  8
0
 10
6.63699
 20
11.7836
 30
0.0
 40
0.0137795
 41
0.0137795
  0
VERTEX
  8
0
 10
6.62136
 20
11.7922
 30
0.0
 40
0.0137795
 41
0.0137795
  0
VERTEX
  8
0
 10
6.61615
 20
11.7922
 30
0.0
 40
0.0137795
 41
0.0137795
  0
VERTEX
  8
0
 10
6.61089
 20
11.7922
 30
0.0
 40
0.0137795
 41
0.0137795
  0
VERTEX
  8
0
 10
6.59521
 20
11.7836
 30
0.0
 40
0.0137795
 41
0.0137795
  0
VERTEX
  8
0
 10
6.58658
 20
11.768
 30
0.0
 40
0.0137795
 41
0.0137795
  0
VERTEX
  8
0
 10
6.58658
 20
11.7627
 30
0.0
 40
0.0137795
 41
0.0137795
  0
VERTEX
  8
0
 10
6.58658
 20
11.7575
 30
0.0
 40
0.0137795
 41
0.0137795
  0
VERTEX
  8
0
 10
6.59521
 20
11.7419
 30
0.0
 40
0.0137795
 41
0.0137795
  0
VERTEX
  8
0
 10
6.61089
 20
11.7332
 30
0.0
 40
0.0137795
 41
0.0137795
  0
VERTEX
  8
0
 10
6.61615
 20
11.7332
 30
0.0
 40
0.0137795
 41
0.0137795
  0
VERTEX
  8
0
 10
6.62136
 20
11.7332
 30
0.0
 40
0.0137795
 41
0.0137795
  0
VERTEX
  8
0
 10
6.63699
 20
11.7419
 30
0.0
 40
0.0137795
 41
0.0137795
  0
VERTEX
  8
0
 10
6.64567
 20
11.7575
 30
0.0
 40
0.0137795
 41
0.0137795
  0
VERTEX
  8
0
 10
6.64567
 20
11.7627
 30
0.0
 40
0.0137795
 41
0.0137795
  0
SEQEND
 8
0
  0
POLYLINE
  8
0
 62
     254
 66
     1
 10
0
 20
0
 30
0.0
 70
     1
 40
0
 41
0
  0
VERTEX
  8
0
 10
3.62819
 20
4.58356
 30
0.0
 40
0
 41
0
  0
VERTEX
  8
0
 10
3.62819
 20
4.58882
 30
0.0
 40
0
 41
0
  0
VERTEX
  8
0
 10
3.61951
 20
4.60444
 30
0.0
 40
0
 41
0
  0
VERTEX
  8
0
 10
3.60389
 20
4.61307
 30
0.0
 40
0
 41
0
  0
VERTEX
  8
0
 10
3.59868
 20
4.61307
 30
0.0
 40
0
 41
0
  0
VERTEX
  8
0
 10
3.59343
 20
4.61307
 30
0.0
 40
0
 41
0
  0
VERTEX
  8
0
 10
3.57781
 20
4.60444
 30
0.0
 40
0
 41
0
  0
VERTEX
  8
0
 10
3.56917
 20
4.58882
 30
0.0
 40
0
 41
0
  0
VERTEX
  8
0
 10
3.56917
 20
4.58356
 30
0.0
 40
0
 41
0
  0
VERTEX
  8
0
 10
3.56917
 20
4.57835
 30
0.0
 40
0
 41
0
  0
VERTEX
  8
0
 10
3.57781
 20
4.56272
 30
0.0
 40
0
 41
0
  0
VERTEX
  8
0
 10
3.59343
 20
4.55404
 30
0.0
 40
0
 41
0
  0
VERTEX
  8
0
 10
3.59868
 20
4.55404
 30
0.0
 40
0
 41
0
  0
VERTEX
  8
0
 10
3.60389
 20
4.55404
 30
0.0
 40
0
 41
0
  0
VERTEX
  8
0
 10
3.61951
 20
4.56272
 30
0.0
 40
0
 41
0
  0
VERTEX
  8
0
 10
3.62819
 20
4.57835
 30
0.0
 40
0
 41
0
  0
VERTEX
  8
0
 10
3.62819
 20
4.58356
 30
0.0
 40
0
 41
0
  0
SEQEND
 8
0
  0
POLYLINE
  8
0
 62
     0
 66
     1
 10
0
 20
0
 30
0.0
 70
     1
 40
0.992126
 41
0.992126
  0
VERTEX
  8
0
 10
3.62819
 20
4.58356
 30
0.0
 40
0.0137795
 41
0.0137795
  0
VERTEX
  8
0
 10
3.62819
 20
4.58882
 30
0.0
 40
0.0137795
 41
0.0137795
  0
VERTEX
  8
0
 10
3.61951
 20
4.60444
 30
0.0
 40
0.0137795
 41
0.0137795
  0
VERTEX
  8
0
 10
3.60389
 20
4.61307
 30
0.0
 40
0.0137795
 41
0.0137795
  0
VERTEX
  8
0
 10
3.59868
 20
4.61307
 30
0.0
 40
0.0137795
 41
0.0137795
  0
VERTEX
  8
0
 10
3.59343
 20
4.61307
 30
0.0
 40
0.0137795
 41
0.0137795
  0
VERTEX
  8
0
 10
3.57781
 20
4.60444
 30
0.0
 40
0.0137795
 41
0.0137795
  0
VERTEX
  8
0
 10
3.56917
 20
4.58882
 30
0.0
 40
0.0137795
 41
0.0137795
  0
VERTEX
  8
0
 10
3.56917
 20
4.58356
 30
0.0
 40
0.0137795
 41
0.0137795
  0
VERTEX
  8
0
 10
3.56917
 20
4.57835
 30
0.0
 40
0.0137795
 41
0.0137795
  0
VERTEX
  8
0
 10
3.57781
 20
4.56272
 30
0.0
 40
0.0137795
 41
0.0137795
  0
VERTEX
  8
0
 10
3.59343
 20
4.55404
 30
0.0
 40
0.0137795
 41
0.0137795
  0
VERTEX
  8
0
 10
3.59868
 20
4.55404
 30
0.0
 40
0.0137795
 41
0.0137795
  0
VERTEX
  8
0
 10
3.60389
 20
4.55404
 30
0.0
 40
0.0137795
 41
0.0137795
  0
VERTEX
  8
0
 10
3.61951
 20
4.56272
 30
0.0
 40
0.0137795
 41
0.0137795
  0
VERTEX
  8
0
 10
3.62819
 20
4.57835
 30
0.0
 40
0.0137795
 41
0.0137795
  0
VERTEX
  8
0
 10
3.62819
 20
4.58356
 30
0.0
 40
0.0137795
 41
0.0137795
  0
SEQEND
 8
0
  0
POLYLINE
  8
0
 62
     254
 66
     1
 10
0
 20
0
 30
0.0
 70
     1
 40
0
 41
0
  0
VERTEX
  8
0
 10
1.93707
 20
3.60715
 30
0.0
 40
0
 41
0
  0
VERTEX
  8
0
 10
1.93707
 20
3.61242
 30
0.0
 40
0
 41
0
  0
VERTEX
  8
0
 10
1.92839
 20
3.6281
 30
0.0
 40
0
 41
0
  0
VERTEX
  8
0
 10
1.91276
 20
3.63672
 30
0.0
 40
0
 41
0
  0
VERTEX
  8
0
 10
1.90756
 20
3.63672
 30
0.0
 40
0
 41
0
  0
VERTEX
  8
0
 10
1.90229
 20
3.63672
 30
0.0
 40
0
 41
0
  0
VERTEX
  8
0
 10
1.88667
 20
3.6281
 30
0.0
 40
0
 41
0
  0
VERTEX
  8
0
 10
1.87804
 20
3.61242
 30
0.0
 40
0
 41
0
  0
VERTEX
  8
0
 10
1.87804
 20
3.60715
 30
0.0
 40
0
 41
0
  0
VERTEX
  8
0
 10
1.87804
 20
3.60194
 30
0.0
 40
0
 41
0
  0
VERTEX
  8
0
 10
1.88667
 20
3.58632
 30
0.0
 40
0
 41
0
  0
VERTEX
  8
0
 10
1.90229
 20
3.57764
 30
0.0
 40
0
 41
0
  0
VERTEX
  8
0
 10
1.90756
 20
3.57764
 30
0.0
 40
0
 41
0
  0
VERTEX
  8
0
 10
1.91276
 20
3.57764
 30
0.0
 40
0
 41
0
  0
VERTEX
  8
0
 10
1.92839
 20
3.58632
 30
0.0
 40
0
 41
0
  0
VERTEX
  8
0
 10
1.93707
 20
3.60194
 30
0.0
 40
0
 41
0
  0
VERTEX
  8
0
 10
1.93707
 20
3.60715
 30
0.0
 40
0
 41
0
  0
SEQEND
 8
0
  0
POLYLINE
  8
0
 62
     0
 66
     1
 10
0
 20
0
 30
0.0
 70
     1
 40
0.992126
 41
0.992126
  0
VERTEX
  8
0
 10
1.93707
 20
3.60715
 30
0.0
 40
0.0137795
 41
0.0137795
  0
VERTEX
  8
0
 10
1.93707
 20
3.61242
 30
0.0
 40
0.0137795
 41
0.0137795
  0
VERTEX
  8
0
 10
1.92839
 20
3.6281
 30
0.0
 40
0.0137795
 41
0.0137795
  0
VERTEX
  8
0
 10
1.91276
 20
3.63672
 30
0.0
 40
0.0137795
 41
0.0137795
  0
VERTEX
  8
0
 10
1.90756
 20
3.63672
 30
0.0
 40
0.0137795
 41
0.0137795
  0
VERTEX
  8
0
 10
1.90229
 20
3.63672
 30
0.0
 40
0.0137795
 41
0.0137795
  0
VERTEX
  8
0
 10
1.88667
 20
3.6281
 30
0.0
 40
0.0137795
 41
0.0137795
  0
VERTEX
  8
0
 10
1.87804
 20
3.61242
 30
0.0
 40
0.0137795
 41
0.0137795
  0
VERTEX
  8
0
 10
1.87804
 20
3.60715
 30
0.0
 40
0.0137795
 41
0.0137795
  0
VERTEX
  8
0
 10
1.87804
 20
3.60194
 30
0.0
 40
0.0137795
 41
0.0137795
  0
VERTEX
  8
0
 10
1.88667
 20
3.58632
 30
0.0
 40
0.0137795
 41
0.0137795
  0
VERTEX
  8
0
 10
1.90229
 20
3.57764
 30
0.0
 40
0.0137795
 41
0.0137795
  0
VERTEX
  8
0
 10
1.90756
 20
3.57764
 30
0.0
 40
0.0137795
 41
0.0137795
  0
VERTEX
  8
0
 10
1.91276
 20
3.57764
 30
0.0
 40
0.0137795
 41
0.0137795
  0
VERTEX
  8
0
 10
1.92839
 20
3.58632
 30
0.0
 40
0.0137795
 41
0.0137795
  0
VERTEX
  8
0
 10
1.93707
 20
3.60194
 30
0.0
 40
0.0137795
 41
0.0137795
  0
VERTEX
  8
0
 10
1.93707
 20
3.60715
 30
0.0
 40
0.0137795
 41
0.0137795
  0
SEQEND
 8
0
  0
POLYLINE
  8
0
 62
     254
 66
     1
 10
0
 20
0
 30
0.0
 70
     1
 40
0
 41
0
  0
VERTEX
  8
0
 10
3.43728
 20
4.91428
 30
0.0
 40
0
 41
0
  0
VERTEX
  8
0
 10
3.43728
 20
4.91954
 30
0.0
 40
0
 41
0
  0
VERTEX
  8
0
 10
3.4286
 20
4.93517
 30
0.0
 40
0
 41
0
  0
VERTEX
  8
0
 10
3.41292
 20
4.94379
 30
0.0
 40
0
 41
0
  0
VERTEX
  8
0
 10
3.40771
 20
4.94379
 30
0.0
 40
0
 41
0
  0
VERTEX
  8
0
 10
3.40246
 20
4.94379
 30
0.0
 40
0
 41
0
  0
VERTEX
  8
0
 10
3.38683
 20
4.93517
 30
0.0
 40
0
 41
0
  0
VERTEX
  8
0
 10
3.37819
 20
4.91954
 30
0.0
 40
0
 41
0
  0
VERTEX
  8
0
 10
3.37819
 20
4.91428
 30
0.0
 40
0
 41
0
  0
VERTEX
  8
0
 10
3.37819
 20
4.90907
 30
0.0
 40
0
 41
0
  0
VERTEX
  8
0
 10
3.38683
 20
4.89344
 30
0.0
 40
0
 41
0
  0
VERTEX
  8
0
 10
3.40246
 20
4.88476
 30
0.0
 40
0
 41
0
  0
VERTEX
  8
0
 10
3.40771
 20
4.88476
 30
0.0
 40
0
 41
0
  0
VERTEX
  8
0
 10
3.41292
 20
4.88476
 30
0.0
 40
0
 41
0
  0
VERTEX
  8
0
 10
3.4286
 20
4.89344
 30
0.0
 40
0
 41
0
  0
VERTEX
  8
0
 10
3.43728
 20
4.90907
 30
0.0
 40
0
 41
0
  0
VERTEX
  8
0
 10
3.43728
 20
4.91428
 30
0.0
 40
0
 41
0
  0
SEQEND
 8
0
  0
POLYLINE
  8
0
 62
     0
 66
     1
 10
0
 20
0
 30
0.0
 70
     1
 40
0.992126
 41
0.992126
  0
VERTEX
  8
0
 10
3.43728
 20
4.91428
 30
0.0
 40
0.0137795
 41
0.0137795
  0
VERTEX
  8
0
 10
3.43728
 20
4.91954
 30
0.0
 40
0.0137795
 41
0.0137795
  0
VERTEX
  8
0
 10
3.4286
 20
4.93517
 30
0.0
 40
0.0137795
 41
0.0137795
  0
VERTEX
  8
0
 10
3.41292
 20
4.94379
 30
0.0
 40
0.0137795
 41
0.0137795
  0
VERTEX
  8
0
 10
3.40771
 20
4.94379
 30
0.0
 40
0.0137795
 41
0.0137795
  0
VERTEX
  8
0
 10
3.40246
 20
4.94379
 30
0.0
 40
0.0137795
 41
0.0137795
  0
VERTEX
  8
0
 10
3.38683
 20
4.93517
 30
0.0
 40
0.0137795
 41
0.0137795
  0
VERTEX
  8
0
 10
3.37819
 20
4.91954
 30
0.0
 40
0.0137795
 41
0.0137795
  0
VERTEX
  8
0
 10
3.37819
 20
4.91428
 30
0.0
 40
0.0137795
 41
0.0137795
  0
VERTEX
  8
0
 10
3.37819
 20
4.90907
 30
0.0
 40
0.0137795
 41
0.0137795
  0
VERTEX
  8
0
 10
3.38683
 20
4.89344
 30
0.0
 40
0.0137795
 41
0.0137795
  0
VERTEX
  8
0
 10
3.40246
 20
4.88476
 30
0.0
 40
0.0137795
 41
0.0137795
  0
VERTEX
  8
0
 10
3.40771
 20
4.88476
 30
0.0
 40
0.0137795
 41
0.0137795
  0
VERTEX
  8
0
 10
3.41292
 20
4.88476
 30
0.0
 40
0.0137795
 41
0.0137795
  0
VERTEX
  8
0
 10
3.4286
 20
4.89344
 30
0.0
 40
0.0137795
 41
0.0137795
  0
VERTEX
  8
0
 10
3.43728
 20
4.90907
 30
0.0
 40
0.0137795
 41
0.0137795
  0
VERTEX
  8
0
 10
3.43728
 20
4.91428
 30
0.0
 40
0.0137795
 41
0.0137795
  0
SEQEND
 8
0
  0
POLYLINE
  8
0
 62
     254
 66
     1
 10
0
 20
0
 30
0.0
 70
     1
 40
0
 41
0
  0
VERTEX
  8
0
 10
1.74615
 20
3.93788
 30
0.0
 40
0
 41
0
  0
VERTEX
  8
0
 10
1.74615
 20
3.94314
 30
0.0
 40
0
 41
0
  0
VERTEX
  8
0
 10
1.73747
 20
3.95876
 30
0.0
 40
0
 41
0
  0
VERTEX
  8
0
 10
1.72179
 20
3.96739
 30
0.0
 40
0
 41
0
  0
VERTEX
  8
0
 10
1.71658
 20
3.96739
 30
0.0
 40
0
 41
0
  0
VERTEX
  8
0
 10
1.71132
 20
3.96739
 30
0.0
 40
0
 41
0
  0
VERTEX
  8
0
 10
1.69569
 20
3.95876
 30
0.0
 40
0
 41
0
  0
VERTEX
  8
0
 10
1.68707
 20
3.94314
 30
0.0
 40
0
 41
0
  0
VERTEX
  8
0
 10
1.68707
 20
3.93788
 30
0.0
 40
0
 41
0
  0
VERTEX
  8
0
 10
1.68707
 20
3.93267
 30
0.0
 40
0
 41
0
  0
VERTEX
  8
0
 10
1.69569
 20
3.91704
 30
0.0
 40
0
 41
0
  0
VERTEX
  8
0
 10
1.71132
 20
3.90836
 30
0.0
 40
0
 41
0
  0
VERTEX
  8
0
 10
1.71658
 20
3.90836
 30
0.0
 40
0
 41
0
  0
VERTEX
  8
0
 10
1.72179
 20
3.90836
 30
0.0
 40
0
 41
0
  0
VERTEX
  8
0
 10
1.73747
 20
3.91704
 30
0.0
 40
0
 41
0
  0
VERTEX
  8
0
 10
1.74615
 20
3.93267
 30
0.0
 40
0
 41
0
  0
VERTEX
  8
0
 10
1.74615
 20
3.93788
 30
0.0
 40
0
 41
0
  0
SEQEND
 8
0
  0
POLYLINE
  8
0
 62
     0
 66
     1
 10
0
 20
0
 30
0.0
 70
     1
 40
0.992126
 41
0.992126
  0
VERTEX
  8
0
 10
1.74615
 20
3.93788
 30
0.0
 40
0.0137795
 41
0.0137795
  0
VERTEX
  8
0
 10
1.74615
 20
3.94314
 30
0.0
 40
0.0137795
 41
0.0137795
  0
VERTEX
  8
0
 10
1.73747
 20
3.95876
 30
0.0
 40
0.0137795
 41
0.0137795
  0
VERTEX
  8
0
 10
1.72179
 20
3.96739
 30
0.0
 40
0.0137795
 41
0.0137795
  0
VERTEX
  8
0
 10
1.71658
 20
3.96739
 30
0.0
 40
0.0137795
 41
0.0137795
  0
VERTEX
  8
0
 10
1.71132
 20
3.96739
 30
0.0
 40
0.0137795
 41
0.0137795
  0
VERTEX
  8
0
 10
1.69569
 20
3.95876
 30
0.0
 40
0.0137795
 41
0.0137795
  0
VERTEX
  8
0
 10
1.68707
 20
3.94314
 30
0.0
 40
0.0137795
 41
0.0137795
  0
VERTEX
  8
0
 10
1.68707
 20
3.93788
 30
0.0
 40
0.0137795
 41
0.0137795
  0
VERTEX
  8
0
 10
1.68707
 20
3.93267
 30
0.0
 40
0.0137795
 41
0.0137795
  0
VERTEX
  8
0
 10
1.69569
 20
3.91704
 30
0.0
 40
0.0137795
 41
0.0137795
  0
VERTEX
  8
0
 10
1.71132
 20
3.90836
 30
0.0
 40
0.0137795
 41
0.0137795
  0
VERTEX
  8
0
 10
1.71658
 20
3.90836
 30
0.0
 40
0.0137795
 41
0.0137795
  0
VERTEX
  8
0
 10
1.72179
 20
3.90836
 30
0.0
 40
0.0137795
 41
0.0137795
  0
VERTEX
  8
0
 10
1.73747
 20
3.91704
 30
0.0
 40
0.0137795
 41
0.0137795
  0
VERTEX
  8
0
 10
1.74615
 20
3.93267
 30
0.0
 40
0.0137795
 41
0.0137795
  0
VERTEX
  8
0
 10
1.74615
 20
3.93788
 30
0.0
 40
0.0137795
 41
0.0137795
  0
SEQEND
 8
0
  0
POLYLINE
  8
0
 62
     254
 66
     1
 10
0
 20
0
 30
0.0
 70
     1
 40
0
 41
0
  0
VERTEX
  8
0
 10
9.47217
 20
4.91428
 30
0.0
 40
0
 41
0
  0
VERTEX
  8
0
 10
9.47217
 20
4.91954
 30
0.0
 40
0
 41
0
  0
VERTEX
  8
0
 10
9.46349
 20
4.93517
 30
0.0
 40
0
 41
0
  0
VERTEX
  8
0
 10
9.44786
 20
4.94379
 30
0.0
 40
0
 41
0
  0
VERTEX
  8
0
 10
9.44265
 20
4.94379
 30
0.0
 40
0
 41
0
  0
VERTEX
  8
0
 10
9.43739
 20
4.94379
 30
0.0
 40
0
 41
0
  0
VERTEX
  8
0
 10
9.42176
 20
4.93517
 30
0.0
 40
0
 41
0
  0
VERTEX
  8
0
 10
9.41314
 20
4.91954
 30
0.0
 40
0
 41
0
  0
VERTEX
  8
0
 10
9.41314
 20
4.91428
 30
0.0
 40
0
 41
0
  0
VERTEX
  8
0
 10
9.41314
 20
4.90907
 30
0.0
 40
0
 41
0
  0
VERTEX
  8
0
 10
9.42176
 20
4.89344
 30
0.0
 40
0
 41
0
  0
VERTEX
  8
0
 10
9.43739
 20
4.88476
 30
0.0
 40
0
 41
0
  0
VERTEX
  8
0
 10
9.44265
 20
4.88476
 30
0.0
 40
0
 41
0
  0
VERTEX
  8
0
 10
9.44786
 20
4.88476
 30
0.0
 40
0
 41
0
  0
VERTEX
  8
0
 10
9.46349
 20
4.89344
 30
0.0
 40
0
 41
0
  0
VERTEX
  8
0
 10
9.47217
 20
4.90907
 30
0.0
 40
0
 41
0
  0
VERTEX
  8
0
 10
9.47217
 20
4.91428
 30
0.0
 40
0
 41
0
  0
SEQEND
 8
0
  0
POLYLINE
  8
0
 62
     0
 66
     1
 10
0
 20
0
 30
0.0
 70
     1
 40
0.992126
 41
0.992126
  0
VERTEX
  8
0
 10
9.47217
 20
4.91428
 30
0.0
 40
0.0137795
 41
0.0137795
  0
VERTEX
  8
0
 10
9.47217
 20
4.91954
 30
0.0
 40
0.0137795
 41
0.0137795
  0
VERTEX
  8
0
 10
9.46349
 20
4.93517
 30
0.0
 40
0.0137795
 41
0.0137795
  0
VERTEX
  8
0
 10
9.44786
 20
4.94379
 30
0.0
 40
0.0137795
 41
0.0137795
  0
VERTEX
  8
0
 10
9.44265
 20
4.94379
 30
0.0
 40
0.0137795
 41
0.0137795
  0
VERTEX
  8
0
 10
9.43739
 20
4.94379
 30
0.0
 40
0.0137795
 41
0.0137795
  0
VERTEX
  8
0
 10
9.42176
 20
4.93517
 30
0.0
 40
0.0137795
 41
0.0137795
  0
VERTEX
  8
0
 10
9.41314
 20
4.91954
 30
0.0
 40
0.0137795
 41
0.0137795
  0
VERTEX
  8
0
 10
9.41314
 20
4.91428
 30
0.0
 40
0.0137795
 41
0.0137795
  0
VERTEX
  8
0
 10
9.41314
 20
4.90907
 30
0.0
 40
0.0137795
 41
0.0137795
  0
VERTEX
  8
0
 10
9.42176
 20
4.89344
 30
0.0
 40
0.0137795
 41
0.0137795
  0
VERTEX
  8
0
 10
9.43739
 20
4.88476
 30
0.0
 40
0.0137795
 41
0.0137795
  0
VERTEX
  8
0
 10
9.44265
 20
4.88476
 30
0.0
 40
0.0137795
 41
0.0137795
  0
VERTEX
  8
0
 10
9.44786
 20
4.88476
 30
0.0
 40
0.0137795
 41
0.0137795
  0
VERTEX
  8
0
 10
9.46349
 20
4.89344
 30
0.0
 40
0.0137795
 41
0.0137795
  0
VERTEX
  8
0
 10
9.47217
 20
4.90907
 30
0.0
 40
0.0137795
 41
0.0137795
  0
VERTEX
  8
0
 10
9.47217
 20
4.91428
 30
0.0
 40
0.0137795
 41
0.0137795
  0
SEQEND
 8
0
  0
POLYLINE
  8
0
 62
     254
 66
     1
 10
0
 20
0
 30
0.0
 70
     1
 40
0
 41
0
  0
VERTEX
  8
0
 10
11.1633
 20
3.93788
 30
0.0
 40
0
 41
0
  0
VERTEX
  8
0
 10
11.1633
 20
3.94314
 30
0.0
 40
0
 41
0
  0
VERTEX
  8
0
 10
11.1546
 20
3.95876
 30
0.0
 40
0
 41
0
  0
VERTEX
  8
0
 10
11.139
 20
3.96739
 30
0.0
 40
0
 41
0
  0
VERTEX
  8
0
 10
11.1338
 20
3.96739
 30
0.0
 40
0
 41
0
  0
VERTEX
  8
0
 10
11.1285
 20
3.96739
 30
0.0
 40
0
 41
0
  0
VERTEX
  8
0
 10
11.1129
 20
3.95876
 30
0.0
 40
0
 41
0
  0
VERTEX
  8
0
 10
11.1043
 20
3.94314
 30
0.0
 40
0
 41
0
  0
VERTEX
  8
0
 10
11.1043
 20
3.93788
 30
0.0
 40
0
 41
0
  0
VERTEX
  8
0
 10
11.1043
 20
3.93267
 30
0.0
 40
0
 41
0
  0
VERTEX
  8
0
 10
11.1129
 20
3.91704
 30
0.0
 40
0
 41
0
  0
VERTEX
  8
0
 10
11.1285
 20
3.90836
 30
0.0
 40
0
 41
0
  0
VERTEX
  8
0
 10
11.1338
 20
3.90836
 30
0.0
 40
0
 41
0
  0
VERTEX
  8
0
 10
11.139
 20
3.90836
 30
0.0
 40
0
 41
0
  0
VERTEX
  8
0
 10
11.1546
 20
3.91704
 30
0.0
 40
0
 41
0
  0
VERTEX
  8
0
 10
11.1633
 20
3.93267
 30
0.0
 40
0
 41
0
  0
VERTEX
  8
0
 10
11.1633
 20
3.93788
 30
0.0
 40
0
 41
0
  0
SEQEND
 8
0
  0
POLYLINE
  8
0
 62
     0
 66
     1
 10
0
 20
0
 30
0.0
 70
     1
 40
0.992126
 41
0.992126
  0
VERTEX
  8
0
 10
11.1633
 20
3.93788
 30
0.0
 40
0.0137795
 41
0.0137795
  0
VERTEX
  8
0
 10
11.1633
 20
3.94314
 30
0.0
 40
0.0137795
 41
0.0137795
  0
VERTEX
  8
0
 10
11.1546
 20
3.95876
 30
0.0
 40
0.0137795
 41
0.0137795
  0
VERTEX
  8
0
 10
11.139
 20
3.96739
 30
0.0
 40
0.0137795
 41
0.0137795
  0
VERTEX
  8
0
 10
11.1338
 20
3.96739
 30
0.0
 40
0.0137795
 41
0.0137795
  0
VERTEX
  8
0
 10
11.1285
 20
3.96739
 30
0.0
 40
0.0137795
 41
0.0137795
  0
VERTEX
  8
0
 10
11.1129
 20
3.95876
 30
0.0
 40
0.0137795
 41
0.0137795
  0
VERTEX
  8
0
 10
11.1043
 20
3.94314
 30
0.0
 40
0.0137795
 41
0.0137795
  0
VERTEX
  8
0
 10
11.1043
 20
3.93788
 30
0.0
 40
0.0137795
 41
0.0137795
  0
VERTEX
  8
0
 10
11.1043
 20
3.93267
 30
0.0
 40
0.0137795
 41
0.0137795
  0
VERTEX
  8
0
 10
11.1129
 20
3.91704
 30
0.0
 40
0.0137795
 41
0.0137795
  0
VERTEX
  8
0
 10
11.1285
 20
3.90836
 30
0.0
 40
0.0137795
 41
0.0137795
  0
VERTEX
  8
0
 10
11.1338
 20
3.90836
 30
0.0
 40
0.0137795
 41
0.0137795
  0
VERTEX
  8
0
 10
11.139
 20
3.90836
 30
0.0
 40
0.0137795
 41
0.0137795
  0
VERTEX
  8
0
 10
11.1546
 20
3.91704
 30
0.0
 40
0.0137795
 41
0.0137795
  0
VERTEX
  8
0
 10
11.1633
 20
3.93267
 30
0.0
 40
0.0137795
 41
0.0137795
  0
VERTEX
  8
0
 10
11.1633
 20
3.93788
 30
0.0
 40
0.0137795
 41
0.0137795
  0
SEQEND
 8
0
  0
POLYLINE
  8
0
 62
     254
 66
     1
 10
0
 20
0
 30
0.0
 70
     1
 40
0
 41
0
  0
VERTEX
  8
0
 10
9.28125
 20
4.58356
 30
0.0
 40
0
 41
0
  0
VERTEX
  8
0
 10
9.28125
 20
4.58882
 30
0.0
 40
0
 41
0
  0
VERTEX
  8
0
 10
9.27257
 20
4.60444
 30
0.0
 40
0
 41
0
  0
VERTEX
  8
0
 10
9.25689
 20
4.61307
 30
0.0
 40
0
 41
0
  0
VERTEX
  8
0
 10
9.25168
 20
4.61307
 30
0.0
 40
0
 41
0
  0
VERTEX
  8
0
 10
9.24642
 20
4.61307
 30
0.0
 40
0
 41
0
  0
VERTEX
  8
0
 10
9.23079
 20
4.60444
 30
0.0
 40
0
 41
0
  0
VERTEX
  8
0
 10
9.22217
 20
4.58882
 30
0.0
 40
0
 41
0
  0
VERTEX
  8
0
 10
9.22217
 20
4.58356
 30
0.0
 40
0
 41
0
  0
VERTEX
  8
0
 10
9.22217
 20
4.57835
 30
0.0
 40
0
 41
0
  0
VERTEX
  8
0
 10
9.23079
 20
4.56272
 30
0.0
 40
0
 41
0
  0
VERTEX
  8
0
 10
9.24642
 20
4.55404
 30
0.0
 40
0
 41
0
  0
VERTEX
  8
0
 10
9.25168
 20
4.55404
 30
0.0
 40
0
 41
0
  0
VERTEX
  8
0
 10
9.25689
 20
4.55404
 30
0.0
 40
0
 41
0
  0
VERTEX
  8
0
 10
9.27257
 20
4.56272
 30
0.0
 40
0
 41
0
  0
VERTEX
  8
0
 10
9.28125
 20
4.57835
 30
0.0
 40
0
 41
0
  0
VERTEX
  8
0
 10
9.28125
 20
4.58356
 30
0.0
 40
0
 41
0
  0
SEQEND
 8
0
  0
POLYLINE
  8
0
 62
     0
 66
     1
 10
0
 20
0
 30
0.0
 70
     1
 40
0.992126
 41
0.992126
  0
VERTEX
  8
0
 10
9.28125
 20
4.58356
 30
0.0
 40
0.0137795
 41
0.0137795
  0
VERTEX
  8
0
 10
9.28125
 20
4.58882
 30
0.0
 40
0.0137795
 41
0.0137795
  0
VERTEX
  8
0
 10
9.27257
 20
4.60444
 30
0.0
 40
0.0137795
 41
0.0137795
  0
VERTEX
  8
0
 10
9.25689
 20
4.61307
 30
0.0
 40
0.0137795
 41
0.0137795
  0
VERTEX
  8
0
 10
9.25168
 20
4.61307
 30
0.0
 40
0.0137795
 41
0.0137795
  0
VERTEX
  8
0
 10
9.24642
 20
4.61307
 30
0.0
 40
0.0137795
 41
0.0137795
  0
VERTEX
  8
0
 10
9.23079
 20
4.60444
 30
0.0
 40
0.0137795
 41
0.0137795
  0
VERTEX
  8
0
 10
9.22217
 20
4.58882
 30
0.0
 40
0.0137795
 41
0.0137795
  0
VERTEX
  8
0
 10
9.22217
 20
4.58356
 30
0.0
 40
0.0137795
 41
0.0137795
  0
VERTEX
  8
0
 10
9.22217
 20
4.57835
 30
0.0
 40
0.0137795
 41
0.0137795
  0
VERTEX
  8
0
 10
9.23079
 20
4.56272
 30
0.0
 40
0.0137795
 41
0.0137795
  0
VERTEX
  8
0
 10
9.24642
 20
4.55404
 30
0.0
 40
0.0137795
 41
0.0137795
  0
VERTEX
  8
0
 10
9.25168
 20
4.55404
 30
0.0
 40
0.0137795
 41
0.0137795
  0
VERTEX
  8
0
 10
9.25689
 20
4.55404
 30
0.0
 40
0.0137795
 41
0.0137795
  0
VERTEX
  8
0
 10
9.27257
 20
4.56272
 30
0.0
 40
0.0137795
 41
0.0137795
  0
VERTEX
  8
0
 10
9.28125
 20
4.57835
 30
0.0
 40
0.0137795
 41
0.0137795
  0
VERTEX
  8
0
 10
9.28125
 20
4.58356
 30
0.0
 40
0.0137795
 41
0.0137795
  0
SEQEND
 8
0
  0
POLYLINE
  8
0
 62
     254
 66
     1
 10
0
 20
0
 30
0.0
 70
     1
 40
0
 41
0
  0
VERTEX
  8
0
 10
10.9724
 20
3.60715
 30
0.0
 40
0
 41
0
  0
VERTEX
  8
0
 10
10.9724
 20
3.61242
 30
0.0
 40
0
 41
0
  0
VERTEX
  8
0
 10
10.9637
 20
3.6281
 30
0.0
 40
0
 41
0
  0
VERTEX
  8
0
 10
10.9481
 20
3.63672
 30
0.0
 40
0
 41
0
  0
VERTEX
  8
0
 10
10.9429
 20
3.63672
 30
0.0
 40
0
 41
0
  0
VERTEX
  8
0
 10
10.9376
 20
3.63672
 30
0.0
 40
0
 41
0
  0
VERTEX
  8
0
 10
10.9219
 20
3.6281
 30
0.0
 40
0
 41
0
  0
VERTEX
  8
0
 10
10.9133
 20
3.61242
 30
0.0
 40
0
 41
0
  0
VERTEX
  8
0
 10
10.9133
 20
3.60715
 30
0.0
 40
0
 41
0
  0
VERTEX
  8
0
 10
10.9133
 20
3.60194
 30
0.0
 40
0
 41
0
  0
VERTEX
  8
0
 10
10.9219
 20
3.58632
 30
0.0
 40
0
 41
0
  0
VERTEX
  8
0
 10
10.9376
 20
3.57764
 30
0.0
 40
0
 41
0
  0
VERTEX
  8
0
 10
10.9429
 20
3.57764
 30
0.0
 40
0
 41
0
  0
VERTEX
  8
0
 10
10.9481
 20
3.57764
 30
0.0
 40
0
 41
0
  0
VERTEX
  8
0
 10
10.9637
 20
3.58632
 30
0.0
 40
0
 41
0
  0
VERTEX
  8
0
 10
10.9724
 20
3.60194
 30
0.0
 40
0
 41
0
  0
VERTEX
  8
0
 10
10.9724
 20
3.60715
 30
0.0
 40
0
 41
0
  0
SEQEND
 8
0
  0
POLYLINE
  8
0
 62
     0
 66
     1
 10
0
 20
0
 30
0.0
 70
     1
 40
0.992126
 41
0.992126
  0
VERTEX
  8
0
 10
10.9724
 20
3.60715
 30
0.0
 40
0.0137795
 41
0.0137795
  0
VERTEX
  8
0
 10
10.9724
 20
3.61242
 30
0.0
 40
0.0137795
 41
0.0137795
  0
VERTEX
  8
0
 10
10.9637
 20
3.6281
 30
0.0
 40
0.0137795
 41
0.0137795
  0
VERTEX
  8
0
 10
10.9481
 20
3.63672
 30
0.0
 40
0.0137795
 41
0.0137795
  0
VERTEX
  8
0
 10
10.9429
 20
3.63672
 30
0.0
 40
0.0137795
 41
0.0137795
  0
VERTEX
  8
0
 10
10.9376
 20
3.63672
 30
0.0
 40
0.0137795
 41
0.0137795
  0
VERTEX
  8
0
 10
10.9219
 20
3.6281
 30
0.0
 40
0.0137795
 41
0.0137795
  0
VERTEX
  8
0
 10
10.9133
 20
3.61242
 30
0.0
 40
0.0137795
 41
0.0137795
  0
VERTEX
  8
0
 10
10.9133
 20
3.60715
 30
0.0
 40
0.0137795
 41
0.0137795
  0
VERTEX
  8
0
 10
10.9133
 20
3.60194
 30
0.0
 40
0.0137795
 41
0.0137795
  0
VERTEX
  8
0
 10
10.9219
 20
3.58632
 30
0.0
 40
0.0137795
 41
0.0137795
  0
VERTEX
  8
0
 10
10.9376
 20
3.57764
 30
0.0
 40
0.0137795
 41
0.0137795
  0
VERTEX
  8
0
 10
10.9429
 20
3.57764
 30
0.0
 40
0.0137795
 41
0.0137795
  0
VERTEX
  8
0
 10
10.9481
 20
3.57764
 30
0.0
 40
0.0137795
 41
0.0137795
  0
VERTEX
  8
0
 10
10.9637
 20
3.58632
 30
0.0
 40
0.0137795
 41
0.0137795
  0
VERTEX
  8
0
 10
10.9724
 20
3.60194
 30
0.0
 40
0.0137795
 41
0.0137795
  0
VERTEX
  8
0
 10
10.9724
 20
3.60715
 30
0.0
 40
0.0137795
 41
0.0137795
  0
SEQEND
 8
0
  0
POLYLINE
  8
0
 62
     254
 66
     1
 10
0
 20
0
 30
0.0
 70
     1
 40
0
 41
0
  0
VERTEX
  8
0
 10
6.03153
 20
11.5934
 30
0.0
 40
0
 41
0
  0
VERTEX
  8
0
 10
6.8189
 20
11.5934
 30
0.0
 40
0
 41
0
  0
VERTEX
  8
0
 10
6.8189
 20
9.97922
 30
0.0
 40
0
 41
0
  0
VERTEX
  8
0
 10
6.03153
 20
9.97922
 30
0.0
 40
0
 41
0
  0
VERTEX
  8
0
 10
6.03153
 20
11.5934
 30
0.0
 40
0
 41
0
  0
SEQEND
 8
0
  0
POLYLINE
  8
0
 62
     0
 66
     1
 10
0
 20
0
 30
0.0
 70
     1
 40
0.992126
 41
0.992126
  0
VERTEX
  8
0
 10
6.03153
 20
11.5934
 30
0.0
 40
0.0137795
 41
0.0137795
  0
VERTEX
  8
0
 10
6.8189
 20
11.5934
 30
0.0
 40
0.0137795
 41
0.0137795
  0
VERTEX
  8
0
 10
6.8189
 20
9.97922
 30
0.0
 40
0.0137795
 41
0.0137795
  0
VERTEX
  8
0
 10
6.03153
 20
9.97922
 30
0.0
 40
0.0137795
 41
0.0137795
  0
VERTEX
  8
0
 10
6.03153
 20
11.5934
 30
0.0
 40
0.0137795
 41
0.0137795
  0
SEQEND
 8
0
  0
POLYLINE
  8
0
 62
     254
 66
     1
 10
0
 20
0
 30
0.0
 70
     1
 40
0
 41
0
  0
VERTEX
  8
0
 10
3.15978
 20
5.00521
 30
0.0
 40
0
 41
0
  0
VERTEX
  8
0
 10
1.76183
 20
4.19814
 30
0.0
 40
0
 41
0
  0
VERTEX
  8
0
 10
2.15554
 20
3.51622
 30
0.0
 40
0
 41
0
  0
VERTEX
  8
0
 10
3.55344
 20
4.32329
 30
0.0
 40
0
 41
0
  0
VERTEX
  8
0
 10
3.15978
 20
5.00521
 30
0.0
 40
0
 41
0
  0
SEQEND
 8
0
  0
POLYLINE
  8
0
 62
     0
 66
     1
 10
0
 20
0
 30
0.0
 70
     1
 40
0.992126
 41
0.992126
  0
VERTEX
  8
0
 10
3.15978
 20
5.00521
 30
0.0
 40
0.0137795
 41
0.0137795
  0
VERTEX
  8
0
 10
1.76183
 20
4.19814
 30
0.0
 40
0.0137795
 41
0.0137795
  0
VERTEX
  8
0
 10
2.15554
 20
3.51622
 30
0.0
 40
0.0137795
 41
0.0137795
  0
VERTEX
  8
0
 10
3.55344
 20
4.32329
 30
0.0
 40
0.0137795
 41
0.0137795
  0
VERTEX
  8
0
 10
3.15978
 20
5.00521
 30
0.0
 40
0.0137795
 41
0.0137795
  0
SEQEND
 8
0
  0
POLYLINE
  8
0
 62
     254
 66
     1
 10
0
 20
0
 30
0.0
 70
     1
 40
0
 41
0
  0
VERTEX
  8
0
 10
9.29693
 20
4.32329
 30
0.0
 40
0
 41
0
  0
VERTEX
  8
0
 10
10.6949
 20
3.51622
 30
0.0
 40
0
 41
0
  0
VERTEX
  8
0
 10
11.0885
 20
4.19814
 30
0.0
 40
0
 41
0
  0
VERTEX
  8
0
 10
9.69065
 20
5.00521
 30
0.0
 40
0
 41
0
  0
VERTEX
  8
0
 10
9.29693
 20
4.32329
 30
0.0
 40
0
 41
0
  0
SEQEND
 8
0
  0
POLYLINE
  8
0
 62
     0
 66
     1
 10
0
 20
0
 30
0.0
 70
     1
 40
0.992126
 41
0.992126
  0
VERTEX
  8
0
 10
9.29693
 20
4.32329
 30
0.0
 40
0.0137795
 41
0.0137795
  0
VERTEX
  8
0
 10
10.6949
 20
3.51622
 30
0.0
 40
0.0137795
 41
0.0137795
  0
VERTEX
  8
0
 10
11.0885
 20
4.19814
 30
0.0
 40
0.0137795
 41
0.0137795
  0
VERTEX
  8
0
 10
9.69065
 20
5.00521
 30
0.0
 40
0.0137795
 41
0.0137795
  0
VERTEX
  8
0
 10
9.29693
 20
4.32329
 30
0.0
 40
0.0137795
 41
0.0137795
  0
SEQEND
 8
0
  0
POLYLINE
  8
0
 62
     254
 66
     1
 10
0
 20
0
 30
0.0
 70
     1
 40
0
 41
0
  0
VERTEX
  8
0
 10
1.3896
 20
9.38867
 30
0.0
 40
0
 41
0
  0
VERTEX
  8
0
 10
1.3896
 20
9.39638
 30
0.0
 40
0
 41
0
  0
VERTEX
  8
0
 10
1.38341
 20
9.41938
 30
0.0
 40
0
 41
0
  0
VERTEX
  8
0
 10
1.36654
 20
9.44439
 30
0.0
 40
0
 41
0
  0
VERTEX
  8
0
 10
1.34152
 20
9.46126
 30
0.0
 40
0
 41
0
  0
VERTEX
  8
0
 10
1.31852
 20
9.46739
 30
0.0
 40
0
 41
0
  0
VERTEX
  8
0
 10
1.31087
 20
9.46739
 30
0.0
 40
0
 41
0
  0
VERTEX
  8
0
 10
1.30317
 20
9.46739
 30
0.0
 40
0
 41
0
  0
VERTEX
  8
0
 10
1.28017
 20
9.46126
 30
0.0
 40
0
 41
0
  0
VERTEX
  8
0
 10
1.25515
 20
9.44439
 30
0.0
 40
0
 41
0
  0
VERTEX
  8
0
 10
1.23828
 20
9.41938
 30
0.0
 40
0
 41
0
  0
VERTEX
  8
0
 10
1.23215
 20
9.39638
 30
0.0
 40
0
 41
0
  0
VERTEX
  8
0
 10
1.23215
 20
9.38867
 30
0.0
 40
0
 41
0
  0
VERTEX
  8
0
 10
1.23215
 20
9.38103
 30
0.0
 40
0
 41
0
  0
VERTEX
  8
0
 10
1.23828
 20
9.35801
 30
0.0
 40
0
 41
0
  0
VERTEX
  8
0
 10
1.25515
 20
9.33301
 30
0.0
 40
0
 41
0
  0
VERTEX
  8
0
 10
1.28017
 20
9.31614
 30
0.0
 40
0
 41
0
  0
VERTEX
  8
0
 10
1.30317
 20
9.30994
 30
0.0
 40
0
 41
0
  0
VERTEX
  8
0
 10
1.31087
 20
9.30994
 30
0.0
 40
0
 41
0
  0
VERTEX
  8
0
 10
1.31852
 20
9.30994
 30
0.0
 40
0
 41
0
  0
VERTEX
  8
0
 10
1.34152
 20
9.31614
 30
0.0
 40
0
 41
0
  0
VERTEX
  8
0
 10
1.36654
 20
9.33301
 30
0.0
 40
0
 41
0
  0
VERTEX
  8
0
 10
1.38341
 20
9.35801
 30
0.0
 40
0
 41
0
  0
VERTEX
  8
0
 10
1.3896
 20
9.38103
 30
0.0
 40
0
 41
0
  0
VERTEX
  8
0
 10
1.3896
 20
9.38867
 30
0.0
 40
0
 41
0
  0
SEQEND
 8
0
  0
POLYLINE
  8
0
 62
     0
 66
     1
 10
0
 20
0
 30
0.0
 70
     1
 40
0.992126
 41
0.992126
  0
VERTEX
  8
0
 10
1.3896
 20
9.38867
 30
0.0
 40
0.0137795
 41
0.0137795
  0
VERTEX
  8
0
 10
1.3896
 20
9.39638
 30
0.0
 40
0.0137795
 41
0.0137795
  0
VERTEX
  8
0
 10
1.38341
 20
9.41938
 30
0.0
 40
0.0137795
 41
0.0137795
  0
VERTEX
  8
0
 10
1.36654
 20
9.44439
 30
0.0
 40
0.0137795
 41
0.0137795
  0
VERTEX
  8
0
 10
1.34152
 20
9.46126
 30
0.0
 40
0.0137795
 41
0.0137795
  0
VERTEX
  8
0
 10
1.31852
 20
9.46739
 30
0.0
 40
0.0137795
 41
0.0137795
  0
VERTEX
  8
0
 10
1.31087
 20
9.46739
 30
0.0
 40
0.0137795
 41
0.0137795
  0
VERTEX
  8
0
 10
1.30317
 20
9.46739
 30
0.0
 40
0.0137795
 41
0.0137795
  0
VERTEX
  8
0
 10
1.28017
 20
9.46126
 30
0.0
 40
0.0137795
 41
0.0137795
  0
VERTEX
  8
0
 10
1.25515
 20
9.44439
 30
0.0
 40
0.0137795
 41
0.0137795
  0
VERTEX
  8
0
 10
1.23828
 20
9.41938
 30
0.0
 40
0.0137795
 41
0.0137795
  0
VERTEX
  8
0
 10
1.23215
 20
9.39638
 30
0.0
 40
0.0137795
 41
0.0137795
  0
VERTEX
  8
0
 10
1.23215
 20
9.38867
 30
0.0
 40
0.0137795
 41
0.0137795
  0
VERTEX
  8
0
 10
1.23215
 20
9.38103
 30
0.0
 40
0.0137795
 41
0.0137795
  0
VERTEX
  8
0
 10
1.23828
 20
9.35801
 30
0.0
 40
0.0137795
 41
0.0137795
  0
VERTEX
  8
0
 10
1.25515
 20
9.33301
 30
0.0
 40
0.0137795
 41
0.0137795
  0
VERTEX
  8
0
 10
1.28017
 20
9.31614
 30
0.0
 40
0.0137795
 41
0.0137795
  0
VERTEX
  8
0
 10
1.30317
 20
9.30994
 30
0.0
 40
0.0137795
 41
0.0137795
  0
VERTEX
  8
0
 10
1.31087
 20
9.30994
 30
0.0
 40
0.0137795
 41
0.0137795
  0
VERTEX
  8
0
 10
1.31852
 20
9.30994
 30
0.0
 40
0.0137795
 41
0.0137795
  0
VERTEX
  8
0
 10
1.34152
 20
9.31614
 30
0.0
 40
0.0137795
 41
0.0137795
  0
VERTEX
  8
0
 10
1.36654
 20
9.33301
 30
0.0
 40
0.0137795
 41
0.0137795
  0
VERTEX
  8
0
 10
1.38341
 20
9.35801
 30
0.0
 40
0.0137795
 41
0.0137795
  0
VERTEX
  8
0
 10
1.3896
 20
9.38103
 30
0.0
 40
0.0137795
 41
0.0137795
  0
VERTEX
  8
0
 10
1.3896
 20
9.38867
 30
0.0
 40
0.0137795
 41
0.0137795
  0
SEQEND
 8
0
  0
POLYLINE
  8
0
 62
     254
 66
     1
 10
0
 20
0
 30
0.0
 70
     1
 40
0
 41
0
  0
VERTEX
  8
0
 10
6.50396
 20
0.530382
 30
0.0
 40
0
 41
0
  0
VERTEX
  8
0
 10
6.50396
 20
0.538086
 30
0.0
 40
0
 41
0
  0
VERTEX
  8
0
 10
6.49772
 20
0.561089
 30
0.0
 40
0
 41
0
  0
VERTEX
  8
0
 10
6.48085
 20
0.5861
 30
0.0
 40
0
 41
0
  0
VERTEX
  8
0
 10
6.45583
 20
0.602974
 30
0.0
 40
0
 41
0
  0
VERTEX
  8
0
 10
6.43283
 20
0.609158
 30
0.0
 40
0
 41
0
  0
VERTEX
  8
0
 10
6.42518
 20
0.609158
 30
0.0
 40
0
 41
0
  0
VERTEX
  8
0
 10
6.41749
 20
0.609158
 30
0.0
 40
0
 41
0
  0
VERTEX
  8
0
 10
6.39453
 20
0.602974
 30
0.0
 40
0
 41
0
  0
VERTEX
  8
0
 10
6.36951
 20
0.5861
 30
0.0
 40
0
 41
0
  0
VERTEX
  8
0
 10
6.35265
 20
0.561089
 30
0.0
 40
0
 41
0
  0
VERTEX
  8
0
 10
6.34646
 20
0.538086
 30
0.0
 40
0
 41
0
  0
VERTEX
  8
0
 10
6.34646
 20
0.530382
 30
0.0
 40
0
 41
0
  0
VERTEX
  8
0
 10
6.34646
 20
0.522732
 30
0.0
 40
0
 41
0
  0
VERTEX
  8
0
 10
6.35265
 20
0.499783
 30
0.0
 40
0
 41
0
  0
VERTEX
  8
0
 10
6.36951
 20
0.474772
 30
0.0
 40
0
 41
0
  0
VERTEX
  8
0
 10
6.39453
 20
0.4579
 30
0.0
 40
0
 41
0
  0
VERTEX
  8
0
 10
6.41749
 20
0.45166
 30
0.0
 40
0
 41
0
  0
VERTEX
  8
0
 10
6.42518
 20
0.45166
 30
0.0
 40
0
 41
0
  0
VERTEX
  8
0
 10
6.43283
 20
0.45166
 30
0.0
 40
0
 41
0
  0
VERTEX
  8
0
 10
6.45583
 20
0.4579
 30
0.0
 40
0
 41
0
  0
VERTEX
  8
0
 10
6.48085
 20
0.474772
 30
0.0
 40
0
 41
0
  0
VERTEX
  8
0
 10
6.49772
 20
0.499783
 30
0.0
 40
0
 41
0
  0
VERTEX
  8
0
 10
6.50396
 20
0.522732
 30
0.0
 40
0
 41
0
  0
VERTEX
  8
0
 10
6.50396
 20
0.530382
 30
0.0
 40
0
 41
0
  0
SEQEND
 8
0
  0
POLYLINE
  8
0
 62
     0
 66
     1
 10
0
 20
0
 30
0.0
 70
     1
 40
0.992126
 41
0.992126
  0
VERTEX
  8
0
 10
6.50396
 20
0.530382
 30
0.0
 40
0.0137795
 41
0.0137795
  0
VERTEX
  8
0
 10
6.50396
 20
0.538086
 30
0.0
 40
0.0137795
 41
0.0137795
  0
VERTEX
  8
0
 10
6.49772
 20
0.561089
 30
0.0
 40
0.0137795
 41
0.0137795
  0
VERTEX
  8
0
 10
6.48085
 20
0.5861
 30
0.0
 40
0.0137795
 41
0.0137795
  0
VERTEX
  8
0
 10
6.45583
 20
0.602974
 30
0.0
 40
0.0137795
 41
0.0137795
  0
VERTEX
  8
0
 10
6.43283
 20
0.609158
 30
0.0
 40
0.0137795
 41
0.0137795
  0
VERTEX
  8
0
 10
6.42518
 20
0.609158
 30
0.0
 40
0.0137795
 41
0.0137795
  0
VERTEX
  8
0
 10
6.41749
 20
0.609158
 30
0.0
 40
0.0137795
 41
0.0137795
  0
VERTEX
  8
0
 10
6.39453
 20
0.602974
 30
0.0
 40
0.0137795
 41
0.0137795
  0
VERTEX
  8
0
 10
6.36951
 20
0.5861
 30
0.0
 40
0.0137795
 41
0.0137795
  0
VERTEX
  8
0
 10
6.35265
 20
0.561089
 30
0.0
 40
0.0137795
 41
0.0137795
  0
VERTEX
  8
0
 10
6.34646
 20
0.538086
 30
0.0
 40
0.0137795
 41
0.0137795
  0
VERTEX
  8
0
 10
6.34646
 20
0.530382
 30
0.0
 40
0.0137795
 41
0.0137795
  0
VERTEX
  8
0
 10
6.34646
 20
0.522732
 30
0.0
 40
0.0137795
 41
0.0137795
  0
VERTEX
  8
0
 10
6.35265
 20
0.499783
 30
0.0
 40
0.0137795
 41
0.0137795
  0
VERTEX
  8
0
 10
6.36951
 20
0.474772
 30
0.0
 40
0.0137795
 41
0.0137795
  0
VERTEX
  8
0
 10
6.39453
 20
0.4579
 30
0.0
 40
0.0137795
 41
0.0137795
  0
VERTEX
  8
0
 10
6.41749
 20
0.45166
 30
0.0
 40
0.0137795
 41
0.0137795
  0
VERTEX
  8
0
 10
6.42518
 20
0.45166
 30
0.0
 40
0.0137795
 41
0.0137795
  0
VERTEX
  8
0
 10
6.43283
 20
0.45166
 30
0.0
 40
0.0137795
 41
0.0137795
  0
VERTEX
  8
0
 10
6.45583
 20
0.4579
 30
0.0
 40
0.0137795
 41
0.0137795
  0
VERTEX
  8
0
 10
6.48085
 20
0.474772
 30
0.0
 40
0.0137795
 41
0.0137795
  0
VERTEX
  8
0
 10
6.49772
 20
0.499783
 30
0.0
 40
0.0137795
 41
0.0137795
  0
VERTEX
  8
0
 10
6.50396
 20
0.522732
 30
0.0
 40
0.0137795
 41
0.0137795
  0
VERTEX
  8
0
 10
6.50396
 20
0.530382
 30
0.0
 40
0.0137795
 41
0.0137795
  0
SEQEND
 8
0
  0
POLYLINE
  8
0
 62
     254
 66
     1
 10
0
 20
0
 30
0.0
 70
     1
 40
0
 41
0
  0
VERTEX
  8
0
 10
11.6183
 20
9.38867
 30
0.0
 40
0
 41
0
  0
VERTEX
  8
0
 10
11.6183
 20
9.39638
 30
0.0
 40
0
 41
0
  0
VERTEX
  8
0
 10
11.612
 20
9.41938
 30
0.0
 40
0
 41
0
  0
VERTEX
  8
0
 10
11.5952
 20
9.44439
 30
0.0
 40
0
 41
0
  0
VERTEX
  8
0
 10
11.5702
 20
9.46126
 30
0.0
 40
0
 41
0
  0
VERTEX
  8
0
 10
11.5472
 20
9.46739
 30
0.0
 40
0
 41
0
  0
VERTEX
  8
0
 10
11.5395
 20
9.46739
 30
0.0
 40
0
 41
0
  0
VERTEX
  8
0
 10
11.5318
 20
9.46739
 30
0.0
 40
0
 41
0
  0
VERTEX
  8
0
 10
11.5088
 20
9.46126
 30
0.0
 40
0
 41
0
  0
VERTEX
  8
0
 10
11.4838
 20
9.44439
 30
0.0
 40
0
 41
0
  0
VERTEX
  8
0
 10
11.467
 20
9.41938
 30
0.0
 40
0
 41
0
  0
VERTEX
  8
0
 10
11.4608
 20
9.39638
 30
0.0
 40
0
 41
0
  0
VERTEX
  8
0
 10
11.4608
 20
9.38867
 30
0.0
 40
0
 41
0
  0
VERTEX
  8
0
 10
11.4608
 20
9.38103
 30
0.0
 40
0
 41
0
  0
VERTEX
  8
0
 10
11.467
 20
9.35801
 30
0.0
 40
0
 41
0
  0
VERTEX
  8
0
 10
11.4838
 20
9.33301
 30
0.0
 40
0
 41
0
  0
VERTEX
  8
0
 10
11.5088
 20
9.31614
 30
0.0
 40
0
 41
0
  0
VERTEX
  8
0
 10
11.5318
 20
9.30994
 30
0.0
 40
0
 41
0
  0
VERTEX
  8
0
 10
11.5395
 20
9.30994
 30
0.0
 40
0
 41
0
  0
VERTEX
  8
0
 10
11.5472
 20
9.30994
 30
0.0
 40
0
 41
0
  0
VERTEX
  8
0
 10
11.5702
 20
9.31614
 30
0.0
 40
0
 41
0
  0
VERTEX
  8
0
 10
11.5952
 20
9.33301
 30
0.0
 40
0
 41
0
  0
VERTEX
  8
0
 10
11.612
 20
9.35801
 30
0.0
 40
0
 41
0
  0
VERTEX
  8
0
 10
11.6183
 20
9.38103
 30
0.0
 40
0
 41
0
  0
VERTEX
  8
0
 10
11.6183
 20
9.38867
 30
0.0
 40
0
 41
0
  0
SEQEND
 8
0
  0
POLYLINE
  8
0
 62
     0
 66
     1
 10
0
 20
0
 30
0.0
 70
     1
 40
0.992126
 41
0.992126
  0
VERTEX
  8
0
 10
11.6183
 20
9.38867
 30
0.0
 40
0.0137795
 41
0.0137795
  0
VERTEX
  8
0
 10
11.6183
 20
9.39638
 30
0.0
 40
0.0137795
 41
0.0137795
  0
VERTEX
  8
0
 10
11.612
 20
9.41938
 30
0.0
 40
0.0137795
 41
0.0137795
  0
VERTEX
  8
0
 10
11.5952
 20
9.44439
 30
0.0
 40
0.0137795
 41
0.0137795
  0
VERTEX
  8
0
 10
11.5702
 20
9.46126
 30
0.0
 40
0.0137795
 41
0.0137795
  0
VERTEX
  8
0
 10
11.5472
 20
9.46739
 30
0.0
 40
0.0137795
 41
0.0137795
  0
VERTEX
  8
0
 10
11.5395
 20
9.46739
 30
0.0
 40
0.0137795
 41
0.0137795
  0
VERTEX
  8
0
 10
11.5318
 20
9.46739
 30
0.0
 40
0.0137795
 41
0.0137795
  0
VERTEX
  8
0
 10
11.5088
 20
9.46126
 30
0.0
 40
0.0137795
 41
0.0137795
  0
VERTEX
  8
0
 10
11.4838
 20
9.44439
 30
0.0
 40
0.0137795
 41
0.0137795
  0
VERTEX
  8
0
 10
11.467
 20
9.41938
 30
0.0
 40
0.0137795
 41
0.0137795
  0
VERTEX
  8
0
 10
11.4608
 20
9.39638
 30
0.0
 40
0.0137795
 41
0.0137795
  0
VERTEX
  8
0
 10
11.4608
 20
9.38867
 30
0.0
 40
0.0137795
 41
0.0137795
  0
VERTEX
  8
0
 10
11.4608
 20
9.38103
 30
0.0
 40
0.0137795
 41
0.0137795
  0
VERTEX
  8
0
 10
11.467
 20
9.35801
 30
0.0
 40
0.0137795
 41
0.0137795
  0
VERTEX
  8
0
 10
11.4838
 20
9.33301
 30
0.0
 40
0.0137795
 41
0.0137795
  0
VERTEX
  8
0
 10
11.5088
 20
9.31614
 30
0.0
 40
0.0137795
 41
0.0137795
  0
VERTEX
  8
0
 10
11.5318
 20
9.30994
 30
0.0
 40
0.0137795
 41
0.0137795
  0
VERTEX
  8
0
 10
11.5395
 20
9.30994
 30
0.0
 40
0.0137795
 41
0.0137795
  0
VERTEX
  8
0
 10
11.5472
 20
9.30994
 30
0.0
 40
0.0137795
 41
0.0137795
  0
VERTEX
  8
0
 10
11.5702
 20
9.31614
 30
0.0
 40
0.0137795
 41
0.0137795
  0
VERTEX
  8
0
 10
11.5952
 20
9.33301
 30
0.0
 40
0.0137795
 41
0.0137795
  0
VERTEX
  8
0
 10
11.612
 20
9.35801
 30
0.0
 40
0.0137795
 41
0.0137795
  0
VERTEX
  8
0
 10
11.6183
 20
9.38103
 30
0.0
 40
0.0137795
 41
0.0137795
  0
VERTEX
  8
0
 10
11.6183
 20
9.38867
 30
0.0
 40
0.0137795
 41
0.0137795
  0
SEQEND
 8
0
  0
ENDSEC
  0
EOF
