  0
SECTION
  2
HEADER
  9
$ACADVER
  1
AC1009
  9
$INSBASE
 10
0.0
 20
0.0
 30
0.0
  9
$EXTMIN
 10
0.0
 20
0.0
 30
0.0
  9
$EXTMAX
 10
0.0
 20
0.0
 30
0.0
  0
ENDSEC
  0
SECTION
  2
TABLES
  0
TABLE
  2
VPORT
 70
0
  0
ENDTAB
  0
TABLE
  2
LTYPE
 70
1
  0
LTYPE
  2
CONTINUOUS
 70
0
  3
Solid line
 72
65
 73
0
 40
0.0
  0
ENDTAB
  0
TABLE
  2
LAYER
 70
1
  0
LAYER
  2
0
 70
64
 62
7
  6
continuous
  0
ENDTAB
  0
TABLE
  2
STYLE
 70
1
  0
STYLE
  2
STANDARD
 70
0
 40
0
 41
1.0
 50
0.0
 71
0
 42
1
 3
ARIAL.TTF
 4

  0
ENDTAB
  0
TABLE
  2
VIEW
 70
0
  0
ENDTAB
  0
ENDSEC
  0
SECTION
  2
BLOCKS
  0
BLOCK
  8
0
  2
ARRAY
 70
0
 10
0.0
 20
0.0
 30
0.0
  3
ARRAY
  0
POLYLINE
  8
0
 62
0
 70
1
 66
1
 10
0.0
 20
0.0
 30
0.0
  0
VERTEX
  8
0
 10
-10.0
 20
99.0
 30
0.0
  0
VERTEX
  8
0
 10
10.0
 20
99.0
 30
0.0
  0
VERTEX
  8
0
 10
10.0
 20
140.0
 30
0.0
  0
VERTEX
  8
0
 10
-10.0
 20
140.0
 30
0.0
  0
SEQEND
  8
0
  0
POLYLINE
  8
0
 62
0
 70
1
 66
1
 10
0.0
 20
0.0
 30
0.0
  0
VERTEX
  8
0
 10
-80.7365149747
 20
-58.1602540378
 30
0.0
  0
VERTEX
  8
0
 10
-90.7365149747
 20
-40.8397459622
 30
0.0
  0
VERTEX
  8
0
 10
-126.24355653
 20
-61.3397459622
 30
0.0
  0
VERTEX
  8
0
 10
-116.24355653
 20
-78.6602540378
 30
0.0
  0
SEQEND
  8
0
  0
POLYLINE
  8
0
 62
0
 70
1
 66
1
 10
0.0
 20
0.0
 30
0.0
  0
VERTEX
  8
0
 10
90.7365149747
 20
-40.8397459622
 30
0.0
  0
VERTEX
  8
0
 10
80.7365149747
 20
-58.1602540378
 30
0.0
  0
VERTEX
  8
0
 10
116.24355653
 20
-78.6602540378
 30
0.0
  0
VERTEX
  8
0
 10
126.24355653
 20
-61.3397459622
 30
0.0
  0
SEQEND
  8
0
  0
ENDBLK
  0
BLOCK
  8
0
  2
ARRAY001
 70
0
 10
0.0
 20
0.0
 30
0.0
  3
ARRAY001
  0
CIRCLE
  8
0
 62
0
 10
-103.490035752
 20
59.75
 30
0.0
 40
2.0
  0
CIRCLE
  8
0
 62
0
 10
0.0
 20
-119.5
 30
0.0
 40
2.0
  0
CIRCLE
  8
0
 62
0
 10
103.490035752
 20
59.75
 30
0.0
 40
2.0
  0
ENDBLK
  0
ENDSEC
  0
SECTION
  2
ENTITIES
  0
CIRCLE
  8
0
 62
0
 10
0.0
 20
0.0
 30
0.0
 40
150.0
  0
CIRCLE
  8
0
 62
0
 10
0.0
 20
0.0
 30
0.0
 40
89.0
  0
POLYLINE
  8
0
 62
0
 70
1
 66
1
 10
0.0
 20
0.0
 30
0.0
  0
VERTEX
  8
0
 10
-10.0
 20
99.0
 30
0.0
  0
VERTEX
  8
0
 10
10.0
 20
99.0
 30
0.0
  0
VERTEX
  8
0
 10
10.0
 20
140.0
 30
0.0
  0
VERTEX
  8
0
 10
-10.0
 20
140.0
 30
0.0
  0
SEQEND
  8
0
  0
INSERT
  2
ARRAY
  8
0
 62
0
 10
0.0
 20
0.0
 30
0.0
  0
CIRCLE
  8
0
 62
0
 10
0.0
 20
119.5
 30
0.0
 40
2.0
  0
INSERT
  2
ARRAY001
  8
0
 62
0
 10
0.0
 20
0.0
 30
0.0
  0
ENDSEC
  0
EOF
