  0
SECTION
  2
HEADER
  9
$ACADVER
  1
AC1009
  9
$INSBASE
 10
0.0
 20
0.0
 30
0.0
  9
$EXTMIN
 10
0.0
 20
0.0
 30
0.0
  9
$EXTMAX
 10
0.0
 20
0.0
 30
0.0
  0
ENDSEC
  0
SECTION
  2
TABLES
  0
TABLE
  2
VPORT
 70
0
  0
ENDTAB
  0
TABLE
  2
LTYPE
 70
1
  0
LTYPE
  2
CONTINUOUS
 70
0
  3
Solid line
 72
65
 73
0
 40
0.0
  0
ENDTAB
  0
TABLE
  2
LAYER
 70
1
  0
LAYER
  2
0
 70
64
 62
7
  6
continuous
  0
ENDTAB
  0
TABLE
  2
STYLE
 70
1
  0
STYLE
  2
STANDARD
 70
0
 40
0
 41
1.0
 50
0.0
 71
0
 42
1
 3
ARIAL.TTF
 4

  0
ENDTAB
  0
TABLE
  2
VIEW
 70
0
  0
ENDTAB
  0
ENDSEC
  0
SECTION
  2
BLOCKS
  0
BLOCK
  8
0
  2
ARRAY002
 70
0
 10
0.0
 20
0.0
 30
0.0
  3
ARRAY002
  0
CIRCLE
  8
0
 62
0
 10
0.0
 20
25.0
 30
0.0
 40
1.0
  0
CIRCLE
  8
0
 62
0
 10
0.0
 20
50.0
 30
0.0
 40
1.0
  0
CIRCLE
  8
0
 62
0
 10
0.0
 20
75.0
 30
0.0
 40
1.0
  0
CIRCLE
  8
0
 62
0
 10
0.0
 20
100.0
 30
0.0
 40
1.0
  0
CIRCLE
  8
0
 62
0
 10
0.0
 20
125.0
 30
0.0
 40
1.0
  0
CIRCLE
  8
0
 62
0
 10
0.0
 20
150.0
 30
0.0
 40
1.0
  0
CIRCLE
  8
0
 62
0
 10
0.0
 20
175.0
 30
0.0
 40
1.0
  0
CIRCLE
  8
0
 62
0
 10
0.0
 20
200.0
 30
0.0
 40
1.0
  0
CIRCLE
  8
0
 62
0
 10
0.0
 20
225.0
 30
0.0
 40
1.0
  0
CIRCLE
  8
0
 62
0
 10
0.0
 20
250.0
 30
0.0
 40
1.0
  0
CIRCLE
  8
0
 62
0
 10
-12.5
 20
21.6506350946
 30
0.0
 40
1.0
  0
CIRCLE
  8
0
 62
0
 10
-25.0
 20
43.3012701892
 30
0.0
 40
1.0
  0
CIRCLE
  8
0
 62
0
 10
-37.5
 20
64.9519052838
 30
0.0
 40
1.0
  0
CIRCLE
  8
0
 62
0
 10
-50.0
 20
86.6025403784
 30
0.0
 40
1.0
  0
CIRCLE
  8
0
 62
0
 10
-62.5
 20
108.253175473
 30
0.0
 40
1.0
  0
CIRCLE
  8
0
 62
0
 10
-75.0
 20
129.903810568
 30
0.0
 40
1.0
  0
CIRCLE
  8
0
 62
0
 10
-87.5
 20
151.554445662
 30
0.0
 40
1.0
  0
CIRCLE
  8
0
 62
0
 10
-100.0
 20
173.205080757
 30
0.0
 40
1.0
  0
CIRCLE
  8
0
 62
0
 10
-112.5
 20
194.855715851
 30
0.0
 40
1.0
  0
CIRCLE
  8
0
 62
0
 10
-125.0
 20
216.506350946
 30
0.0
 40
1.0
  0
CIRCLE
  8
0
 62
0
 10
-21.6506350946
 20
12.5
 30
0.0
 40
1.0
  0
CIRCLE
  8
0
 62
0
 10
-43.3012701892
 20
25.0
 30
0.0
 40
1.0
  0
CIRCLE
  8
0
 62
0
 10
-64.9519052838
 20
37.5
 30
0.0
 40
1.0
  0
CIRCLE
  8
0
 62
0
 10
-86.6025403784
 20
50.0
 30
0.0
 40
1.0
  0
CIRCLE
  8
0
 62
0
 10
-108.253175473
 20
62.5
 30
0.0
 40
1.0
  0
CIRCLE
  8
0
 62
0
 10
-129.903810568
 20
75.0
 30
0.0
 40
1.0
  0
CIRCLE
  8
0
 62
0
 10
-151.554445662
 20
87.5
 30
0.0
 40
1.0
  0
CIRCLE
  8
0
 62
0
 10
-173.205080757
 20
100.0
 30
0.0
 40
1.0
  0
CIRCLE
  8
0
 62
0
 10
-194.855715851
 20
112.5
 30
0.0
 40
1.0
  0
CIRCLE
  8
0
 62
0
 10
-216.506350946
 20
125.0
 30
0.0
 40
1.0
  0
CIRCLE
  8
0
 62
0
 10
-25.0
 20
2.77555756156e-15
 30
0.0
 40
1.0
  0
CIRCLE
  8
0
 62
0
 10
-50.0
 20
5.55111512313e-15
 30
0.0
 40
1.0
  0
CIRCLE
  8
0
 62
0
 10
-75.0
 20
8.32667268469e-15
 30
0.0
 40
1.0
  0
CIRCLE
  8
0
 62
0
 10
-100.0
 20
1.11022302463e-14
 30
0.0
 40
1.0
  0
CIRCLE
  8
0
 62
0
 10
-125.0
 20
1.38777878078e-14
 30
0.0
 40
1.0
  0
CIRCLE
  8
0
 62
0
 10
-150.0
 20
1.66533453694e-14
 30
0.0
 40
1.0
  0
CIRCLE
  8
0
 62
0
 10
-175.0
 20
1.94289029309e-14
 30
0.0
 40
1.0
  0
CIRCLE
  8
0
 62
0
 10
-200.0
 20
2.22044604925e-14
 30
0.0
 40
1.0
  0
CIRCLE
  8
0
 62
0
 10
-225.0
 20
2.49800180541e-14
 30
0.0
 40
1.0
  0
CIRCLE
  8
0
 62
0
 10
-250.0
 20
2.77555756156e-14
 30
0.0
 40
1.0
  0
CIRCLE
  8
0
 62
0
 10
-21.6506350946
 20
-12.5
 30
0.0
 40
1.0
  0
CIRCLE
  8
0
 62
0
 10
-43.3012701892
 20
-25.0
 30
0.0
 40
1.0
  0
CIRCLE
  8
0
 62
0
 10
-64.9519052838
 20
-37.5
 30
0.0
 40
1.0
  0
CIRCLE
  8
0
 62
0
 10
-86.6025403784
 20
-50.0
 30
0.0
 40
1.0
  0
CIRCLE
  8
0
 62
0
 10
-108.253175473
 20
-62.5
 30
0.0
 40
1.0
  0
CIRCLE
  8
0
 62
0
 10
-129.903810568
 20
-75.0
 30
0.0
 40
1.0
  0
CIRCLE
  8
0
 62
0
 10
-151.554445662
 20
-87.5
 30
0.0
 40
1.0
  0
CIRCLE
  8
0
 62
0
 10
-173.205080757
 20
-100.0
 30
0.0
 40
1.0
  0
CIRCLE
  8
0
 62
0
 10
-194.855715851
 20
-112.5
 30
0.0
 40
1.0
  0
CIRCLE
  8
0
 62
0
 10
-216.506350946
 20
-125.0
 30
0.0
 40
1.0
  0
CIRCLE
  8
0
 62
0
 10
-12.5
 20
-21.6506350946
 30
0.0
 40
1.0
  0
CIRCLE
  8
0
 62
0
 10
-25.0
 20
-43.3012701892
 30
0.0
 40
1.0
  0
CIRCLE
  8
0
 62
0
 10
-37.5
 20
-64.9519052838
 30
0.0
 40
1.0
  0
CIRCLE
  8
0
 62
0
 10
-50.0
 20
-86.6025403784
 30
0.0
 40
1.0
  0
CIRCLE
  8
0
 62
0
 10
-62.5
 20
-108.253175473
 30
0.0
 40
1.0
  0
CIRCLE
  8
0
 62
0
 10
-75.0
 20
-129.903810568
 30
0.0
 40
1.0
  0
CIRCLE
  8
0
 62
0
 10
-87.5
 20
-151.554445662
 30
0.0
 40
1.0
  0
CIRCLE
  8
0
 62
0
 10
-100.0
 20
-173.205080757
 30
0.0
 40
1.0
  0
CIRCLE
  8
0
 62
0
 10
-112.5
 20
-194.855715851
 30
0.0
 40
1.0
  0
CIRCLE
  8
0
 62
0
 10
-125.0
 20
-216.506350946
 30
0.0
 40
1.0
  0
CIRCLE
  8
0
 62
0
 10
-3.06161699787e-15
 20
-25.0
 30
0.0
 40
1.0
  0
CIRCLE
  8
0
 62
0
 10
-6.12323399574e-15
 20
-50.0
 30
0.0
 40
1.0
  0
CIRCLE
  8
0
 62
0
 10
-9.18485099361e-15
 20
-75.0
 30
0.0
 40
1.0
  0
CIRCLE
  8
0
 62
0
 10
-1.22464679915e-14
 20
-100.0
 30
0.0
 40
1.0
  0
CIRCLE
  8
0
 62
0
 10
-1.53080849893e-14
 20
-125.0
 30
0.0
 40
1.0
  0
CIRCLE
  8
0
 62
0
 10
-1.83697019872e-14
 20
-150.0
 30
0.0
 40
1.0
  0
CIRCLE
  8
0
 62
0
 10
-2.14313189851e-14
 20
-175.0
 30
0.0
 40
1.0
  0
CIRCLE
  8
0
 62
0
 10
-2.44929359829e-14
 20
-200.0
 30
0.0
 40
1.0
  0
CIRCLE
  8
0
 62
0
 10
-2.75545529808e-14
 20
-225.0
 30
0.0
 40
1.0
  0
CIRCLE
  8
0
 62
0
 10
-3.06161699787e-14
 20
-250.0
 30
0.0
 40
1.0
  0
CIRCLE
  8
0
 62
0
 10
12.5
 20
-21.6506350946
 30
0.0
 40
1.0
  0
CIRCLE
  8
0
 62
0
 10
25.0
 20
-43.3012701892
 30
0.0
 40
1.0
  0
CIRCLE
  8
0
 62
0
 10
37.5
 20
-64.9519052838
 30
0.0
 40
1.0
  0
CIRCLE
  8
0
 62
0
 10
50.0
 20
-86.6025403784
 30
0.0
 40
1.0
  0
CIRCLE
  8
0
 62
0
 10
62.5
 20
-108.253175473
 30
0.0
 40
1.0
  0
CIRCLE
  8
0
 62
0
 10
75.0
 20
-129.903810568
 30
0.0
 40
1.0
  0
CIRCLE
  8
0
 62
0
 10
87.5
 20
-151.554445662
 30
0.0
 40
1.0
  0
CIRCLE
  8
0
 62
0
 10
100.0
 20
-173.205080757
 30
0.0
 40
1.0
  0
CIRCLE
  8
0
 62
0
 10
112.5
 20
-194.855715851
 30
0.0
 40
1.0
  0
CIRCLE
  8
0
 62
0
 10
125.0
 20
-216.506350946
 30
0.0
 40
1.0
  0
CIRCLE
  8
0
 62
0
 10
21.6506350946
 20
-12.5
 30
0.0
 40
1.0
  0
CIRCLE
  8
0
 62
0
 10
43.3012701892
 20
-25.0
 30
0.0
 40
1.0
  0
CIRCLE
  8
0
 62
0
 10
64.9519052838
 20
-37.5
 30
0.0
 40
1.0
  0
CIRCLE
  8
0
 62
0
 10
86.6025403784
 20
-50.0
 30
0.0
 40
1.0
  0
CIRCLE
  8
0
 62
0
 10
108.253175473
 20
-62.5
 30
0.0
 40
1.0
  0
CIRCLE
  8
0
 62
0
 10
129.903810568
 20
-75.0
 30
0.0
 40
1.0
  0
CIRCLE
  8
0
 62
0
 10
151.554445662
 20
-87.5
 30
0.0
 40
1.0
  0
CIRCLE
  8
0
 62
0
 10
173.205080757
 20
-100.0
 30
0.0
 40
1.0
  0
CIRCLE
  8
0
 62
0
 10
194.855715851
 20
-112.5
 30
0.0
 40
1.0
  0
CIRCLE
  8
0
 62
0
 10
216.506350946
 20
-125.0
 30
0.0
 40
1.0
  0
CIRCLE
  8
0
 62
0
 10
25.0
 20
-5.55111512313e-15
 30
0.0
 40
1.0
  0
CIRCLE
  8
0
 62
0
 10
50.0
 20
-1.11022302463e-14
 30
0.0
 40
1.0
  0
CIRCLE
  8
0
 62
0
 10
75.0
 20
-1.66533453694e-14
 30
0.0
 40
1.0
  0
CIRCLE
  8
0
 62
0
 10
100.0
 20
-2.22044604925e-14
 30
0.0
 40
1.0
  0
CIRCLE
  8
0
 62
0
 10
125.0
 20
-2.77555756156e-14
 30
0.0
 40
1.0
  0
CIRCLE
  8
0
 62
0
 10
150.0
 20
-3.33066907388e-14
 30
0.0
 40
1.0
  0
CIRCLE
  8
0
 62
0
 10
175.0
 20
-3.88578058619e-14
 30
0.0
 40
1.0
  0
CIRCLE
  8
0
 62
0
 10
200.0
 20
-4.4408920985e-14
 30
0.0
 40
1.0
  0
CIRCLE
  8
0
 62
0
 10
225.0
 20
-4.99600361081e-14
 30
0.0
 40
1.0
  0
CIRCLE
  8
0
 62
0
 10
250.0
 20
-5.55111512313e-14
 30
0.0
 40
1.0
  0
CIRCLE
  8
0
 62
0
 10
21.6506350946
 20
12.5
 30
0.0
 40
1.0
  0
CIRCLE
  8
0
 62
0
 10
43.3012701892
 20
25.0
 30
0.0
 40
1.0
  0
CIRCLE
  8
0
 62
0
 10
64.9519052838
 20
37.5
 30
0.0
 40
1.0
  0
CIRCLE
  8
0
 62
0
 10
86.6025403784
 20
50.0
 30
0.0
 40
1.0
  0
CIRCLE
  8
0
 62
0
 10
108.253175473
 20
62.5
 30
0.0
 40
1.0
  0
CIRCLE
  8
0
 62
0
 10
129.903810568
 20
75.0
 30
0.0
 40
1.0
  0
CIRCLE
  8
0
 62
0
 10
151.554445662
 20
87.5
 30
0.0
 40
1.0
  0
CIRCLE
  8
0
 62
0
 10
173.205080757
 20
100.0
 30
0.0
 40
1.0
  0
CIRCLE
  8
0
 62
0
 10
194.855715851
 20
112.5
 30
0.0
 40
1.0
  0
CIRCLE
  8
0
 62
0
 10
216.506350946
 20
125.0
 30
0.0
 40
1.0
  0
CIRCLE
  8
0
 62
0
 10
12.5
 20
21.6506350946
 30
0.0
 40
1.0
  0
CIRCLE
  8
0
 62
0
 10
25.0
 20
43.3012701892
 30
0.0
 40
1.0
  0
CIRCLE
  8
0
 62
0
 10
37.5
 20
64.9519052838
 30
0.0
 40
1.0
  0
CIRCLE
  8
0
 62
0
 10
50.0
 20
86.6025403784
 30
0.0
 40
1.0
  0
CIRCLE
  8
0
 62
0
 10
62.5
 20
108.253175473
 30
0.0
 40
1.0
  0
CIRCLE
  8
0
 62
0
 10
75.0
 20
129.903810568
 30
0.0
 40
1.0
  0
CIRCLE
  8
0
 62
0
 10
87.5
 20
151.554445662
 30
0.0
 40
1.0
  0
CIRCLE
  8
0
 62
0
 10
100.0
 20
173.205080757
 30
0.0
 40
1.0
  0
CIRCLE
  8
0
 62
0
 10
112.5
 20
194.855715851
 30
0.0
 40
1.0
  0
CIRCLE
  8
0
 62
0
 10
125.0
 20
216.506350946
 30
0.0
 40
1.0
  0
ENDBLK
  0
BLOCK
  8
0
  2
ARRAY001
 70
0
 10
0.0
 20
0.0
 30
0.0
  3
ARRAY001
  0
CIRCLE
  8
0
 62
0
 10
0.0
 20
275.0
 30
0.0
 40
1.5
  0
CIRCLE
  8
0
 62
0
 10
-23.9678292556
 20
273.953541975
 30
0.0
 40
1.5
  0
CIRCLE
  8
0
 62
0
 10
-47.7532488584
 20
270.822132078
 30
0.0
 40
1.5
  0
CIRCLE
  8
0
 62
0
 10
-71.1752374032
 20
265.629602229
 30
0.0
 40
1.5
  0
CIRCLE
  8
0
 62
0
 10
-94.0555394146
 20
258.415470716
 30
0.0
 40
1.5
  0
CIRCLE
  8
0
 62
0
 10
-116.220021979
 20
249.234641435
 30
0.0
 40
1.5
  0
CIRCLE
  8
0
 62
0
 10
-137.5
 20
238.156986041
 30
0.0
 40
1.5
  0
CIRCLE
  8
0
 62
0
 10
-157.733519997
 20
225.266812179
 30
0.0
 40
1.5
  0
CIRCLE
  8
0
 62
0
 10
-176.766592664
 20
210.662221858
 30
0.0
 40
1.5
  0
CIRCLE
  8
0
 62
0
 10
-194.454364826
 20
194.454364826
 30
0.0
 40
1.5
  0
CIRCLE
  8
0
 62
0
 10
-210.662221858
 20
176.766592664
 30
0.0
 40
1.5
  0
CIRCLE
  8
0
 62
0
 10
-225.266812179
 20
157.733519997
 30
0.0
 40
1.5
  0
CIRCLE
  8
0
 62
0
 10
-238.156986041
 20
137.5
 30
0.0
 40
1.5
  0
CIRCLE
  8
0
 62
0
 10
-249.234641435
 20
116.220021979
 30
0.0
 40
1.5
  0
CIRCLE
  8
0
 62
0
 10
-258.415470716
 20
94.0555394146
 30
0.0
 40
1.5
  0
CIRCLE
  8
0
 62
0
 10
-265.629602229
 20
71.1752374032
 30
0.0
 40
1.5
  0
CIRCLE
  8
0
 62
0
 10
-270.822132078
 20
47.7532488584
 30
0.0
 40
1.5
  0
CIRCLE
  8
0
 62
0
 10
-273.953541975
 20
23.9678292556
 30
0.0
 40
1.5
  0
CIRCLE
  8
0
 62
0
 10
-275.0
 20
3.05311331772e-14
 30
0.0
 40
1.5
  0
CIRCLE
  8
0
 62
0
 10
-273.953541975
 20
-23.9678292556
 30
0.0
 40
1.5
  0
CIRCLE
  8
0
 62
0
 10
-270.822132078
 20
-47.7532488584
 30
0.0
 40
1.5
  0
CIRCLE
  8
0
 62
0
 10
-265.629602229
 20
-71.1752374032
 30
0.0
 40
1.5
  0
CIRCLE
  8
0
 62
0
 10
-258.415470716
 20
-94.0555394146
 30
0.0
 40
1.5
  0
CIRCLE
  8
0
 62
0
 10
-249.234641435
 20
-116.220021979
 30
0.0
 40
1.5
  0
CIRCLE
  8
0
 62
0
 10
-238.156986041
 20
-137.5
 30
0.0
 40
1.5
  0
CIRCLE
  8
0
 62
0
 10
-225.266812179
 20
-157.733519997
 30
0.0
 40
1.5
  0
CIRCLE
  8
0
 62
0
 10
-210.662221858
 20
-176.766592664
 30
0.0
 40
1.5
  0
CIRCLE
  8
0
 62
0
 10
-194.454364826
 20
-194.454364826
 30
0.0
 40
1.5
  0
CIRCLE
  8
0
 62
0
 10
-176.766592664
 20
-210.662221858
 30
0.0
 40
1.5
  0
CIRCLE
  8
0
 62
0
 10
-157.733519997
 20
-225.266812179
 30
0.0
 40
1.5
  0
CIRCLE
  8
0
 62
0
 10
-137.5
 20
-238.156986041
 30
0.0
 40
1.5
  0
CIRCLE
  8
0
 62
0
 10
-116.220021979
 20
-249.234641435
 30
0.0
 40
1.5
  0
CIRCLE
  8
0
 62
0
 10
-94.0555394146
 20
-258.415470716
 30
0.0
 40
1.5
  0
CIRCLE
  8
0
 62
0
 10
-71.1752374032
 20
-265.629602229
 30
0.0
 40
1.5
  0
CIRCLE
  8
0
 62
0
 10
-47.7532488584
 20
-270.822132078
 30
0.0
 40
1.5
  0
CIRCLE
  8
0
 62
0
 10
-23.9678292556
 20
-273.953541975
 30
0.0
 40
1.5
  0
CIRCLE
  8
0
 62
0
 10
-3.36777869766e-14
 20
-275.0
 30
0.0
 40
1.5
  0
CIRCLE
  8
0
 62
0
 10
23.9678292556
 20
-273.953541975
 30
0.0
 40
1.5
  0
CIRCLE
  8
0
 62
0
 10
47.7532488584
 20
-270.822132078
 30
0.0
 40
1.5
  0
CIRCLE
  8
0
 62
0
 10
71.1752374032
 20
-265.629602229
 30
0.0
 40
1.5
  0
CIRCLE
  8
0
 62
0
 10
94.0555394146
 20
-258.415470716
 30
0.0
 40
1.5
  0
CIRCLE
  8
0
 62
0
 10
116.220021979
 20
-249.234641435
 30
0.0
 40
1.5
  0
CIRCLE
  8
0
 62
0
 10
137.5
 20
-238.156986041
 30
0.0
 40
1.5
  0
CIRCLE
  8
0
 62
0
 10
157.733519997
 20
-225.266812179
 30
0.0
 40
1.5
  0
CIRCLE
  8
0
 62
0
 10
176.766592664
 20
-210.662221858
 30
0.0
 40
1.5
  0
CIRCLE
  8
0
 62
0
 10
194.454364826
 20
-194.454364826
 30
0.0
 40
1.5
  0
CIRCLE
  8
0
 62
0
 10
210.662221858
 20
-176.766592664
 30
0.0
 40
1.5
  0
CIRCLE
  8
0
 62
0
 10
225.266812179
 20
-157.733519997
 30
0.0
 40
1.5
  0
CIRCLE
  8
0
 62
0
 10
238.156986041
 20
-137.5
 30
0.0
 40
1.5
  0
CIRCLE
  8
0
 62
0
 10
249.234641435
 20
-116.220021979
 30
0.0
 40
1.5
  0
CIRCLE
  8
0
 62
0
 10
258.415470716
 20
-94.0555394146
 30
0.0
 40
1.5
  0
CIRCLE
  8
0
 62
0
 10
265.629602229
 20
-71.1752374032
 30
0.0
 40
1.5
  0
CIRCLE
  8
0
 62
0
 10
270.822132078
 20
-47.7532488584
 30
0.0
 40
1.5
  0
CIRCLE
  8
0
 62
0
 10
273.953541975
 20
-23.9678292556
 30
0.0
 40
1.5
  0
CIRCLE
  8
0
 62
0
 10
275.0
 20
-6.10622663544e-14
 30
0.0
 40
1.5
  0
CIRCLE
  8
0
 62
0
 10
273.953541975
 20
23.9678292556
 30
0.0
 40
1.5
  0
CIRCLE
  8
0
 62
0
 10
270.822132078
 20
47.7532488584
 30
0.0
 40
1.5
  0
CIRCLE
  8
0
 62
0
 10
265.629602229
 20
71.1752374032
 30
0.0
 40
1.5
  0
CIRCLE
  8
0
 62
0
 10
258.415470716
 20
94.0555394146
 30
0.0
 40
1.5
  0
CIRCLE
  8
0
 62
0
 10
249.234641435
 20
116.220021979
 30
0.0
 40
1.5
  0
CIRCLE
  8
0
 62
0
 10
238.156986041
 20
137.5
 30
0.0
 40
1.5
  0
CIRCLE
  8
0
 62
0
 10
225.266812179
 20
157.733519997
 30
0.0
 40
1.5
  0
CIRCLE
  8
0
 62
0
 10
210.662221858
 20
176.766592664
 30
0.0
 40
1.5
  0
CIRCLE
  8
0
 62
0
 10
194.454364826
 20
194.454364826
 30
0.0
 40
1.5
  0
CIRCLE
  8
0
 62
0
 10
176.766592664
 20
210.662221858
 30
0.0
 40
1.5
  0
CIRCLE
  8
0
 62
0
 10
157.733519997
 20
225.266812179
 30
0.0
 40
1.5
  0
CIRCLE
  8
0
 62
0
 10
137.5
 20
238.156986041
 30
0.0
 40
1.5
  0
CIRCLE
  8
0
 62
0
 10
116.220021979
 20
249.234641435
 30
0.0
 40
1.5
  0
CIRCLE
  8
0
 62
0
 10
94.0555394146
 20
258.415470716
 30
0.0
 40
1.5
  0
CIRCLE
  8
0
 62
0
 10
71.1752374032
 20
265.629602229
 30
0.0
 40
1.5
  0
CIRCLE
  8
0
 62
0
 10
47.7532488584
 20
270.822132078
 30
0.0
 40
1.5
  0
CIRCLE
  8
0
 62
0
 10
23.9678292556
 20
273.953541975
 30
0.0
 40
1.5
  0
ENDBLK
  0
BLOCK
  8
0
  2
ARRAY
 70
0
 10
0.0
 20
0.0
 30
0.0
  3
ARRAY
  0
CIRCLE
  8
0
 62
0
 10
0.0
 20
25.0
 30
0.0
 40
1.0
  0
CIRCLE
  8
0
 62
0
 10
0.0
 20
50.0
 30
0.0
 40
1.0
  0
CIRCLE
  8
0
 62
0
 10
0.0
 20
75.0
 30
0.0
 40
1.0
  0
CIRCLE
  8
0
 62
0
 10
0.0
 20
100.0
 30
0.0
 40
1.0
  0
CIRCLE
  8
0
 62
0
 10
0.0
 20
125.0
 30
0.0
 40
1.0
  0
CIRCLE
  8
0
 62
0
 10
0.0
 20
150.0
 30
0.0
 40
1.0
  0
CIRCLE
  8
0
 62
0
 10
0.0
 20
175.0
 30
0.0
 40
1.0
  0
CIRCLE
  8
0
 62
0
 10
0.0
 20
200.0
 30
0.0
 40
1.0
  0
CIRCLE
  8
0
 62
0
 10
0.0
 20
225.0
 30
0.0
 40
1.0
  0
CIRCLE
  8
0
 62
0
 10
0.0
 20
250.0
 30
0.0
 40
1.0
  0
ENDBLK
  0
ENDSEC
  0
SECTION
  2
ENTITIES
  0
CIRCLE
  8
0
 62
0
 10
0.0
 20
0.0
 30
0.0
 40
280.0
  0
INSERT
  2
ARRAY002
  8
0
 62
0
 10
0.0
 20
0.0
 30
0.0
  0
CIRCLE
  8
0
 62
0
 10
0.0
 20
0.0
 30
0.0
 40
2.5
  0
INSERT
  2
ARRAY001
  8
0
 62
0
 10
0.0
 20
0.0
 30
0.0
  0
INSERT
  2
ARRAY
  8
0
 62
0
 10
0.0
 20
0.0
 30
0.0
  0
ENDSEC
  0
EOF
