M48
;DRILL file {KiCad 5.0.2-1.fc29} date Sun 03 Mar 2019 12:16:27 PM CET
;FORMAT={-:-/ absolute / inch / decimal}
FMAT,2
INCH,TZ
T1C0.0300
T2C0.0394
T3C0.0472
%
G90
G05
T1
X4.29Y-3.348
X4.594Y-3.588
X4.618Y-3.122
T2
X4.9Y-3.15
X5.Y-3.15
X5.1Y-3.15
X4.9Y-3.675
X5.Y-3.675
X5.1Y-3.675
X4.9Y-3.5
X5.Y-3.5
X5.1Y-3.5
X3.5Y-2.87
X3.5Y-2.97
X3.6Y-2.87
X3.6Y-2.97
X3.7Y-2.87
X3.7Y-2.97
X3.8Y-2.87
X3.8Y-2.97
X3.9Y-2.87
X3.9Y-2.97
X4.Y-2.87
X4.Y-2.97
X4.1Y-2.87
X4.1Y-2.97
X4.2Y-2.87
X4.2Y-2.97
X4.3Y-2.87
X4.3Y-2.97
X4.4Y-2.87
X4.4Y-2.97
X4.5Y-2.87
X4.5Y-2.97
X4.6Y-2.87
X4.6Y-2.97
X4.7Y-2.87
X4.7Y-2.97
X4.8Y-2.87
X4.8Y-2.97
X4.9Y-2.87
X4.9Y-2.97
X5.Y-2.87
X5.Y-2.97
X5.1Y-2.87
X5.1Y-2.97
X5.2Y-2.87
X5.2Y-2.97
X5.3Y-2.87
X5.3Y-2.97
X5.4Y-2.87
X5.4Y-2.97
X3.51Y-3.13
X3.61Y-3.13
X3.71Y-3.13
X3.81Y-3.13
X3.91Y-3.13
X4.01Y-3.13
X4.11Y-3.13
X4.21Y-3.13
X4.9Y-3.325
X5.Y-3.325
X5.1Y-3.325
T3
X5.345Y-3.31
X5.345Y-3.41
T0
M30
