G75*
%MOIN*%
%OFA0B0*%
%FSLAX25Y25*%
%IPPOS*%
%LPD*%
%AMOC8*
5,1,8,0,0,1.08239X$1,22.5*
%
%ADD10C,0.01000*%
%ADD11C,0.00600*%
%ADD12C,0.00300*%
%ADD13C,0.02200*%
%ADD14C,0.00100*%
%ADD15C,0.00500*%
%ADD16C,0.00400*%
D10*
X0088558Y0066883D02*
X0088558Y0074383D01*
X0108558Y0074383D01*
X0108558Y0066883D01*
X0088558Y0066883D01*
X0088558Y0074383D02*
X0088558Y0091883D01*
X0108558Y0091883D01*
X0108558Y0074383D01*
X0114083Y0073933D02*
X0114083Y0066433D01*
X0134083Y0066433D01*
X0134083Y0073933D01*
X0114083Y0073933D01*
X0114083Y0091433D01*
X0134083Y0091433D01*
X0134083Y0073933D01*
X0116109Y0222370D02*
X0115609Y0223770D01*
X0115109Y0222870D01*
X0116109Y0222370D01*
X0115309Y0222871D02*
X0115425Y0222915D01*
X0115539Y0222963D01*
X0115652Y0223014D01*
X0115762Y0223069D01*
X0115872Y0223128D01*
X0115979Y0223190D01*
X0116084Y0223255D01*
X0116187Y0223324D01*
X0116288Y0223395D01*
X0116387Y0223470D01*
X0116483Y0223548D01*
X0116577Y0223629D01*
X0116668Y0223713D01*
X0116756Y0223800D01*
X0116842Y0223889D01*
X0116925Y0223981D01*
X0117005Y0224076D01*
X0117081Y0224173D01*
X0117155Y0224272D01*
X0117226Y0224374D01*
X0117293Y0224478D01*
X0117357Y0224584D01*
X0117418Y0224692D01*
X0117475Y0224802D01*
X0117529Y0224913D01*
X0117579Y0225026D01*
X0117626Y0225141D01*
X0117669Y0225257D01*
X0117708Y0225375D01*
X0117743Y0225493D01*
X0117775Y0225613D01*
X0117803Y0225734D01*
X0117828Y0225855D01*
X0117848Y0225977D01*
X0117865Y0226100D01*
X0117877Y0226223D01*
X0117886Y0226347D01*
X0117891Y0226470D01*
X0117892Y0226594D01*
X0117889Y0226718D01*
X0117882Y0226841D01*
X0117872Y0226965D01*
X0117857Y0227088D01*
X0117839Y0227210D01*
X0117816Y0227332D01*
X0117790Y0227453D01*
X0117760Y0227573D01*
X0117727Y0227692D01*
X0117689Y0227810D01*
X0117648Y0227927D01*
X0117603Y0228043D01*
X0117555Y0228157D01*
X0117503Y0228269D01*
X0117448Y0228380D01*
X0117389Y0228489D01*
X0117326Y0228596D01*
X0117261Y0228701D01*
X0117192Y0228804D01*
X0117120Y0228904D01*
X0117044Y0229003D01*
X0116966Y0229099D01*
X0116885Y0229192D01*
X0116801Y0229283D01*
X0116714Y0229371D01*
X0116624Y0229456D01*
X0116532Y0229539D01*
X0116437Y0229618D01*
X0116339Y0229695D01*
X0116239Y0229768D01*
X0116137Y0229838D01*
X0116033Y0229905D01*
X0115927Y0229969D01*
X0115819Y0230029D01*
X0115709Y0230086D01*
X0115597Y0230139D01*
X0115484Y0230189D01*
X0115369Y0230235D01*
X0115253Y0230277D01*
X0115135Y0230316D01*
X0115016Y0230351D01*
X0114896Y0230383D01*
X0114776Y0230410D01*
X0114654Y0230434D01*
X0114532Y0230454D01*
X0114409Y0230470D01*
X0111809Y0226670D02*
X0111811Y0226762D01*
X0111817Y0226853D01*
X0111827Y0226944D01*
X0111841Y0227035D01*
X0111859Y0227125D01*
X0111881Y0227214D01*
X0111906Y0227301D01*
X0111936Y0227388D01*
X0111969Y0227474D01*
X0112006Y0227557D01*
X0112046Y0227640D01*
X0112090Y0227720D01*
X0112138Y0227798D01*
X0112189Y0227875D01*
X0112243Y0227948D01*
X0112300Y0228020D01*
X0112361Y0228089D01*
X0112424Y0228155D01*
X0112490Y0228218D01*
X0112559Y0228279D01*
X0112631Y0228336D01*
X0112704Y0228390D01*
X0112781Y0228441D01*
X0112859Y0228489D01*
X0112939Y0228533D01*
X0113022Y0228573D01*
X0113105Y0228610D01*
X0113191Y0228643D01*
X0113278Y0228673D01*
X0113365Y0228698D01*
X0113454Y0228720D01*
X0113544Y0228738D01*
X0113635Y0228752D01*
X0113726Y0228762D01*
X0113817Y0228768D01*
X0113909Y0228770D01*
X0114001Y0228768D01*
X0114092Y0228762D01*
X0114183Y0228752D01*
X0114274Y0228738D01*
X0114364Y0228720D01*
X0114453Y0228698D01*
X0114540Y0228673D01*
X0114627Y0228643D01*
X0114713Y0228610D01*
X0114796Y0228573D01*
X0114879Y0228533D01*
X0114959Y0228489D01*
X0115037Y0228441D01*
X0115114Y0228390D01*
X0115187Y0228336D01*
X0115259Y0228279D01*
X0115328Y0228218D01*
X0115394Y0228155D01*
X0115457Y0228089D01*
X0115518Y0228020D01*
X0115575Y0227948D01*
X0115629Y0227875D01*
X0115680Y0227798D01*
X0115728Y0227720D01*
X0115772Y0227640D01*
X0115812Y0227557D01*
X0115849Y0227474D01*
X0115882Y0227388D01*
X0115912Y0227301D01*
X0115937Y0227214D01*
X0115959Y0227125D01*
X0115977Y0227035D01*
X0115991Y0226944D01*
X0116001Y0226853D01*
X0116007Y0226762D01*
X0116009Y0226670D01*
X0116007Y0226578D01*
X0116001Y0226487D01*
X0115991Y0226396D01*
X0115977Y0226305D01*
X0115959Y0226215D01*
X0115937Y0226126D01*
X0115912Y0226039D01*
X0115882Y0225952D01*
X0115849Y0225866D01*
X0115812Y0225783D01*
X0115772Y0225700D01*
X0115728Y0225620D01*
X0115680Y0225542D01*
X0115629Y0225465D01*
X0115575Y0225392D01*
X0115518Y0225320D01*
X0115457Y0225251D01*
X0115394Y0225185D01*
X0115328Y0225122D01*
X0115259Y0225061D01*
X0115187Y0225004D01*
X0115114Y0224950D01*
X0115037Y0224899D01*
X0114959Y0224851D01*
X0114879Y0224807D01*
X0114796Y0224767D01*
X0114713Y0224730D01*
X0114627Y0224697D01*
X0114540Y0224667D01*
X0114453Y0224642D01*
X0114364Y0224620D01*
X0114274Y0224602D01*
X0114183Y0224588D01*
X0114092Y0224578D01*
X0114001Y0224572D01*
X0113909Y0224570D01*
X0113817Y0224572D01*
X0113726Y0224578D01*
X0113635Y0224588D01*
X0113544Y0224602D01*
X0113454Y0224620D01*
X0113365Y0224642D01*
X0113278Y0224667D01*
X0113191Y0224697D01*
X0113105Y0224730D01*
X0113022Y0224767D01*
X0112939Y0224807D01*
X0112859Y0224851D01*
X0112781Y0224899D01*
X0112704Y0224950D01*
X0112631Y0225004D01*
X0112559Y0225061D01*
X0112490Y0225122D01*
X0112424Y0225185D01*
X0112361Y0225251D01*
X0112300Y0225320D01*
X0112243Y0225392D01*
X0112189Y0225465D01*
X0112138Y0225542D01*
X0112090Y0225620D01*
X0112046Y0225700D01*
X0112006Y0225783D01*
X0111969Y0225866D01*
X0111936Y0225952D01*
X0111906Y0226039D01*
X0111881Y0226126D01*
X0111859Y0226215D01*
X0111841Y0226305D01*
X0111827Y0226396D01*
X0111817Y0226487D01*
X0111811Y0226578D01*
X0111809Y0226670D01*
X0113409Y0226670D02*
X0113411Y0226714D01*
X0113417Y0226758D01*
X0113427Y0226801D01*
X0113440Y0226843D01*
X0113457Y0226884D01*
X0113478Y0226923D01*
X0113502Y0226960D01*
X0113529Y0226995D01*
X0113559Y0227027D01*
X0113592Y0227057D01*
X0113628Y0227083D01*
X0113665Y0227107D01*
X0113705Y0227126D01*
X0113746Y0227143D01*
X0113789Y0227155D01*
X0113832Y0227164D01*
X0113876Y0227169D01*
X0113920Y0227170D01*
X0113964Y0227167D01*
X0114008Y0227160D01*
X0114051Y0227149D01*
X0114093Y0227135D01*
X0114133Y0227117D01*
X0114172Y0227095D01*
X0114208Y0227071D01*
X0114242Y0227043D01*
X0114274Y0227012D01*
X0114303Y0226978D01*
X0114329Y0226942D01*
X0114351Y0226904D01*
X0114370Y0226864D01*
X0114385Y0226822D01*
X0114397Y0226780D01*
X0114405Y0226736D01*
X0114409Y0226692D01*
X0114409Y0226648D01*
X0114405Y0226604D01*
X0114397Y0226560D01*
X0114385Y0226518D01*
X0114370Y0226476D01*
X0114351Y0226436D01*
X0114329Y0226398D01*
X0114303Y0226362D01*
X0114274Y0226328D01*
X0114242Y0226297D01*
X0114208Y0226269D01*
X0114172Y0226245D01*
X0114133Y0226223D01*
X0114093Y0226205D01*
X0114051Y0226191D01*
X0114008Y0226180D01*
X0113964Y0226173D01*
X0113920Y0226170D01*
X0113876Y0226171D01*
X0113832Y0226176D01*
X0113789Y0226185D01*
X0113746Y0226197D01*
X0113705Y0226214D01*
X0113665Y0226233D01*
X0113628Y0226257D01*
X0113592Y0226283D01*
X0113559Y0226313D01*
X0113529Y0226345D01*
X0113502Y0226380D01*
X0113478Y0226417D01*
X0113457Y0226456D01*
X0113440Y0226497D01*
X0113427Y0226539D01*
X0113417Y0226582D01*
X0113411Y0226626D01*
X0113409Y0226670D01*
X0108509Y0224270D02*
X0106509Y0224270D01*
X0107509Y0223270D01*
X0108509Y0224270D01*
X0107509Y0223270D02*
X0107509Y0230770D01*
X0109509Y0228770D02*
X0109507Y0228677D01*
X0109501Y0228584D01*
X0109492Y0228492D01*
X0109478Y0228400D01*
X0109461Y0228308D01*
X0109440Y0228218D01*
X0109415Y0228128D01*
X0109387Y0228039D01*
X0109355Y0227952D01*
X0109319Y0227866D01*
X0109280Y0227782D01*
X0109238Y0227699D01*
X0109192Y0227618D01*
X0109143Y0227539D01*
X0109090Y0227463D01*
X0109035Y0227388D01*
X0108976Y0227316D01*
X0108914Y0227246D01*
X0108850Y0227179D01*
X0108783Y0227115D01*
X0108713Y0227053D01*
X0108641Y0226994D01*
X0108566Y0226939D01*
X0108490Y0226886D01*
X0108411Y0226837D01*
X0108330Y0226791D01*
X0108247Y0226749D01*
X0108163Y0226710D01*
X0108077Y0226674D01*
X0107990Y0226642D01*
X0107901Y0226614D01*
X0107811Y0226589D01*
X0107721Y0226568D01*
X0107629Y0226551D01*
X0107537Y0226537D01*
X0107445Y0226528D01*
X0107352Y0226522D01*
X0107259Y0226520D01*
X0107166Y0226522D01*
X0107073Y0226528D01*
X0106981Y0226537D01*
X0106889Y0226551D01*
X0106797Y0226568D01*
X0106707Y0226589D01*
X0106617Y0226614D01*
X0106528Y0226642D01*
X0106441Y0226674D01*
X0106355Y0226710D01*
X0106271Y0226749D01*
X0106188Y0226791D01*
X0106107Y0226837D01*
X0106028Y0226886D01*
X0105952Y0226939D01*
X0105877Y0226994D01*
X0105805Y0227053D01*
X0105735Y0227115D01*
X0105668Y0227179D01*
X0105604Y0227246D01*
X0105542Y0227316D01*
X0105483Y0227388D01*
X0105428Y0227463D01*
X0105375Y0227539D01*
X0105326Y0227618D01*
X0105280Y0227699D01*
X0105238Y0227782D01*
X0105199Y0227866D01*
X0105163Y0227952D01*
X0105131Y0228039D01*
X0105103Y0228128D01*
X0105078Y0228218D01*
X0105057Y0228308D01*
X0105040Y0228400D01*
X0105026Y0228492D01*
X0105017Y0228584D01*
X0105011Y0228677D01*
X0105009Y0228770D01*
X0106009Y0228270D01*
X0104509Y0227770D01*
X0105009Y0228770D01*
X0103009Y0227270D02*
X0096009Y0227270D01*
X0097009Y0228270D01*
X0097109Y0228370D02*
X0097109Y0226170D01*
X0097009Y0226270D02*
X0096009Y0227270D01*
X0101009Y0228870D02*
X0100509Y0230270D01*
X0101509Y0229770D01*
X0101009Y0228870D01*
X0101509Y0229770D02*
X0101411Y0229768D01*
X0101313Y0229762D01*
X0101215Y0229753D01*
X0101118Y0229739D01*
X0101021Y0229722D01*
X0100925Y0229701D01*
X0100830Y0229676D01*
X0100736Y0229648D01*
X0100644Y0229615D01*
X0100552Y0229580D01*
X0100462Y0229540D01*
X0100374Y0229498D01*
X0100287Y0229451D01*
X0100203Y0229402D01*
X0100120Y0229349D01*
X0100040Y0229293D01*
X0099961Y0229233D01*
X0099885Y0229171D01*
X0099812Y0229106D01*
X0099741Y0229038D01*
X0099673Y0228967D01*
X0099608Y0228894D01*
X0099546Y0228818D01*
X0099486Y0228739D01*
X0099430Y0228659D01*
X0099377Y0228576D01*
X0099328Y0228492D01*
X0099281Y0228405D01*
X0099239Y0228317D01*
X0099199Y0228227D01*
X0099164Y0228135D01*
X0099131Y0228043D01*
X0099103Y0227949D01*
X0099078Y0227854D01*
X0099057Y0227758D01*
X0099040Y0227661D01*
X0099026Y0227564D01*
X0099017Y0227466D01*
X0099011Y0227368D01*
X0099009Y0227270D01*
X0099011Y0227172D01*
X0099017Y0227074D01*
X0099026Y0226976D01*
X0099040Y0226879D01*
X0099057Y0226782D01*
X0099078Y0226686D01*
X0099103Y0226591D01*
X0099131Y0226497D01*
X0099164Y0226405D01*
X0099199Y0226313D01*
X0099239Y0226223D01*
X0099281Y0226135D01*
X0099328Y0226048D01*
X0099377Y0225964D01*
X0099430Y0225881D01*
X0099486Y0225801D01*
X0099546Y0225722D01*
X0099608Y0225646D01*
X0099673Y0225573D01*
X0099741Y0225502D01*
X0099812Y0225434D01*
X0099885Y0225369D01*
X0099961Y0225307D01*
X0100040Y0225247D01*
X0100120Y0225191D01*
X0100203Y0225138D01*
X0100287Y0225089D01*
X0100374Y0225042D01*
X0100462Y0225000D01*
X0100552Y0224960D01*
X0100644Y0224925D01*
X0100736Y0224892D01*
X0100830Y0224864D01*
X0100925Y0224839D01*
X0101021Y0224818D01*
X0101118Y0224801D01*
X0101215Y0224787D01*
X0101313Y0224778D01*
X0101411Y0224772D01*
X0101509Y0224770D01*
D11*
X0102709Y0220339D02*
X0099306Y0218070D01*
X0099306Y0220339D02*
X0102709Y0218070D01*
X0105806Y0218070D02*
X0106373Y0218070D01*
X0107508Y0219205D01*
X0109209Y0219205D01*
X0107508Y0219205D02*
X0106373Y0220339D01*
X0105806Y0220339D01*
X0112806Y0220339D02*
X0112806Y0218070D01*
X0112806Y0220339D02*
X0113373Y0220339D01*
X0115642Y0218070D01*
X0116209Y0218070D01*
X0116209Y0220339D01*
X0148933Y0141433D02*
X0173933Y0141433D01*
X0176433Y0138933D01*
X0176433Y0133933D01*
X0173933Y0131433D01*
X0148933Y0131433D01*
X0146433Y0128933D01*
X0146433Y0123933D01*
X0148933Y0121433D01*
X0173933Y0121433D01*
X0176433Y0118933D01*
X0176433Y0113933D01*
X0173933Y0111433D01*
X0148933Y0111433D01*
X0146433Y0108933D01*
X0146433Y0103933D01*
X0148933Y0101433D01*
X0173933Y0101433D01*
X0176433Y0103933D01*
X0176433Y0108933D01*
X0173933Y0111433D01*
X0177228Y0107436D02*
X0178295Y0108503D01*
X0182566Y0104233D01*
X0183633Y0105301D01*
X0183633Y0107436D01*
X0182566Y0108503D01*
X0178295Y0108503D01*
X0177228Y0107436D02*
X0177228Y0105301D01*
X0178295Y0104233D01*
X0182566Y0104233D01*
X0183633Y0114233D02*
X0183633Y0118503D01*
X0183633Y0116368D02*
X0177228Y0116368D01*
X0179363Y0114233D01*
X0173933Y0121433D02*
X0176433Y0123933D01*
X0176433Y0128933D01*
X0173933Y0131433D01*
X0177228Y0135301D02*
X0177228Y0137436D01*
X0178295Y0138503D01*
X0179363Y0138503D01*
X0180430Y0137436D01*
X0181498Y0138503D01*
X0182566Y0138503D01*
X0183633Y0137436D01*
X0183633Y0135301D01*
X0182566Y0134233D01*
X0180430Y0136368D02*
X0180430Y0137436D01*
X0177228Y0135301D02*
X0178295Y0134233D01*
X0178295Y0128503D02*
X0177228Y0127436D01*
X0177228Y0125301D01*
X0178295Y0124233D01*
X0178295Y0128503D02*
X0179363Y0128503D01*
X0183633Y0124233D01*
X0183633Y0128503D01*
X0165515Y0099228D02*
X0166515Y0098228D01*
X0166515Y0090228D01*
X0165515Y0089228D01*
X0157515Y0089228D01*
X0156515Y0090228D01*
X0155515Y0089228D01*
X0147515Y0089228D01*
X0146515Y0090228D01*
X0146515Y0098228D01*
X0147515Y0099228D01*
X0155515Y0099228D01*
X0156515Y0098228D01*
X0157515Y0099228D01*
X0165515Y0099228D01*
X0148933Y0111433D02*
X0146433Y0113933D01*
X0146433Y0118933D01*
X0148933Y0121433D01*
X0148933Y0131433D02*
X0146433Y0133933D01*
X0146433Y0138933D01*
X0148933Y0141433D01*
X0117920Y0139010D02*
X0099946Y0139010D01*
X0111933Y0107356D02*
X0111935Y0107440D01*
X0111941Y0107525D01*
X0111951Y0107608D01*
X0111965Y0107692D01*
X0111982Y0107774D01*
X0112004Y0107856D01*
X0112029Y0107936D01*
X0112058Y0108015D01*
X0112091Y0108093D01*
X0112127Y0108169D01*
X0112167Y0108244D01*
X0112211Y0108316D01*
X0112257Y0108387D01*
X0112307Y0108455D01*
X0112360Y0108520D01*
X0112416Y0108583D01*
X0112475Y0108644D01*
X0112537Y0108701D01*
X0112601Y0108756D01*
X0112668Y0108807D01*
X0112737Y0108856D01*
X0112809Y0108901D01*
X0112882Y0108942D01*
X0112957Y0108980D01*
X0113034Y0109015D01*
X0113113Y0109046D01*
X0113193Y0109073D01*
X0113274Y0109096D01*
X0113356Y0109116D01*
X0113439Y0109132D01*
X0113522Y0109144D01*
X0113607Y0109152D01*
X0113691Y0109156D01*
X0113775Y0109156D01*
X0113859Y0109152D01*
X0113944Y0109144D01*
X0114027Y0109132D01*
X0114110Y0109116D01*
X0114192Y0109096D01*
X0114273Y0109073D01*
X0114353Y0109046D01*
X0114432Y0109015D01*
X0114509Y0108980D01*
X0114584Y0108942D01*
X0114657Y0108901D01*
X0114729Y0108856D01*
X0114798Y0108807D01*
X0114865Y0108756D01*
X0114929Y0108701D01*
X0114991Y0108644D01*
X0115050Y0108583D01*
X0115106Y0108520D01*
X0115159Y0108455D01*
X0115209Y0108387D01*
X0115255Y0108316D01*
X0115299Y0108244D01*
X0115339Y0108169D01*
X0115375Y0108093D01*
X0115408Y0108015D01*
X0115437Y0107936D01*
X0115462Y0107856D01*
X0115484Y0107774D01*
X0115501Y0107692D01*
X0115515Y0107608D01*
X0115525Y0107525D01*
X0115531Y0107440D01*
X0115533Y0107356D01*
X0115531Y0107272D01*
X0115525Y0107187D01*
X0115515Y0107104D01*
X0115501Y0107020D01*
X0115484Y0106938D01*
X0115462Y0106856D01*
X0115437Y0106776D01*
X0115408Y0106697D01*
X0115375Y0106619D01*
X0115339Y0106543D01*
X0115299Y0106468D01*
X0115255Y0106396D01*
X0115209Y0106325D01*
X0115159Y0106257D01*
X0115106Y0106192D01*
X0115050Y0106129D01*
X0114991Y0106068D01*
X0114929Y0106011D01*
X0114865Y0105956D01*
X0114798Y0105905D01*
X0114729Y0105856D01*
X0114657Y0105811D01*
X0114584Y0105770D01*
X0114509Y0105732D01*
X0114432Y0105697D01*
X0114353Y0105666D01*
X0114273Y0105639D01*
X0114192Y0105616D01*
X0114110Y0105596D01*
X0114027Y0105580D01*
X0113944Y0105568D01*
X0113859Y0105560D01*
X0113775Y0105556D01*
X0113691Y0105556D01*
X0113607Y0105560D01*
X0113522Y0105568D01*
X0113439Y0105580D01*
X0113356Y0105596D01*
X0113274Y0105616D01*
X0113193Y0105639D01*
X0113113Y0105666D01*
X0113034Y0105697D01*
X0112957Y0105732D01*
X0112882Y0105770D01*
X0112809Y0105811D01*
X0112737Y0105856D01*
X0112668Y0105905D01*
X0112601Y0105956D01*
X0112537Y0106011D01*
X0112475Y0106068D01*
X0112416Y0106129D01*
X0112360Y0106192D01*
X0112307Y0106257D01*
X0112257Y0106325D01*
X0112211Y0106396D01*
X0112167Y0106468D01*
X0112127Y0106543D01*
X0112091Y0106619D01*
X0112058Y0106697D01*
X0112029Y0106776D01*
X0112004Y0106856D01*
X0111982Y0106938D01*
X0111965Y0107020D01*
X0111951Y0107104D01*
X0111941Y0107187D01*
X0111935Y0107272D01*
X0111933Y0107356D01*
X0117920Y0103856D02*
X0099946Y0103856D01*
D12*
X0139658Y0084661D02*
X0139658Y0082059D01*
X0140309Y0081408D01*
X0141610Y0081408D01*
X0142260Y0082059D01*
X0142260Y0083360D01*
X0140959Y0083360D01*
X0139658Y0084661D02*
X0140309Y0085311D01*
X0141610Y0085311D01*
X0142260Y0084661D01*
X0143525Y0084661D02*
X0144826Y0083360D01*
X0144826Y0081408D01*
X0144826Y0083360D02*
X0146128Y0084661D01*
X0146128Y0085311D01*
X0143525Y0085311D02*
X0143525Y0084661D01*
X0142260Y0079011D02*
X0142260Y0075108D01*
X0140309Y0075108D01*
X0139658Y0075759D01*
X0139658Y0077060D01*
X0140309Y0077710D01*
X0142260Y0077710D01*
X0143525Y0077710D02*
X0143525Y0075108D01*
X0143525Y0076409D02*
X0144826Y0077710D01*
X0145477Y0077710D01*
X0146748Y0077710D02*
X0147399Y0077710D01*
X0147399Y0075108D01*
X0148049Y0075108D02*
X0146748Y0075108D01*
X0149326Y0077710D02*
X0150627Y0075108D01*
X0151929Y0077710D01*
X0153194Y0077060D02*
X0153844Y0077710D01*
X0155145Y0077710D01*
X0155796Y0077060D01*
X0155796Y0076409D01*
X0153194Y0076409D01*
X0153194Y0075759D02*
X0153194Y0077060D01*
X0153194Y0075759D02*
X0153844Y0075108D01*
X0155145Y0075108D01*
X0157061Y0075108D02*
X0157061Y0077710D01*
X0157061Y0076409D02*
X0158362Y0077710D01*
X0159013Y0077710D01*
X0160946Y0081408D02*
X0160946Y0085311D01*
X0158995Y0083360D01*
X0161597Y0083360D01*
X0164151Y0077710D02*
X0165452Y0075108D01*
X0166753Y0077710D01*
X0168018Y0075759D02*
X0168669Y0075759D01*
X0168669Y0075108D01*
X0168018Y0075108D01*
X0168018Y0075759D01*
X0168681Y0081408D02*
X0166729Y0081408D01*
X0167380Y0082709D02*
X0166729Y0083360D01*
X0167380Y0084010D01*
X0169331Y0084010D01*
X0170596Y0083360D02*
X0170596Y0082059D01*
X0171247Y0081408D01*
X0172548Y0081408D01*
X0173199Y0082709D02*
X0170596Y0082709D01*
X0170596Y0083360D02*
X0171247Y0084010D01*
X0172548Y0084010D01*
X0173199Y0083360D01*
X0173199Y0082709D01*
X0174464Y0082709D02*
X0175765Y0084010D01*
X0176415Y0084010D01*
X0177687Y0084010D02*
X0178988Y0081408D01*
X0180289Y0084010D01*
X0181554Y0083360D02*
X0181554Y0082059D01*
X0182204Y0081408D01*
X0183505Y0081408D01*
X0184156Y0082059D01*
X0184156Y0083360D01*
X0183505Y0084010D01*
X0182204Y0084010D01*
X0181554Y0083360D01*
X0181572Y0079011D02*
X0180271Y0079011D01*
X0179620Y0078361D01*
X0179620Y0075759D01*
X0182222Y0078361D01*
X0182222Y0075759D01*
X0181572Y0075108D01*
X0180271Y0075108D01*
X0179620Y0075759D01*
X0178337Y0075759D02*
X0178337Y0075108D01*
X0177687Y0075108D01*
X0177687Y0075759D01*
X0178337Y0075759D01*
X0176421Y0075108D02*
X0173819Y0075108D01*
X0175120Y0075108D02*
X0175120Y0079011D01*
X0173819Y0077710D01*
X0174464Y0081408D02*
X0174464Y0084010D01*
X0169331Y0082059D02*
X0168681Y0082709D01*
X0167380Y0082709D01*
X0168681Y0081408D02*
X0169331Y0082059D01*
X0164972Y0070886D02*
X0163121Y0070886D01*
X0163121Y0067183D01*
X0161900Y0067183D02*
X0160665Y0067183D01*
X0161283Y0067183D02*
X0161283Y0070886D01*
X0161900Y0070886D02*
X0160665Y0070886D01*
X0159451Y0070886D02*
X0159451Y0067183D01*
X0159451Y0069035D02*
X0156982Y0069035D01*
X0155768Y0070269D02*
X0155151Y0070886D01*
X0153916Y0070886D01*
X0153299Y0070269D01*
X0153299Y0067800D01*
X0153916Y0067183D01*
X0155151Y0067183D01*
X0155768Y0067800D01*
X0156982Y0067183D02*
X0156982Y0070886D01*
X0163121Y0068417D02*
X0164972Y0068417D01*
X0165590Y0069035D01*
X0165590Y0070269D01*
X0164972Y0070886D01*
X0170487Y0069652D02*
X0170487Y0065949D01*
X0170487Y0067183D02*
X0172339Y0067183D01*
X0172956Y0067800D01*
X0172956Y0069035D01*
X0172339Y0069652D01*
X0170487Y0069652D01*
X0174170Y0069652D02*
X0174170Y0067183D01*
X0174170Y0068417D02*
X0175405Y0069652D01*
X0176022Y0069652D01*
X0177239Y0069035D02*
X0177239Y0067800D01*
X0177857Y0067183D01*
X0179091Y0067183D01*
X0179708Y0067800D01*
X0179708Y0069035D01*
X0179091Y0069652D01*
X0177857Y0069652D01*
X0177239Y0069035D01*
X0182222Y0078361D02*
X0181572Y0079011D01*
X0153862Y0083360D02*
X0151260Y0083360D01*
X0152561Y0084661D02*
X0152561Y0082059D01*
X0147399Y0079662D02*
X0147399Y0079011D01*
X0141642Y0070886D02*
X0141025Y0070269D01*
X0141025Y0067183D01*
X0142863Y0067800D02*
X0143481Y0067183D01*
X0144715Y0067183D01*
X0145332Y0067800D01*
X0145332Y0069035D01*
X0144715Y0069652D01*
X0143481Y0069652D01*
X0142863Y0069035D01*
X0142863Y0067800D01*
X0141642Y0069035D02*
X0140408Y0069035D01*
X0146547Y0069652D02*
X0146547Y0067183D01*
X0146547Y0068417D02*
X0147781Y0069652D01*
X0148398Y0069652D01*
D13*
X0127233Y0190263D02*
X0127233Y0190503D01*
X0114803Y0206283D02*
X0114563Y0206283D01*
X0136433Y0223813D02*
X0136433Y0224053D01*
X0151433Y0224053D02*
X0151433Y0223813D01*
D14*
X0151662Y0228133D02*
X0151662Y0228884D01*
X0151412Y0229134D01*
X0150662Y0229134D01*
X0150662Y0228133D01*
X0150189Y0228383D02*
X0149939Y0228133D01*
X0149438Y0228133D01*
X0149188Y0228383D01*
X0150189Y0229384D01*
X0150189Y0228383D01*
X0149188Y0228383D02*
X0149188Y0229384D01*
X0149438Y0229634D01*
X0149939Y0229634D01*
X0150189Y0229384D01*
X0148716Y0228133D02*
X0147715Y0228133D01*
X0148215Y0228133D02*
X0148215Y0229634D01*
X0147715Y0229134D01*
X0152135Y0228884D02*
X0152635Y0228884D01*
X0152135Y0229634D02*
X0153136Y0229634D01*
X0152135Y0229634D02*
X0152135Y0228133D01*
X0139890Y0229734D02*
X0138889Y0229734D01*
X0138889Y0228233D01*
X0138417Y0228233D02*
X0138417Y0229234D01*
X0138889Y0228984D02*
X0139390Y0228984D01*
X0138417Y0228233D02*
X0137666Y0228233D01*
X0137416Y0228483D01*
X0137416Y0229234D01*
X0136443Y0229734D02*
X0136443Y0228233D01*
X0135943Y0228233D02*
X0136944Y0228233D01*
X0135943Y0229234D02*
X0136443Y0229734D01*
X0135457Y0228483D02*
X0135457Y0228233D01*
X0135206Y0228233D01*
X0135206Y0228483D01*
X0135457Y0228483D01*
X0134734Y0228483D02*
X0134484Y0228233D01*
X0133983Y0228233D01*
X0133733Y0228483D01*
X0134734Y0229484D01*
X0134734Y0228483D01*
X0133733Y0228483D02*
X0133733Y0229484D01*
X0133983Y0229734D01*
X0134484Y0229734D01*
X0134734Y0229484D01*
X0110483Y0208235D02*
X0108982Y0208235D01*
X0108982Y0209236D01*
X0109732Y0208735D02*
X0109732Y0208235D01*
X0109482Y0207762D02*
X0110483Y0207762D01*
X0110483Y0207012D01*
X0110233Y0206762D01*
X0109482Y0206762D01*
X0108982Y0205789D02*
X0110483Y0205789D01*
X0110483Y0206289D02*
X0110483Y0205288D01*
X0110483Y0204802D02*
X0110483Y0204552D01*
X0110233Y0204552D01*
X0110233Y0204802D01*
X0110483Y0204802D01*
X0110233Y0204079D02*
X0110483Y0203829D01*
X0110483Y0203329D01*
X0110233Y0203078D01*
X0109232Y0204079D01*
X0110233Y0204079D01*
X0110233Y0203078D02*
X0109232Y0203078D01*
X0108982Y0203329D01*
X0108982Y0203829D01*
X0109232Y0204079D01*
X0109482Y0205288D02*
X0108982Y0205789D01*
X0124904Y0186084D02*
X0124653Y0185834D01*
X0124904Y0186084D02*
X0125404Y0186084D01*
X0125654Y0185834D01*
X0125654Y0185584D01*
X0124653Y0184583D01*
X0125654Y0184583D01*
X0126127Y0184583D02*
X0126377Y0184583D01*
X0126377Y0184833D01*
X0126127Y0184833D01*
X0126127Y0184583D01*
X0126863Y0184583D02*
X0127864Y0185584D01*
X0127864Y0185834D01*
X0127614Y0186084D01*
X0127113Y0186084D01*
X0126863Y0185834D01*
X0126863Y0184583D02*
X0127864Y0184583D01*
X0128337Y0184583D02*
X0128337Y0185584D01*
X0129087Y0185584D01*
X0129337Y0185334D01*
X0129337Y0184583D01*
X0129810Y0184583D02*
X0129810Y0186084D01*
X0130811Y0186084D01*
X0130310Y0185334D02*
X0129810Y0185334D01*
X0107404Y0171859D02*
X0106403Y0171859D01*
X0106403Y0170358D01*
X0105930Y0170358D02*
X0105930Y0171359D01*
X0106403Y0171109D02*
X0106903Y0171109D01*
X0105930Y0170358D02*
X0105180Y0170358D01*
X0104930Y0170608D01*
X0104930Y0171359D01*
X0104457Y0171609D02*
X0103456Y0170608D01*
X0103707Y0170358D01*
X0104207Y0170358D01*
X0104457Y0170608D01*
X0104457Y0171609D01*
X0104207Y0171859D01*
X0103707Y0171859D01*
X0103456Y0171609D01*
X0103456Y0170608D01*
X0102984Y0170358D02*
X0101983Y0170358D01*
X0102483Y0170358D02*
X0102483Y0171859D01*
X0101983Y0171359D01*
X0124314Y0139384D02*
X0124063Y0139134D01*
X0124314Y0139384D02*
X0124814Y0139384D01*
X0125064Y0139134D01*
X0125064Y0138884D01*
X0124063Y0137883D01*
X0125064Y0137883D01*
X0125537Y0137883D02*
X0126537Y0138884D01*
X0126537Y0139134D01*
X0126287Y0139384D01*
X0125787Y0139384D01*
X0125537Y0139134D01*
X0125537Y0137883D02*
X0126537Y0137883D01*
X0127010Y0138133D02*
X0128011Y0139134D01*
X0128011Y0138133D01*
X0127760Y0137883D01*
X0127260Y0137883D01*
X0127010Y0138133D01*
X0127010Y0139134D01*
X0127260Y0139384D01*
X0127760Y0139384D01*
X0128011Y0139134D01*
X0127760Y0129384D02*
X0128011Y0129134D01*
X0127010Y0128133D01*
X0127260Y0127883D01*
X0127760Y0127883D01*
X0128011Y0128133D01*
X0128011Y0129134D01*
X0127760Y0129384D02*
X0127260Y0129384D01*
X0127010Y0129134D01*
X0127010Y0128133D01*
X0126537Y0127883D02*
X0125537Y0127883D01*
X0126537Y0128884D01*
X0126537Y0129134D01*
X0126287Y0129384D01*
X0125787Y0129384D01*
X0125537Y0129134D01*
X0125064Y0129134D02*
X0124814Y0129384D01*
X0124314Y0129384D01*
X0124063Y0129134D01*
X0125064Y0129134D02*
X0125064Y0128884D01*
X0124063Y0127883D01*
X0125064Y0127883D01*
X0124814Y0119384D02*
X0124314Y0119384D01*
X0124063Y0119134D01*
X0124814Y0119384D02*
X0125064Y0119134D01*
X0125064Y0118884D01*
X0124063Y0117883D01*
X0125064Y0117883D01*
X0125537Y0117883D02*
X0126537Y0118884D01*
X0126537Y0119134D01*
X0126287Y0119384D01*
X0125787Y0119384D01*
X0125537Y0119134D01*
X0125537Y0117883D02*
X0126537Y0117883D01*
X0127010Y0118133D02*
X0128011Y0119134D01*
X0128011Y0118133D01*
X0127760Y0117883D01*
X0127260Y0117883D01*
X0127010Y0118133D01*
X0127010Y0119134D01*
X0127260Y0119384D01*
X0127760Y0119384D01*
X0128011Y0119134D01*
X0127760Y0109384D02*
X0128011Y0109134D01*
X0127010Y0108133D01*
X0127260Y0107883D01*
X0127760Y0107883D01*
X0128011Y0108133D01*
X0128011Y0109134D01*
X0127760Y0109384D02*
X0127260Y0109384D01*
X0127010Y0109134D01*
X0127010Y0108133D01*
X0126537Y0107883D02*
X0125537Y0107883D01*
X0126537Y0108884D01*
X0126537Y0109134D01*
X0126287Y0109384D01*
X0125787Y0109384D01*
X0125537Y0109134D01*
X0125064Y0109134D02*
X0124814Y0109384D01*
X0124314Y0109384D01*
X0124063Y0109134D01*
X0125064Y0109134D02*
X0125064Y0108884D01*
X0124063Y0107883D01*
X0125064Y0107883D01*
X0113586Y0102612D02*
X0112585Y0102612D01*
X0112585Y0101861D01*
X0113085Y0102111D01*
X0113335Y0102111D01*
X0113586Y0101861D01*
X0113586Y0101360D01*
X0113335Y0101110D01*
X0112835Y0101110D01*
X0112585Y0101360D01*
X0112112Y0101360D02*
X0111862Y0101110D01*
X0111362Y0101110D01*
X0111112Y0101360D01*
X0111112Y0101611D01*
X0111362Y0101861D01*
X0111862Y0101861D01*
X0112112Y0101611D01*
X0112112Y0101360D01*
X0111862Y0101861D02*
X0112112Y0102111D01*
X0112112Y0102361D01*
X0111862Y0102612D01*
X0111362Y0102612D01*
X0111112Y0102361D01*
X0111112Y0102111D01*
X0111362Y0101861D01*
X0110639Y0101611D02*
X0110389Y0101861D01*
X0109638Y0101861D01*
X0109638Y0101360D01*
X0109888Y0101110D01*
X0110389Y0101110D01*
X0110639Y0101360D01*
X0110639Y0101611D01*
X0110139Y0102361D02*
X0109638Y0101861D01*
X0109166Y0101861D02*
X0108415Y0101861D01*
X0108165Y0102111D01*
X0108165Y0102361D01*
X0108415Y0102612D01*
X0108916Y0102612D01*
X0109166Y0102361D01*
X0109166Y0101360D01*
X0108916Y0101110D01*
X0108415Y0101110D01*
X0108165Y0101360D01*
X0107693Y0101110D02*
X0107693Y0102111D01*
X0107192Y0102612D01*
X0106692Y0102111D01*
X0106692Y0101110D01*
X0106219Y0101360D02*
X0105969Y0101110D01*
X0105469Y0101110D01*
X0105219Y0101360D01*
X0105219Y0102361D01*
X0105469Y0102612D01*
X0105969Y0102612D01*
X0106219Y0102361D01*
X0106692Y0101861D02*
X0107693Y0101861D01*
X0110139Y0102361D02*
X0110639Y0102612D01*
X0104746Y0102361D02*
X0104746Y0101861D01*
X0104496Y0101611D01*
X0103745Y0101611D01*
X0103745Y0101110D02*
X0103745Y0102612D01*
X0104496Y0102612D01*
X0104746Y0102361D01*
X0154757Y0179608D02*
X0154257Y0180108D01*
X0155758Y0180108D01*
X0155758Y0179608D02*
X0155758Y0180609D01*
X0155508Y0181081D02*
X0154507Y0182082D01*
X0155508Y0182082D01*
X0155758Y0181832D01*
X0155758Y0181332D01*
X0155508Y0181081D01*
X0154507Y0181081D01*
X0154257Y0181332D01*
X0154257Y0181832D01*
X0154507Y0182082D01*
X0154257Y0182555D02*
X0155758Y0182555D01*
X0155258Y0182555D02*
X0155758Y0183305D01*
X0155258Y0182555D02*
X0154757Y0183305D01*
X0164257Y0181930D02*
X0165758Y0181930D01*
X0165258Y0181930D02*
X0164757Y0182680D01*
X0165258Y0181930D02*
X0165758Y0182680D01*
X0165508Y0181457D02*
X0165758Y0181207D01*
X0165758Y0180707D01*
X0165508Y0180456D01*
X0164507Y0181457D01*
X0165508Y0181457D01*
X0165508Y0180456D02*
X0164507Y0180456D01*
X0164257Y0180707D01*
X0164257Y0181207D01*
X0164507Y0181457D01*
X0165758Y0179984D02*
X0165758Y0178983D01*
X0165758Y0179483D02*
X0164257Y0179483D01*
X0164757Y0178983D01*
D15*
X0148520Y0198165D02*
X0149701Y0199346D01*
X0148192Y0199425D02*
X0148194Y0199456D01*
X0148200Y0199487D01*
X0148209Y0199517D01*
X0148223Y0199545D01*
X0148240Y0199571D01*
X0148259Y0199595D01*
X0148282Y0199617D01*
X0148308Y0199635D01*
X0148335Y0199650D01*
X0148364Y0199662D01*
X0148394Y0199670D01*
X0148425Y0199674D01*
X0148457Y0199674D01*
X0148488Y0199670D01*
X0148518Y0199662D01*
X0148547Y0199650D01*
X0148574Y0199635D01*
X0148600Y0199617D01*
X0148623Y0199595D01*
X0148642Y0199571D01*
X0148659Y0199545D01*
X0148673Y0199517D01*
X0148682Y0199487D01*
X0148688Y0199456D01*
X0148690Y0199425D01*
X0148688Y0199394D01*
X0148682Y0199363D01*
X0148673Y0199333D01*
X0148659Y0199305D01*
X0148642Y0199279D01*
X0148623Y0199255D01*
X0148600Y0199233D01*
X0148574Y0199215D01*
X0148547Y0199200D01*
X0148518Y0199188D01*
X0148488Y0199180D01*
X0148457Y0199176D01*
X0148425Y0199176D01*
X0148394Y0199180D01*
X0148364Y0199188D01*
X0148335Y0199200D01*
X0148308Y0199215D01*
X0148282Y0199233D01*
X0148259Y0199255D01*
X0148240Y0199279D01*
X0148223Y0199305D01*
X0148209Y0199333D01*
X0148200Y0199363D01*
X0148194Y0199394D01*
X0148192Y0199425D01*
X0149701Y0213520D02*
X0149701Y0214701D01*
X0148520Y0214701D01*
X0134346Y0214701D02*
X0133165Y0214701D01*
X0133165Y0213520D01*
X0133165Y0199346D02*
X0133165Y0198165D01*
X0134346Y0198165D01*
X0111020Y0181226D02*
X0111020Y0174140D01*
X0096846Y0174140D01*
X0096846Y0181226D01*
X0111020Y0181226D01*
X0129346Y0139976D02*
X0143520Y0139976D01*
X0143520Y0132890D01*
X0129346Y0132890D01*
X0129346Y0139976D01*
X0129346Y0129976D02*
X0143520Y0129976D01*
X0143520Y0122890D01*
X0129346Y0122890D01*
X0129346Y0129976D01*
X0129346Y0119976D02*
X0143520Y0119976D01*
X0143520Y0112890D01*
X0129346Y0112890D01*
X0129346Y0119976D01*
X0129346Y0109976D02*
X0143520Y0109976D01*
X0143520Y0102890D01*
X0129346Y0102890D01*
X0129346Y0109976D01*
X0167161Y0093981D02*
X0167161Y0090978D01*
X0167161Y0093230D02*
X0170164Y0093230D01*
X0170164Y0093981D02*
X0170164Y0090978D01*
X0170164Y0093981D02*
X0168662Y0095482D01*
X0167161Y0093981D01*
D16*
X0138858Y0083856D02*
X0137657Y0082655D01*
X0135255Y0082655D01*
X0135255Y0081374D02*
X0135255Y0078972D01*
X0137057Y0078972D01*
X0136456Y0080173D01*
X0136456Y0080773D01*
X0137057Y0081374D01*
X0138258Y0081374D01*
X0138858Y0080773D01*
X0138858Y0079572D01*
X0138258Y0078972D01*
X0138858Y0077691D02*
X0135255Y0077691D01*
X0135255Y0075288D02*
X0138858Y0077691D01*
X0138858Y0075288D02*
X0135255Y0075288D01*
X0135255Y0074034D02*
X0135255Y0072833D01*
X0135255Y0073434D02*
X0138858Y0073434D01*
X0138858Y0074034D02*
X0138858Y0072833D01*
X0138858Y0083856D02*
X0137657Y0085057D01*
X0135255Y0085057D01*
X0112958Y0086226D02*
X0111757Y0087427D01*
X0109355Y0087427D01*
X0109355Y0085025D02*
X0111757Y0085025D01*
X0112958Y0086226D01*
X0109956Y0083744D02*
X0112358Y0081342D01*
X0112958Y0081342D01*
X0112958Y0080101D02*
X0112358Y0080101D01*
X0112358Y0079500D01*
X0112958Y0079500D01*
X0112958Y0080101D01*
X0112358Y0078219D02*
X0112958Y0077619D01*
X0112958Y0076418D01*
X0112358Y0075817D01*
X0111157Y0077018D02*
X0111157Y0077619D01*
X0111757Y0078219D01*
X0112358Y0078219D01*
X0111157Y0077619D02*
X0110556Y0078219D01*
X0109956Y0078219D01*
X0109355Y0077619D01*
X0109355Y0076418D01*
X0109956Y0075817D01*
X0109355Y0074536D02*
X0109355Y0072134D01*
X0109355Y0073335D02*
X0112958Y0073335D01*
X0112958Y0070853D02*
X0110556Y0070853D01*
X0109355Y0069652D01*
X0110556Y0068451D01*
X0112958Y0068451D01*
X0112358Y0067170D02*
X0112958Y0066569D01*
X0112958Y0064768D01*
X0109355Y0064768D01*
X0109355Y0066569D01*
X0109956Y0067170D01*
X0110556Y0067170D01*
X0111157Y0066569D01*
X0111157Y0064768D01*
X0111157Y0066569D02*
X0111757Y0067170D01*
X0112358Y0067170D01*
X0111157Y0068451D02*
X0111157Y0070853D01*
X0109355Y0081342D02*
X0109355Y0083744D01*
X0109956Y0083744D01*
M02*
