%
M48
M72
T01C0.01378
T02C0.03543
T03C0.03600
T04C0.03937
%
T01
X98933Y147870
X118933Y143933
X141433Y169481
X158933Y169481
X126433Y201433
X123933Y211433
X116433Y186433
X143933Y228933
X119558Y100183
T02
X81433Y73933
X81433Y83933
X81433Y93933
X81433Y103933
X81433Y113933
X81433Y123933
X81433Y133933
X81433Y143933
X81433Y153933
X81433Y163933
X81433Y173933
X81433Y183933
X81433Y193933
X81433Y203933
X81433Y213933
X81433Y223933
X191433Y223933
X191433Y213933
X191433Y203933
X191433Y193933
X191433Y183933
X191433Y173933
X191433Y163933
X191433Y153933
X191433Y143933
X191433Y133933
X191433Y123933
X191433Y113933
X191433Y103933
X191433Y93933
X191433Y83933
X191433Y73933
T03
X161515Y94228
X151515Y94228
T04
X151433Y106433
X151433Y116433
X151433Y126433
X151433Y136433
X161433Y136433
X161433Y126433
X161433Y116433
X161433Y106433
X171433Y106433
X171433Y116433
X171433Y126433
X171433Y136433
X129083Y78933
X119083Y78933
X103558Y79383
X93558Y79383
M30
