G04 #@! TF.GenerationSoftware,KiCad,Pcbnew,5.0.2-1.fc29*
G04 #@! TF.CreationDate,2019-03-03T12:14:03+01:00*
G04 #@! TF.ProjectId,rpi-extension,7270692d-6578-4746-956e-73696f6e2e6b,rev?*
G04 #@! TF.SameCoordinates,Original*
G04 #@! TF.FileFunction,Copper,L1,Top*
G04 #@! TF.FilePolarity,Positive*
%FSLAX46Y46*%
G04 Gerber Fmt 4.6, Leading zero omitted, Abs format (unit mm)*
G04 Created by KiCad (PCBNEW 5.0.2-1.fc29) date Sun 03 Mar 2019 12:14:03 PM CET*
%MOMM*%
%LPD*%
G01*
G04 APERTURE LIST*
G04 #@! TA.AperFunction,Conductor*
%ADD10C,0.100000*%
G04 #@! TD*
G04 #@! TA.AperFunction,SMDPad,CuDef*
%ADD11C,1.150000*%
G04 #@! TD*
G04 #@! TA.AperFunction,ComponentPad*
%ADD12O,2.200000X1.740000*%
G04 #@! TD*
G04 #@! TA.AperFunction,ComponentPad*
%ADD13C,1.740000*%
G04 #@! TD*
G04 #@! TA.AperFunction,ComponentPad*
%ADD14O,1.700000X1.700000*%
G04 #@! TD*
G04 #@! TA.AperFunction,ComponentPad*
%ADD15R,1.700000X1.700000*%
G04 #@! TD*
G04 #@! TA.AperFunction,SMDPad,CuDef*
%ADD16R,1.100000X0.400000*%
G04 #@! TD*
G04 #@! TA.AperFunction,ViaPad*
%ADD17C,1.524000*%
G04 #@! TD*
G04 #@! TA.AperFunction,Conductor*
%ADD18C,0.254000*%
G04 #@! TD*
G04 APERTURE END LIST*
D10*
G04 #@! TO.N,Net-(J6-Pad1)*
G04 #@! TO.C,R4*
G36*
X121634505Y-79311204D02*
X121658773Y-79314804D01*
X121682572Y-79320765D01*
X121705671Y-79329030D01*
X121727850Y-79339520D01*
X121748893Y-79352132D01*
X121768599Y-79366747D01*
X121786777Y-79383223D01*
X121803253Y-79401401D01*
X121817868Y-79421107D01*
X121830480Y-79442150D01*
X121840970Y-79464329D01*
X121849235Y-79487428D01*
X121855196Y-79511227D01*
X121858796Y-79535495D01*
X121860000Y-79559999D01*
X121860000Y-80460001D01*
X121858796Y-80484505D01*
X121855196Y-80508773D01*
X121849235Y-80532572D01*
X121840970Y-80555671D01*
X121830480Y-80577850D01*
X121817868Y-80598893D01*
X121803253Y-80618599D01*
X121786777Y-80636777D01*
X121768599Y-80653253D01*
X121748893Y-80667868D01*
X121727850Y-80680480D01*
X121705671Y-80690970D01*
X121682572Y-80699235D01*
X121658773Y-80705196D01*
X121634505Y-80708796D01*
X121610001Y-80710000D01*
X120959999Y-80710000D01*
X120935495Y-80708796D01*
X120911227Y-80705196D01*
X120887428Y-80699235D01*
X120864329Y-80690970D01*
X120842150Y-80680480D01*
X120821107Y-80667868D01*
X120801401Y-80653253D01*
X120783223Y-80636777D01*
X120766747Y-80618599D01*
X120752132Y-80598893D01*
X120739520Y-80577850D01*
X120729030Y-80555671D01*
X120720765Y-80532572D01*
X120714804Y-80508773D01*
X120711204Y-80484505D01*
X120710000Y-80460001D01*
X120710000Y-79559999D01*
X120711204Y-79535495D01*
X120714804Y-79511227D01*
X120720765Y-79487428D01*
X120729030Y-79464329D01*
X120739520Y-79442150D01*
X120752132Y-79421107D01*
X120766747Y-79401401D01*
X120783223Y-79383223D01*
X120801401Y-79366747D01*
X120821107Y-79352132D01*
X120842150Y-79339520D01*
X120864329Y-79329030D01*
X120887428Y-79320765D01*
X120911227Y-79314804D01*
X120935495Y-79311204D01*
X120959999Y-79310000D01*
X121610001Y-79310000D01*
X121634505Y-79311204D01*
X121634505Y-79311204D01*
G37*
D11*
G04 #@! TD*
G04 #@! TO.P,R4,2*
G04 #@! TO.N,Net-(J6-Pad1)*
X121285000Y-80010000D03*
D10*
G04 #@! TO.N,/PWM3*
G04 #@! TO.C,R4*
G36*
X119584505Y-79311204D02*
X119608773Y-79314804D01*
X119632572Y-79320765D01*
X119655671Y-79329030D01*
X119677850Y-79339520D01*
X119698893Y-79352132D01*
X119718599Y-79366747D01*
X119736777Y-79383223D01*
X119753253Y-79401401D01*
X119767868Y-79421107D01*
X119780480Y-79442150D01*
X119790970Y-79464329D01*
X119799235Y-79487428D01*
X119805196Y-79511227D01*
X119808796Y-79535495D01*
X119810000Y-79559999D01*
X119810000Y-80460001D01*
X119808796Y-80484505D01*
X119805196Y-80508773D01*
X119799235Y-80532572D01*
X119790970Y-80555671D01*
X119780480Y-80577850D01*
X119767868Y-80598893D01*
X119753253Y-80618599D01*
X119736777Y-80636777D01*
X119718599Y-80653253D01*
X119698893Y-80667868D01*
X119677850Y-80680480D01*
X119655671Y-80690970D01*
X119632572Y-80699235D01*
X119608773Y-80705196D01*
X119584505Y-80708796D01*
X119560001Y-80710000D01*
X118909999Y-80710000D01*
X118885495Y-80708796D01*
X118861227Y-80705196D01*
X118837428Y-80699235D01*
X118814329Y-80690970D01*
X118792150Y-80680480D01*
X118771107Y-80667868D01*
X118751401Y-80653253D01*
X118733223Y-80636777D01*
X118716747Y-80618599D01*
X118702132Y-80598893D01*
X118689520Y-80577850D01*
X118679030Y-80555671D01*
X118670765Y-80532572D01*
X118664804Y-80508773D01*
X118661204Y-80484505D01*
X118660000Y-80460001D01*
X118660000Y-79559999D01*
X118661204Y-79535495D01*
X118664804Y-79511227D01*
X118670765Y-79487428D01*
X118679030Y-79464329D01*
X118689520Y-79442150D01*
X118702132Y-79421107D01*
X118716747Y-79401401D01*
X118733223Y-79383223D01*
X118751401Y-79366747D01*
X118771107Y-79352132D01*
X118792150Y-79339520D01*
X118814329Y-79329030D01*
X118837428Y-79320765D01*
X118861227Y-79314804D01*
X118885495Y-79311204D01*
X118909999Y-79310000D01*
X119560001Y-79310000D01*
X119584505Y-79311204D01*
X119584505Y-79311204D01*
G37*
D11*
G04 #@! TD*
G04 #@! TO.P,R4,1*
G04 #@! TO.N,/PWM3*
X119235000Y-80010000D03*
D10*
G04 #@! TO.N,/PWM2*
G04 #@! TO.C,R3*
G36*
X119584505Y-83756204D02*
X119608773Y-83759804D01*
X119632572Y-83765765D01*
X119655671Y-83774030D01*
X119677850Y-83784520D01*
X119698893Y-83797132D01*
X119718599Y-83811747D01*
X119736777Y-83828223D01*
X119753253Y-83846401D01*
X119767868Y-83866107D01*
X119780480Y-83887150D01*
X119790970Y-83909329D01*
X119799235Y-83932428D01*
X119805196Y-83956227D01*
X119808796Y-83980495D01*
X119810000Y-84004999D01*
X119810000Y-84905001D01*
X119808796Y-84929505D01*
X119805196Y-84953773D01*
X119799235Y-84977572D01*
X119790970Y-85000671D01*
X119780480Y-85022850D01*
X119767868Y-85043893D01*
X119753253Y-85063599D01*
X119736777Y-85081777D01*
X119718599Y-85098253D01*
X119698893Y-85112868D01*
X119677850Y-85125480D01*
X119655671Y-85135970D01*
X119632572Y-85144235D01*
X119608773Y-85150196D01*
X119584505Y-85153796D01*
X119560001Y-85155000D01*
X118909999Y-85155000D01*
X118885495Y-85153796D01*
X118861227Y-85150196D01*
X118837428Y-85144235D01*
X118814329Y-85135970D01*
X118792150Y-85125480D01*
X118771107Y-85112868D01*
X118751401Y-85098253D01*
X118733223Y-85081777D01*
X118716747Y-85063599D01*
X118702132Y-85043893D01*
X118689520Y-85022850D01*
X118679030Y-85000671D01*
X118670765Y-84977572D01*
X118664804Y-84953773D01*
X118661204Y-84929505D01*
X118660000Y-84905001D01*
X118660000Y-84004999D01*
X118661204Y-83980495D01*
X118664804Y-83956227D01*
X118670765Y-83932428D01*
X118679030Y-83909329D01*
X118689520Y-83887150D01*
X118702132Y-83866107D01*
X118716747Y-83846401D01*
X118733223Y-83828223D01*
X118751401Y-83811747D01*
X118771107Y-83797132D01*
X118792150Y-83784520D01*
X118814329Y-83774030D01*
X118837428Y-83765765D01*
X118861227Y-83759804D01*
X118885495Y-83756204D01*
X118909999Y-83755000D01*
X119560001Y-83755000D01*
X119584505Y-83756204D01*
X119584505Y-83756204D01*
G37*
D11*
G04 #@! TD*
G04 #@! TO.P,R3,1*
G04 #@! TO.N,/PWM2*
X119235000Y-84455000D03*
D10*
G04 #@! TO.N,Net-(J5-Pad1)*
G04 #@! TO.C,R3*
G36*
X121634505Y-83756204D02*
X121658773Y-83759804D01*
X121682572Y-83765765D01*
X121705671Y-83774030D01*
X121727850Y-83784520D01*
X121748893Y-83797132D01*
X121768599Y-83811747D01*
X121786777Y-83828223D01*
X121803253Y-83846401D01*
X121817868Y-83866107D01*
X121830480Y-83887150D01*
X121840970Y-83909329D01*
X121849235Y-83932428D01*
X121855196Y-83956227D01*
X121858796Y-83980495D01*
X121860000Y-84004999D01*
X121860000Y-84905001D01*
X121858796Y-84929505D01*
X121855196Y-84953773D01*
X121849235Y-84977572D01*
X121840970Y-85000671D01*
X121830480Y-85022850D01*
X121817868Y-85043893D01*
X121803253Y-85063599D01*
X121786777Y-85081777D01*
X121768599Y-85098253D01*
X121748893Y-85112868D01*
X121727850Y-85125480D01*
X121705671Y-85135970D01*
X121682572Y-85144235D01*
X121658773Y-85150196D01*
X121634505Y-85153796D01*
X121610001Y-85155000D01*
X120959999Y-85155000D01*
X120935495Y-85153796D01*
X120911227Y-85150196D01*
X120887428Y-85144235D01*
X120864329Y-85135970D01*
X120842150Y-85125480D01*
X120821107Y-85112868D01*
X120801401Y-85098253D01*
X120783223Y-85081777D01*
X120766747Y-85063599D01*
X120752132Y-85043893D01*
X120739520Y-85022850D01*
X120729030Y-85000671D01*
X120720765Y-84977572D01*
X120714804Y-84953773D01*
X120711204Y-84929505D01*
X120710000Y-84905001D01*
X120710000Y-84004999D01*
X120711204Y-83980495D01*
X120714804Y-83956227D01*
X120720765Y-83932428D01*
X120729030Y-83909329D01*
X120739520Y-83887150D01*
X120752132Y-83866107D01*
X120766747Y-83846401D01*
X120783223Y-83828223D01*
X120801401Y-83811747D01*
X120821107Y-83797132D01*
X120842150Y-83784520D01*
X120864329Y-83774030D01*
X120887428Y-83765765D01*
X120911227Y-83759804D01*
X120935495Y-83756204D01*
X120959999Y-83755000D01*
X121610001Y-83755000D01*
X121634505Y-83756204D01*
X121634505Y-83756204D01*
G37*
D11*
G04 #@! TD*
G04 #@! TO.P,R3,2*
G04 #@! TO.N,Net-(J5-Pad1)*
X121285000Y-84455000D03*
D10*
G04 #@! TO.N,Net-(J4-Pad1)*
G04 #@! TO.C,R2*
G36*
X121634505Y-88201204D02*
X121658773Y-88204804D01*
X121682572Y-88210765D01*
X121705671Y-88219030D01*
X121727850Y-88229520D01*
X121748893Y-88242132D01*
X121768599Y-88256747D01*
X121786777Y-88273223D01*
X121803253Y-88291401D01*
X121817868Y-88311107D01*
X121830480Y-88332150D01*
X121840970Y-88354329D01*
X121849235Y-88377428D01*
X121855196Y-88401227D01*
X121858796Y-88425495D01*
X121860000Y-88449999D01*
X121860000Y-89350001D01*
X121858796Y-89374505D01*
X121855196Y-89398773D01*
X121849235Y-89422572D01*
X121840970Y-89445671D01*
X121830480Y-89467850D01*
X121817868Y-89488893D01*
X121803253Y-89508599D01*
X121786777Y-89526777D01*
X121768599Y-89543253D01*
X121748893Y-89557868D01*
X121727850Y-89570480D01*
X121705671Y-89580970D01*
X121682572Y-89589235D01*
X121658773Y-89595196D01*
X121634505Y-89598796D01*
X121610001Y-89600000D01*
X120959999Y-89600000D01*
X120935495Y-89598796D01*
X120911227Y-89595196D01*
X120887428Y-89589235D01*
X120864329Y-89580970D01*
X120842150Y-89570480D01*
X120821107Y-89557868D01*
X120801401Y-89543253D01*
X120783223Y-89526777D01*
X120766747Y-89508599D01*
X120752132Y-89488893D01*
X120739520Y-89467850D01*
X120729030Y-89445671D01*
X120720765Y-89422572D01*
X120714804Y-89398773D01*
X120711204Y-89374505D01*
X120710000Y-89350001D01*
X120710000Y-88449999D01*
X120711204Y-88425495D01*
X120714804Y-88401227D01*
X120720765Y-88377428D01*
X120729030Y-88354329D01*
X120739520Y-88332150D01*
X120752132Y-88311107D01*
X120766747Y-88291401D01*
X120783223Y-88273223D01*
X120801401Y-88256747D01*
X120821107Y-88242132D01*
X120842150Y-88229520D01*
X120864329Y-88219030D01*
X120887428Y-88210765D01*
X120911227Y-88204804D01*
X120935495Y-88201204D01*
X120959999Y-88200000D01*
X121610001Y-88200000D01*
X121634505Y-88201204D01*
X121634505Y-88201204D01*
G37*
D11*
G04 #@! TD*
G04 #@! TO.P,R2,2*
G04 #@! TO.N,Net-(J4-Pad1)*
X121285000Y-88900000D03*
D10*
G04 #@! TO.N,/PWM1*
G04 #@! TO.C,R2*
G36*
X119584505Y-88201204D02*
X119608773Y-88204804D01*
X119632572Y-88210765D01*
X119655671Y-88219030D01*
X119677850Y-88229520D01*
X119698893Y-88242132D01*
X119718599Y-88256747D01*
X119736777Y-88273223D01*
X119753253Y-88291401D01*
X119767868Y-88311107D01*
X119780480Y-88332150D01*
X119790970Y-88354329D01*
X119799235Y-88377428D01*
X119805196Y-88401227D01*
X119808796Y-88425495D01*
X119810000Y-88449999D01*
X119810000Y-89350001D01*
X119808796Y-89374505D01*
X119805196Y-89398773D01*
X119799235Y-89422572D01*
X119790970Y-89445671D01*
X119780480Y-89467850D01*
X119767868Y-89488893D01*
X119753253Y-89508599D01*
X119736777Y-89526777D01*
X119718599Y-89543253D01*
X119698893Y-89557868D01*
X119677850Y-89570480D01*
X119655671Y-89580970D01*
X119632572Y-89589235D01*
X119608773Y-89595196D01*
X119584505Y-89598796D01*
X119560001Y-89600000D01*
X118909999Y-89600000D01*
X118885495Y-89598796D01*
X118861227Y-89595196D01*
X118837428Y-89589235D01*
X118814329Y-89580970D01*
X118792150Y-89570480D01*
X118771107Y-89557868D01*
X118751401Y-89543253D01*
X118733223Y-89526777D01*
X118716747Y-89508599D01*
X118702132Y-89488893D01*
X118689520Y-89467850D01*
X118679030Y-89445671D01*
X118670765Y-89422572D01*
X118664804Y-89398773D01*
X118661204Y-89374505D01*
X118660000Y-89350001D01*
X118660000Y-88449999D01*
X118661204Y-88425495D01*
X118664804Y-88401227D01*
X118670765Y-88377428D01*
X118679030Y-88354329D01*
X118689520Y-88332150D01*
X118702132Y-88311107D01*
X118716747Y-88291401D01*
X118733223Y-88273223D01*
X118751401Y-88256747D01*
X118771107Y-88242132D01*
X118792150Y-88229520D01*
X118814329Y-88219030D01*
X118837428Y-88210765D01*
X118861227Y-88204804D01*
X118885495Y-88201204D01*
X118909999Y-88200000D01*
X119560001Y-88200000D01*
X119584505Y-88201204D01*
X119584505Y-88201204D01*
G37*
D11*
G04 #@! TD*
G04 #@! TO.P,R2,1*
G04 #@! TO.N,/PWM1*
X119235000Y-88900000D03*
D10*
G04 #@! TO.N,/PWM0*
G04 #@! TO.C,R1*
G36*
X119593505Y-92646204D02*
X119617773Y-92649804D01*
X119641572Y-92655765D01*
X119664671Y-92664030D01*
X119686850Y-92674520D01*
X119707893Y-92687132D01*
X119727599Y-92701747D01*
X119745777Y-92718223D01*
X119762253Y-92736401D01*
X119776868Y-92756107D01*
X119789480Y-92777150D01*
X119799970Y-92799329D01*
X119808235Y-92822428D01*
X119814196Y-92846227D01*
X119817796Y-92870495D01*
X119819000Y-92894999D01*
X119819000Y-93795001D01*
X119817796Y-93819505D01*
X119814196Y-93843773D01*
X119808235Y-93867572D01*
X119799970Y-93890671D01*
X119789480Y-93912850D01*
X119776868Y-93933893D01*
X119762253Y-93953599D01*
X119745777Y-93971777D01*
X119727599Y-93988253D01*
X119707893Y-94002868D01*
X119686850Y-94015480D01*
X119664671Y-94025970D01*
X119641572Y-94034235D01*
X119617773Y-94040196D01*
X119593505Y-94043796D01*
X119569001Y-94045000D01*
X118918999Y-94045000D01*
X118894495Y-94043796D01*
X118870227Y-94040196D01*
X118846428Y-94034235D01*
X118823329Y-94025970D01*
X118801150Y-94015480D01*
X118780107Y-94002868D01*
X118760401Y-93988253D01*
X118742223Y-93971777D01*
X118725747Y-93953599D01*
X118711132Y-93933893D01*
X118698520Y-93912850D01*
X118688030Y-93890671D01*
X118679765Y-93867572D01*
X118673804Y-93843773D01*
X118670204Y-93819505D01*
X118669000Y-93795001D01*
X118669000Y-92894999D01*
X118670204Y-92870495D01*
X118673804Y-92846227D01*
X118679765Y-92822428D01*
X118688030Y-92799329D01*
X118698520Y-92777150D01*
X118711132Y-92756107D01*
X118725747Y-92736401D01*
X118742223Y-92718223D01*
X118760401Y-92701747D01*
X118780107Y-92687132D01*
X118801150Y-92674520D01*
X118823329Y-92664030D01*
X118846428Y-92655765D01*
X118870227Y-92649804D01*
X118894495Y-92646204D01*
X118918999Y-92645000D01*
X119569001Y-92645000D01*
X119593505Y-92646204D01*
X119593505Y-92646204D01*
G37*
D11*
G04 #@! TD*
G04 #@! TO.P,R1,1*
G04 #@! TO.N,/PWM0*
X119244000Y-93345000D03*
D10*
G04 #@! TO.N,Net-(J3-Pad1)*
G04 #@! TO.C,R1*
G36*
X121643505Y-92646204D02*
X121667773Y-92649804D01*
X121691572Y-92655765D01*
X121714671Y-92664030D01*
X121736850Y-92674520D01*
X121757893Y-92687132D01*
X121777599Y-92701747D01*
X121795777Y-92718223D01*
X121812253Y-92736401D01*
X121826868Y-92756107D01*
X121839480Y-92777150D01*
X121849970Y-92799329D01*
X121858235Y-92822428D01*
X121864196Y-92846227D01*
X121867796Y-92870495D01*
X121869000Y-92894999D01*
X121869000Y-93795001D01*
X121867796Y-93819505D01*
X121864196Y-93843773D01*
X121858235Y-93867572D01*
X121849970Y-93890671D01*
X121839480Y-93912850D01*
X121826868Y-93933893D01*
X121812253Y-93953599D01*
X121795777Y-93971777D01*
X121777599Y-93988253D01*
X121757893Y-94002868D01*
X121736850Y-94015480D01*
X121714671Y-94025970D01*
X121691572Y-94034235D01*
X121667773Y-94040196D01*
X121643505Y-94043796D01*
X121619001Y-94045000D01*
X120968999Y-94045000D01*
X120944495Y-94043796D01*
X120920227Y-94040196D01*
X120896428Y-94034235D01*
X120873329Y-94025970D01*
X120851150Y-94015480D01*
X120830107Y-94002868D01*
X120810401Y-93988253D01*
X120792223Y-93971777D01*
X120775747Y-93953599D01*
X120761132Y-93933893D01*
X120748520Y-93912850D01*
X120738030Y-93890671D01*
X120729765Y-93867572D01*
X120723804Y-93843773D01*
X120720204Y-93819505D01*
X120719000Y-93795001D01*
X120719000Y-92894999D01*
X120720204Y-92870495D01*
X120723804Y-92846227D01*
X120729765Y-92822428D01*
X120738030Y-92799329D01*
X120748520Y-92777150D01*
X120761132Y-92756107D01*
X120775747Y-92736401D01*
X120792223Y-92718223D01*
X120810401Y-92701747D01*
X120830107Y-92687132D01*
X120851150Y-92674520D01*
X120873329Y-92664030D01*
X120896428Y-92655765D01*
X120920227Y-92649804D01*
X120944495Y-92646204D01*
X120968999Y-92645000D01*
X121619001Y-92645000D01*
X121643505Y-92646204D01*
X121643505Y-92646204D01*
G37*
D11*
G04 #@! TD*
G04 #@! TO.P,R1,2*
G04 #@! TO.N,Net-(J3-Pad1)*
X121294000Y-93345000D03*
D12*
G04 #@! TO.P,J7,2*
G04 #@! TO.N,+5V*
X135763000Y-84074000D03*
D10*
G04 #@! TD*
G04 #@! TO.N,GND*
G04 #@! TO.C,J7*
G36*
X136637505Y-85745204D02*
X136661773Y-85748804D01*
X136685572Y-85754765D01*
X136708671Y-85763030D01*
X136730850Y-85773520D01*
X136751893Y-85786132D01*
X136771599Y-85800747D01*
X136789777Y-85817223D01*
X136806253Y-85835401D01*
X136820868Y-85855107D01*
X136833480Y-85876150D01*
X136843970Y-85898329D01*
X136852235Y-85921428D01*
X136858196Y-85945227D01*
X136861796Y-85969495D01*
X136863000Y-85993999D01*
X136863000Y-87234001D01*
X136861796Y-87258505D01*
X136858196Y-87282773D01*
X136852235Y-87306572D01*
X136843970Y-87329671D01*
X136833480Y-87351850D01*
X136820868Y-87372893D01*
X136806253Y-87392599D01*
X136789777Y-87410777D01*
X136771599Y-87427253D01*
X136751893Y-87441868D01*
X136730850Y-87454480D01*
X136708671Y-87464970D01*
X136685572Y-87473235D01*
X136661773Y-87479196D01*
X136637505Y-87482796D01*
X136613001Y-87484000D01*
X134912999Y-87484000D01*
X134888495Y-87482796D01*
X134864227Y-87479196D01*
X134840428Y-87473235D01*
X134817329Y-87464970D01*
X134795150Y-87454480D01*
X134774107Y-87441868D01*
X134754401Y-87427253D01*
X134736223Y-87410777D01*
X134719747Y-87392599D01*
X134705132Y-87372893D01*
X134692520Y-87351850D01*
X134682030Y-87329671D01*
X134673765Y-87306572D01*
X134667804Y-87282773D01*
X134664204Y-87258505D01*
X134663000Y-87234001D01*
X134663000Y-85993999D01*
X134664204Y-85969495D01*
X134667804Y-85945227D01*
X134673765Y-85921428D01*
X134682030Y-85898329D01*
X134692520Y-85876150D01*
X134705132Y-85855107D01*
X134719747Y-85835401D01*
X134736223Y-85817223D01*
X134754401Y-85800747D01*
X134774107Y-85786132D01*
X134795150Y-85773520D01*
X134817329Y-85763030D01*
X134840428Y-85754765D01*
X134864227Y-85748804D01*
X134888495Y-85745204D01*
X134912999Y-85744000D01*
X136613001Y-85744000D01*
X136637505Y-85745204D01*
X136637505Y-85745204D01*
G37*
D13*
G04 #@! TO.P,J7,1*
G04 #@! TO.N,GND*
X135763000Y-86614000D03*
G04 #@! TD*
D14*
G04 #@! TO.P,J1,40*
G04 #@! TO.N,Net-(J1-Pad40)*
X137160000Y-72898000D03*
G04 #@! TO.P,J1,39*
G04 #@! TO.N,Net-(J1-Pad39)*
X137160000Y-75438000D03*
G04 #@! TO.P,J1,38*
G04 #@! TO.N,Net-(J1-Pad38)*
X134620000Y-72898000D03*
G04 #@! TO.P,J1,37*
G04 #@! TO.N,Net-(J1-Pad37)*
X134620000Y-75438000D03*
G04 #@! TO.P,J1,36*
G04 #@! TO.N,Net-(J1-Pad36)*
X132080000Y-72898000D03*
G04 #@! TO.P,J1,35*
G04 #@! TO.N,Net-(J1-Pad35)*
X132080000Y-75438000D03*
G04 #@! TO.P,J1,34*
G04 #@! TO.N,GND*
X129540000Y-72898000D03*
G04 #@! TO.P,J1,33*
G04 #@! TO.N,Net-(J1-Pad33)*
X129540000Y-75438000D03*
G04 #@! TO.P,J1,32*
G04 #@! TO.N,Net-(J1-Pad32)*
X127000000Y-72898000D03*
G04 #@! TO.P,J1,31*
G04 #@! TO.N,Net-(J1-Pad31)*
X127000000Y-75438000D03*
G04 #@! TO.P,J1,30*
G04 #@! TO.N,GND*
X124460000Y-72898000D03*
G04 #@! TO.P,J1,29*
G04 #@! TO.N,Net-(J1-Pad29)*
X124460000Y-75438000D03*
G04 #@! TO.P,J1,28*
G04 #@! TO.N,Net-(J1-Pad28)*
X121920000Y-72898000D03*
G04 #@! TO.P,J1,27*
G04 #@! TO.N,Net-(J1-Pad27)*
X121920000Y-75438000D03*
G04 #@! TO.P,J1,26*
G04 #@! TO.N,Net-(J1-Pad26)*
X119380000Y-72898000D03*
G04 #@! TO.P,J1,25*
G04 #@! TO.N,GND*
X119380000Y-75438000D03*
G04 #@! TO.P,J1,24*
G04 #@! TO.N,Net-(J1-Pad24)*
X116840000Y-72898000D03*
G04 #@! TO.P,J1,23*
G04 #@! TO.N,Net-(J1-Pad23)*
X116840000Y-75438000D03*
G04 #@! TO.P,J1,22*
G04 #@! TO.N,Net-(J1-Pad22)*
X114300000Y-72898000D03*
G04 #@! TO.P,J1,21*
G04 #@! TO.N,Net-(J1-Pad21)*
X114300000Y-75438000D03*
G04 #@! TO.P,J1,20*
G04 #@! TO.N,GND*
X111760000Y-72898000D03*
G04 #@! TO.P,J1,19*
G04 #@! TO.N,Net-(J1-Pad19)*
X111760000Y-75438000D03*
G04 #@! TO.P,J1,18*
G04 #@! TO.N,Net-(J1-Pad18)*
X109220000Y-72898000D03*
G04 #@! TO.P,J1,17*
G04 #@! TO.N,Net-(J1-Pad17)*
X109220000Y-75438000D03*
G04 #@! TO.P,J1,16*
G04 #@! TO.N,Net-(J1-Pad16)*
X106680000Y-72898000D03*
G04 #@! TO.P,J1,15*
G04 #@! TO.N,Net-(J1-Pad15)*
X106680000Y-75438000D03*
G04 #@! TO.P,J1,14*
G04 #@! TO.N,GND*
X104140000Y-72898000D03*
G04 #@! TO.P,J1,13*
G04 #@! TO.N,Net-(J1-Pad13)*
X104140000Y-75438000D03*
G04 #@! TO.P,J1,12*
G04 #@! TO.N,Net-(J1-Pad12)*
X101600000Y-72898000D03*
G04 #@! TO.P,J1,11*
G04 #@! TO.N,Net-(J1-Pad11)*
X101600000Y-75438000D03*
G04 #@! TO.P,J1,10*
G04 #@! TO.N,Net-(J1-Pad10)*
X99060000Y-72898000D03*
G04 #@! TO.P,J1,9*
G04 #@! TO.N,GND*
X99060000Y-75438000D03*
G04 #@! TO.P,J1,8*
G04 #@! TO.N,Net-(J1-Pad8)*
X96520000Y-72898000D03*
G04 #@! TO.P,J1,7*
G04 #@! TO.N,Net-(J1-Pad7)*
X96520000Y-75438000D03*
G04 #@! TO.P,J1,6*
G04 #@! TO.N,GND*
X93980000Y-72898000D03*
G04 #@! TO.P,J1,5*
G04 #@! TO.N,/SCL*
X93980000Y-75438000D03*
G04 #@! TO.P,J1,4*
G04 #@! TO.N,+5V*
X91440000Y-72898000D03*
G04 #@! TO.P,J1,3*
G04 #@! TO.N,/SDA*
X91440000Y-75438000D03*
G04 #@! TO.P,J1,2*
G04 #@! TO.N,+5V*
X88900000Y-72898000D03*
D15*
G04 #@! TO.P,J1,1*
G04 #@! TO.N,Net-(J1-Pad1)*
X88900000Y-75438000D03*
G04 #@! TD*
D10*
G04 #@! TO.N,+5V*
G04 #@! TO.C,C1*
G36*
X113125505Y-91503204D02*
X113149773Y-91506804D01*
X113173572Y-91512765D01*
X113196671Y-91521030D01*
X113218850Y-91531520D01*
X113239893Y-91544132D01*
X113259599Y-91558747D01*
X113277777Y-91575223D01*
X113294253Y-91593401D01*
X113308868Y-91613107D01*
X113321480Y-91634150D01*
X113331970Y-91656329D01*
X113340235Y-91679428D01*
X113346196Y-91703227D01*
X113349796Y-91727495D01*
X113351000Y-91751999D01*
X113351000Y-92652001D01*
X113349796Y-92676505D01*
X113346196Y-92700773D01*
X113340235Y-92724572D01*
X113331970Y-92747671D01*
X113321480Y-92769850D01*
X113308868Y-92790893D01*
X113294253Y-92810599D01*
X113277777Y-92828777D01*
X113259599Y-92845253D01*
X113239893Y-92859868D01*
X113218850Y-92872480D01*
X113196671Y-92882970D01*
X113173572Y-92891235D01*
X113149773Y-92897196D01*
X113125505Y-92900796D01*
X113101001Y-92902000D01*
X112450999Y-92902000D01*
X112426495Y-92900796D01*
X112402227Y-92897196D01*
X112378428Y-92891235D01*
X112355329Y-92882970D01*
X112333150Y-92872480D01*
X112312107Y-92859868D01*
X112292401Y-92845253D01*
X112274223Y-92828777D01*
X112257747Y-92810599D01*
X112243132Y-92790893D01*
X112230520Y-92769850D01*
X112220030Y-92747671D01*
X112211765Y-92724572D01*
X112205804Y-92700773D01*
X112202204Y-92676505D01*
X112201000Y-92652001D01*
X112201000Y-91751999D01*
X112202204Y-91727495D01*
X112205804Y-91703227D01*
X112211765Y-91679428D01*
X112220030Y-91656329D01*
X112230520Y-91634150D01*
X112243132Y-91613107D01*
X112257747Y-91593401D01*
X112274223Y-91575223D01*
X112292401Y-91558747D01*
X112312107Y-91544132D01*
X112333150Y-91531520D01*
X112355329Y-91521030D01*
X112378428Y-91512765D01*
X112402227Y-91506804D01*
X112426495Y-91503204D01*
X112450999Y-91502000D01*
X113101001Y-91502000D01*
X113125505Y-91503204D01*
X113125505Y-91503204D01*
G37*
D11*
G04 #@! TD*
G04 #@! TO.P,C1,2*
G04 #@! TO.N,+5V*
X112776000Y-92202000D03*
D10*
G04 #@! TO.N,GND*
G04 #@! TO.C,C1*
G36*
X115175505Y-91503204D02*
X115199773Y-91506804D01*
X115223572Y-91512765D01*
X115246671Y-91521030D01*
X115268850Y-91531520D01*
X115289893Y-91544132D01*
X115309599Y-91558747D01*
X115327777Y-91575223D01*
X115344253Y-91593401D01*
X115358868Y-91613107D01*
X115371480Y-91634150D01*
X115381970Y-91656329D01*
X115390235Y-91679428D01*
X115396196Y-91703227D01*
X115399796Y-91727495D01*
X115401000Y-91751999D01*
X115401000Y-92652001D01*
X115399796Y-92676505D01*
X115396196Y-92700773D01*
X115390235Y-92724572D01*
X115381970Y-92747671D01*
X115371480Y-92769850D01*
X115358868Y-92790893D01*
X115344253Y-92810599D01*
X115327777Y-92828777D01*
X115309599Y-92845253D01*
X115289893Y-92859868D01*
X115268850Y-92872480D01*
X115246671Y-92882970D01*
X115223572Y-92891235D01*
X115199773Y-92897196D01*
X115175505Y-92900796D01*
X115151001Y-92902000D01*
X114500999Y-92902000D01*
X114476495Y-92900796D01*
X114452227Y-92897196D01*
X114428428Y-92891235D01*
X114405329Y-92882970D01*
X114383150Y-92872480D01*
X114362107Y-92859868D01*
X114342401Y-92845253D01*
X114324223Y-92828777D01*
X114307747Y-92810599D01*
X114293132Y-92790893D01*
X114280520Y-92769850D01*
X114270030Y-92747671D01*
X114261765Y-92724572D01*
X114255804Y-92700773D01*
X114252204Y-92676505D01*
X114251000Y-92652001D01*
X114251000Y-91751999D01*
X114252204Y-91727495D01*
X114255804Y-91703227D01*
X114261765Y-91679428D01*
X114270030Y-91656329D01*
X114280520Y-91634150D01*
X114293132Y-91613107D01*
X114307747Y-91593401D01*
X114324223Y-91575223D01*
X114342401Y-91558747D01*
X114362107Y-91544132D01*
X114383150Y-91531520D01*
X114405329Y-91521030D01*
X114428428Y-91512765D01*
X114452227Y-91506804D01*
X114476495Y-91503204D01*
X114500999Y-91502000D01*
X115151001Y-91502000D01*
X115175505Y-91503204D01*
X115175505Y-91503204D01*
G37*
D11*
G04 #@! TD*
G04 #@! TO.P,C1,1*
G04 #@! TO.N,GND*
X114826000Y-92202000D03*
D14*
G04 #@! TO.P,J2,8*
G04 #@! TO.N,Net-(J2-Pad8)*
X89154000Y-79502000D03*
G04 #@! TO.P,J2,7*
G04 #@! TO.N,Net-(J2-Pad7)*
X91694000Y-79502000D03*
G04 #@! TO.P,J2,6*
G04 #@! TO.N,Net-(J2-Pad6)*
X94234000Y-79502000D03*
G04 #@! TO.P,J2,5*
G04 #@! TO.N,Net-(J2-Pad5)*
X96774000Y-79502000D03*
G04 #@! TO.P,J2,4*
G04 #@! TO.N,/SDA*
X99314000Y-79502000D03*
G04 #@! TO.P,J2,3*
G04 #@! TO.N,/SCL*
X101854000Y-79502000D03*
G04 #@! TO.P,J2,2*
G04 #@! TO.N,GND*
X104394000Y-79502000D03*
D15*
G04 #@! TO.P,J2,1*
G04 #@! TO.N,+5V*
X106934000Y-79502000D03*
G04 #@! TD*
D14*
G04 #@! TO.P,J3,3*
G04 #@! TO.N,GND*
X129540000Y-93345000D03*
G04 #@! TO.P,J3,2*
G04 #@! TO.N,+5V*
X127000000Y-93345000D03*
D15*
G04 #@! TO.P,J3,1*
G04 #@! TO.N,Net-(J3-Pad1)*
X124460000Y-93345000D03*
G04 #@! TD*
D14*
G04 #@! TO.P,J4,3*
G04 #@! TO.N,GND*
X129540000Y-88900000D03*
G04 #@! TO.P,J4,2*
G04 #@! TO.N,+5V*
X127000000Y-88900000D03*
D15*
G04 #@! TO.P,J4,1*
G04 #@! TO.N,Net-(J4-Pad1)*
X124460000Y-88900000D03*
G04 #@! TD*
D14*
G04 #@! TO.P,J5,3*
G04 #@! TO.N,GND*
X129540000Y-84455000D03*
G04 #@! TO.P,J5,2*
G04 #@! TO.N,+5V*
X127000000Y-84455000D03*
D15*
G04 #@! TO.P,J5,1*
G04 #@! TO.N,Net-(J5-Pad1)*
X124460000Y-84455000D03*
G04 #@! TD*
D14*
G04 #@! TO.P,J6,3*
G04 #@! TO.N,GND*
X129540000Y-80010000D03*
G04 #@! TO.P,J6,2*
G04 #@! TO.N,+5V*
X127000000Y-80010000D03*
D15*
G04 #@! TO.P,J6,1*
G04 #@! TO.N,Net-(J6-Pad1)*
X124460000Y-80010000D03*
G04 #@! TD*
D16*
G04 #@! TO.P,U1,28*
G04 #@! TO.N,+5V*
X110815000Y-89061000D03*
G04 #@! TO.P,U1,27*
G04 #@! TO.N,/SDA*
X110815000Y-88411000D03*
G04 #@! TO.P,U1,26*
G04 #@! TO.N,/SCL*
X110815000Y-87761000D03*
G04 #@! TO.P,U1,25*
G04 #@! TO.N,GND*
X110815000Y-87111000D03*
G04 #@! TO.P,U1,24*
X110815000Y-86461000D03*
G04 #@! TO.P,U1,23*
X110815000Y-85811000D03*
G04 #@! TO.P,U1,22*
G04 #@! TO.N,Net-(U1-Pad22)*
X110815000Y-85161000D03*
G04 #@! TO.P,U1,21*
G04 #@! TO.N,Net-(U1-Pad21)*
X110815000Y-84511000D03*
G04 #@! TO.P,U1,20*
G04 #@! TO.N,Net-(U1-Pad20)*
X110815000Y-83861000D03*
G04 #@! TO.P,U1,19*
G04 #@! TO.N,Net-(U1-Pad19)*
X110815000Y-83211000D03*
G04 #@! TO.P,U1,18*
G04 #@! TO.N,Net-(U1-Pad18)*
X110815000Y-82561000D03*
G04 #@! TO.P,U1,17*
G04 #@! TO.N,Net-(U1-Pad17)*
X110815000Y-81911000D03*
G04 #@! TO.P,U1,16*
G04 #@! TO.N,Net-(U1-Pad16)*
X110815000Y-81261000D03*
G04 #@! TO.P,U1,15*
G04 #@! TO.N,Net-(U1-Pad15)*
X110815000Y-80611000D03*
G04 #@! TO.P,U1,14*
G04 #@! TO.N,GND*
X116515000Y-80611000D03*
G04 #@! TO.P,U1,13*
G04 #@! TO.N,Net-(U1-Pad13)*
X116515000Y-81261000D03*
G04 #@! TO.P,U1,12*
G04 #@! TO.N,Net-(U1-Pad12)*
X116515000Y-81911000D03*
G04 #@! TO.P,U1,11*
G04 #@! TO.N,Net-(U1-Pad11)*
X116515000Y-82561000D03*
G04 #@! TO.P,U1,10*
G04 #@! TO.N,Net-(U1-Pad10)*
X116515000Y-83211000D03*
G04 #@! TO.P,U1,9*
G04 #@! TO.N,/PWM3*
X116515000Y-83861000D03*
G04 #@! TO.P,U1,8*
G04 #@! TO.N,/PWM2*
X116515000Y-84511000D03*
G04 #@! TO.P,U1,7*
G04 #@! TO.N,/PWM1*
X116515000Y-85161000D03*
G04 #@! TO.P,U1,6*
G04 #@! TO.N,/PWM0*
X116515000Y-85811000D03*
G04 #@! TO.P,U1,5*
G04 #@! TO.N,GND*
X116515000Y-86461000D03*
G04 #@! TO.P,U1,4*
X116515000Y-87111000D03*
G04 #@! TO.P,U1,3*
X116515000Y-87761000D03*
G04 #@! TO.P,U1,2*
X116515000Y-88411000D03*
G04 #@! TO.P,U1,1*
X116515000Y-89061000D03*
G04 #@! TD*
D17*
G04 #@! TO.N,GND*
X108966000Y-85039200D03*
X116687600Y-91135200D03*
X117297200Y-79298800D03*
G04 #@! TD*
D18*
G04 #@! TO.N,GND*
X114826000Y-92202000D02*
X115519200Y-92202000D01*
X115519200Y-92202000D02*
X116535200Y-91186000D01*
X116535200Y-91186000D02*
X116535200Y-89154000D01*
X116535200Y-89154000D02*
X116586000Y-89103200D01*
X116515000Y-86915000D02*
X116535200Y-86935200D01*
X116515000Y-86461000D02*
X116515000Y-86915000D01*
X116535200Y-86935200D02*
X116535200Y-87680800D01*
X116535200Y-87680800D02*
X116535200Y-88392000D01*
X116535200Y-88392000D02*
X116535200Y-89001600D01*
X116535200Y-89001600D02*
X116535200Y-89103200D01*
X116535200Y-89103200D02*
X116586000Y-89154000D01*
X110815000Y-87111000D02*
X110815000Y-86481800D01*
X110815000Y-86481800D02*
X110794800Y-86461600D01*
X110794800Y-86461600D02*
X110794800Y-85852000D01*
X110815000Y-86461000D02*
X110387800Y-86461000D01*
X110387800Y-86461000D02*
X108966000Y-85039200D01*
X116535200Y-91186000D02*
X116636800Y-91186000D01*
X116636800Y-91186000D02*
X116687600Y-91135200D01*
X116515000Y-80611000D02*
X116515000Y-80081000D01*
X116515000Y-80081000D02*
X117297200Y-79298800D01*
G04 #@! TO.N,+5V*
X110815000Y-89061000D02*
X110815000Y-91206200D01*
X110815000Y-91206200D02*
X111810800Y-92202000D01*
X111810800Y-92202000D02*
X112725200Y-92202000D01*
X112725200Y-92202000D02*
X112776000Y-92202000D01*
G04 #@! TO.N,/SDA*
X110815000Y-88411000D02*
X109442200Y-88411000D01*
X109442200Y-88411000D02*
X102666800Y-81635600D01*
X102666800Y-81635600D02*
X101447600Y-81635600D01*
X101447600Y-81635600D02*
X101121270Y-81635600D01*
X97260470Y-77774800D02*
X93726000Y-77774800D01*
X93726000Y-77774800D02*
X91440000Y-75488800D01*
X97586800Y-77774800D02*
X99314000Y-79502000D01*
X97260470Y-77774800D02*
X97586800Y-77774800D01*
X101121270Y-81635600D02*
X101041200Y-81635600D01*
X101041200Y-81635600D02*
X99364800Y-79959200D01*
X99364800Y-79959200D02*
X99364800Y-79502000D01*
G04 #@! TO.N,/SCL*
X110011000Y-87761000D02*
X101955600Y-79705600D01*
X110815000Y-87761000D02*
X110011000Y-87761000D01*
X94829999Y-76287999D02*
X94829999Y-76389599D01*
X93980000Y-75438000D02*
X94829999Y-76287999D01*
X94829999Y-76389599D02*
X95504000Y-77063600D01*
X95504000Y-77063600D02*
X98471930Y-77063600D01*
X98471930Y-77063600D02*
X99364800Y-77063600D01*
X99364800Y-77063600D02*
X99364800Y-77114400D01*
X99364800Y-77114400D02*
X101701600Y-79451200D01*
G04 #@! TO.N,/PWM0*
X116515000Y-85811000D02*
X117026482Y-85811000D01*
X118990000Y-93345000D02*
X118253400Y-92608400D01*
X118253400Y-92608400D02*
X118253400Y-87037918D01*
X117026482Y-85811000D02*
X117575482Y-86360000D01*
X118253400Y-87037918D02*
X117575482Y-86360000D01*
X117575482Y-86360000D02*
X118008400Y-86792918D01*
G04 #@! TO.N,/PWM1*
X117319000Y-85161000D02*
X119278400Y-87120400D01*
X116515000Y-85161000D02*
X117319000Y-85161000D01*
X119278400Y-87120400D02*
X119278400Y-88849200D01*
G04 #@! TO.N,/PWM2*
X116515000Y-84511000D02*
X119197000Y-84511000D01*
G04 #@! TO.N,/PWM3*
X118611628Y-80633372D02*
X118611628Y-80676772D01*
X119235000Y-80010000D02*
X118611628Y-80633372D01*
X118611628Y-80676772D02*
X118008400Y-81280000D01*
X118008400Y-82879082D02*
X116965882Y-83921600D01*
X118008400Y-81280000D02*
X118008400Y-82879082D01*
G04 #@! TO.N,Net-(J3-Pad1)*
X121040000Y-93345000D02*
X124460000Y-93345000D01*
G04 #@! TO.N,Net-(J4-Pad1)*
X124460000Y-88900000D02*
X121285000Y-88900000D01*
G04 #@! TO.N,Net-(J5-Pad1)*
X121285000Y-84455000D02*
X124460000Y-84455000D01*
G04 #@! TO.N,Net-(J6-Pad1)*
X124460000Y-80010000D02*
X123356000Y-80010000D01*
X123356000Y-80010000D02*
X121285000Y-80010000D01*
G04 #@! TD*
G04 #@! TO.N,+5V*
G36*
X139244000Y-94794000D02*
X87451000Y-94794000D01*
X87451000Y-91751999D01*
X113862536Y-91751999D01*
X113862536Y-92652001D01*
X113911136Y-92896330D01*
X114049537Y-93103463D01*
X114256670Y-93241864D01*
X114500999Y-93290464D01*
X115151001Y-93290464D01*
X115395330Y-93241864D01*
X115602463Y-93103463D01*
X115740864Y-92896330D01*
X115789464Y-92652001D01*
X115789464Y-92632381D01*
X115885447Y-92568247D01*
X115913788Y-92525832D01*
X116248943Y-92190677D01*
X116460243Y-92278200D01*
X116914957Y-92278200D01*
X117335058Y-92104189D01*
X117656589Y-91782658D01*
X117745400Y-91568248D01*
X117745400Y-92558372D01*
X117735449Y-92608400D01*
X117745400Y-92658428D01*
X117745400Y-92658431D01*
X117774875Y-92806611D01*
X117887153Y-92974647D01*
X117929568Y-93002988D01*
X118280536Y-93353957D01*
X118280536Y-93795001D01*
X118329136Y-94039330D01*
X118467537Y-94246463D01*
X118674670Y-94384864D01*
X118918999Y-94433464D01*
X119569001Y-94433464D01*
X119813330Y-94384864D01*
X120020463Y-94246463D01*
X120158864Y-94039330D01*
X120207464Y-93795001D01*
X120207464Y-92894999D01*
X120330536Y-92894999D01*
X120330536Y-93795001D01*
X120379136Y-94039330D01*
X120517537Y-94246463D01*
X120724670Y-94384864D01*
X120968999Y-94433464D01*
X121619001Y-94433464D01*
X121863330Y-94384864D01*
X122070463Y-94246463D01*
X122208864Y-94039330D01*
X122245927Y-93853000D01*
X123221536Y-93853000D01*
X123221536Y-94195000D01*
X123251106Y-94343659D01*
X123335314Y-94469686D01*
X123461341Y-94553894D01*
X123610000Y-94583464D01*
X125310000Y-94583464D01*
X125458659Y-94553894D01*
X125584686Y-94469686D01*
X125668894Y-94343659D01*
X125698464Y-94195000D01*
X125698464Y-93345000D01*
X128284884Y-93345000D01*
X128380424Y-93825312D01*
X128652499Y-94232501D01*
X129059688Y-94504576D01*
X129418761Y-94576000D01*
X129661239Y-94576000D01*
X130020312Y-94504576D01*
X130427501Y-94232501D01*
X130699576Y-93825312D01*
X130795116Y-93345000D01*
X130699576Y-92864688D01*
X130427501Y-92457499D01*
X130020312Y-92185424D01*
X129661239Y-92114000D01*
X129418761Y-92114000D01*
X129059688Y-92185424D01*
X128652499Y-92457499D01*
X128380424Y-92864688D01*
X128284884Y-93345000D01*
X125698464Y-93345000D01*
X125698464Y-92495000D01*
X125668894Y-92346341D01*
X125584686Y-92220314D01*
X125458659Y-92136106D01*
X125310000Y-92106536D01*
X123610000Y-92106536D01*
X123461341Y-92136106D01*
X123335314Y-92220314D01*
X123251106Y-92346341D01*
X123221536Y-92495000D01*
X123221536Y-92837000D01*
X122245927Y-92837000D01*
X122208864Y-92650670D01*
X122070463Y-92443537D01*
X121863330Y-92305136D01*
X121619001Y-92256536D01*
X120968999Y-92256536D01*
X120724670Y-92305136D01*
X120517537Y-92443537D01*
X120379136Y-92650670D01*
X120330536Y-92894999D01*
X120207464Y-92894999D01*
X120158864Y-92650670D01*
X120020463Y-92443537D01*
X119813330Y-92305136D01*
X119569001Y-92256536D01*
X118918999Y-92256536D01*
X118761400Y-92287884D01*
X118761400Y-89958906D01*
X118909999Y-89988464D01*
X119560001Y-89988464D01*
X119804330Y-89939864D01*
X120011463Y-89801463D01*
X120149864Y-89594330D01*
X120198464Y-89350001D01*
X120198464Y-88449999D01*
X120321536Y-88449999D01*
X120321536Y-89350001D01*
X120370136Y-89594330D01*
X120508537Y-89801463D01*
X120715670Y-89939864D01*
X120959999Y-89988464D01*
X121610001Y-89988464D01*
X121854330Y-89939864D01*
X122061463Y-89801463D01*
X122199864Y-89594330D01*
X122236927Y-89408000D01*
X123221536Y-89408000D01*
X123221536Y-89750000D01*
X123251106Y-89898659D01*
X123335314Y-90024686D01*
X123461341Y-90108894D01*
X123610000Y-90138464D01*
X125310000Y-90138464D01*
X125458659Y-90108894D01*
X125584686Y-90024686D01*
X125668894Y-89898659D01*
X125698464Y-89750000D01*
X125698464Y-88900000D01*
X128284884Y-88900000D01*
X128380424Y-89380312D01*
X128652499Y-89787501D01*
X129059688Y-90059576D01*
X129418761Y-90131000D01*
X129661239Y-90131000D01*
X130020312Y-90059576D01*
X130427501Y-89787501D01*
X130699576Y-89380312D01*
X130795116Y-88900000D01*
X130699576Y-88419688D01*
X130427501Y-88012499D01*
X130020312Y-87740424D01*
X129661239Y-87669000D01*
X129418761Y-87669000D01*
X129059688Y-87740424D01*
X128652499Y-88012499D01*
X128380424Y-88419688D01*
X128284884Y-88900000D01*
X125698464Y-88900000D01*
X125698464Y-88050000D01*
X125668894Y-87901341D01*
X125584686Y-87775314D01*
X125458659Y-87691106D01*
X125310000Y-87661536D01*
X123610000Y-87661536D01*
X123461341Y-87691106D01*
X123335314Y-87775314D01*
X123251106Y-87901341D01*
X123221536Y-88050000D01*
X123221536Y-88392000D01*
X122236927Y-88392000D01*
X122199864Y-88205670D01*
X122061463Y-87998537D01*
X121854330Y-87860136D01*
X121610001Y-87811536D01*
X120959999Y-87811536D01*
X120715670Y-87860136D01*
X120508537Y-87998537D01*
X120370136Y-88205670D01*
X120321536Y-88449999D01*
X120198464Y-88449999D01*
X120149864Y-88205670D01*
X120011463Y-87998537D01*
X119804330Y-87860136D01*
X119786400Y-87856570D01*
X119786400Y-87170427D01*
X119796351Y-87120399D01*
X119786400Y-87070369D01*
X119786400Y-87070368D01*
X119756925Y-86922188D01*
X119727367Y-86877951D01*
X119672988Y-86796567D01*
X119672986Y-86796565D01*
X119644647Y-86754153D01*
X119602236Y-86725815D01*
X118870420Y-85993999D01*
X134274536Y-85993999D01*
X134274536Y-87234001D01*
X134323136Y-87478330D01*
X134461537Y-87685463D01*
X134668670Y-87823864D01*
X134912999Y-87872464D01*
X136613001Y-87872464D01*
X136857330Y-87823864D01*
X137064463Y-87685463D01*
X137202864Y-87478330D01*
X137251464Y-87234001D01*
X137251464Y-85993999D01*
X137202864Y-85749670D01*
X137064463Y-85542537D01*
X136857330Y-85404136D01*
X136613001Y-85355536D01*
X134912999Y-85355536D01*
X134668670Y-85404136D01*
X134461537Y-85542537D01*
X134323136Y-85749670D01*
X134274536Y-85993999D01*
X118870420Y-85993999D01*
X117895420Y-85019000D01*
X118294212Y-85019000D01*
X118320136Y-85149330D01*
X118458537Y-85356463D01*
X118665670Y-85494864D01*
X118909999Y-85543464D01*
X119560001Y-85543464D01*
X119804330Y-85494864D01*
X120011463Y-85356463D01*
X120149864Y-85149330D01*
X120198464Y-84905001D01*
X120198464Y-84004999D01*
X120321536Y-84004999D01*
X120321536Y-84905001D01*
X120370136Y-85149330D01*
X120508537Y-85356463D01*
X120715670Y-85494864D01*
X120959999Y-85543464D01*
X121610001Y-85543464D01*
X121854330Y-85494864D01*
X122061463Y-85356463D01*
X122199864Y-85149330D01*
X122236927Y-84963000D01*
X123221536Y-84963000D01*
X123221536Y-85305000D01*
X123251106Y-85453659D01*
X123335314Y-85579686D01*
X123461341Y-85663894D01*
X123610000Y-85693464D01*
X125310000Y-85693464D01*
X125458659Y-85663894D01*
X125584686Y-85579686D01*
X125668894Y-85453659D01*
X125698464Y-85305000D01*
X125698464Y-84455000D01*
X128284884Y-84455000D01*
X128380424Y-84935312D01*
X128652499Y-85342501D01*
X129059688Y-85614576D01*
X129418761Y-85686000D01*
X129661239Y-85686000D01*
X130020312Y-85614576D01*
X130427501Y-85342501D01*
X130699576Y-84935312D01*
X130795116Y-84455000D01*
X130699576Y-83974688D01*
X130427501Y-83567499D01*
X130020312Y-83295424D01*
X129661239Y-83224000D01*
X129418761Y-83224000D01*
X129059688Y-83295424D01*
X128652499Y-83567499D01*
X128380424Y-83974688D01*
X128284884Y-84455000D01*
X125698464Y-84455000D01*
X125698464Y-83605000D01*
X125668894Y-83456341D01*
X125584686Y-83330314D01*
X125458659Y-83246106D01*
X125310000Y-83216536D01*
X123610000Y-83216536D01*
X123461341Y-83246106D01*
X123335314Y-83330314D01*
X123251106Y-83456341D01*
X123221536Y-83605000D01*
X123221536Y-83947000D01*
X122236927Y-83947000D01*
X122199864Y-83760670D01*
X122061463Y-83553537D01*
X121854330Y-83415136D01*
X121610001Y-83366536D01*
X120959999Y-83366536D01*
X120715670Y-83415136D01*
X120508537Y-83553537D01*
X120370136Y-83760670D01*
X120321536Y-84004999D01*
X120198464Y-84004999D01*
X120149864Y-83760670D01*
X120011463Y-83553537D01*
X119804330Y-83415136D01*
X119560001Y-83366536D01*
X118909999Y-83366536D01*
X118665670Y-83415136D01*
X118458537Y-83553537D01*
X118320136Y-83760670D01*
X118271934Y-84003000D01*
X117602902Y-84003000D01*
X118332235Y-83273668D01*
X118374647Y-83245329D01*
X118402986Y-83202917D01*
X118402988Y-83202915D01*
X118486925Y-83077294D01*
X118495201Y-83035686D01*
X118516400Y-82929114D01*
X118516400Y-82929111D01*
X118526351Y-82879083D01*
X118516400Y-82829055D01*
X118516400Y-81490420D01*
X118908629Y-81098192D01*
X118909999Y-81098464D01*
X119560001Y-81098464D01*
X119804330Y-81049864D01*
X120011463Y-80911463D01*
X120149864Y-80704330D01*
X120198464Y-80460001D01*
X120198464Y-79559999D01*
X120321536Y-79559999D01*
X120321536Y-80460001D01*
X120370136Y-80704330D01*
X120508537Y-80911463D01*
X120715670Y-81049864D01*
X120959999Y-81098464D01*
X121610001Y-81098464D01*
X121854330Y-81049864D01*
X122061463Y-80911463D01*
X122199864Y-80704330D01*
X122236927Y-80518000D01*
X123221536Y-80518000D01*
X123221536Y-80860000D01*
X123251106Y-81008659D01*
X123335314Y-81134686D01*
X123461341Y-81218894D01*
X123610000Y-81248464D01*
X125310000Y-81248464D01*
X125458659Y-81218894D01*
X125584686Y-81134686D01*
X125668894Y-81008659D01*
X125698464Y-80860000D01*
X125698464Y-80010000D01*
X128284884Y-80010000D01*
X128380424Y-80490312D01*
X128652499Y-80897501D01*
X129059688Y-81169576D01*
X129418761Y-81241000D01*
X129661239Y-81241000D01*
X130020312Y-81169576D01*
X130427501Y-80897501D01*
X130699576Y-80490312D01*
X130795116Y-80010000D01*
X130699576Y-79529688D01*
X130427501Y-79122499D01*
X130020312Y-78850424D01*
X129661239Y-78779000D01*
X129418761Y-78779000D01*
X129059688Y-78850424D01*
X128652499Y-79122499D01*
X128380424Y-79529688D01*
X128284884Y-80010000D01*
X125698464Y-80010000D01*
X125698464Y-79160000D01*
X125668894Y-79011341D01*
X125584686Y-78885314D01*
X125458659Y-78801106D01*
X125310000Y-78771536D01*
X123610000Y-78771536D01*
X123461341Y-78801106D01*
X123335314Y-78885314D01*
X123251106Y-79011341D01*
X123221536Y-79160000D01*
X123221536Y-79502000D01*
X122236927Y-79502000D01*
X122199864Y-79315670D01*
X122061463Y-79108537D01*
X121854330Y-78970136D01*
X121610001Y-78921536D01*
X120959999Y-78921536D01*
X120715670Y-78970136D01*
X120508537Y-79108537D01*
X120370136Y-79315670D01*
X120321536Y-79559999D01*
X120198464Y-79559999D01*
X120149864Y-79315670D01*
X120011463Y-79108537D01*
X119804330Y-78970136D01*
X119560001Y-78921536D01*
X118909999Y-78921536D01*
X118665670Y-78970136D01*
X118458537Y-79108537D01*
X118440200Y-79135980D01*
X118440200Y-79071443D01*
X118266189Y-78651342D01*
X117944658Y-78329811D01*
X117524557Y-78155800D01*
X117069843Y-78155800D01*
X116649742Y-78329811D01*
X116328211Y-78651342D01*
X116154200Y-79071443D01*
X116154200Y-79526157D01*
X116211965Y-79665615D01*
X116191166Y-79686414D01*
X116148754Y-79714753D01*
X116120415Y-79757165D01*
X116120412Y-79757168D01*
X116036475Y-79882789D01*
X116008678Y-80022536D01*
X115965000Y-80022536D01*
X115816341Y-80052106D01*
X115690314Y-80136314D01*
X115606106Y-80262341D01*
X115576536Y-80411000D01*
X115576536Y-80811000D01*
X115601400Y-80936000D01*
X115576536Y-81061000D01*
X115576536Y-81461000D01*
X115601400Y-81586000D01*
X115576536Y-81711000D01*
X115576536Y-82111000D01*
X115601400Y-82236000D01*
X115576536Y-82361000D01*
X115576536Y-82761000D01*
X115601400Y-82886000D01*
X115576536Y-83011000D01*
X115576536Y-83411000D01*
X115601400Y-83536000D01*
X115576536Y-83661000D01*
X115576536Y-84061000D01*
X115601400Y-84186000D01*
X115576536Y-84311000D01*
X115576536Y-84711000D01*
X115601400Y-84836000D01*
X115576536Y-84961000D01*
X115576536Y-85361000D01*
X115601400Y-85486000D01*
X115576536Y-85611000D01*
X115576536Y-86011000D01*
X115601400Y-86136000D01*
X115576536Y-86261000D01*
X115576536Y-86661000D01*
X115601400Y-86786000D01*
X115576536Y-86911000D01*
X115576536Y-87311000D01*
X115601400Y-87436000D01*
X115576536Y-87561000D01*
X115576536Y-87961000D01*
X115601400Y-88086000D01*
X115576536Y-88211000D01*
X115576536Y-88611000D01*
X115601400Y-88736000D01*
X115576536Y-88861000D01*
X115576536Y-89261000D01*
X115606106Y-89409659D01*
X115690314Y-89535686D01*
X115816341Y-89619894D01*
X115965000Y-89649464D01*
X116027201Y-89649464D01*
X116027200Y-90179153D01*
X115718611Y-90487742D01*
X115544600Y-90907843D01*
X115544600Y-91261874D01*
X115395330Y-91162136D01*
X115151001Y-91113536D01*
X114500999Y-91113536D01*
X114256670Y-91162136D01*
X114049537Y-91300537D01*
X113911136Y-91507670D01*
X113862536Y-91751999D01*
X87451000Y-91751999D01*
X87451000Y-79502000D01*
X87898884Y-79502000D01*
X87994424Y-79982312D01*
X88266499Y-80389501D01*
X88673688Y-80661576D01*
X89032761Y-80733000D01*
X89275239Y-80733000D01*
X89634312Y-80661576D01*
X90041501Y-80389501D01*
X90313576Y-79982312D01*
X90409116Y-79502000D01*
X90438884Y-79502000D01*
X90534424Y-79982312D01*
X90806499Y-80389501D01*
X91213688Y-80661576D01*
X91572761Y-80733000D01*
X91815239Y-80733000D01*
X92174312Y-80661576D01*
X92581501Y-80389501D01*
X92853576Y-79982312D01*
X92949116Y-79502000D01*
X92853576Y-79021688D01*
X92581501Y-78614499D01*
X92174312Y-78342424D01*
X91815239Y-78271000D01*
X91572761Y-78271000D01*
X91213688Y-78342424D01*
X90806499Y-78614499D01*
X90534424Y-79021688D01*
X90438884Y-79502000D01*
X90409116Y-79502000D01*
X90313576Y-79021688D01*
X90041501Y-78614499D01*
X89634312Y-78342424D01*
X89275239Y-78271000D01*
X89032761Y-78271000D01*
X88673688Y-78342424D01*
X88266499Y-78614499D01*
X87994424Y-79021688D01*
X87898884Y-79502000D01*
X87451000Y-79502000D01*
X87451000Y-74588000D01*
X87661536Y-74588000D01*
X87661536Y-76288000D01*
X87691106Y-76436659D01*
X87775314Y-76562686D01*
X87901341Y-76646894D01*
X88050000Y-76676464D01*
X89750000Y-76676464D01*
X89898659Y-76646894D01*
X90024686Y-76562686D01*
X90108894Y-76436659D01*
X90138464Y-76288000D01*
X90138464Y-75438000D01*
X90184884Y-75438000D01*
X90280424Y-75918312D01*
X90552499Y-76325501D01*
X90959688Y-76597576D01*
X91318761Y-76669000D01*
X91561239Y-76669000D01*
X91845280Y-76612501D01*
X93331414Y-78098635D01*
X93359753Y-78141047D01*
X93402165Y-78169386D01*
X93402167Y-78169388D01*
X93527788Y-78253325D01*
X93675968Y-78282800D01*
X93675971Y-78282800D01*
X93725999Y-78292751D01*
X93776027Y-78282800D01*
X94053438Y-78282800D01*
X93753688Y-78342424D01*
X93346499Y-78614499D01*
X93074424Y-79021688D01*
X92978884Y-79502000D01*
X93074424Y-79982312D01*
X93346499Y-80389501D01*
X93753688Y-80661576D01*
X94112761Y-80733000D01*
X94355239Y-80733000D01*
X94714312Y-80661576D01*
X95121501Y-80389501D01*
X95393576Y-79982312D01*
X95489116Y-79502000D01*
X95393576Y-79021688D01*
X95121501Y-78614499D01*
X94714312Y-78342424D01*
X94414562Y-78282800D01*
X96593438Y-78282800D01*
X96293688Y-78342424D01*
X95886499Y-78614499D01*
X95614424Y-79021688D01*
X95518884Y-79502000D01*
X95614424Y-79982312D01*
X95886499Y-80389501D01*
X96293688Y-80661576D01*
X96652761Y-80733000D01*
X96895239Y-80733000D01*
X97254312Y-80661576D01*
X97661501Y-80389501D01*
X97933576Y-79982312D01*
X98029116Y-79502000D01*
X97933576Y-79021688D01*
X97661501Y-78614499D01*
X97254312Y-78342424D01*
X96954562Y-78282800D01*
X97376380Y-78282800D01*
X98147928Y-79054348D01*
X98058884Y-79502000D01*
X98154424Y-79982312D01*
X98426499Y-80389501D01*
X98833688Y-80661576D01*
X99192761Y-80733000D01*
X99420180Y-80733000D01*
X100646614Y-81959435D01*
X100674953Y-82001847D01*
X100717365Y-82030186D01*
X100717367Y-82030188D01*
X100782486Y-82073698D01*
X100842988Y-82114125D01*
X100991168Y-82143600D01*
X100991172Y-82143600D01*
X101041200Y-82153551D01*
X101091228Y-82143600D01*
X102456380Y-82143600D01*
X109047612Y-88734832D01*
X109075953Y-88777247D01*
X109243988Y-88889525D01*
X109392168Y-88919000D01*
X109392172Y-88919000D01*
X109442200Y-88928951D01*
X109492228Y-88919000D01*
X110040172Y-88919000D01*
X110116341Y-88969894D01*
X110265000Y-88999464D01*
X111365000Y-88999464D01*
X111513659Y-88969894D01*
X111639686Y-88885686D01*
X111723894Y-88759659D01*
X111753464Y-88611000D01*
X111753464Y-88211000D01*
X111728600Y-88086000D01*
X111753464Y-87961000D01*
X111753464Y-87561000D01*
X111728600Y-87436000D01*
X111753464Y-87311000D01*
X111753464Y-86911000D01*
X111728600Y-86786000D01*
X111753464Y-86661000D01*
X111753464Y-86261000D01*
X111728600Y-86136000D01*
X111753464Y-86011000D01*
X111753464Y-85611000D01*
X111728600Y-85486000D01*
X111753464Y-85361000D01*
X111753464Y-84961000D01*
X111728600Y-84836000D01*
X111753464Y-84711000D01*
X111753464Y-84311000D01*
X111728600Y-84186000D01*
X111753464Y-84061000D01*
X111753464Y-83661000D01*
X111728600Y-83536000D01*
X111753464Y-83411000D01*
X111753464Y-83011000D01*
X111728600Y-82886000D01*
X111753464Y-82761000D01*
X111753464Y-82361000D01*
X111728600Y-82236000D01*
X111753464Y-82111000D01*
X111753464Y-81711000D01*
X111728600Y-81586000D01*
X111753464Y-81461000D01*
X111753464Y-81061000D01*
X111728600Y-80936000D01*
X111753464Y-80811000D01*
X111753464Y-80411000D01*
X111723894Y-80262341D01*
X111639686Y-80136314D01*
X111513659Y-80052106D01*
X111365000Y-80022536D01*
X110265000Y-80022536D01*
X110116341Y-80052106D01*
X109990314Y-80136314D01*
X109906106Y-80262341D01*
X109876536Y-80411000D01*
X109876536Y-80811000D01*
X109901400Y-80936000D01*
X109876536Y-81061000D01*
X109876536Y-81461000D01*
X109901400Y-81586000D01*
X109876536Y-81711000D01*
X109876536Y-82111000D01*
X109901400Y-82236000D01*
X109876536Y-82361000D01*
X109876536Y-82761000D01*
X109901400Y-82886000D01*
X109876536Y-83011000D01*
X109876536Y-83411000D01*
X109901400Y-83536000D01*
X109876536Y-83661000D01*
X109876536Y-84061000D01*
X109901400Y-84186000D01*
X109876536Y-84311000D01*
X109876536Y-84333289D01*
X109613458Y-84070211D01*
X109193357Y-83896200D01*
X108738643Y-83896200D01*
X108318542Y-84070211D01*
X107997011Y-84391742D01*
X107823000Y-84811843D01*
X107823000Y-84854579D01*
X102988404Y-80019984D01*
X103013576Y-79982312D01*
X103109116Y-79502000D01*
X103138884Y-79502000D01*
X103234424Y-79982312D01*
X103506499Y-80389501D01*
X103913688Y-80661576D01*
X104272761Y-80733000D01*
X104515239Y-80733000D01*
X104874312Y-80661576D01*
X105281501Y-80389501D01*
X105553576Y-79982312D01*
X105649116Y-79502000D01*
X105553576Y-79021688D01*
X105281501Y-78614499D01*
X104874312Y-78342424D01*
X104515239Y-78271000D01*
X104272761Y-78271000D01*
X103913688Y-78342424D01*
X103506499Y-78614499D01*
X103234424Y-79021688D01*
X103138884Y-79502000D01*
X103109116Y-79502000D01*
X103013576Y-79021688D01*
X102741501Y-78614499D01*
X102334312Y-78342424D01*
X101975239Y-78271000D01*
X101732761Y-78271000D01*
X101373688Y-78342424D01*
X101336256Y-78367435D01*
X99845589Y-76876769D01*
X99843325Y-76865388D01*
X99731047Y-76697353D01*
X99563012Y-76585075D01*
X99559937Y-76584463D01*
X99947501Y-76325501D01*
X100219576Y-75918312D01*
X100315116Y-75438000D01*
X100344884Y-75438000D01*
X100440424Y-75918312D01*
X100712499Y-76325501D01*
X101119688Y-76597576D01*
X101478761Y-76669000D01*
X101721239Y-76669000D01*
X102080312Y-76597576D01*
X102487501Y-76325501D01*
X102759576Y-75918312D01*
X102855116Y-75438000D01*
X102884884Y-75438000D01*
X102980424Y-75918312D01*
X103252499Y-76325501D01*
X103659688Y-76597576D01*
X104018761Y-76669000D01*
X104261239Y-76669000D01*
X104620312Y-76597576D01*
X105027501Y-76325501D01*
X105299576Y-75918312D01*
X105395116Y-75438000D01*
X105424884Y-75438000D01*
X105520424Y-75918312D01*
X105792499Y-76325501D01*
X106199688Y-76597576D01*
X106558761Y-76669000D01*
X106801239Y-76669000D01*
X107160312Y-76597576D01*
X107567501Y-76325501D01*
X107839576Y-75918312D01*
X107935116Y-75438000D01*
X107964884Y-75438000D01*
X108060424Y-75918312D01*
X108332499Y-76325501D01*
X108739688Y-76597576D01*
X109098761Y-76669000D01*
X109341239Y-76669000D01*
X109700312Y-76597576D01*
X110107501Y-76325501D01*
X110379576Y-75918312D01*
X110475116Y-75438000D01*
X110504884Y-75438000D01*
X110600424Y-75918312D01*
X110872499Y-76325501D01*
X111279688Y-76597576D01*
X111638761Y-76669000D01*
X111881239Y-76669000D01*
X112240312Y-76597576D01*
X112647501Y-76325501D01*
X112919576Y-75918312D01*
X113015116Y-75438000D01*
X113044884Y-75438000D01*
X113140424Y-75918312D01*
X113412499Y-76325501D01*
X113819688Y-76597576D01*
X114178761Y-76669000D01*
X114421239Y-76669000D01*
X114780312Y-76597576D01*
X115187501Y-76325501D01*
X115459576Y-75918312D01*
X115555116Y-75438000D01*
X115584884Y-75438000D01*
X115680424Y-75918312D01*
X115952499Y-76325501D01*
X116359688Y-76597576D01*
X116718761Y-76669000D01*
X116961239Y-76669000D01*
X117320312Y-76597576D01*
X117727501Y-76325501D01*
X117999576Y-75918312D01*
X118095116Y-75438000D01*
X118124884Y-75438000D01*
X118220424Y-75918312D01*
X118492499Y-76325501D01*
X118899688Y-76597576D01*
X119258761Y-76669000D01*
X119501239Y-76669000D01*
X119860312Y-76597576D01*
X120267501Y-76325501D01*
X120539576Y-75918312D01*
X120635116Y-75438000D01*
X120664884Y-75438000D01*
X120760424Y-75918312D01*
X121032499Y-76325501D01*
X121439688Y-76597576D01*
X121798761Y-76669000D01*
X122041239Y-76669000D01*
X122400312Y-76597576D01*
X122807501Y-76325501D01*
X123079576Y-75918312D01*
X123175116Y-75438000D01*
X123204884Y-75438000D01*
X123300424Y-75918312D01*
X123572499Y-76325501D01*
X123979688Y-76597576D01*
X124338761Y-76669000D01*
X124581239Y-76669000D01*
X124940312Y-76597576D01*
X125347501Y-76325501D01*
X125619576Y-75918312D01*
X125715116Y-75438000D01*
X125744884Y-75438000D01*
X125840424Y-75918312D01*
X126112499Y-76325501D01*
X126519688Y-76597576D01*
X126878761Y-76669000D01*
X127121239Y-76669000D01*
X127480312Y-76597576D01*
X127887501Y-76325501D01*
X128159576Y-75918312D01*
X128255116Y-75438000D01*
X128284884Y-75438000D01*
X128380424Y-75918312D01*
X128652499Y-76325501D01*
X129059688Y-76597576D01*
X129418761Y-76669000D01*
X129661239Y-76669000D01*
X130020312Y-76597576D01*
X130427501Y-76325501D01*
X130699576Y-75918312D01*
X130795116Y-75438000D01*
X130824884Y-75438000D01*
X130920424Y-75918312D01*
X131192499Y-76325501D01*
X131599688Y-76597576D01*
X131958761Y-76669000D01*
X132201239Y-76669000D01*
X132560312Y-76597576D01*
X132967501Y-76325501D01*
X133239576Y-75918312D01*
X133335116Y-75438000D01*
X133364884Y-75438000D01*
X133460424Y-75918312D01*
X133732499Y-76325501D01*
X134139688Y-76597576D01*
X134498761Y-76669000D01*
X134741239Y-76669000D01*
X135100312Y-76597576D01*
X135507501Y-76325501D01*
X135779576Y-75918312D01*
X135875116Y-75438000D01*
X135904884Y-75438000D01*
X136000424Y-75918312D01*
X136272499Y-76325501D01*
X136679688Y-76597576D01*
X137038761Y-76669000D01*
X137281239Y-76669000D01*
X137640312Y-76597576D01*
X138047501Y-76325501D01*
X138319576Y-75918312D01*
X138415116Y-75438000D01*
X138319576Y-74957688D01*
X138047501Y-74550499D01*
X137640312Y-74278424D01*
X137281239Y-74207000D01*
X137038761Y-74207000D01*
X136679688Y-74278424D01*
X136272499Y-74550499D01*
X136000424Y-74957688D01*
X135904884Y-75438000D01*
X135875116Y-75438000D01*
X135779576Y-74957688D01*
X135507501Y-74550499D01*
X135100312Y-74278424D01*
X134741239Y-74207000D01*
X134498761Y-74207000D01*
X134139688Y-74278424D01*
X133732499Y-74550499D01*
X133460424Y-74957688D01*
X133364884Y-75438000D01*
X133335116Y-75438000D01*
X133239576Y-74957688D01*
X132967501Y-74550499D01*
X132560312Y-74278424D01*
X132201239Y-74207000D01*
X131958761Y-74207000D01*
X131599688Y-74278424D01*
X131192499Y-74550499D01*
X130920424Y-74957688D01*
X130824884Y-75438000D01*
X130795116Y-75438000D01*
X130699576Y-74957688D01*
X130427501Y-74550499D01*
X130020312Y-74278424D01*
X129661239Y-74207000D01*
X129418761Y-74207000D01*
X129059688Y-74278424D01*
X128652499Y-74550499D01*
X128380424Y-74957688D01*
X128284884Y-75438000D01*
X128255116Y-75438000D01*
X128159576Y-74957688D01*
X127887501Y-74550499D01*
X127480312Y-74278424D01*
X127121239Y-74207000D01*
X126878761Y-74207000D01*
X126519688Y-74278424D01*
X126112499Y-74550499D01*
X125840424Y-74957688D01*
X125744884Y-75438000D01*
X125715116Y-75438000D01*
X125619576Y-74957688D01*
X125347501Y-74550499D01*
X124940312Y-74278424D01*
X124581239Y-74207000D01*
X124338761Y-74207000D01*
X123979688Y-74278424D01*
X123572499Y-74550499D01*
X123300424Y-74957688D01*
X123204884Y-75438000D01*
X123175116Y-75438000D01*
X123079576Y-74957688D01*
X122807501Y-74550499D01*
X122400312Y-74278424D01*
X122041239Y-74207000D01*
X121798761Y-74207000D01*
X121439688Y-74278424D01*
X121032499Y-74550499D01*
X120760424Y-74957688D01*
X120664884Y-75438000D01*
X120635116Y-75438000D01*
X120539576Y-74957688D01*
X120267501Y-74550499D01*
X119860312Y-74278424D01*
X119501239Y-74207000D01*
X119258761Y-74207000D01*
X118899688Y-74278424D01*
X118492499Y-74550499D01*
X118220424Y-74957688D01*
X118124884Y-75438000D01*
X118095116Y-75438000D01*
X117999576Y-74957688D01*
X117727501Y-74550499D01*
X117320312Y-74278424D01*
X116961239Y-74207000D01*
X116718761Y-74207000D01*
X116359688Y-74278424D01*
X115952499Y-74550499D01*
X115680424Y-74957688D01*
X115584884Y-75438000D01*
X115555116Y-75438000D01*
X115459576Y-74957688D01*
X115187501Y-74550499D01*
X114780312Y-74278424D01*
X114421239Y-74207000D01*
X114178761Y-74207000D01*
X113819688Y-74278424D01*
X113412499Y-74550499D01*
X113140424Y-74957688D01*
X113044884Y-75438000D01*
X113015116Y-75438000D01*
X112919576Y-74957688D01*
X112647501Y-74550499D01*
X112240312Y-74278424D01*
X111881239Y-74207000D01*
X111638761Y-74207000D01*
X111279688Y-74278424D01*
X110872499Y-74550499D01*
X110600424Y-74957688D01*
X110504884Y-75438000D01*
X110475116Y-75438000D01*
X110379576Y-74957688D01*
X110107501Y-74550499D01*
X109700312Y-74278424D01*
X109341239Y-74207000D01*
X109098761Y-74207000D01*
X108739688Y-74278424D01*
X108332499Y-74550499D01*
X108060424Y-74957688D01*
X107964884Y-75438000D01*
X107935116Y-75438000D01*
X107839576Y-74957688D01*
X107567501Y-74550499D01*
X107160312Y-74278424D01*
X106801239Y-74207000D01*
X106558761Y-74207000D01*
X106199688Y-74278424D01*
X105792499Y-74550499D01*
X105520424Y-74957688D01*
X105424884Y-75438000D01*
X105395116Y-75438000D01*
X105299576Y-74957688D01*
X105027501Y-74550499D01*
X104620312Y-74278424D01*
X104261239Y-74207000D01*
X104018761Y-74207000D01*
X103659688Y-74278424D01*
X103252499Y-74550499D01*
X102980424Y-74957688D01*
X102884884Y-75438000D01*
X102855116Y-75438000D01*
X102759576Y-74957688D01*
X102487501Y-74550499D01*
X102080312Y-74278424D01*
X101721239Y-74207000D01*
X101478761Y-74207000D01*
X101119688Y-74278424D01*
X100712499Y-74550499D01*
X100440424Y-74957688D01*
X100344884Y-75438000D01*
X100315116Y-75438000D01*
X100219576Y-74957688D01*
X99947501Y-74550499D01*
X99540312Y-74278424D01*
X99181239Y-74207000D01*
X98938761Y-74207000D01*
X98579688Y-74278424D01*
X98172499Y-74550499D01*
X97900424Y-74957688D01*
X97804884Y-75438000D01*
X97900424Y-75918312D01*
X98172499Y-76325501D01*
X98516866Y-76555600D01*
X97063134Y-76555600D01*
X97407501Y-76325501D01*
X97679576Y-75918312D01*
X97775116Y-75438000D01*
X97679576Y-74957688D01*
X97407501Y-74550499D01*
X97000312Y-74278424D01*
X96641239Y-74207000D01*
X96398761Y-74207000D01*
X96039688Y-74278424D01*
X95632499Y-74550499D01*
X95360424Y-74957688D01*
X95264884Y-75438000D01*
X95360424Y-75918312D01*
X95632499Y-76325501D01*
X95976866Y-76555600D01*
X95714420Y-76555600D01*
X95323402Y-76164582D01*
X95308524Y-76089787D01*
X95224587Y-75964166D01*
X95224585Y-75964164D01*
X95196246Y-75921752D01*
X95153834Y-75893414D01*
X95146073Y-75885652D01*
X95235116Y-75438000D01*
X95139576Y-74957688D01*
X94867501Y-74550499D01*
X94460312Y-74278424D01*
X94101239Y-74207000D01*
X93858761Y-74207000D01*
X93499688Y-74278424D01*
X93092499Y-74550499D01*
X92820424Y-74957688D01*
X92724884Y-75438000D01*
X92820424Y-75918312D01*
X93092499Y-76325501D01*
X93499688Y-76597576D01*
X93858761Y-76669000D01*
X94101239Y-76669000D01*
X94370002Y-76615540D01*
X94463752Y-76755846D01*
X94506166Y-76784186D01*
X94988780Y-77266800D01*
X93936421Y-77266800D01*
X92594912Y-75925292D01*
X92599576Y-75918312D01*
X92695116Y-75438000D01*
X92599576Y-74957688D01*
X92327501Y-74550499D01*
X91920312Y-74278424D01*
X91561239Y-74207000D01*
X91318761Y-74207000D01*
X90959688Y-74278424D01*
X90552499Y-74550499D01*
X90280424Y-74957688D01*
X90184884Y-75438000D01*
X90138464Y-75438000D01*
X90138464Y-74588000D01*
X90108894Y-74439341D01*
X90024686Y-74313314D01*
X89898659Y-74229106D01*
X89750000Y-74199536D01*
X88050000Y-74199536D01*
X87901341Y-74229106D01*
X87775314Y-74313314D01*
X87691106Y-74439341D01*
X87661536Y-74588000D01*
X87451000Y-74588000D01*
X87451000Y-72898000D01*
X92724884Y-72898000D01*
X92820424Y-73378312D01*
X93092499Y-73785501D01*
X93499688Y-74057576D01*
X93858761Y-74129000D01*
X94101239Y-74129000D01*
X94460312Y-74057576D01*
X94867501Y-73785501D01*
X95139576Y-73378312D01*
X95235116Y-72898000D01*
X95264884Y-72898000D01*
X95360424Y-73378312D01*
X95632499Y-73785501D01*
X96039688Y-74057576D01*
X96398761Y-74129000D01*
X96641239Y-74129000D01*
X97000312Y-74057576D01*
X97407501Y-73785501D01*
X97679576Y-73378312D01*
X97775116Y-72898000D01*
X97804884Y-72898000D01*
X97900424Y-73378312D01*
X98172499Y-73785501D01*
X98579688Y-74057576D01*
X98938761Y-74129000D01*
X99181239Y-74129000D01*
X99540312Y-74057576D01*
X99947501Y-73785501D01*
X100219576Y-73378312D01*
X100315116Y-72898000D01*
X100344884Y-72898000D01*
X100440424Y-73378312D01*
X100712499Y-73785501D01*
X101119688Y-74057576D01*
X101478761Y-74129000D01*
X101721239Y-74129000D01*
X102080312Y-74057576D01*
X102487501Y-73785501D01*
X102759576Y-73378312D01*
X102855116Y-72898000D01*
X102884884Y-72898000D01*
X102980424Y-73378312D01*
X103252499Y-73785501D01*
X103659688Y-74057576D01*
X104018761Y-74129000D01*
X104261239Y-74129000D01*
X104620312Y-74057576D01*
X105027501Y-73785501D01*
X105299576Y-73378312D01*
X105395116Y-72898000D01*
X105424884Y-72898000D01*
X105520424Y-73378312D01*
X105792499Y-73785501D01*
X106199688Y-74057576D01*
X106558761Y-74129000D01*
X106801239Y-74129000D01*
X107160312Y-74057576D01*
X107567501Y-73785501D01*
X107839576Y-73378312D01*
X107935116Y-72898000D01*
X107964884Y-72898000D01*
X108060424Y-73378312D01*
X108332499Y-73785501D01*
X108739688Y-74057576D01*
X109098761Y-74129000D01*
X109341239Y-74129000D01*
X109700312Y-74057576D01*
X110107501Y-73785501D01*
X110379576Y-73378312D01*
X110475116Y-72898000D01*
X110504884Y-72898000D01*
X110600424Y-73378312D01*
X110872499Y-73785501D01*
X111279688Y-74057576D01*
X111638761Y-74129000D01*
X111881239Y-74129000D01*
X112240312Y-74057576D01*
X112647501Y-73785501D01*
X112919576Y-73378312D01*
X113015116Y-72898000D01*
X113044884Y-72898000D01*
X113140424Y-73378312D01*
X113412499Y-73785501D01*
X113819688Y-74057576D01*
X114178761Y-74129000D01*
X114421239Y-74129000D01*
X114780312Y-74057576D01*
X115187501Y-73785501D01*
X115459576Y-73378312D01*
X115555116Y-72898000D01*
X115584884Y-72898000D01*
X115680424Y-73378312D01*
X115952499Y-73785501D01*
X116359688Y-74057576D01*
X116718761Y-74129000D01*
X116961239Y-74129000D01*
X117320312Y-74057576D01*
X117727501Y-73785501D01*
X117999576Y-73378312D01*
X118095116Y-72898000D01*
X118124884Y-72898000D01*
X118220424Y-73378312D01*
X118492499Y-73785501D01*
X118899688Y-74057576D01*
X119258761Y-74129000D01*
X119501239Y-74129000D01*
X119860312Y-74057576D01*
X120267501Y-73785501D01*
X120539576Y-73378312D01*
X120635116Y-72898000D01*
X120664884Y-72898000D01*
X120760424Y-73378312D01*
X121032499Y-73785501D01*
X121439688Y-74057576D01*
X121798761Y-74129000D01*
X122041239Y-74129000D01*
X122400312Y-74057576D01*
X122807501Y-73785501D01*
X123079576Y-73378312D01*
X123175116Y-72898000D01*
X123204884Y-72898000D01*
X123300424Y-73378312D01*
X123572499Y-73785501D01*
X123979688Y-74057576D01*
X124338761Y-74129000D01*
X124581239Y-74129000D01*
X124940312Y-74057576D01*
X125347501Y-73785501D01*
X125619576Y-73378312D01*
X125715116Y-72898000D01*
X125744884Y-72898000D01*
X125840424Y-73378312D01*
X126112499Y-73785501D01*
X126519688Y-74057576D01*
X126878761Y-74129000D01*
X127121239Y-74129000D01*
X127480312Y-74057576D01*
X127887501Y-73785501D01*
X128159576Y-73378312D01*
X128255116Y-72898000D01*
X128284884Y-72898000D01*
X128380424Y-73378312D01*
X128652499Y-73785501D01*
X129059688Y-74057576D01*
X129418761Y-74129000D01*
X129661239Y-74129000D01*
X130020312Y-74057576D01*
X130427501Y-73785501D01*
X130699576Y-73378312D01*
X130795116Y-72898000D01*
X130824884Y-72898000D01*
X130920424Y-73378312D01*
X131192499Y-73785501D01*
X131599688Y-74057576D01*
X131958761Y-74129000D01*
X132201239Y-74129000D01*
X132560312Y-74057576D01*
X132967501Y-73785501D01*
X133239576Y-73378312D01*
X133335116Y-72898000D01*
X133364884Y-72898000D01*
X133460424Y-73378312D01*
X133732499Y-73785501D01*
X134139688Y-74057576D01*
X134498761Y-74129000D01*
X134741239Y-74129000D01*
X135100312Y-74057576D01*
X135507501Y-73785501D01*
X135779576Y-73378312D01*
X135875116Y-72898000D01*
X135904884Y-72898000D01*
X136000424Y-73378312D01*
X136272499Y-73785501D01*
X136679688Y-74057576D01*
X137038761Y-74129000D01*
X137281239Y-74129000D01*
X137640312Y-74057576D01*
X138047501Y-73785501D01*
X138319576Y-73378312D01*
X138415116Y-72898000D01*
X138319576Y-72417688D01*
X138047501Y-72010499D01*
X137640312Y-71738424D01*
X137281239Y-71667000D01*
X137038761Y-71667000D01*
X136679688Y-71738424D01*
X136272499Y-72010499D01*
X136000424Y-72417688D01*
X135904884Y-72898000D01*
X135875116Y-72898000D01*
X135779576Y-72417688D01*
X135507501Y-72010499D01*
X135100312Y-71738424D01*
X134741239Y-71667000D01*
X134498761Y-71667000D01*
X134139688Y-71738424D01*
X133732499Y-72010499D01*
X133460424Y-72417688D01*
X133364884Y-72898000D01*
X133335116Y-72898000D01*
X133239576Y-72417688D01*
X132967501Y-72010499D01*
X132560312Y-71738424D01*
X132201239Y-71667000D01*
X131958761Y-71667000D01*
X131599688Y-71738424D01*
X131192499Y-72010499D01*
X130920424Y-72417688D01*
X130824884Y-72898000D01*
X130795116Y-72898000D01*
X130699576Y-72417688D01*
X130427501Y-72010499D01*
X130020312Y-71738424D01*
X129661239Y-71667000D01*
X129418761Y-71667000D01*
X129059688Y-71738424D01*
X128652499Y-72010499D01*
X128380424Y-72417688D01*
X128284884Y-72898000D01*
X128255116Y-72898000D01*
X128159576Y-72417688D01*
X127887501Y-72010499D01*
X127480312Y-71738424D01*
X127121239Y-71667000D01*
X126878761Y-71667000D01*
X126519688Y-71738424D01*
X126112499Y-72010499D01*
X125840424Y-72417688D01*
X125744884Y-72898000D01*
X125715116Y-72898000D01*
X125619576Y-72417688D01*
X125347501Y-72010499D01*
X124940312Y-71738424D01*
X124581239Y-71667000D01*
X124338761Y-71667000D01*
X123979688Y-71738424D01*
X123572499Y-72010499D01*
X123300424Y-72417688D01*
X123204884Y-72898000D01*
X123175116Y-72898000D01*
X123079576Y-72417688D01*
X122807501Y-72010499D01*
X122400312Y-71738424D01*
X122041239Y-71667000D01*
X121798761Y-71667000D01*
X121439688Y-71738424D01*
X121032499Y-72010499D01*
X120760424Y-72417688D01*
X120664884Y-72898000D01*
X120635116Y-72898000D01*
X120539576Y-72417688D01*
X120267501Y-72010499D01*
X119860312Y-71738424D01*
X119501239Y-71667000D01*
X119258761Y-71667000D01*
X118899688Y-71738424D01*
X118492499Y-72010499D01*
X118220424Y-72417688D01*
X118124884Y-72898000D01*
X118095116Y-72898000D01*
X117999576Y-72417688D01*
X117727501Y-72010499D01*
X117320312Y-71738424D01*
X116961239Y-71667000D01*
X116718761Y-71667000D01*
X116359688Y-71738424D01*
X115952499Y-72010499D01*
X115680424Y-72417688D01*
X115584884Y-72898000D01*
X115555116Y-72898000D01*
X115459576Y-72417688D01*
X115187501Y-72010499D01*
X114780312Y-71738424D01*
X114421239Y-71667000D01*
X114178761Y-71667000D01*
X113819688Y-71738424D01*
X113412499Y-72010499D01*
X113140424Y-72417688D01*
X113044884Y-72898000D01*
X113015116Y-72898000D01*
X112919576Y-72417688D01*
X112647501Y-72010499D01*
X112240312Y-71738424D01*
X111881239Y-71667000D01*
X111638761Y-71667000D01*
X111279688Y-71738424D01*
X110872499Y-72010499D01*
X110600424Y-72417688D01*
X110504884Y-72898000D01*
X110475116Y-72898000D01*
X110379576Y-72417688D01*
X110107501Y-72010499D01*
X109700312Y-71738424D01*
X109341239Y-71667000D01*
X109098761Y-71667000D01*
X108739688Y-71738424D01*
X108332499Y-72010499D01*
X108060424Y-72417688D01*
X107964884Y-72898000D01*
X107935116Y-72898000D01*
X107839576Y-72417688D01*
X107567501Y-72010499D01*
X107160312Y-71738424D01*
X106801239Y-71667000D01*
X106558761Y-71667000D01*
X106199688Y-71738424D01*
X105792499Y-72010499D01*
X105520424Y-72417688D01*
X105424884Y-72898000D01*
X105395116Y-72898000D01*
X105299576Y-72417688D01*
X105027501Y-72010499D01*
X104620312Y-71738424D01*
X104261239Y-71667000D01*
X104018761Y-71667000D01*
X103659688Y-71738424D01*
X103252499Y-72010499D01*
X102980424Y-72417688D01*
X102884884Y-72898000D01*
X102855116Y-72898000D01*
X102759576Y-72417688D01*
X102487501Y-72010499D01*
X102080312Y-71738424D01*
X101721239Y-71667000D01*
X101478761Y-71667000D01*
X101119688Y-71738424D01*
X100712499Y-72010499D01*
X100440424Y-72417688D01*
X100344884Y-72898000D01*
X100315116Y-72898000D01*
X100219576Y-72417688D01*
X99947501Y-72010499D01*
X99540312Y-71738424D01*
X99181239Y-71667000D01*
X98938761Y-71667000D01*
X98579688Y-71738424D01*
X98172499Y-72010499D01*
X97900424Y-72417688D01*
X97804884Y-72898000D01*
X97775116Y-72898000D01*
X97679576Y-72417688D01*
X97407501Y-72010499D01*
X97000312Y-71738424D01*
X96641239Y-71667000D01*
X96398761Y-71667000D01*
X96039688Y-71738424D01*
X95632499Y-72010499D01*
X95360424Y-72417688D01*
X95264884Y-72898000D01*
X95235116Y-72898000D01*
X95139576Y-72417688D01*
X94867501Y-72010499D01*
X94460312Y-71738424D01*
X94101239Y-71667000D01*
X93858761Y-71667000D01*
X93499688Y-71738424D01*
X93092499Y-72010499D01*
X92820424Y-72417688D01*
X92724884Y-72898000D01*
X87451000Y-72898000D01*
X87451000Y-71576000D01*
X139244001Y-71576000D01*
X139244000Y-94794000D01*
X139244000Y-94794000D01*
G37*
X139244000Y-94794000D02*
X87451000Y-94794000D01*
X87451000Y-91751999D01*
X113862536Y-91751999D01*
X113862536Y-92652001D01*
X113911136Y-92896330D01*
X114049537Y-93103463D01*
X114256670Y-93241864D01*
X114500999Y-93290464D01*
X115151001Y-93290464D01*
X115395330Y-93241864D01*
X115602463Y-93103463D01*
X115740864Y-92896330D01*
X115789464Y-92652001D01*
X115789464Y-92632381D01*
X115885447Y-92568247D01*
X115913788Y-92525832D01*
X116248943Y-92190677D01*
X116460243Y-92278200D01*
X116914957Y-92278200D01*
X117335058Y-92104189D01*
X117656589Y-91782658D01*
X117745400Y-91568248D01*
X117745400Y-92558372D01*
X117735449Y-92608400D01*
X117745400Y-92658428D01*
X117745400Y-92658431D01*
X117774875Y-92806611D01*
X117887153Y-92974647D01*
X117929568Y-93002988D01*
X118280536Y-93353957D01*
X118280536Y-93795001D01*
X118329136Y-94039330D01*
X118467537Y-94246463D01*
X118674670Y-94384864D01*
X118918999Y-94433464D01*
X119569001Y-94433464D01*
X119813330Y-94384864D01*
X120020463Y-94246463D01*
X120158864Y-94039330D01*
X120207464Y-93795001D01*
X120207464Y-92894999D01*
X120330536Y-92894999D01*
X120330536Y-93795001D01*
X120379136Y-94039330D01*
X120517537Y-94246463D01*
X120724670Y-94384864D01*
X120968999Y-94433464D01*
X121619001Y-94433464D01*
X121863330Y-94384864D01*
X122070463Y-94246463D01*
X122208864Y-94039330D01*
X122245927Y-93853000D01*
X123221536Y-93853000D01*
X123221536Y-94195000D01*
X123251106Y-94343659D01*
X123335314Y-94469686D01*
X123461341Y-94553894D01*
X123610000Y-94583464D01*
X125310000Y-94583464D01*
X125458659Y-94553894D01*
X125584686Y-94469686D01*
X125668894Y-94343659D01*
X125698464Y-94195000D01*
X125698464Y-93345000D01*
X128284884Y-93345000D01*
X128380424Y-93825312D01*
X128652499Y-94232501D01*
X129059688Y-94504576D01*
X129418761Y-94576000D01*
X129661239Y-94576000D01*
X130020312Y-94504576D01*
X130427501Y-94232501D01*
X130699576Y-93825312D01*
X130795116Y-93345000D01*
X130699576Y-92864688D01*
X130427501Y-92457499D01*
X130020312Y-92185424D01*
X129661239Y-92114000D01*
X129418761Y-92114000D01*
X129059688Y-92185424D01*
X128652499Y-92457499D01*
X128380424Y-92864688D01*
X128284884Y-93345000D01*
X125698464Y-93345000D01*
X125698464Y-92495000D01*
X125668894Y-92346341D01*
X125584686Y-92220314D01*
X125458659Y-92136106D01*
X125310000Y-92106536D01*
X123610000Y-92106536D01*
X123461341Y-92136106D01*
X123335314Y-92220314D01*
X123251106Y-92346341D01*
X123221536Y-92495000D01*
X123221536Y-92837000D01*
X122245927Y-92837000D01*
X122208864Y-92650670D01*
X122070463Y-92443537D01*
X121863330Y-92305136D01*
X121619001Y-92256536D01*
X120968999Y-92256536D01*
X120724670Y-92305136D01*
X120517537Y-92443537D01*
X120379136Y-92650670D01*
X120330536Y-92894999D01*
X120207464Y-92894999D01*
X120158864Y-92650670D01*
X120020463Y-92443537D01*
X119813330Y-92305136D01*
X119569001Y-92256536D01*
X118918999Y-92256536D01*
X118761400Y-92287884D01*
X118761400Y-89958906D01*
X118909999Y-89988464D01*
X119560001Y-89988464D01*
X119804330Y-89939864D01*
X120011463Y-89801463D01*
X120149864Y-89594330D01*
X120198464Y-89350001D01*
X120198464Y-88449999D01*
X120321536Y-88449999D01*
X120321536Y-89350001D01*
X120370136Y-89594330D01*
X120508537Y-89801463D01*
X120715670Y-89939864D01*
X120959999Y-89988464D01*
X121610001Y-89988464D01*
X121854330Y-89939864D01*
X122061463Y-89801463D01*
X122199864Y-89594330D01*
X122236927Y-89408000D01*
X123221536Y-89408000D01*
X123221536Y-89750000D01*
X123251106Y-89898659D01*
X123335314Y-90024686D01*
X123461341Y-90108894D01*
X123610000Y-90138464D01*
X125310000Y-90138464D01*
X125458659Y-90108894D01*
X125584686Y-90024686D01*
X125668894Y-89898659D01*
X125698464Y-89750000D01*
X125698464Y-88900000D01*
X128284884Y-88900000D01*
X128380424Y-89380312D01*
X128652499Y-89787501D01*
X129059688Y-90059576D01*
X129418761Y-90131000D01*
X129661239Y-90131000D01*
X130020312Y-90059576D01*
X130427501Y-89787501D01*
X130699576Y-89380312D01*
X130795116Y-88900000D01*
X130699576Y-88419688D01*
X130427501Y-88012499D01*
X130020312Y-87740424D01*
X129661239Y-87669000D01*
X129418761Y-87669000D01*
X129059688Y-87740424D01*
X128652499Y-88012499D01*
X128380424Y-88419688D01*
X128284884Y-88900000D01*
X125698464Y-88900000D01*
X125698464Y-88050000D01*
X125668894Y-87901341D01*
X125584686Y-87775314D01*
X125458659Y-87691106D01*
X125310000Y-87661536D01*
X123610000Y-87661536D01*
X123461341Y-87691106D01*
X123335314Y-87775314D01*
X123251106Y-87901341D01*
X123221536Y-88050000D01*
X123221536Y-88392000D01*
X122236927Y-88392000D01*
X122199864Y-88205670D01*
X122061463Y-87998537D01*
X121854330Y-87860136D01*
X121610001Y-87811536D01*
X120959999Y-87811536D01*
X120715670Y-87860136D01*
X120508537Y-87998537D01*
X120370136Y-88205670D01*
X120321536Y-88449999D01*
X120198464Y-88449999D01*
X120149864Y-88205670D01*
X120011463Y-87998537D01*
X119804330Y-87860136D01*
X119786400Y-87856570D01*
X119786400Y-87170427D01*
X119796351Y-87120399D01*
X119786400Y-87070369D01*
X119786400Y-87070368D01*
X119756925Y-86922188D01*
X119727367Y-86877951D01*
X119672988Y-86796567D01*
X119672986Y-86796565D01*
X119644647Y-86754153D01*
X119602236Y-86725815D01*
X118870420Y-85993999D01*
X134274536Y-85993999D01*
X134274536Y-87234001D01*
X134323136Y-87478330D01*
X134461537Y-87685463D01*
X134668670Y-87823864D01*
X134912999Y-87872464D01*
X136613001Y-87872464D01*
X136857330Y-87823864D01*
X137064463Y-87685463D01*
X137202864Y-87478330D01*
X137251464Y-87234001D01*
X137251464Y-85993999D01*
X137202864Y-85749670D01*
X137064463Y-85542537D01*
X136857330Y-85404136D01*
X136613001Y-85355536D01*
X134912999Y-85355536D01*
X134668670Y-85404136D01*
X134461537Y-85542537D01*
X134323136Y-85749670D01*
X134274536Y-85993999D01*
X118870420Y-85993999D01*
X117895420Y-85019000D01*
X118294212Y-85019000D01*
X118320136Y-85149330D01*
X118458537Y-85356463D01*
X118665670Y-85494864D01*
X118909999Y-85543464D01*
X119560001Y-85543464D01*
X119804330Y-85494864D01*
X120011463Y-85356463D01*
X120149864Y-85149330D01*
X120198464Y-84905001D01*
X120198464Y-84004999D01*
X120321536Y-84004999D01*
X120321536Y-84905001D01*
X120370136Y-85149330D01*
X120508537Y-85356463D01*
X120715670Y-85494864D01*
X120959999Y-85543464D01*
X121610001Y-85543464D01*
X121854330Y-85494864D01*
X122061463Y-85356463D01*
X122199864Y-85149330D01*
X122236927Y-84963000D01*
X123221536Y-84963000D01*
X123221536Y-85305000D01*
X123251106Y-85453659D01*
X123335314Y-85579686D01*
X123461341Y-85663894D01*
X123610000Y-85693464D01*
X125310000Y-85693464D01*
X125458659Y-85663894D01*
X125584686Y-85579686D01*
X125668894Y-85453659D01*
X125698464Y-85305000D01*
X125698464Y-84455000D01*
X128284884Y-84455000D01*
X128380424Y-84935312D01*
X128652499Y-85342501D01*
X129059688Y-85614576D01*
X129418761Y-85686000D01*
X129661239Y-85686000D01*
X130020312Y-85614576D01*
X130427501Y-85342501D01*
X130699576Y-84935312D01*
X130795116Y-84455000D01*
X130699576Y-83974688D01*
X130427501Y-83567499D01*
X130020312Y-83295424D01*
X129661239Y-83224000D01*
X129418761Y-83224000D01*
X129059688Y-83295424D01*
X128652499Y-83567499D01*
X128380424Y-83974688D01*
X128284884Y-84455000D01*
X125698464Y-84455000D01*
X125698464Y-83605000D01*
X125668894Y-83456341D01*
X125584686Y-83330314D01*
X125458659Y-83246106D01*
X125310000Y-83216536D01*
X123610000Y-83216536D01*
X123461341Y-83246106D01*
X123335314Y-83330314D01*
X123251106Y-83456341D01*
X123221536Y-83605000D01*
X123221536Y-83947000D01*
X122236927Y-83947000D01*
X122199864Y-83760670D01*
X122061463Y-83553537D01*
X121854330Y-83415136D01*
X121610001Y-83366536D01*
X120959999Y-83366536D01*
X120715670Y-83415136D01*
X120508537Y-83553537D01*
X120370136Y-83760670D01*
X120321536Y-84004999D01*
X120198464Y-84004999D01*
X120149864Y-83760670D01*
X120011463Y-83553537D01*
X119804330Y-83415136D01*
X119560001Y-83366536D01*
X118909999Y-83366536D01*
X118665670Y-83415136D01*
X118458537Y-83553537D01*
X118320136Y-83760670D01*
X118271934Y-84003000D01*
X117602902Y-84003000D01*
X118332235Y-83273668D01*
X118374647Y-83245329D01*
X118402986Y-83202917D01*
X118402988Y-83202915D01*
X118486925Y-83077294D01*
X118495201Y-83035686D01*
X118516400Y-82929114D01*
X118516400Y-82929111D01*
X118526351Y-82879083D01*
X118516400Y-82829055D01*
X118516400Y-81490420D01*
X118908629Y-81098192D01*
X118909999Y-81098464D01*
X119560001Y-81098464D01*
X119804330Y-81049864D01*
X120011463Y-80911463D01*
X120149864Y-80704330D01*
X120198464Y-80460001D01*
X120198464Y-79559999D01*
X120321536Y-79559999D01*
X120321536Y-80460001D01*
X120370136Y-80704330D01*
X120508537Y-80911463D01*
X120715670Y-81049864D01*
X120959999Y-81098464D01*
X121610001Y-81098464D01*
X121854330Y-81049864D01*
X122061463Y-80911463D01*
X122199864Y-80704330D01*
X122236927Y-80518000D01*
X123221536Y-80518000D01*
X123221536Y-80860000D01*
X123251106Y-81008659D01*
X123335314Y-81134686D01*
X123461341Y-81218894D01*
X123610000Y-81248464D01*
X125310000Y-81248464D01*
X125458659Y-81218894D01*
X125584686Y-81134686D01*
X125668894Y-81008659D01*
X125698464Y-80860000D01*
X125698464Y-80010000D01*
X128284884Y-80010000D01*
X128380424Y-80490312D01*
X128652499Y-80897501D01*
X129059688Y-81169576D01*
X129418761Y-81241000D01*
X129661239Y-81241000D01*
X130020312Y-81169576D01*
X130427501Y-80897501D01*
X130699576Y-80490312D01*
X130795116Y-80010000D01*
X130699576Y-79529688D01*
X130427501Y-79122499D01*
X130020312Y-78850424D01*
X129661239Y-78779000D01*
X129418761Y-78779000D01*
X129059688Y-78850424D01*
X128652499Y-79122499D01*
X128380424Y-79529688D01*
X128284884Y-80010000D01*
X125698464Y-80010000D01*
X125698464Y-79160000D01*
X125668894Y-79011341D01*
X125584686Y-78885314D01*
X125458659Y-78801106D01*
X125310000Y-78771536D01*
X123610000Y-78771536D01*
X123461341Y-78801106D01*
X123335314Y-78885314D01*
X123251106Y-79011341D01*
X123221536Y-79160000D01*
X123221536Y-79502000D01*
X122236927Y-79502000D01*
X122199864Y-79315670D01*
X122061463Y-79108537D01*
X121854330Y-78970136D01*
X121610001Y-78921536D01*
X120959999Y-78921536D01*
X120715670Y-78970136D01*
X120508537Y-79108537D01*
X120370136Y-79315670D01*
X120321536Y-79559999D01*
X120198464Y-79559999D01*
X120149864Y-79315670D01*
X120011463Y-79108537D01*
X119804330Y-78970136D01*
X119560001Y-78921536D01*
X118909999Y-78921536D01*
X118665670Y-78970136D01*
X118458537Y-79108537D01*
X118440200Y-79135980D01*
X118440200Y-79071443D01*
X118266189Y-78651342D01*
X117944658Y-78329811D01*
X117524557Y-78155800D01*
X117069843Y-78155800D01*
X116649742Y-78329811D01*
X116328211Y-78651342D01*
X116154200Y-79071443D01*
X116154200Y-79526157D01*
X116211965Y-79665615D01*
X116191166Y-79686414D01*
X116148754Y-79714753D01*
X116120415Y-79757165D01*
X116120412Y-79757168D01*
X116036475Y-79882789D01*
X116008678Y-80022536D01*
X115965000Y-80022536D01*
X115816341Y-80052106D01*
X115690314Y-80136314D01*
X115606106Y-80262341D01*
X115576536Y-80411000D01*
X115576536Y-80811000D01*
X115601400Y-80936000D01*
X115576536Y-81061000D01*
X115576536Y-81461000D01*
X115601400Y-81586000D01*
X115576536Y-81711000D01*
X115576536Y-82111000D01*
X115601400Y-82236000D01*
X115576536Y-82361000D01*
X115576536Y-82761000D01*
X115601400Y-82886000D01*
X115576536Y-83011000D01*
X115576536Y-83411000D01*
X115601400Y-83536000D01*
X115576536Y-83661000D01*
X115576536Y-84061000D01*
X115601400Y-84186000D01*
X115576536Y-84311000D01*
X115576536Y-84711000D01*
X115601400Y-84836000D01*
X115576536Y-84961000D01*
X115576536Y-85361000D01*
X115601400Y-85486000D01*
X115576536Y-85611000D01*
X115576536Y-86011000D01*
X115601400Y-86136000D01*
X115576536Y-86261000D01*
X115576536Y-86661000D01*
X115601400Y-86786000D01*
X115576536Y-86911000D01*
X115576536Y-87311000D01*
X115601400Y-87436000D01*
X115576536Y-87561000D01*
X115576536Y-87961000D01*
X115601400Y-88086000D01*
X115576536Y-88211000D01*
X115576536Y-88611000D01*
X115601400Y-88736000D01*
X115576536Y-88861000D01*
X115576536Y-89261000D01*
X115606106Y-89409659D01*
X115690314Y-89535686D01*
X115816341Y-89619894D01*
X115965000Y-89649464D01*
X116027201Y-89649464D01*
X116027200Y-90179153D01*
X115718611Y-90487742D01*
X115544600Y-90907843D01*
X115544600Y-91261874D01*
X115395330Y-91162136D01*
X115151001Y-91113536D01*
X114500999Y-91113536D01*
X114256670Y-91162136D01*
X114049537Y-91300537D01*
X113911136Y-91507670D01*
X113862536Y-91751999D01*
X87451000Y-91751999D01*
X87451000Y-79502000D01*
X87898884Y-79502000D01*
X87994424Y-79982312D01*
X88266499Y-80389501D01*
X88673688Y-80661576D01*
X89032761Y-80733000D01*
X89275239Y-80733000D01*
X89634312Y-80661576D01*
X90041501Y-80389501D01*
X90313576Y-79982312D01*
X90409116Y-79502000D01*
X90438884Y-79502000D01*
X90534424Y-79982312D01*
X90806499Y-80389501D01*
X91213688Y-80661576D01*
X91572761Y-80733000D01*
X91815239Y-80733000D01*
X92174312Y-80661576D01*
X92581501Y-80389501D01*
X92853576Y-79982312D01*
X92949116Y-79502000D01*
X92853576Y-79021688D01*
X92581501Y-78614499D01*
X92174312Y-78342424D01*
X91815239Y-78271000D01*
X91572761Y-78271000D01*
X91213688Y-78342424D01*
X90806499Y-78614499D01*
X90534424Y-79021688D01*
X90438884Y-79502000D01*
X90409116Y-79502000D01*
X90313576Y-79021688D01*
X90041501Y-78614499D01*
X89634312Y-78342424D01*
X89275239Y-78271000D01*
X89032761Y-78271000D01*
X88673688Y-78342424D01*
X88266499Y-78614499D01*
X87994424Y-79021688D01*
X87898884Y-79502000D01*
X87451000Y-79502000D01*
X87451000Y-74588000D01*
X87661536Y-74588000D01*
X87661536Y-76288000D01*
X87691106Y-76436659D01*
X87775314Y-76562686D01*
X87901341Y-76646894D01*
X88050000Y-76676464D01*
X89750000Y-76676464D01*
X89898659Y-76646894D01*
X90024686Y-76562686D01*
X90108894Y-76436659D01*
X90138464Y-76288000D01*
X90138464Y-75438000D01*
X90184884Y-75438000D01*
X90280424Y-75918312D01*
X90552499Y-76325501D01*
X90959688Y-76597576D01*
X91318761Y-76669000D01*
X91561239Y-76669000D01*
X91845280Y-76612501D01*
X93331414Y-78098635D01*
X93359753Y-78141047D01*
X93402165Y-78169386D01*
X93402167Y-78169388D01*
X93527788Y-78253325D01*
X93675968Y-78282800D01*
X93675971Y-78282800D01*
X93725999Y-78292751D01*
X93776027Y-78282800D01*
X94053438Y-78282800D01*
X93753688Y-78342424D01*
X93346499Y-78614499D01*
X93074424Y-79021688D01*
X92978884Y-79502000D01*
X93074424Y-79982312D01*
X93346499Y-80389501D01*
X93753688Y-80661576D01*
X94112761Y-80733000D01*
X94355239Y-80733000D01*
X94714312Y-80661576D01*
X95121501Y-80389501D01*
X95393576Y-79982312D01*
X95489116Y-79502000D01*
X95393576Y-79021688D01*
X95121501Y-78614499D01*
X94714312Y-78342424D01*
X94414562Y-78282800D01*
X96593438Y-78282800D01*
X96293688Y-78342424D01*
X95886499Y-78614499D01*
X95614424Y-79021688D01*
X95518884Y-79502000D01*
X95614424Y-79982312D01*
X95886499Y-80389501D01*
X96293688Y-80661576D01*
X96652761Y-80733000D01*
X96895239Y-80733000D01*
X97254312Y-80661576D01*
X97661501Y-80389501D01*
X97933576Y-79982312D01*
X98029116Y-79502000D01*
X97933576Y-79021688D01*
X97661501Y-78614499D01*
X97254312Y-78342424D01*
X96954562Y-78282800D01*
X97376380Y-78282800D01*
X98147928Y-79054348D01*
X98058884Y-79502000D01*
X98154424Y-79982312D01*
X98426499Y-80389501D01*
X98833688Y-80661576D01*
X99192761Y-80733000D01*
X99420180Y-80733000D01*
X100646614Y-81959435D01*
X100674953Y-82001847D01*
X100717365Y-82030186D01*
X100717367Y-82030188D01*
X100782486Y-82073698D01*
X100842988Y-82114125D01*
X100991168Y-82143600D01*
X100991172Y-82143600D01*
X101041200Y-82153551D01*
X101091228Y-82143600D01*
X102456380Y-82143600D01*
X109047612Y-88734832D01*
X109075953Y-88777247D01*
X109243988Y-88889525D01*
X109392168Y-88919000D01*
X109392172Y-88919000D01*
X109442200Y-88928951D01*
X109492228Y-88919000D01*
X110040172Y-88919000D01*
X110116341Y-88969894D01*
X110265000Y-88999464D01*
X111365000Y-88999464D01*
X111513659Y-88969894D01*
X111639686Y-88885686D01*
X111723894Y-88759659D01*
X111753464Y-88611000D01*
X111753464Y-88211000D01*
X111728600Y-88086000D01*
X111753464Y-87961000D01*
X111753464Y-87561000D01*
X111728600Y-87436000D01*
X111753464Y-87311000D01*
X111753464Y-86911000D01*
X111728600Y-86786000D01*
X111753464Y-86661000D01*
X111753464Y-86261000D01*
X111728600Y-86136000D01*
X111753464Y-86011000D01*
X111753464Y-85611000D01*
X111728600Y-85486000D01*
X111753464Y-85361000D01*
X111753464Y-84961000D01*
X111728600Y-84836000D01*
X111753464Y-84711000D01*
X111753464Y-84311000D01*
X111728600Y-84186000D01*
X111753464Y-84061000D01*
X111753464Y-83661000D01*
X111728600Y-83536000D01*
X111753464Y-83411000D01*
X111753464Y-83011000D01*
X111728600Y-82886000D01*
X111753464Y-82761000D01*
X111753464Y-82361000D01*
X111728600Y-82236000D01*
X111753464Y-82111000D01*
X111753464Y-81711000D01*
X111728600Y-81586000D01*
X111753464Y-81461000D01*
X111753464Y-81061000D01*
X111728600Y-80936000D01*
X111753464Y-80811000D01*
X111753464Y-80411000D01*
X111723894Y-80262341D01*
X111639686Y-80136314D01*
X111513659Y-80052106D01*
X111365000Y-80022536D01*
X110265000Y-80022536D01*
X110116341Y-80052106D01*
X109990314Y-80136314D01*
X109906106Y-80262341D01*
X109876536Y-80411000D01*
X109876536Y-80811000D01*
X109901400Y-80936000D01*
X109876536Y-81061000D01*
X109876536Y-81461000D01*
X109901400Y-81586000D01*
X109876536Y-81711000D01*
X109876536Y-82111000D01*
X109901400Y-82236000D01*
X109876536Y-82361000D01*
X109876536Y-82761000D01*
X109901400Y-82886000D01*
X109876536Y-83011000D01*
X109876536Y-83411000D01*
X109901400Y-83536000D01*
X109876536Y-83661000D01*
X109876536Y-84061000D01*
X109901400Y-84186000D01*
X109876536Y-84311000D01*
X109876536Y-84333289D01*
X109613458Y-84070211D01*
X109193357Y-83896200D01*
X108738643Y-83896200D01*
X108318542Y-84070211D01*
X107997011Y-84391742D01*
X107823000Y-84811843D01*
X107823000Y-84854579D01*
X102988404Y-80019984D01*
X103013576Y-79982312D01*
X103109116Y-79502000D01*
X103138884Y-79502000D01*
X103234424Y-79982312D01*
X103506499Y-80389501D01*
X103913688Y-80661576D01*
X104272761Y-80733000D01*
X104515239Y-80733000D01*
X104874312Y-80661576D01*
X105281501Y-80389501D01*
X105553576Y-79982312D01*
X105649116Y-79502000D01*
X105553576Y-79021688D01*
X105281501Y-78614499D01*
X104874312Y-78342424D01*
X104515239Y-78271000D01*
X104272761Y-78271000D01*
X103913688Y-78342424D01*
X103506499Y-78614499D01*
X103234424Y-79021688D01*
X103138884Y-79502000D01*
X103109116Y-79502000D01*
X103013576Y-79021688D01*
X102741501Y-78614499D01*
X102334312Y-78342424D01*
X101975239Y-78271000D01*
X101732761Y-78271000D01*
X101373688Y-78342424D01*
X101336256Y-78367435D01*
X99845589Y-76876769D01*
X99843325Y-76865388D01*
X99731047Y-76697353D01*
X99563012Y-76585075D01*
X99559937Y-76584463D01*
X99947501Y-76325501D01*
X100219576Y-75918312D01*
X100315116Y-75438000D01*
X100344884Y-75438000D01*
X100440424Y-75918312D01*
X100712499Y-76325501D01*
X101119688Y-76597576D01*
X101478761Y-76669000D01*
X101721239Y-76669000D01*
X102080312Y-76597576D01*
X102487501Y-76325501D01*
X102759576Y-75918312D01*
X102855116Y-75438000D01*
X102884884Y-75438000D01*
X102980424Y-75918312D01*
X103252499Y-76325501D01*
X103659688Y-76597576D01*
X104018761Y-76669000D01*
X104261239Y-76669000D01*
X104620312Y-76597576D01*
X105027501Y-76325501D01*
X105299576Y-75918312D01*
X105395116Y-75438000D01*
X105424884Y-75438000D01*
X105520424Y-75918312D01*
X105792499Y-76325501D01*
X106199688Y-76597576D01*
X106558761Y-76669000D01*
X106801239Y-76669000D01*
X107160312Y-76597576D01*
X107567501Y-76325501D01*
X107839576Y-75918312D01*
X107935116Y-75438000D01*
X107964884Y-75438000D01*
X108060424Y-75918312D01*
X108332499Y-76325501D01*
X108739688Y-76597576D01*
X109098761Y-76669000D01*
X109341239Y-76669000D01*
X109700312Y-76597576D01*
X110107501Y-76325501D01*
X110379576Y-75918312D01*
X110475116Y-75438000D01*
X110504884Y-75438000D01*
X110600424Y-75918312D01*
X110872499Y-76325501D01*
X111279688Y-76597576D01*
X111638761Y-76669000D01*
X111881239Y-76669000D01*
X112240312Y-76597576D01*
X112647501Y-76325501D01*
X112919576Y-75918312D01*
X113015116Y-75438000D01*
X113044884Y-75438000D01*
X113140424Y-75918312D01*
X113412499Y-76325501D01*
X113819688Y-76597576D01*
X114178761Y-76669000D01*
X114421239Y-76669000D01*
X114780312Y-76597576D01*
X115187501Y-76325501D01*
X115459576Y-75918312D01*
X115555116Y-75438000D01*
X115584884Y-75438000D01*
X115680424Y-75918312D01*
X115952499Y-76325501D01*
X116359688Y-76597576D01*
X116718761Y-76669000D01*
X116961239Y-76669000D01*
X117320312Y-76597576D01*
X117727501Y-76325501D01*
X117999576Y-75918312D01*
X118095116Y-75438000D01*
X118124884Y-75438000D01*
X118220424Y-75918312D01*
X118492499Y-76325501D01*
X118899688Y-76597576D01*
X119258761Y-76669000D01*
X119501239Y-76669000D01*
X119860312Y-76597576D01*
X120267501Y-76325501D01*
X120539576Y-75918312D01*
X120635116Y-75438000D01*
X120664884Y-75438000D01*
X120760424Y-75918312D01*
X121032499Y-76325501D01*
X121439688Y-76597576D01*
X121798761Y-76669000D01*
X122041239Y-76669000D01*
X122400312Y-76597576D01*
X122807501Y-76325501D01*
X123079576Y-75918312D01*
X123175116Y-75438000D01*
X123204884Y-75438000D01*
X123300424Y-75918312D01*
X123572499Y-76325501D01*
X123979688Y-76597576D01*
X124338761Y-76669000D01*
X124581239Y-76669000D01*
X124940312Y-76597576D01*
X125347501Y-76325501D01*
X125619576Y-75918312D01*
X125715116Y-75438000D01*
X125744884Y-75438000D01*
X125840424Y-75918312D01*
X126112499Y-76325501D01*
X126519688Y-76597576D01*
X126878761Y-76669000D01*
X127121239Y-76669000D01*
X127480312Y-76597576D01*
X127887501Y-76325501D01*
X128159576Y-75918312D01*
X128255116Y-75438000D01*
X128284884Y-75438000D01*
X128380424Y-75918312D01*
X128652499Y-76325501D01*
X129059688Y-76597576D01*
X129418761Y-76669000D01*
X129661239Y-76669000D01*
X130020312Y-76597576D01*
X130427501Y-76325501D01*
X130699576Y-75918312D01*
X130795116Y-75438000D01*
X130824884Y-75438000D01*
X130920424Y-75918312D01*
X131192499Y-76325501D01*
X131599688Y-76597576D01*
X131958761Y-76669000D01*
X132201239Y-76669000D01*
X132560312Y-76597576D01*
X132967501Y-76325501D01*
X133239576Y-75918312D01*
X133335116Y-75438000D01*
X133364884Y-75438000D01*
X133460424Y-75918312D01*
X133732499Y-76325501D01*
X134139688Y-76597576D01*
X134498761Y-76669000D01*
X134741239Y-76669000D01*
X135100312Y-76597576D01*
X135507501Y-76325501D01*
X135779576Y-75918312D01*
X135875116Y-75438000D01*
X135904884Y-75438000D01*
X136000424Y-75918312D01*
X136272499Y-76325501D01*
X136679688Y-76597576D01*
X137038761Y-76669000D01*
X137281239Y-76669000D01*
X137640312Y-76597576D01*
X138047501Y-76325501D01*
X138319576Y-75918312D01*
X138415116Y-75438000D01*
X138319576Y-74957688D01*
X138047501Y-74550499D01*
X137640312Y-74278424D01*
X137281239Y-74207000D01*
X137038761Y-74207000D01*
X136679688Y-74278424D01*
X136272499Y-74550499D01*
X136000424Y-74957688D01*
X135904884Y-75438000D01*
X135875116Y-75438000D01*
X135779576Y-74957688D01*
X135507501Y-74550499D01*
X135100312Y-74278424D01*
X134741239Y-74207000D01*
X134498761Y-74207000D01*
X134139688Y-74278424D01*
X133732499Y-74550499D01*
X133460424Y-74957688D01*
X133364884Y-75438000D01*
X133335116Y-75438000D01*
X133239576Y-74957688D01*
X132967501Y-74550499D01*
X132560312Y-74278424D01*
X132201239Y-74207000D01*
X131958761Y-74207000D01*
X131599688Y-74278424D01*
X131192499Y-74550499D01*
X130920424Y-74957688D01*
X130824884Y-75438000D01*
X130795116Y-75438000D01*
X130699576Y-74957688D01*
X130427501Y-74550499D01*
X130020312Y-74278424D01*
X129661239Y-74207000D01*
X129418761Y-74207000D01*
X129059688Y-74278424D01*
X128652499Y-74550499D01*
X128380424Y-74957688D01*
X128284884Y-75438000D01*
X128255116Y-75438000D01*
X128159576Y-74957688D01*
X127887501Y-74550499D01*
X127480312Y-74278424D01*
X127121239Y-74207000D01*
X126878761Y-74207000D01*
X126519688Y-74278424D01*
X126112499Y-74550499D01*
X125840424Y-74957688D01*
X125744884Y-75438000D01*
X125715116Y-75438000D01*
X125619576Y-74957688D01*
X125347501Y-74550499D01*
X124940312Y-74278424D01*
X124581239Y-74207000D01*
X124338761Y-74207000D01*
X123979688Y-74278424D01*
X123572499Y-74550499D01*
X123300424Y-74957688D01*
X123204884Y-75438000D01*
X123175116Y-75438000D01*
X123079576Y-74957688D01*
X122807501Y-74550499D01*
X122400312Y-74278424D01*
X122041239Y-74207000D01*
X121798761Y-74207000D01*
X121439688Y-74278424D01*
X121032499Y-74550499D01*
X120760424Y-74957688D01*
X120664884Y-75438000D01*
X120635116Y-75438000D01*
X120539576Y-74957688D01*
X120267501Y-74550499D01*
X119860312Y-74278424D01*
X119501239Y-74207000D01*
X119258761Y-74207000D01*
X118899688Y-74278424D01*
X118492499Y-74550499D01*
X118220424Y-74957688D01*
X118124884Y-75438000D01*
X118095116Y-75438000D01*
X117999576Y-74957688D01*
X117727501Y-74550499D01*
X117320312Y-74278424D01*
X116961239Y-74207000D01*
X116718761Y-74207000D01*
X116359688Y-74278424D01*
X115952499Y-74550499D01*
X115680424Y-74957688D01*
X115584884Y-75438000D01*
X115555116Y-75438000D01*
X115459576Y-74957688D01*
X115187501Y-74550499D01*
X114780312Y-74278424D01*
X114421239Y-74207000D01*
X114178761Y-74207000D01*
X113819688Y-74278424D01*
X113412499Y-74550499D01*
X113140424Y-74957688D01*
X113044884Y-75438000D01*
X113015116Y-75438000D01*
X112919576Y-74957688D01*
X112647501Y-74550499D01*
X112240312Y-74278424D01*
X111881239Y-74207000D01*
X111638761Y-74207000D01*
X111279688Y-74278424D01*
X110872499Y-74550499D01*
X110600424Y-74957688D01*
X110504884Y-75438000D01*
X110475116Y-75438000D01*
X110379576Y-74957688D01*
X110107501Y-74550499D01*
X109700312Y-74278424D01*
X109341239Y-74207000D01*
X109098761Y-74207000D01*
X108739688Y-74278424D01*
X108332499Y-74550499D01*
X108060424Y-74957688D01*
X107964884Y-75438000D01*
X107935116Y-75438000D01*
X107839576Y-74957688D01*
X107567501Y-74550499D01*
X107160312Y-74278424D01*
X106801239Y-74207000D01*
X106558761Y-74207000D01*
X106199688Y-74278424D01*
X105792499Y-74550499D01*
X105520424Y-74957688D01*
X105424884Y-75438000D01*
X105395116Y-75438000D01*
X105299576Y-74957688D01*
X105027501Y-74550499D01*
X104620312Y-74278424D01*
X104261239Y-74207000D01*
X104018761Y-74207000D01*
X103659688Y-74278424D01*
X103252499Y-74550499D01*
X102980424Y-74957688D01*
X102884884Y-75438000D01*
X102855116Y-75438000D01*
X102759576Y-74957688D01*
X102487501Y-74550499D01*
X102080312Y-74278424D01*
X101721239Y-74207000D01*
X101478761Y-74207000D01*
X101119688Y-74278424D01*
X100712499Y-74550499D01*
X100440424Y-74957688D01*
X100344884Y-75438000D01*
X100315116Y-75438000D01*
X100219576Y-74957688D01*
X99947501Y-74550499D01*
X99540312Y-74278424D01*
X99181239Y-74207000D01*
X98938761Y-74207000D01*
X98579688Y-74278424D01*
X98172499Y-74550499D01*
X97900424Y-74957688D01*
X97804884Y-75438000D01*
X97900424Y-75918312D01*
X98172499Y-76325501D01*
X98516866Y-76555600D01*
X97063134Y-76555600D01*
X97407501Y-76325501D01*
X97679576Y-75918312D01*
X97775116Y-75438000D01*
X97679576Y-74957688D01*
X97407501Y-74550499D01*
X97000312Y-74278424D01*
X96641239Y-74207000D01*
X96398761Y-74207000D01*
X96039688Y-74278424D01*
X95632499Y-74550499D01*
X95360424Y-74957688D01*
X95264884Y-75438000D01*
X95360424Y-75918312D01*
X95632499Y-76325501D01*
X95976866Y-76555600D01*
X95714420Y-76555600D01*
X95323402Y-76164582D01*
X95308524Y-76089787D01*
X95224587Y-75964166D01*
X95224585Y-75964164D01*
X95196246Y-75921752D01*
X95153834Y-75893414D01*
X95146073Y-75885652D01*
X95235116Y-75438000D01*
X95139576Y-74957688D01*
X94867501Y-74550499D01*
X94460312Y-74278424D01*
X94101239Y-74207000D01*
X93858761Y-74207000D01*
X93499688Y-74278424D01*
X93092499Y-74550499D01*
X92820424Y-74957688D01*
X92724884Y-75438000D01*
X92820424Y-75918312D01*
X93092499Y-76325501D01*
X93499688Y-76597576D01*
X93858761Y-76669000D01*
X94101239Y-76669000D01*
X94370002Y-76615540D01*
X94463752Y-76755846D01*
X94506166Y-76784186D01*
X94988780Y-77266800D01*
X93936421Y-77266800D01*
X92594912Y-75925292D01*
X92599576Y-75918312D01*
X92695116Y-75438000D01*
X92599576Y-74957688D01*
X92327501Y-74550499D01*
X91920312Y-74278424D01*
X91561239Y-74207000D01*
X91318761Y-74207000D01*
X90959688Y-74278424D01*
X90552499Y-74550499D01*
X90280424Y-74957688D01*
X90184884Y-75438000D01*
X90138464Y-75438000D01*
X90138464Y-74588000D01*
X90108894Y-74439341D01*
X90024686Y-74313314D01*
X89898659Y-74229106D01*
X89750000Y-74199536D01*
X88050000Y-74199536D01*
X87901341Y-74229106D01*
X87775314Y-74313314D01*
X87691106Y-74439341D01*
X87661536Y-74588000D01*
X87451000Y-74588000D01*
X87451000Y-72898000D01*
X92724884Y-72898000D01*
X92820424Y-73378312D01*
X93092499Y-73785501D01*
X93499688Y-74057576D01*
X93858761Y-74129000D01*
X94101239Y-74129000D01*
X94460312Y-74057576D01*
X94867501Y-73785501D01*
X95139576Y-73378312D01*
X95235116Y-72898000D01*
X95264884Y-72898000D01*
X95360424Y-73378312D01*
X95632499Y-73785501D01*
X96039688Y-74057576D01*
X96398761Y-74129000D01*
X96641239Y-74129000D01*
X97000312Y-74057576D01*
X97407501Y-73785501D01*
X97679576Y-73378312D01*
X97775116Y-72898000D01*
X97804884Y-72898000D01*
X97900424Y-73378312D01*
X98172499Y-73785501D01*
X98579688Y-74057576D01*
X98938761Y-74129000D01*
X99181239Y-74129000D01*
X99540312Y-74057576D01*
X99947501Y-73785501D01*
X100219576Y-73378312D01*
X100315116Y-72898000D01*
X100344884Y-72898000D01*
X100440424Y-73378312D01*
X100712499Y-73785501D01*
X101119688Y-74057576D01*
X101478761Y-74129000D01*
X101721239Y-74129000D01*
X102080312Y-74057576D01*
X102487501Y-73785501D01*
X102759576Y-73378312D01*
X102855116Y-72898000D01*
X102884884Y-72898000D01*
X102980424Y-73378312D01*
X103252499Y-73785501D01*
X103659688Y-74057576D01*
X104018761Y-74129000D01*
X104261239Y-74129000D01*
X104620312Y-74057576D01*
X105027501Y-73785501D01*
X105299576Y-73378312D01*
X105395116Y-72898000D01*
X105424884Y-72898000D01*
X105520424Y-73378312D01*
X105792499Y-73785501D01*
X106199688Y-74057576D01*
X106558761Y-74129000D01*
X106801239Y-74129000D01*
X107160312Y-74057576D01*
X107567501Y-73785501D01*
X107839576Y-73378312D01*
X107935116Y-72898000D01*
X107964884Y-72898000D01*
X108060424Y-73378312D01*
X108332499Y-73785501D01*
X108739688Y-74057576D01*
X109098761Y-74129000D01*
X109341239Y-74129000D01*
X109700312Y-74057576D01*
X110107501Y-73785501D01*
X110379576Y-73378312D01*
X110475116Y-72898000D01*
X110504884Y-72898000D01*
X110600424Y-73378312D01*
X110872499Y-73785501D01*
X111279688Y-74057576D01*
X111638761Y-74129000D01*
X111881239Y-74129000D01*
X112240312Y-74057576D01*
X112647501Y-73785501D01*
X112919576Y-73378312D01*
X113015116Y-72898000D01*
X113044884Y-72898000D01*
X113140424Y-73378312D01*
X113412499Y-73785501D01*
X113819688Y-74057576D01*
X114178761Y-74129000D01*
X114421239Y-74129000D01*
X114780312Y-74057576D01*
X115187501Y-73785501D01*
X115459576Y-73378312D01*
X115555116Y-72898000D01*
X115584884Y-72898000D01*
X115680424Y-73378312D01*
X115952499Y-73785501D01*
X116359688Y-74057576D01*
X116718761Y-74129000D01*
X116961239Y-74129000D01*
X117320312Y-74057576D01*
X117727501Y-73785501D01*
X117999576Y-73378312D01*
X118095116Y-72898000D01*
X118124884Y-72898000D01*
X118220424Y-73378312D01*
X118492499Y-73785501D01*
X118899688Y-74057576D01*
X119258761Y-74129000D01*
X119501239Y-74129000D01*
X119860312Y-74057576D01*
X120267501Y-73785501D01*
X120539576Y-73378312D01*
X120635116Y-72898000D01*
X120664884Y-72898000D01*
X120760424Y-73378312D01*
X121032499Y-73785501D01*
X121439688Y-74057576D01*
X121798761Y-74129000D01*
X122041239Y-74129000D01*
X122400312Y-74057576D01*
X122807501Y-73785501D01*
X123079576Y-73378312D01*
X123175116Y-72898000D01*
X123204884Y-72898000D01*
X123300424Y-73378312D01*
X123572499Y-73785501D01*
X123979688Y-74057576D01*
X124338761Y-74129000D01*
X124581239Y-74129000D01*
X124940312Y-74057576D01*
X125347501Y-73785501D01*
X125619576Y-73378312D01*
X125715116Y-72898000D01*
X125744884Y-72898000D01*
X125840424Y-73378312D01*
X126112499Y-73785501D01*
X126519688Y-74057576D01*
X126878761Y-74129000D01*
X127121239Y-74129000D01*
X127480312Y-74057576D01*
X127887501Y-73785501D01*
X128159576Y-73378312D01*
X128255116Y-72898000D01*
X128284884Y-72898000D01*
X128380424Y-73378312D01*
X128652499Y-73785501D01*
X129059688Y-74057576D01*
X129418761Y-74129000D01*
X129661239Y-74129000D01*
X130020312Y-74057576D01*
X130427501Y-73785501D01*
X130699576Y-73378312D01*
X130795116Y-72898000D01*
X130824884Y-72898000D01*
X130920424Y-73378312D01*
X131192499Y-73785501D01*
X131599688Y-74057576D01*
X131958761Y-74129000D01*
X132201239Y-74129000D01*
X132560312Y-74057576D01*
X132967501Y-73785501D01*
X133239576Y-73378312D01*
X133335116Y-72898000D01*
X133364884Y-72898000D01*
X133460424Y-73378312D01*
X133732499Y-73785501D01*
X134139688Y-74057576D01*
X134498761Y-74129000D01*
X134741239Y-74129000D01*
X135100312Y-74057576D01*
X135507501Y-73785501D01*
X135779576Y-73378312D01*
X135875116Y-72898000D01*
X135904884Y-72898000D01*
X136000424Y-73378312D01*
X136272499Y-73785501D01*
X136679688Y-74057576D01*
X137038761Y-74129000D01*
X137281239Y-74129000D01*
X137640312Y-74057576D01*
X138047501Y-73785501D01*
X138319576Y-73378312D01*
X138415116Y-72898000D01*
X138319576Y-72417688D01*
X138047501Y-72010499D01*
X137640312Y-71738424D01*
X137281239Y-71667000D01*
X137038761Y-71667000D01*
X136679688Y-71738424D01*
X136272499Y-72010499D01*
X136000424Y-72417688D01*
X135904884Y-72898000D01*
X135875116Y-72898000D01*
X135779576Y-72417688D01*
X135507501Y-72010499D01*
X135100312Y-71738424D01*
X134741239Y-71667000D01*
X134498761Y-71667000D01*
X134139688Y-71738424D01*
X133732499Y-72010499D01*
X133460424Y-72417688D01*
X133364884Y-72898000D01*
X133335116Y-72898000D01*
X133239576Y-72417688D01*
X132967501Y-72010499D01*
X132560312Y-71738424D01*
X132201239Y-71667000D01*
X131958761Y-71667000D01*
X131599688Y-71738424D01*
X131192499Y-72010499D01*
X130920424Y-72417688D01*
X130824884Y-72898000D01*
X130795116Y-72898000D01*
X130699576Y-72417688D01*
X130427501Y-72010499D01*
X130020312Y-71738424D01*
X129661239Y-71667000D01*
X129418761Y-71667000D01*
X129059688Y-71738424D01*
X128652499Y-72010499D01*
X128380424Y-72417688D01*
X128284884Y-72898000D01*
X128255116Y-72898000D01*
X128159576Y-72417688D01*
X127887501Y-72010499D01*
X127480312Y-71738424D01*
X127121239Y-71667000D01*
X126878761Y-71667000D01*
X126519688Y-71738424D01*
X126112499Y-72010499D01*
X125840424Y-72417688D01*
X125744884Y-72898000D01*
X125715116Y-72898000D01*
X125619576Y-72417688D01*
X125347501Y-72010499D01*
X124940312Y-71738424D01*
X124581239Y-71667000D01*
X124338761Y-71667000D01*
X123979688Y-71738424D01*
X123572499Y-72010499D01*
X123300424Y-72417688D01*
X123204884Y-72898000D01*
X123175116Y-72898000D01*
X123079576Y-72417688D01*
X122807501Y-72010499D01*
X122400312Y-71738424D01*
X122041239Y-71667000D01*
X121798761Y-71667000D01*
X121439688Y-71738424D01*
X121032499Y-72010499D01*
X120760424Y-72417688D01*
X120664884Y-72898000D01*
X120635116Y-72898000D01*
X120539576Y-72417688D01*
X120267501Y-72010499D01*
X119860312Y-71738424D01*
X119501239Y-71667000D01*
X119258761Y-71667000D01*
X118899688Y-71738424D01*
X118492499Y-72010499D01*
X118220424Y-72417688D01*
X118124884Y-72898000D01*
X118095116Y-72898000D01*
X117999576Y-72417688D01*
X117727501Y-72010499D01*
X117320312Y-71738424D01*
X116961239Y-71667000D01*
X116718761Y-71667000D01*
X116359688Y-71738424D01*
X115952499Y-72010499D01*
X115680424Y-72417688D01*
X115584884Y-72898000D01*
X115555116Y-72898000D01*
X115459576Y-72417688D01*
X115187501Y-72010499D01*
X114780312Y-71738424D01*
X114421239Y-71667000D01*
X114178761Y-71667000D01*
X113819688Y-71738424D01*
X113412499Y-72010499D01*
X113140424Y-72417688D01*
X113044884Y-72898000D01*
X113015116Y-72898000D01*
X112919576Y-72417688D01*
X112647501Y-72010499D01*
X112240312Y-71738424D01*
X111881239Y-71667000D01*
X111638761Y-71667000D01*
X111279688Y-71738424D01*
X110872499Y-72010499D01*
X110600424Y-72417688D01*
X110504884Y-72898000D01*
X110475116Y-72898000D01*
X110379576Y-72417688D01*
X110107501Y-72010499D01*
X109700312Y-71738424D01*
X109341239Y-71667000D01*
X109098761Y-71667000D01*
X108739688Y-71738424D01*
X108332499Y-72010499D01*
X108060424Y-72417688D01*
X107964884Y-72898000D01*
X107935116Y-72898000D01*
X107839576Y-72417688D01*
X107567501Y-72010499D01*
X107160312Y-71738424D01*
X106801239Y-71667000D01*
X106558761Y-71667000D01*
X106199688Y-71738424D01*
X105792499Y-72010499D01*
X105520424Y-72417688D01*
X105424884Y-72898000D01*
X105395116Y-72898000D01*
X105299576Y-72417688D01*
X105027501Y-72010499D01*
X104620312Y-71738424D01*
X104261239Y-71667000D01*
X104018761Y-71667000D01*
X103659688Y-71738424D01*
X103252499Y-72010499D01*
X102980424Y-72417688D01*
X102884884Y-72898000D01*
X102855116Y-72898000D01*
X102759576Y-72417688D01*
X102487501Y-72010499D01*
X102080312Y-71738424D01*
X101721239Y-71667000D01*
X101478761Y-71667000D01*
X101119688Y-71738424D01*
X100712499Y-72010499D01*
X100440424Y-72417688D01*
X100344884Y-72898000D01*
X100315116Y-72898000D01*
X100219576Y-72417688D01*
X99947501Y-72010499D01*
X99540312Y-71738424D01*
X99181239Y-71667000D01*
X98938761Y-71667000D01*
X98579688Y-71738424D01*
X98172499Y-72010499D01*
X97900424Y-72417688D01*
X97804884Y-72898000D01*
X97775116Y-72898000D01*
X97679576Y-72417688D01*
X97407501Y-72010499D01*
X97000312Y-71738424D01*
X96641239Y-71667000D01*
X96398761Y-71667000D01*
X96039688Y-71738424D01*
X95632499Y-72010499D01*
X95360424Y-72417688D01*
X95264884Y-72898000D01*
X95235116Y-72898000D01*
X95139576Y-72417688D01*
X94867501Y-72010499D01*
X94460312Y-71738424D01*
X94101239Y-71667000D01*
X93858761Y-71667000D01*
X93499688Y-71738424D01*
X93092499Y-72010499D01*
X92820424Y-72417688D01*
X92724884Y-72898000D01*
X87451000Y-72898000D01*
X87451000Y-71576000D01*
X139244001Y-71576000D01*
X139244000Y-94794000D01*
G04 #@! TD*
M02*
