G04 #@! TF.GenerationSoftware,KiCad,Pcbnew,5.0.2-1.fc29*
G04 #@! TF.CreationDate,2019-03-03T12:14:03+01:00*
G04 #@! TF.ProjectId,rpi-extension,7270692d-6578-4746-956e-73696f6e2e6b,rev?*
G04 #@! TF.SameCoordinates,Original*
G04 #@! TF.FileFunction,Paste,Top*
G04 #@! TF.FilePolarity,Positive*
%FSLAX46Y46*%
G04 Gerber Fmt 4.6, Leading zero omitted, Abs format (unit mm)*
G04 Created by KiCad (PCBNEW 5.0.2-1.fc29) date Sun 03 Mar 2019 12:14:03 PM CET*
%MOMM*%
%LPD*%
G01*
G04 APERTURE LIST*
%ADD10C,0.100000*%
%ADD11C,1.150000*%
%ADD12R,1.100000X0.400000*%
G04 APERTURE END LIST*
D10*
G04 #@! TO.C,R4*
G36*
X121634505Y-79311204D02*
X121658773Y-79314804D01*
X121682572Y-79320765D01*
X121705671Y-79329030D01*
X121727850Y-79339520D01*
X121748893Y-79352132D01*
X121768599Y-79366747D01*
X121786777Y-79383223D01*
X121803253Y-79401401D01*
X121817868Y-79421107D01*
X121830480Y-79442150D01*
X121840970Y-79464329D01*
X121849235Y-79487428D01*
X121855196Y-79511227D01*
X121858796Y-79535495D01*
X121860000Y-79559999D01*
X121860000Y-80460001D01*
X121858796Y-80484505D01*
X121855196Y-80508773D01*
X121849235Y-80532572D01*
X121840970Y-80555671D01*
X121830480Y-80577850D01*
X121817868Y-80598893D01*
X121803253Y-80618599D01*
X121786777Y-80636777D01*
X121768599Y-80653253D01*
X121748893Y-80667868D01*
X121727850Y-80680480D01*
X121705671Y-80690970D01*
X121682572Y-80699235D01*
X121658773Y-80705196D01*
X121634505Y-80708796D01*
X121610001Y-80710000D01*
X120959999Y-80710000D01*
X120935495Y-80708796D01*
X120911227Y-80705196D01*
X120887428Y-80699235D01*
X120864329Y-80690970D01*
X120842150Y-80680480D01*
X120821107Y-80667868D01*
X120801401Y-80653253D01*
X120783223Y-80636777D01*
X120766747Y-80618599D01*
X120752132Y-80598893D01*
X120739520Y-80577850D01*
X120729030Y-80555671D01*
X120720765Y-80532572D01*
X120714804Y-80508773D01*
X120711204Y-80484505D01*
X120710000Y-80460001D01*
X120710000Y-79559999D01*
X120711204Y-79535495D01*
X120714804Y-79511227D01*
X120720765Y-79487428D01*
X120729030Y-79464329D01*
X120739520Y-79442150D01*
X120752132Y-79421107D01*
X120766747Y-79401401D01*
X120783223Y-79383223D01*
X120801401Y-79366747D01*
X120821107Y-79352132D01*
X120842150Y-79339520D01*
X120864329Y-79329030D01*
X120887428Y-79320765D01*
X120911227Y-79314804D01*
X120935495Y-79311204D01*
X120959999Y-79310000D01*
X121610001Y-79310000D01*
X121634505Y-79311204D01*
X121634505Y-79311204D01*
G37*
D11*
X121285000Y-80010000D03*
D10*
G36*
X119584505Y-79311204D02*
X119608773Y-79314804D01*
X119632572Y-79320765D01*
X119655671Y-79329030D01*
X119677850Y-79339520D01*
X119698893Y-79352132D01*
X119718599Y-79366747D01*
X119736777Y-79383223D01*
X119753253Y-79401401D01*
X119767868Y-79421107D01*
X119780480Y-79442150D01*
X119790970Y-79464329D01*
X119799235Y-79487428D01*
X119805196Y-79511227D01*
X119808796Y-79535495D01*
X119810000Y-79559999D01*
X119810000Y-80460001D01*
X119808796Y-80484505D01*
X119805196Y-80508773D01*
X119799235Y-80532572D01*
X119790970Y-80555671D01*
X119780480Y-80577850D01*
X119767868Y-80598893D01*
X119753253Y-80618599D01*
X119736777Y-80636777D01*
X119718599Y-80653253D01*
X119698893Y-80667868D01*
X119677850Y-80680480D01*
X119655671Y-80690970D01*
X119632572Y-80699235D01*
X119608773Y-80705196D01*
X119584505Y-80708796D01*
X119560001Y-80710000D01*
X118909999Y-80710000D01*
X118885495Y-80708796D01*
X118861227Y-80705196D01*
X118837428Y-80699235D01*
X118814329Y-80690970D01*
X118792150Y-80680480D01*
X118771107Y-80667868D01*
X118751401Y-80653253D01*
X118733223Y-80636777D01*
X118716747Y-80618599D01*
X118702132Y-80598893D01*
X118689520Y-80577850D01*
X118679030Y-80555671D01*
X118670765Y-80532572D01*
X118664804Y-80508773D01*
X118661204Y-80484505D01*
X118660000Y-80460001D01*
X118660000Y-79559999D01*
X118661204Y-79535495D01*
X118664804Y-79511227D01*
X118670765Y-79487428D01*
X118679030Y-79464329D01*
X118689520Y-79442150D01*
X118702132Y-79421107D01*
X118716747Y-79401401D01*
X118733223Y-79383223D01*
X118751401Y-79366747D01*
X118771107Y-79352132D01*
X118792150Y-79339520D01*
X118814329Y-79329030D01*
X118837428Y-79320765D01*
X118861227Y-79314804D01*
X118885495Y-79311204D01*
X118909999Y-79310000D01*
X119560001Y-79310000D01*
X119584505Y-79311204D01*
X119584505Y-79311204D01*
G37*
D11*
X119235000Y-80010000D03*
G04 #@! TD*
D10*
G04 #@! TO.C,R3*
G36*
X119584505Y-83756204D02*
X119608773Y-83759804D01*
X119632572Y-83765765D01*
X119655671Y-83774030D01*
X119677850Y-83784520D01*
X119698893Y-83797132D01*
X119718599Y-83811747D01*
X119736777Y-83828223D01*
X119753253Y-83846401D01*
X119767868Y-83866107D01*
X119780480Y-83887150D01*
X119790970Y-83909329D01*
X119799235Y-83932428D01*
X119805196Y-83956227D01*
X119808796Y-83980495D01*
X119810000Y-84004999D01*
X119810000Y-84905001D01*
X119808796Y-84929505D01*
X119805196Y-84953773D01*
X119799235Y-84977572D01*
X119790970Y-85000671D01*
X119780480Y-85022850D01*
X119767868Y-85043893D01*
X119753253Y-85063599D01*
X119736777Y-85081777D01*
X119718599Y-85098253D01*
X119698893Y-85112868D01*
X119677850Y-85125480D01*
X119655671Y-85135970D01*
X119632572Y-85144235D01*
X119608773Y-85150196D01*
X119584505Y-85153796D01*
X119560001Y-85155000D01*
X118909999Y-85155000D01*
X118885495Y-85153796D01*
X118861227Y-85150196D01*
X118837428Y-85144235D01*
X118814329Y-85135970D01*
X118792150Y-85125480D01*
X118771107Y-85112868D01*
X118751401Y-85098253D01*
X118733223Y-85081777D01*
X118716747Y-85063599D01*
X118702132Y-85043893D01*
X118689520Y-85022850D01*
X118679030Y-85000671D01*
X118670765Y-84977572D01*
X118664804Y-84953773D01*
X118661204Y-84929505D01*
X118660000Y-84905001D01*
X118660000Y-84004999D01*
X118661204Y-83980495D01*
X118664804Y-83956227D01*
X118670765Y-83932428D01*
X118679030Y-83909329D01*
X118689520Y-83887150D01*
X118702132Y-83866107D01*
X118716747Y-83846401D01*
X118733223Y-83828223D01*
X118751401Y-83811747D01*
X118771107Y-83797132D01*
X118792150Y-83784520D01*
X118814329Y-83774030D01*
X118837428Y-83765765D01*
X118861227Y-83759804D01*
X118885495Y-83756204D01*
X118909999Y-83755000D01*
X119560001Y-83755000D01*
X119584505Y-83756204D01*
X119584505Y-83756204D01*
G37*
D11*
X119235000Y-84455000D03*
D10*
G36*
X121634505Y-83756204D02*
X121658773Y-83759804D01*
X121682572Y-83765765D01*
X121705671Y-83774030D01*
X121727850Y-83784520D01*
X121748893Y-83797132D01*
X121768599Y-83811747D01*
X121786777Y-83828223D01*
X121803253Y-83846401D01*
X121817868Y-83866107D01*
X121830480Y-83887150D01*
X121840970Y-83909329D01*
X121849235Y-83932428D01*
X121855196Y-83956227D01*
X121858796Y-83980495D01*
X121860000Y-84004999D01*
X121860000Y-84905001D01*
X121858796Y-84929505D01*
X121855196Y-84953773D01*
X121849235Y-84977572D01*
X121840970Y-85000671D01*
X121830480Y-85022850D01*
X121817868Y-85043893D01*
X121803253Y-85063599D01*
X121786777Y-85081777D01*
X121768599Y-85098253D01*
X121748893Y-85112868D01*
X121727850Y-85125480D01*
X121705671Y-85135970D01*
X121682572Y-85144235D01*
X121658773Y-85150196D01*
X121634505Y-85153796D01*
X121610001Y-85155000D01*
X120959999Y-85155000D01*
X120935495Y-85153796D01*
X120911227Y-85150196D01*
X120887428Y-85144235D01*
X120864329Y-85135970D01*
X120842150Y-85125480D01*
X120821107Y-85112868D01*
X120801401Y-85098253D01*
X120783223Y-85081777D01*
X120766747Y-85063599D01*
X120752132Y-85043893D01*
X120739520Y-85022850D01*
X120729030Y-85000671D01*
X120720765Y-84977572D01*
X120714804Y-84953773D01*
X120711204Y-84929505D01*
X120710000Y-84905001D01*
X120710000Y-84004999D01*
X120711204Y-83980495D01*
X120714804Y-83956227D01*
X120720765Y-83932428D01*
X120729030Y-83909329D01*
X120739520Y-83887150D01*
X120752132Y-83866107D01*
X120766747Y-83846401D01*
X120783223Y-83828223D01*
X120801401Y-83811747D01*
X120821107Y-83797132D01*
X120842150Y-83784520D01*
X120864329Y-83774030D01*
X120887428Y-83765765D01*
X120911227Y-83759804D01*
X120935495Y-83756204D01*
X120959999Y-83755000D01*
X121610001Y-83755000D01*
X121634505Y-83756204D01*
X121634505Y-83756204D01*
G37*
D11*
X121285000Y-84455000D03*
G04 #@! TD*
D10*
G04 #@! TO.C,R2*
G36*
X121634505Y-88201204D02*
X121658773Y-88204804D01*
X121682572Y-88210765D01*
X121705671Y-88219030D01*
X121727850Y-88229520D01*
X121748893Y-88242132D01*
X121768599Y-88256747D01*
X121786777Y-88273223D01*
X121803253Y-88291401D01*
X121817868Y-88311107D01*
X121830480Y-88332150D01*
X121840970Y-88354329D01*
X121849235Y-88377428D01*
X121855196Y-88401227D01*
X121858796Y-88425495D01*
X121860000Y-88449999D01*
X121860000Y-89350001D01*
X121858796Y-89374505D01*
X121855196Y-89398773D01*
X121849235Y-89422572D01*
X121840970Y-89445671D01*
X121830480Y-89467850D01*
X121817868Y-89488893D01*
X121803253Y-89508599D01*
X121786777Y-89526777D01*
X121768599Y-89543253D01*
X121748893Y-89557868D01*
X121727850Y-89570480D01*
X121705671Y-89580970D01*
X121682572Y-89589235D01*
X121658773Y-89595196D01*
X121634505Y-89598796D01*
X121610001Y-89600000D01*
X120959999Y-89600000D01*
X120935495Y-89598796D01*
X120911227Y-89595196D01*
X120887428Y-89589235D01*
X120864329Y-89580970D01*
X120842150Y-89570480D01*
X120821107Y-89557868D01*
X120801401Y-89543253D01*
X120783223Y-89526777D01*
X120766747Y-89508599D01*
X120752132Y-89488893D01*
X120739520Y-89467850D01*
X120729030Y-89445671D01*
X120720765Y-89422572D01*
X120714804Y-89398773D01*
X120711204Y-89374505D01*
X120710000Y-89350001D01*
X120710000Y-88449999D01*
X120711204Y-88425495D01*
X120714804Y-88401227D01*
X120720765Y-88377428D01*
X120729030Y-88354329D01*
X120739520Y-88332150D01*
X120752132Y-88311107D01*
X120766747Y-88291401D01*
X120783223Y-88273223D01*
X120801401Y-88256747D01*
X120821107Y-88242132D01*
X120842150Y-88229520D01*
X120864329Y-88219030D01*
X120887428Y-88210765D01*
X120911227Y-88204804D01*
X120935495Y-88201204D01*
X120959999Y-88200000D01*
X121610001Y-88200000D01*
X121634505Y-88201204D01*
X121634505Y-88201204D01*
G37*
D11*
X121285000Y-88900000D03*
D10*
G36*
X119584505Y-88201204D02*
X119608773Y-88204804D01*
X119632572Y-88210765D01*
X119655671Y-88219030D01*
X119677850Y-88229520D01*
X119698893Y-88242132D01*
X119718599Y-88256747D01*
X119736777Y-88273223D01*
X119753253Y-88291401D01*
X119767868Y-88311107D01*
X119780480Y-88332150D01*
X119790970Y-88354329D01*
X119799235Y-88377428D01*
X119805196Y-88401227D01*
X119808796Y-88425495D01*
X119810000Y-88449999D01*
X119810000Y-89350001D01*
X119808796Y-89374505D01*
X119805196Y-89398773D01*
X119799235Y-89422572D01*
X119790970Y-89445671D01*
X119780480Y-89467850D01*
X119767868Y-89488893D01*
X119753253Y-89508599D01*
X119736777Y-89526777D01*
X119718599Y-89543253D01*
X119698893Y-89557868D01*
X119677850Y-89570480D01*
X119655671Y-89580970D01*
X119632572Y-89589235D01*
X119608773Y-89595196D01*
X119584505Y-89598796D01*
X119560001Y-89600000D01*
X118909999Y-89600000D01*
X118885495Y-89598796D01*
X118861227Y-89595196D01*
X118837428Y-89589235D01*
X118814329Y-89580970D01*
X118792150Y-89570480D01*
X118771107Y-89557868D01*
X118751401Y-89543253D01*
X118733223Y-89526777D01*
X118716747Y-89508599D01*
X118702132Y-89488893D01*
X118689520Y-89467850D01*
X118679030Y-89445671D01*
X118670765Y-89422572D01*
X118664804Y-89398773D01*
X118661204Y-89374505D01*
X118660000Y-89350001D01*
X118660000Y-88449999D01*
X118661204Y-88425495D01*
X118664804Y-88401227D01*
X118670765Y-88377428D01*
X118679030Y-88354329D01*
X118689520Y-88332150D01*
X118702132Y-88311107D01*
X118716747Y-88291401D01*
X118733223Y-88273223D01*
X118751401Y-88256747D01*
X118771107Y-88242132D01*
X118792150Y-88229520D01*
X118814329Y-88219030D01*
X118837428Y-88210765D01*
X118861227Y-88204804D01*
X118885495Y-88201204D01*
X118909999Y-88200000D01*
X119560001Y-88200000D01*
X119584505Y-88201204D01*
X119584505Y-88201204D01*
G37*
D11*
X119235000Y-88900000D03*
G04 #@! TD*
D10*
G04 #@! TO.C,R1*
G36*
X119593505Y-92646204D02*
X119617773Y-92649804D01*
X119641572Y-92655765D01*
X119664671Y-92664030D01*
X119686850Y-92674520D01*
X119707893Y-92687132D01*
X119727599Y-92701747D01*
X119745777Y-92718223D01*
X119762253Y-92736401D01*
X119776868Y-92756107D01*
X119789480Y-92777150D01*
X119799970Y-92799329D01*
X119808235Y-92822428D01*
X119814196Y-92846227D01*
X119817796Y-92870495D01*
X119819000Y-92894999D01*
X119819000Y-93795001D01*
X119817796Y-93819505D01*
X119814196Y-93843773D01*
X119808235Y-93867572D01*
X119799970Y-93890671D01*
X119789480Y-93912850D01*
X119776868Y-93933893D01*
X119762253Y-93953599D01*
X119745777Y-93971777D01*
X119727599Y-93988253D01*
X119707893Y-94002868D01*
X119686850Y-94015480D01*
X119664671Y-94025970D01*
X119641572Y-94034235D01*
X119617773Y-94040196D01*
X119593505Y-94043796D01*
X119569001Y-94045000D01*
X118918999Y-94045000D01*
X118894495Y-94043796D01*
X118870227Y-94040196D01*
X118846428Y-94034235D01*
X118823329Y-94025970D01*
X118801150Y-94015480D01*
X118780107Y-94002868D01*
X118760401Y-93988253D01*
X118742223Y-93971777D01*
X118725747Y-93953599D01*
X118711132Y-93933893D01*
X118698520Y-93912850D01*
X118688030Y-93890671D01*
X118679765Y-93867572D01*
X118673804Y-93843773D01*
X118670204Y-93819505D01*
X118669000Y-93795001D01*
X118669000Y-92894999D01*
X118670204Y-92870495D01*
X118673804Y-92846227D01*
X118679765Y-92822428D01*
X118688030Y-92799329D01*
X118698520Y-92777150D01*
X118711132Y-92756107D01*
X118725747Y-92736401D01*
X118742223Y-92718223D01*
X118760401Y-92701747D01*
X118780107Y-92687132D01*
X118801150Y-92674520D01*
X118823329Y-92664030D01*
X118846428Y-92655765D01*
X118870227Y-92649804D01*
X118894495Y-92646204D01*
X118918999Y-92645000D01*
X119569001Y-92645000D01*
X119593505Y-92646204D01*
X119593505Y-92646204D01*
G37*
D11*
X119244000Y-93345000D03*
D10*
G36*
X121643505Y-92646204D02*
X121667773Y-92649804D01*
X121691572Y-92655765D01*
X121714671Y-92664030D01*
X121736850Y-92674520D01*
X121757893Y-92687132D01*
X121777599Y-92701747D01*
X121795777Y-92718223D01*
X121812253Y-92736401D01*
X121826868Y-92756107D01*
X121839480Y-92777150D01*
X121849970Y-92799329D01*
X121858235Y-92822428D01*
X121864196Y-92846227D01*
X121867796Y-92870495D01*
X121869000Y-92894999D01*
X121869000Y-93795001D01*
X121867796Y-93819505D01*
X121864196Y-93843773D01*
X121858235Y-93867572D01*
X121849970Y-93890671D01*
X121839480Y-93912850D01*
X121826868Y-93933893D01*
X121812253Y-93953599D01*
X121795777Y-93971777D01*
X121777599Y-93988253D01*
X121757893Y-94002868D01*
X121736850Y-94015480D01*
X121714671Y-94025970D01*
X121691572Y-94034235D01*
X121667773Y-94040196D01*
X121643505Y-94043796D01*
X121619001Y-94045000D01*
X120968999Y-94045000D01*
X120944495Y-94043796D01*
X120920227Y-94040196D01*
X120896428Y-94034235D01*
X120873329Y-94025970D01*
X120851150Y-94015480D01*
X120830107Y-94002868D01*
X120810401Y-93988253D01*
X120792223Y-93971777D01*
X120775747Y-93953599D01*
X120761132Y-93933893D01*
X120748520Y-93912850D01*
X120738030Y-93890671D01*
X120729765Y-93867572D01*
X120723804Y-93843773D01*
X120720204Y-93819505D01*
X120719000Y-93795001D01*
X120719000Y-92894999D01*
X120720204Y-92870495D01*
X120723804Y-92846227D01*
X120729765Y-92822428D01*
X120738030Y-92799329D01*
X120748520Y-92777150D01*
X120761132Y-92756107D01*
X120775747Y-92736401D01*
X120792223Y-92718223D01*
X120810401Y-92701747D01*
X120830107Y-92687132D01*
X120851150Y-92674520D01*
X120873329Y-92664030D01*
X120896428Y-92655765D01*
X120920227Y-92649804D01*
X120944495Y-92646204D01*
X120968999Y-92645000D01*
X121619001Y-92645000D01*
X121643505Y-92646204D01*
X121643505Y-92646204D01*
G37*
D11*
X121294000Y-93345000D03*
G04 #@! TD*
D10*
G04 #@! TO.C,C1*
G36*
X113125505Y-91503204D02*
X113149773Y-91506804D01*
X113173572Y-91512765D01*
X113196671Y-91521030D01*
X113218850Y-91531520D01*
X113239893Y-91544132D01*
X113259599Y-91558747D01*
X113277777Y-91575223D01*
X113294253Y-91593401D01*
X113308868Y-91613107D01*
X113321480Y-91634150D01*
X113331970Y-91656329D01*
X113340235Y-91679428D01*
X113346196Y-91703227D01*
X113349796Y-91727495D01*
X113351000Y-91751999D01*
X113351000Y-92652001D01*
X113349796Y-92676505D01*
X113346196Y-92700773D01*
X113340235Y-92724572D01*
X113331970Y-92747671D01*
X113321480Y-92769850D01*
X113308868Y-92790893D01*
X113294253Y-92810599D01*
X113277777Y-92828777D01*
X113259599Y-92845253D01*
X113239893Y-92859868D01*
X113218850Y-92872480D01*
X113196671Y-92882970D01*
X113173572Y-92891235D01*
X113149773Y-92897196D01*
X113125505Y-92900796D01*
X113101001Y-92902000D01*
X112450999Y-92902000D01*
X112426495Y-92900796D01*
X112402227Y-92897196D01*
X112378428Y-92891235D01*
X112355329Y-92882970D01*
X112333150Y-92872480D01*
X112312107Y-92859868D01*
X112292401Y-92845253D01*
X112274223Y-92828777D01*
X112257747Y-92810599D01*
X112243132Y-92790893D01*
X112230520Y-92769850D01*
X112220030Y-92747671D01*
X112211765Y-92724572D01*
X112205804Y-92700773D01*
X112202204Y-92676505D01*
X112201000Y-92652001D01*
X112201000Y-91751999D01*
X112202204Y-91727495D01*
X112205804Y-91703227D01*
X112211765Y-91679428D01*
X112220030Y-91656329D01*
X112230520Y-91634150D01*
X112243132Y-91613107D01*
X112257747Y-91593401D01*
X112274223Y-91575223D01*
X112292401Y-91558747D01*
X112312107Y-91544132D01*
X112333150Y-91531520D01*
X112355329Y-91521030D01*
X112378428Y-91512765D01*
X112402227Y-91506804D01*
X112426495Y-91503204D01*
X112450999Y-91502000D01*
X113101001Y-91502000D01*
X113125505Y-91503204D01*
X113125505Y-91503204D01*
G37*
D11*
X112776000Y-92202000D03*
D10*
G36*
X115175505Y-91503204D02*
X115199773Y-91506804D01*
X115223572Y-91512765D01*
X115246671Y-91521030D01*
X115268850Y-91531520D01*
X115289893Y-91544132D01*
X115309599Y-91558747D01*
X115327777Y-91575223D01*
X115344253Y-91593401D01*
X115358868Y-91613107D01*
X115371480Y-91634150D01*
X115381970Y-91656329D01*
X115390235Y-91679428D01*
X115396196Y-91703227D01*
X115399796Y-91727495D01*
X115401000Y-91751999D01*
X115401000Y-92652001D01*
X115399796Y-92676505D01*
X115396196Y-92700773D01*
X115390235Y-92724572D01*
X115381970Y-92747671D01*
X115371480Y-92769850D01*
X115358868Y-92790893D01*
X115344253Y-92810599D01*
X115327777Y-92828777D01*
X115309599Y-92845253D01*
X115289893Y-92859868D01*
X115268850Y-92872480D01*
X115246671Y-92882970D01*
X115223572Y-92891235D01*
X115199773Y-92897196D01*
X115175505Y-92900796D01*
X115151001Y-92902000D01*
X114500999Y-92902000D01*
X114476495Y-92900796D01*
X114452227Y-92897196D01*
X114428428Y-92891235D01*
X114405329Y-92882970D01*
X114383150Y-92872480D01*
X114362107Y-92859868D01*
X114342401Y-92845253D01*
X114324223Y-92828777D01*
X114307747Y-92810599D01*
X114293132Y-92790893D01*
X114280520Y-92769850D01*
X114270030Y-92747671D01*
X114261765Y-92724572D01*
X114255804Y-92700773D01*
X114252204Y-92676505D01*
X114251000Y-92652001D01*
X114251000Y-91751999D01*
X114252204Y-91727495D01*
X114255804Y-91703227D01*
X114261765Y-91679428D01*
X114270030Y-91656329D01*
X114280520Y-91634150D01*
X114293132Y-91613107D01*
X114307747Y-91593401D01*
X114324223Y-91575223D01*
X114342401Y-91558747D01*
X114362107Y-91544132D01*
X114383150Y-91531520D01*
X114405329Y-91521030D01*
X114428428Y-91512765D01*
X114452227Y-91506804D01*
X114476495Y-91503204D01*
X114500999Y-91502000D01*
X115151001Y-91502000D01*
X115175505Y-91503204D01*
X115175505Y-91503204D01*
G37*
D11*
X114826000Y-92202000D03*
G04 #@! TD*
D12*
G04 #@! TO.C,U1*
X110815000Y-89061000D03*
X110815000Y-88411000D03*
X110815000Y-87761000D03*
X110815000Y-87111000D03*
X110815000Y-86461000D03*
X110815000Y-85811000D03*
X110815000Y-85161000D03*
X110815000Y-84511000D03*
X110815000Y-83861000D03*
X110815000Y-83211000D03*
X110815000Y-82561000D03*
X110815000Y-81911000D03*
X110815000Y-81261000D03*
X110815000Y-80611000D03*
X116515000Y-80611000D03*
X116515000Y-81261000D03*
X116515000Y-81911000D03*
X116515000Y-82561000D03*
X116515000Y-83211000D03*
X116515000Y-83861000D03*
X116515000Y-84511000D03*
X116515000Y-85161000D03*
X116515000Y-85811000D03*
X116515000Y-86461000D03*
X116515000Y-87111000D03*
X116515000Y-87761000D03*
X116515000Y-88411000D03*
X116515000Y-89061000D03*
G04 #@! TD*
M02*
